<svg width="375" height="288" viewBox="0 0 375 288" fill="none" xmlns="http://www.w3.org/2000/svg">
<rect width="375" height="288" fill="#E5E5E5"/>
<g clip-path="url(#clip0)">
<rect width="375" height="7001" fill="white"/>
<rect x="11.2139" y="228.707" width="422.896" height="97.1274" rx="10" transform="rotate(-74.5973 11.2139 228.707)" fill="url(#paint0_linear)"/>
<rect x="-32.2861" y="-8.35205" width="380.686" height="325.786" rx="10" transform="rotate(-23.187 -32.2861 -8.35205)" fill="url(#paint1_linear)"/>
<g clip-path="url(#clip1)">
<path d="M353.525 112.181C346.136 95.5409 317.644 105.493 317.644 105.493C317.644 105.493 302.415 138.933 296.727 140.552C291.04 142.171 304.143 109.421 304.143 109.421C292.794 110.058 266.295 128.211 266.295 128.211C266.295 128.211 273.578 163.376 267.677 163.535C261.777 163.694 262.813 132.086 262.813 132.086C252.448 137.022 244.262 151.221 244.262 151.221C234.773 173.779 264.275 184.793 264.275 184.793C264.275 184.793 266.534 197.027 261.112 212.288C261.112 212.288 259.81 215.154 258.747 219.851L261.697 219.4C261.803 218.577 261.963 217.755 262.149 216.985C262.149 216.985 262.149 216.985 262.149 216.959V216.932C262.282 216.454 262.468 215.738 262.707 214.888C263.345 212.978 263.744 211.571 263.983 210.589C265.843 204.618 268.634 196.789 271 194.878C271 194.878 270.601 194.48 270.149 193.63C270.415 194.029 270.707 194.453 271 194.878C277.75 204.936 303.372 202.84 317.033 197.771C330.694 192.702 323.943 189.676 315.332 184.395C306.721 179.113 291.066 183.254 285.963 181.449C280.86 179.644 287.345 176.061 296.887 175.318C306.402 174.602 312.568 183.28 328.01 182.378C343.452 181.475 350.628 151.141 350.628 151.141C340.634 156.024 320.913 153.131 319.638 149.628C318.362 146.125 346.296 142.197 350.468 140.446C354.668 138.667 360.914 128.821 353.525 112.181Z" fill="#DFEBFD" fill-opacity="0.25"/>
</g>
<g clip-path="url(#clip2)">
<path d="M278.778 102.917C278.733 100.069 277.696 97.2581 276.068 95.0748L276.104 95.0384C274.594 92.9642 272.566 91.4358 270.356 90.9082L194.665 73.0682C192.755 72.6133 190.999 72.9954 189.626 73.9961L185.115 77.5168L189.071 224.676C189.071 224.767 189.089 224.831 189.107 224.867C189.226 230.334 192.964 235.611 197.484 236.675L274.14 256.089L277.378 253.424C279.833 251.395 281.289 249.457 281.225 245.845L278.778 102.917Z" fill="#A7B2D9"/>
<path d="M224.816 137.851C224.816 137.851 185.169 233.928 185.215 228.297L184.687 77.3895L189.517 73.7687C190.927 72.7407 192.691 72.3495 194.61 72.8044L270.392 90.8718C272.612 91.3994 274.613 92.9642 276.077 95.0839L224.816 137.851Z" fill="#B1BDE6"/>
<path d="M268.428 257.508L192.909 239.614C188.371 238.54 184.805 233.173 184.714 227.687L182.258 84.0762C182.168 78.5904 185.669 75.0334 190.208 76.1069L265.681 94.0196C270.219 95.0931 273.739 100.47 273.839 105.955L276.295 249.566C276.386 255.052 272.957 258.582 268.428 257.508Z" fill="white"/>
<path d="M266.936 258.454L191.418 240.55C186.879 239.477 183.314 234.109 183.223 228.624L180.767 85.0127C180.676 79.527 184.178 75.9699 188.716 77.0434L264.189 94.9561C268.728 96.0296 272.248 101.406 272.348 106.892L274.804 250.503C274.885 255.998 271.466 259.528 266.936 258.454Z" fill="#1261BD"/>
<path d="M266.118 104.618C266.099 103.79 265.608 103.171 264.826 102.989L189.244 85.1677C187.552 84.7674 185.469 86.4868 185.506 88.2608L187.634 212.749L187.879 227.141C187.898 227.969 188.389 228.588 189.171 228.77L264.753 246.591C266.445 246.992 268.528 245.272 268.491 243.498L266.363 119.01L266.118 104.618Z" fill="#DEE8FF"/>
<path d="M262.216 117.818L171.935 96.4209L181.586 82.4746L271.866 103.872L262.216 117.818Z" fill="#6DC433"/>
<path d="M181.931 98.7862L171.935 96.4209L181.586 82.4746L191.59 84.849L181.931 98.7862Z" fill="white"/>
<path d="M202.005 103.544L192 101.178L201.659 87.2322L211.655 89.6066L202.005 103.544Z" fill="white"/>
<path d="M222.078 108.302L212.073 105.928L221.724 91.9905L231.728 94.3649L222.078 108.302Z" fill="white"/>
<path d="M242.142 113.06L232.138 110.685L241.797 96.7483L251.802 99.1136L242.142 113.06Z" fill="white"/>
<path d="M262.216 117.818L252.211 115.444L261.87 101.506L271.866 103.872L262.216 117.818Z" fill="white"/>
<path d="M262.371 128.626C258.896 132.474 252.466 130.545 252.211 126.215V115.444L262.189 117.836L262.371 128.626Z" fill="#F0F5FF"/>
<path d="M242.079 124.077C238.604 127.925 232.174 125.997 231.919 121.666V110.895L241.897 113.288L242.079 124.077Z" fill="#F0F5FF"/>
<path d="M222.114 119.319C218.64 123.167 212.21 121.238 211.955 116.908V106.137L221.933 108.529L222.114 119.319Z" fill="#F0F5FF"/>
<path d="M201.977 114.561C198.503 118.409 192.073 116.481 191.818 112.15V101.379L201.796 103.772L201.977 114.561Z" fill="#F0F5FF"/>
<path d="M182.577 109.558C179.103 113.406 172.672 111.477 172.418 107.147V96.3757L182.395 98.7683L182.577 109.558Z" fill="#F0F5FF"/>
<path d="M252.211 126.215C249.255 129.708 242.897 129.426 242.106 123.822L242.133 113.06L252.202 115.444L252.211 126.215Z" fill="#6DC433"/>
<path d="M232.074 121.457C229.118 124.95 222.76 124.668 221.969 119.064L221.996 108.302L232.065 110.685L232.074 121.457Z" fill="#6DC433"/>
<path d="M211.937 116.699C208.981 120.192 202.623 119.91 201.832 114.306L201.859 103.544L211.928 105.928L211.937 116.699Z" fill="#6DC433"/>
<path d="M192.181 111.941C189.225 115.435 182.877 115.153 182.086 109.549L182.113 98.7864L192.181 101.17V111.941Z" fill="#6DC433"/>
<path d="M171.999 96.2754L261.952 117.618" stroke="#6DC433" stroke-miterlimit="10" stroke-linecap="round" stroke-linejoin="round"/>
<path d="M221.878 151.633C221.878 151.633 217.912 169.428 230.227 164.197C237.495 161.104 234.439 151.833 234.439 151.833L221.878 151.633Z" fill="#2E4E94"/>
<path d="M223.242 151.642C223.242 151.642 220.959 163.778 228.144 162.132C232.574 161.122 226.907 147.157 226.907 147.157L223.242 151.642Z" fill="#27427A"/>
<path opacity="0.21" d="M240.041 267.653C240.367 263.677 233.339 259.856 224.343 259.117C215.347 258.378 207.79 261.002 207.463 264.978C207.137 268.954 214.165 272.776 223.161 273.514C232.157 274.253 239.714 271.629 240.041 267.653Z" fill="#8288D4"/>
<path d="M213.228 264.431L220.013 257.59C221.014 257.153 222.824 257.09 224.27 257.454C224.916 257.617 225.234 258.072 225.225 258.736L225.298 259.965C225.352 262.021 225.552 262.712 224.234 263.294L216.393 266.724C214.747 267.816 210.418 266.897 213.228 264.431Z" fill="#27427A"/>
<path d="M220.204 258.354C220.204 258.354 216.32 262.439 216.757 262.785C218.567 264.204 223.46 260.119 223.46 260.119C223.46 260.119 221.05 258.19 220.204 258.354Z" fill="#E37B7B"/>
<path d="M223.46 260.119C222.532 261.82 219.886 260.429 219.74 258.536C219.767 248.029 217.548 239.568 217.557 229.743C217.575 218.717 218.376 218.599 218.421 201.696L228.526 204.28C226.671 216.261 225.889 231.544 225.889 231.544C228.572 243.589 225.397 245.809 223.46 260.119Z" fill="#E37B7B"/>
<path d="M220.732 229.698C220.732 229.698 221.086 240.578 223.97 243.262C226.853 245.946 224.997 230.699 224.997 230.699L220.732 229.698Z" fill="#D67474"/>
<path d="M203.66 199.686C204.478 200.896 205.934 201.35 206.898 200.686L209.863 197.338C210.827 196.674 210.09 197.047 209.263 195.837C208.444 194.627 209.253 193.845 207.143 194.7L204.469 196.629C204.124 196.884 203.805 197.175 203.56 197.529C203.096 198.185 203.014 198.73 203.66 199.686Z" fill="#FFA9A8"/>
<path d="M218.721 167.026L216.393 179.399C216.393 179.399 212.8 189.933 206.197 194.337L210.39 196.856C215.238 192.854 218.812 192.69 221.25 186.331L223.978 163.96C222.432 163.078 219.176 165.298 218.721 167.026Z" fill="white"/>
<path d="M223.742 269.617L225.052 261.629C225.498 261.056 226.644 260.774 227.735 260.983C228.226 261.074 227.708 260.738 227.999 261.429L229.463 260.347C230.418 262.503 230.991 262.839 230.864 264.704C229.782 267.925 228.399 270.145 226.807 271.636C226.234 272.992 223.024 272.537 223.742 269.617Z" fill="#27427A"/>
<path d="M225.261 262.012C225.261 262.012 225.507 266.442 226.034 266.497C228.672 266.769 229.308 262.839 229.308 262.839C229.308 262.839 225.707 261.702 225.261 262.012Z" fill="#FFA9A8"/>
<path d="M229.272 263.067C228.326 264.905 225.434 263.931 225.261 262.012C225.179 251.231 223.633 244.636 223.551 234.556C223.46 223.239 228.063 222.802 227.944 205.453L238.477 207.018C236.667 219.509 231.746 235.011 231.746 235.011C234.648 247.074 231.146 248.193 229.272 263.067Z" fill="#FFA9A8"/>
<path d="M219.759 187.622C219.759 187.622 217.603 186.576 215.402 226.332C215.402 226.332 217.721 228.842 224.488 231.208C230.864 233.437 230.136 228.324 235.257 230.58C235.257 230.58 238.213 220.518 238.941 216.998C239.668 213.477 243.552 192.908 237.767 191.752C231.992 190.597 219.759 187.622 219.759 187.622Z" fill="#AEAECF"/>
<path d="M235.266 230.58C235.266 230.58 238.213 220.519 238.95 217.007C239.677 213.495 243.561 192.917 237.776 191.762C236.458 191.498 234.802 191.143 233.038 190.743C233.165 194.227 233.511 199.959 234.357 209.347C235.484 221.865 230.882 228.351 226.607 231.626C231.974 231.899 230.727 228.579 235.266 230.58Z" fill="#9A9AB5"/>
<path d="M221.45 168.773C221.45 168.773 221.96 159.448 227.053 159.839C227.762 159.894 228.99 159.293 229.809 159.375C234.056 159.794 233.456 159.785 236.485 161.131C237.631 161.641 238.195 165.043 237.949 166.298L239.65 170.174C232.583 172.039 226.134 172.467 221.45 168.773Z" fill="#FFA9A8"/>
<path d="M226.216 159.521C226.662 159.484 226.953 159.976 226.716 160.349C225.97 161.531 224.861 163.624 223.979 165.343C223.151 166.962 224.069 168.973 225.852 169.337C234.32 171.065 235.202 160.312 235.475 160.503L237.121 161.258C241.642 163.787 243.761 166.817 241.296 171.575C241.296 171.575 238.167 180.008 237.903 183.52C237.676 186.558 240.186 191.38 240.659 192.371C241.278 193.663 236.839 201.378 225.179 199.513C216.002 198.039 217.212 194.282 217.639 189.26C217.903 186.103 220.213 177.743 220.286 175.232C220.359 172.721 220.422 171.22 221.941 167.244C222.787 165.043 221.841 162.65 222.523 161.367C223.069 160.339 224.106 159.666 225.27 159.584L226.216 159.521Z" fill="#78CEFF"/>
<path d="M230.682 162.277L230.382 162.296C229.363 162.368 228.517 161.604 228.499 160.603L228.417 154.963C228.399 153.962 229.227 153.089 230.245 153.016L230.546 152.998C231.564 152.925 233.047 153.435 233.065 154.435L233.401 160.431C233.42 161.431 231.701 162.205 230.682 162.277Z" fill="#FFA9A8"/>
<path d="M230.346 146.402C229.045 145.238 227.672 145.374 226.735 146.539C225.398 146.393 224.215 147.54 223.752 149.696C223.115 152.707 224.034 156.901 225.934 158.602C226.762 159.348 227.69 159.284 228.508 159.057C229.272 158.848 230 158.465 230.646 157.974C232.956 156.209 233.129 156.582 233.547 154.581C234.184 151.579 232.247 148.104 230.346 146.402Z" fill="#FFA9A8"/>
<path d="M228.963 147.831C230.746 150.023 232.81 155.718 233.211 156.437C233.211 156.437 238.386 154.508 235.685 148.84C232.328 141.79 229.409 146.921 229.409 146.921L228.963 147.831Z" fill="#2E4E94"/>
<path d="M226.416 157.61C226.416 157.61 225.707 157.301 225.825 155.854L228.463 156.391C227.981 157.356 227.481 157.901 226.416 157.61Z" fill="white"/>
<path d="M237.258 161.04C237.258 161.04 236.785 163.214 234.839 165.898C231.855 170.019 230.573 177.752 230.509 184.129C230.446 190.506 229.827 204.143 229.827 204.143L227.562 226.95C227.562 226.95 235.83 228.169 239.204 223.175C242.588 218.18 241.514 195.655 240.259 191.334C239.013 187.013 242.77 175.596 242.77 175.596C242.77 175.596 243.97 168.045 243.015 165.588C242.06 163.141 237.258 161.04 237.258 161.04Z" fill="white"/>
<path d="M226.216 159.521C226.216 159.521 221.659 165.898 221.377 169.592C221.095 173.276 219.176 203.27 219.176 203.27L216.629 223.476C216.629 223.476 213.555 223.867 213.728 220.819C213.901 217.772 217.748 187.759 217.748 187.759L219.986 173.085C219.986 173.085 217.484 172.812 218.731 167.035C219.622 162.905 222.259 160.504 222.405 160.394C223.324 159.721 226.216 159.521 226.216 159.521Z" fill="white"/>
<path d="M228.336 159.111C228.336 159.111 230.819 158.429 232.72 156.282C232.72 156.282 230.737 160.494 228.499 160.612L228.336 159.111Z" fill="#E37B7B"/>
<path d="M233.211 156.427L231.183 166.307C233.829 169.063 236.922 163.387 238.295 161.403C239.787 159.238 238.195 154.908 236.503 150.787C233.657 143.836 233.456 149.613 233.456 149.613L233.211 156.427Z" fill="#2E4E94"/>
<path d="M234.266 154.783C234.657 153.744 234.356 152.669 233.594 152.382C232.833 152.096 231.899 152.706 231.508 153.746C231.117 154.785 231.418 155.86 232.18 156.146C232.941 156.432 233.876 155.822 234.266 154.783Z" fill="#FFA9A8"/>
<path d="M231.482 150.678C228.617 150.496 224.615 147.03 222.869 155.345C222.751 155.927 222.387 152.479 222.014 153.098C221.468 152.579 222.041 150.76 222.605 149.568C223.688 147.285 224.479 146.029 226.416 144.865L226.907 144.637C229.854 143.264 231.874 143.882 233.529 146.611C233.674 146.848 234.602 147.858 234.693 148.067H233.602C234.32 149.759 233.156 149.841 231.482 150.678Z" fill="#2E4E94"/>
<path d="M102.083 243.953L102.164 250.84L229.372 282.453L228.981 248.684L169.734 233.955L169.916 250.458L102.083 243.953Z" fill="#6178AD"/>
<path d="M253.266 264.477L252.593 232.163L228.981 248.684L229.372 282.453L253.266 264.477Z" fill="#5D73A6"/>
<path d="M154.836 180.527L131.079 199.022L229.445 223.466L253.82 205.135L154.836 180.527Z" fill="#EDF1FF"/>
<path d="M98.9541 218.208L99.2815 247.019L230.091 279.534L229.445 223.466L131.079 199.022L131.397 226.423L98.9541 218.208Z" fill="#A0B8ED"/>
<path d="M254.466 261.193L253.82 205.135L229.444 223.466L230.09 279.533L254.466 261.193Z" fill="#88A2DE"/>
<path d="M219.421 202.751C219.767 203.525 220.667 203.925 221.441 203.634L224.096 202.642C224.86 202.36 225.206 201.496 224.86 200.723C224.515 199.949 223.614 199.549 222.841 199.84L220.185 200.832C219.421 201.123 219.076 201.987 219.421 202.751Z" fill="#FFA9A8"/>
<path d="M243.015 165.589C243.015 165.589 248.199 187.313 244.016 192.471C240.15 197.238 224.861 202.833 224.861 202.833L223.66 199.886L236.094 188.514L236.767 167.699L243.015 165.589Z" fill="white"/>
<path d="M233.883 190.97C233.883 190.97 238.176 187.795 238.604 185.712C239.031 183.629 237.376 174.914 237.376 174.914" stroke="#DEE8FF" stroke-miterlimit="10" stroke-linecap="round" stroke-linejoin="round"/>
<path d="M209.017 213.058L212.973 210.457L202.695 207.882L200.749 211.23L209.017 213.058Z" fill="#6178AD"/>
<path d="M189.898 200.368L226.771 209.383L224.615 189.942L187.742 180.927L189.898 200.368Z" fill="#6178AD"/>
<path d="M200.749 211.23L209.016 213.058L209.508 196.765L201.249 194.936L200.749 211.23Z" fill="#98B2ED"/>
<path d="M209.508 196.765L211.454 205.48L209.253 205.098L209.508 196.765Z" fill="#4A5C85"/>
<path d="M224.615 189.942L226.216 189.269L228.189 208.492L226.77 209.383L224.615 189.942Z" fill="#98B2ED"/>
<path d="M226.216 189.269L189.025 180.19L187.742 180.927L224.615 189.942L226.216 189.269Z" fill="#98B2ED"/>
<path d="M98.9541 218.208L123.939 200.24L131.115 201.951L131.397 226.423L98.9541 218.208Z" fill="#DEE8FF"/>
<path d="M264.362 238.95C263.616 196.21 272.202 196.883 272.229 196.51L270.137 201.714C269.118 199.021 265.717 219.954 265.38 240.951L264.48 249.284L264.362 238.95Z" fill="#3C9326"/>
<path opacity="0.21" d="M280.79 270.684C280.796 268.388 275.398 266.512 268.732 266.493C262.066 266.474 256.657 268.321 256.651 270.617C256.645 272.913 262.043 274.789 268.709 274.808C275.375 274.827 280.784 272.98 280.79 270.684Z" fill="#8288D4"/>
<path d="M246.58 188.059C246.58 188.059 243.879 191.934 244.034 194.772C244.034 194.772 247.481 192.38 251.119 192.889C254.757 193.408 246.58 188.059 246.58 188.059Z" fill="#3C9326"/>
<path d="M266.053 274.83L263.033 274.82C257.24 274.802 252.565 269.844 252.583 263.74L252.692 251.022C252.719 255.871 276.649 255.698 276.613 250.849L276.576 263.813C276.558 269.908 271.847 274.839 266.053 274.83Z" fill="#A0B8ED"/>
<path d="M276.686 251.431L276.258 252.032C274.521 267.997 262.497 271.291 256.667 272.528C258.432 273.956 260.633 274.811 263.025 274.82L266.044 274.83C271.838 274.848 276.54 269.908 276.559 263.804L276.686 251.431Z" fill="#88A2DE"/>
<path d="M278.205 257.717C278.196 261.52 271.911 264.585 264.18 264.567C256.449 264.549 250.182 261.447 250.191 257.644C250.191 256.543 250.291 253.505 250.291 253.505C252.592 251.249 258.723 250.785 264.216 250.803C268.491 250.812 278.305 253.587 278.305 253.587C278.305 253.587 278.214 256.316 278.205 257.717Z" fill="#ACC6FF"/>
<path d="M278.333 253.573C278.344 249.528 272.082 246.232 264.346 246.21C256.611 246.189 250.33 249.45 250.319 253.494C250.308 257.539 256.57 260.835 264.305 260.857C272.041 260.879 278.321 257.617 278.333 253.573Z" fill="#DEE8FF"/>
<path d="M274.629 253.545C274.638 250.52 269.954 248.055 264.167 248.039C258.38 248.023 253.682 250.461 253.674 253.486C253.665 256.511 258.349 258.976 264.136 258.992C269.923 259.008 274.621 256.569 274.629 253.545Z" fill="#27427A"/>
<path d="M264.535 242.98C266.59 216.051 258.695 199.176 258.768 198.439L257.368 198.466C257.368 198.466 264.771 212.849 263.37 253.533L264.707 253.505L264.535 242.98Z" fill="#6DC433"/>
<path d="M264.471 249.275C266.426 219.727 274.785 226.632 274.785 226.632L274.239 227.56C274.239 227.56 271.638 226.377 270.092 229.161C268.546 231.945 264.716 253.506 264.716 253.506L263.962 253.233L264.471 249.275Z" fill="#6DC433"/>
<path d="M245.816 226.95C245.816 226.95 244.861 229.697 245.862 232.445C245.862 232.445 250.391 224.648 256.894 223.238C263.398 221.828 256.24 218.626 256.24 218.626L245.816 226.95Z" fill="#3C9326"/>
<path d="M266.799 205.389C266.799 205.389 272.62 201.623 275.858 201.623C279.096 201.623 272.093 195.837 269.182 198.075C266.262 200.304 266.799 205.389 266.799 205.389Z" fill="#3C9326"/>
<path d="M260.296 201.869C260.005 202.924 258.704 203.306 258.077 202.524C255.939 199.849 251.974 195.109 249.191 193.09C244.688 189.806 245.461 185.393 252.101 184.666C258.741 183.938 264.543 186.349 262.06 195.4L260.296 201.869Z" fill="#6DC433"/>
<path d="M272.293 226.631C272.293 226.631 270.055 231.471 275.958 233.218C284.735 235.829 289.083 246.209 289.083 246.209C289.083 246.209 289.492 238.558 287.991 233C286.509 227.477 284.926 223.62 281.452 222.51C277.977 221.4 274.785 221.346 272.293 226.631Z" fill="#6DC433"/>
<path d="M267.272 200.941C267.272 200.941 269.073 191.525 279.714 196.065C286.245 198.858 285.372 210.948 285.372 210.948C281.924 201.751 271.674 199.722 267.272 200.941Z" fill="#6DC433"/>
<path d="M262.87 226.095C260.878 224.148 255.157 220.2 245.816 226.95C245.816 226.95 246.844 218.535 254.793 216.661C262.297 214.887 263.552 218.726 263.652 225.695C263.661 226.122 263.161 226.377 262.87 226.095Z" fill="#6DC433"/>
<path d="M264.18 234.619C264.18 234.619 259.887 228.761 254.775 236.757C249.664 244.763 246.917 247.756 246.917 247.756C246.917 247.756 258.914 247.592 261.697 244.035C264.48 240.478 266.399 236.057 264.18 234.619Z" fill="#6DC433"/>
<path d="M253.82 205.135L253.902 211.876L229.526 230.044L229.444 223.466L253.82 205.135Z" fill="#A8BAE6"/>
<path d="M229.527 230.044L229.445 223.466L131.079 199.022L131.161 205.845L229.527 230.044Z" fill="#D1DAF0"/>
<path d="M107.958 213.587C107.103 213.204 106.667 212.204 106.976 211.358L107.731 206.8C108.04 205.954 109.323 207.2 110.168 207.573C111.023 207.955 111.46 208.956 111.151 209.802L110.068 212.741C109.759 213.587 108.813 213.96 107.958 213.587Z" fill="#FFA9A8"/>
<path opacity="0.21" d="M137.589 268.999C137.72 265.123 130.741 261.741 122.001 261.445C113.26 261.15 106.069 264.053 105.938 267.93C105.807 271.806 112.786 275.188 121.526 275.483C130.266 275.779 137.458 272.876 137.589 268.999Z" fill="#8288D4"/>
<path d="M110.35 262.985L113.715 264.714C116.152 265.042 117.362 264.878 118.19 266.179L118.426 266.552C118.745 267.38 118.326 268.426 117.444 268.589L110.904 269.909C109.613 269.9 107.503 268.644 107.448 267.17C107.448 267.17 108.039 263.349 108.631 263.368C109.804 263.395 109.322 262.976 110.35 262.985Z" fill="#27427A"/>
<path d="M112.86 265.069C112.497 266.852 108.158 265.969 108.522 264.186L109.704 258.382L114.043 259.265L112.86 265.069Z" fill="white"/>
<path d="M128.159 267.197L132.57 268.08C135.69 267.798 137.218 267.316 138.373 268.416L138.7 268.726C139.164 269.481 138.7 270.636 137.591 271.027L129.35 274.011C127.713 274.33 125.876 273.693 125.703 272.228C125.703 272.228 125.239 268.143 125.994 268.016C127.495 267.752 126.849 267.452 128.159 267.197Z" fill="#27427A"/>
<path d="M130.296 269.344C130.214 271.163 125.785 270.963 125.876 269.144L126.149 263.23L130.569 263.431L130.296 269.344Z" fill="white"/>
<path d="M132.37 163.66C131.833 167.081 128.45 168.718 126.103 166.817C123.757 164.924 122.283 160.612 122.82 157.192C123.357 153.771 125.694 152.534 128.041 154.435C130.387 156.337 132.907 160.239 132.37 163.66Z" fill="#FFA9A8"/>
<path d="M124.484 173.913L124.13 173.822C122.929 173.531 122.192 172.312 122.483 171.111L124.139 164.361C124.43 163.16 125.649 162.423 126.849 162.714L127.204 162.805C128.404 163.096 129.141 164.315 128.85 165.516L128.213 172.239C127.913 173.44 125.676 174.213 124.484 173.913Z" fill="#FFA9A8"/>
<path d="M120.282 163.788C120.874 166.107 123.147 167.636 125.503 167.226C125.539 167.217 125.567 167.217 125.603 167.208C128.777 166.617 126.531 161.95 129.614 160.967C133.78 159.639 132.725 155.591 131.142 154.108C129.56 152.625 127.259 153.071 124.421 153.635C121.647 154.199 118.336 156.191 120.282 163.788Z" fill="#27427A"/>
<path d="M129.07 163.811C129.902 163.703 130.488 162.941 130.38 162.109C130.271 161.277 129.509 160.69 128.677 160.798C127.845 160.907 127.259 161.669 127.367 162.501C127.476 163.333 128.238 163.92 129.07 163.811Z" fill="#FFA9A8"/>
<path d="M129.296 163.415C129.014 163.415 128.786 163.188 128.786 162.906L128.304 159.585C128.304 159.303 128.996 159.558 129.278 159.558C129.56 159.558 130.378 159.403 130.378 159.685L129.805 162.896C129.805 163.178 129.578 163.415 129.296 163.415Z" fill="#27427A"/>
<path d="M149.26 177.206L143.239 175.359C142.884 175.25 142.657 174.832 142.739 174.413L144.794 163.478C144.876 163.06 145.231 162.805 145.585 162.914L151.552 164.679C151.907 164.788 152.134 165.207 152.052 165.625L149.997 176.506C149.942 176.779 149.824 176.851 149.596 176.997L149.26 177.206Z" fill="#CEDAED"/>
<path d="M146.995 167.59C146.995 167.59 142.657 174.832 142.73 174.413L144.703 163.151L145.158 162.951C145.286 162.878 145.44 162.86 145.586 162.905L151.552 164.67C151.725 164.725 151.871 164.852 151.962 165.016L146.995 167.59Z" fill="#CEDAED"/>
<path d="M148.732 177.316L142.784 175.551C142.429 175.441 142.22 175.014 142.293 174.595L144.358 163.66C144.439 163.242 144.785 162.987 145.14 163.096L151.088 164.861C151.443 164.97 151.652 165.398 151.57 165.816L149.505 176.751C149.424 177.179 149.087 177.425 148.732 177.316Z" fill="#27427A"/>
<path d="M149.041 175.523L143.184 173.794L144.976 164.151L150.797 165.871L148.896 175.305C148.887 175.395 149.123 175.55 149.041 175.523Z" fill="#F5F9FF"/>
<path d="M149.278 172.621C149.405 172.958 149.178 173.886 149.205 174.422C149.278 175.869 149.614 177.215 149.614 177.215C149.614 177.215 148.723 178.462 147.813 177.516C146.904 176.579 147.877 174.386 147.877 174.386L148.477 171.793C148.477 171.802 148.814 171.375 149.278 172.621Z" fill="#FFA9A8"/>
<path d="M152.962 173.449C152.916 172.967 152.871 172.412 152.871 172.412C152.825 172.03 152.47 171.493 152.098 171.011C151.752 170.565 151.033 170.774 150.979 171.339C150.979 171.348 150.797 172.23 150.651 172.931C149.805 173.795 149.114 174.304 149.123 174.932L148.614 175.323C148.541 175.378 148.505 175.469 148.514 175.56L148.841 178.28C148.869 178.507 149.142 178.598 149.287 178.444C149.451 178.271 149.669 178.016 149.924 177.707L150.333 178.553C150.333 178.553 152.07 175.878 152.652 174.677C152.661 174.659 152.671 174.641 152.68 174.623C152.898 174.268 152.998 173.859 152.962 173.449Z" fill="#FFA9A8"/>
<path d="M148.005 176.851L146.322 179.79L150.015 181.6L151.179 177.224L148.005 176.851Z" fill="#FFA9A8"/>
<path d="M145.922 194.337C148.014 188.623 148.532 188.314 151.097 180.199L145.913 178.052C143.839 184.375 142.002 186.194 139.309 191.571C138.527 193.108 138.955 194.973 140.31 196.029C142.265 197.557 145.139 196.684 145.922 194.337Z" fill="#1261BD"/>
<path d="M141.693 186.486L142.957 189.006L143.493 183.938L141.693 186.486Z" fill="#1261BD"/>
<path d="M113.27 174.768L107.622 187.532C106.712 189.269 107.131 192.217 107.112 194.182L107.049 207.792L111.997 208.019C111.997 208.019 112.57 202.16 113.124 196.183C113.861 188.305 124.048 179.362 124.057 179.217C124.075 178.962 113.27 174.768 113.27 174.768Z" fill="#1261BD"/>
<path d="M117.062 205.754L114.925 205.927L113.87 212.732C113.588 214.105 113.661 215.524 114.07 216.862C113.934 220.719 114.579 227.588 113.106 234.056C113.106 234.056 110.777 238.05 110.295 244.481C110.086 247.274 108.94 259.965 108.94 259.965C108.94 259.965 111.396 262.431 114.889 262.13L121.737 235.866L126.412 210.366L117.062 205.754Z" fill="#27427A"/>
<path d="M122.019 236.749L124.03 221.31L118.245 218.126C118.245 218.126 120.037 222.093 121.137 223.512C121.428 225.222 120.2 227.478 120.31 229.489C119.764 231.072 112.606 261.966 112.606 261.966C113.124 261.921 114.216 262.339 114.861 262.139L118.863 248.138L120.61 241.643L122.019 236.749Z" fill="#223A6B"/>
<path d="M123.275 207.209L124.885 237.449C124.885 237.449 123.329 245.637 124.93 264.614C126.622 265.924 130.142 266.415 132.015 265.342C132.015 265.342 134.844 241.552 134.789 240.724L135.654 207.228L123.275 207.209Z" fill="#27427A"/>
<path d="M138.573 182.983C140.419 177.406 128.959 171.884 128.959 171.884L122.565 170.037L116.408 171.693C112.388 173.321 112.206 178.325 112.406 180.863C112.406 180.909 113.943 190.334 113.934 195.082C113.934 196.756 113.234 208.164 113.443 208.892C114.061 211.003 135.817 214.433 137.109 208.301C137.109 208.301 135.09 195.092 136.699 189.633C137.536 186.822 138.091 184.448 138.573 182.983Z" fill="#1261BD"/>
<path d="M143.43 197.348L142.793 197.666C141.156 198.485 139.155 197.821 138.327 196.192L131.242 182.073C130.423 180.436 131.087 178.434 132.715 177.606L133.352 177.288C134.989 176.469 136.99 177.133 137.818 178.762L144.921 192.89C145.731 194.518 145.067 196.529 143.43 197.348Z" fill="#1261BD"/>
<path d="M122.847 168.736L127.358 169.946C128.613 170.283 129.732 170.992 130.569 171.975L131.897 173.54C130.951 173.194 130.06 172.966 129.268 172.948C125.212 172.53 121.992 171.847 120.637 170.547C120.773 169.819 121.519 168.636 122.847 168.736Z" fill="white"/>
<path d="M133.798 184.429C133.37 185.712 132.597 183.602 132.415 185.958C132.388 186.294 132.461 190.47 132.452 190.834C132.433 193.454 133.87 196.729 133.843 199.195C133.798 204.398 132.051 210.675 131.251 211.221C134.716 210.848 137.099 210.302 137.117 208.292C137.117 208.292 136.09 194.036 136.708 187.905L133.798 184.429Z" fill="#1261BD"/>
<path d="M144.585 196.029C142.948 196.847 140.947 196.183 140.119 194.555L134.098 182.564L132.633 184.848L138.336 196.192C139.155 197.83 141.165 198.494 142.802 197.666L143.439 197.348C144.103 197.011 144.603 196.483 144.912 195.865L144.585 196.029Z" fill="#1261BD"/>
<path d="M162.221 188.923L147.523 198.485L160.066 201.833L174.755 192.262L162.221 188.923Z" fill="#D1DAF0"/>
<path d="M159.847 200.759L147.314 197.411L162.012 187.841L174.545 191.189L159.847 200.759Z" fill="white"/>
<path d="M161.312 190.807L168.697 192.835" stroke="#2E4E94" stroke-width="0.9288" stroke-miterlimit="10" stroke-linecap="round" stroke-linejoin="round"/>
<path d="M157.937 192.744L165.323 194.782" stroke="#2E4E94" stroke-width="0.9288" stroke-miterlimit="10" stroke-linecap="round" stroke-linejoin="round"/>
<path d="M154.818 194.801L162.212 196.829" stroke="#2E4E94" stroke-width="0.9288" stroke-miterlimit="10" stroke-linecap="round" stroke-linejoin="round"/>
<path d="M151.989 196.565L154.453 197.193" stroke="#2E4E94" stroke-width="0.9288" stroke-miterlimit="10" stroke-linecap="round" stroke-linejoin="round"/>
<path d="M174.155 206.063L169.552 204.808C168.979 204.653 168.943 204.225 169.48 203.862L176.374 199.213C176.911 198.849 177.829 198.676 178.402 198.84L183.004 200.095C183.577 200.25 183.614 200.678 183.077 201.041L176.183 205.69C175.646 206.054 174.737 206.218 174.155 206.063Z" fill="#BAC7F2"/>
<path d="M182.595 200.523C182.586 200.523 182.595 200.523 182.595 200.523L182.586 200.104L182.295 200.186C182.249 200.168 182.195 200.141 182.131 200.132L177.529 198.876C176.956 198.722 176.037 198.885 175.501 199.249L168.606 203.898L168.215 204.007L168.224 204.453C168.233 204.626 168.388 204.771 168.679 204.853L173.281 206.109C173.854 206.263 174.773 206.1 175.31 205.736L182.204 201.087C182.449 200.914 182.577 200.732 182.586 200.577L182.595 200.523Z" fill="#2B65E0"/>
<path d="M173.283 205.681L168.68 204.425C168.107 204.271 168.071 203.843 168.608 203.479L175.502 198.831C176.039 198.467 176.957 198.294 177.53 198.458L182.132 199.713C182.705 199.868 182.742 200.295 182.205 200.659L175.311 205.308C174.774 205.672 173.856 205.845 173.283 205.681Z" fill="#3071FF"/>
<path d="M170.862 205.026L179.575 199.058" stroke="#2B65E0" stroke-width="1.6825" stroke-miterlimit="10" stroke-linecap="round" stroke-linejoin="round"/>
<path d="M181.594 200.314C181.603 200.605 181.158 200.851 180.594 200.869C180.03 200.887 179.566 200.669 179.557 200.377C179.548 200.086 179.993 199.841 180.557 199.823C181.13 199.813 181.585 200.032 181.594 200.314Z" fill="#2B65E0"/>
<path d="M180.391 200.737C180.953 200.72 181.402 200.473 181.393 200.187C181.384 199.901 180.921 199.683 180.358 199.701C179.796 199.718 179.347 199.964 179.356 200.251C179.365 200.537 179.828 200.755 180.391 200.737Z" fill="white"/>
<path d="M179.402 201.787C179.411 202.078 178.966 202.324 178.402 202.342C177.838 202.36 177.374 202.142 177.365 201.851C177.356 201.56 177.801 201.314 178.365 201.296C178.929 201.278 179.393 201.496 179.402 201.787Z" fill="#2B65E0"/>
<path d="M179.193 201.66C179.202 201.951 178.756 202.197 178.193 202.215C177.629 202.233 177.165 202.015 177.156 201.723C177.147 201.432 177.592 201.187 178.156 201.169C178.72 201.15 179.184 201.369 179.193 201.66Z" fill="white"/>
<path d="M177.21 203.252C177.219 203.543 176.773 203.789 176.209 203.807C175.645 203.825 175.182 203.607 175.172 203.316C175.163 203.024 175.609 202.779 176.173 202.761C176.737 202.742 177.201 202.961 177.21 203.252Z" fill="#2B65E0"/>
<path d="M177.001 203.125C177.01 203.416 176.564 203.662 176 203.68C175.436 203.698 174.973 203.48 174.963 203.189C174.954 202.897 175.4 202.652 175.964 202.634C176.528 202.624 176.992 202.843 177.001 203.125Z" fill="white"/>
<path d="M175.009 204.717C175.018 205.008 174.572 205.253 174.009 205.272C173.445 205.29 172.981 205.071 172.972 204.78C172.963 204.489 173.408 204.244 173.972 204.225C174.536 204.216 175 204.435 175.009 204.717Z" fill="#2B65E0"/>
<path d="M174.809 204.599C174.818 204.89 174.372 205.135 173.808 205.153C173.245 205.172 172.781 204.953 172.772 204.662C172.763 204.371 173.208 204.125 173.772 204.107C174.336 204.089 174.8 204.307 174.809 204.599Z" fill="white"/>
<path d="M178.475 199.276C178.484 199.567 178.038 199.813 177.475 199.831C176.911 199.849 176.447 199.631 176.438 199.34C176.429 199.049 176.874 198.803 177.438 198.785C178.002 198.776 178.466 198.994 178.475 199.276Z" fill="#2B65E0"/>
<path d="M178.266 199.149C178.275 199.44 177.829 199.686 177.265 199.704C176.701 199.722 176.238 199.504 176.228 199.212C176.219 198.921 176.665 198.676 177.229 198.658C177.793 198.648 178.257 198.867 178.266 199.149Z" fill="white"/>
<path d="M176.283 200.75C176.292 201.041 175.846 201.287 175.282 201.305C174.719 201.323 174.255 201.105 174.246 200.814C174.236 200.522 174.682 200.277 175.246 200.259C175.81 200.24 176.274 200.459 176.283 200.75Z" fill="#2B65E0"/>
<path d="M176.074 200.622C176.083 200.914 175.637 201.159 175.073 201.177C174.51 201.196 174.046 200.977 174.037 200.686C174.027 200.395 174.473 200.149 175.037 200.131C175.601 200.113 176.065 200.331 176.074 200.622Z" fill="white"/>
<path d="M174.082 202.215C174.091 202.506 173.645 202.752 173.081 202.77C172.517 202.788 172.053 202.57 172.044 202.279C172.035 201.988 172.481 201.742 173.045 201.724C173.609 201.706 174.072 201.924 174.082 202.215Z" fill="#2B65E0"/>
<path d="M173.873 202.087C173.882 202.379 173.436 202.624 172.872 202.642C172.308 202.661 171.844 202.442 171.835 202.151C171.826 201.86 172.272 201.614 172.836 201.596C173.4 201.587 173.863 201.805 173.873 202.087Z" fill="white"/>
<path d="M171.89 203.679C171.899 203.97 171.453 204.216 170.889 204.234C170.325 204.252 169.861 204.034 169.852 203.743C169.843 203.452 170.289 203.206 170.853 203.188C171.417 203.179 171.881 203.397 171.89 203.679Z" fill="#2B65E0"/>
<path d="M171.681 203.561C171.69 203.852 171.244 204.098 170.68 204.116C170.116 204.134 169.652 203.916 169.643 203.625C169.634 203.333 170.08 203.088 170.644 203.07C171.208 203.051 171.672 203.27 171.681 203.561Z" fill="white"/>
<path d="M209.181 266.888L189.999 261.966L189.762 241.879L208.953 246.801L209.181 266.888Z" fill="#D1DAF0"/>
<path d="M212.391 245.036L184.605 238.349C183.614 238.113 182.795 237.085 182.777 236.075C182.768 235.065 183.568 234.428 184.559 234.665L212.346 241.351C213.337 241.588 214.156 242.616 214.174 243.626C214.183 244.636 213.383 245.272 212.391 245.036Z" fill="#88A2DE"/>
<path d="M192.618 244.026C191.79 244.017 191.108 243.326 191.099 242.498L191.035 236.812C191.026 235.984 191.69 235.32 192.518 235.338C193.345 235.348 194.027 236.039 194.036 236.867L194.1 242.553C194.109 243.381 193.436 244.045 192.618 244.026Z" fill="#D1DAF0"/>
<path d="M205.451 247.31C204.623 247.301 203.941 246.609 203.932 245.782L203.868 240.096C203.859 239.268 204.523 238.604 205.351 238.622C206.179 238.631 206.861 239.322 206.87 240.15L206.934 245.836C206.943 246.664 206.279 247.328 205.451 247.31Z" fill="#D1DAF0"/>
<path opacity="0.4" d="M182.267 179.171L182.085 163.942C169.397 155.099 156.227 161.067 156.173 147.412L183.322 128.207L183.222 114.661L201.422 128.471L201.531 160.512C201.804 165.097 196.902 175.414 182.267 179.171Z" fill="#A8AAE5"/>
<path d="M174.045 180.362C161.348 171.52 151.916 161.021 151.862 147.375L149.369 116.335L151.752 115.334L174.391 111.195L197.111 128.435L197.466 158.883C197.729 163.469 188.679 176.605 174.045 180.362Z" fill="#1261BD"/>
<path d="M171.662 181.354C158.974 172.511 149.533 162.022 149.488 148.367L149.379 116.326L172.017 112.187L194.728 129.435L195.083 159.884C195.356 164.469 186.306 177.606 171.662 181.354Z" fill="#78CEFF"/>
<path d="M171.162 119.401L153.053 122.712L153.144 148.331C153.181 159.247 161.321 166.107 169.907 174.558C180.921 170.073 188.061 161.731 188.907 156.391L188.289 132.392L171.162 119.401Z" fill="white"/>
<path d="M174.155 159.62L165.005 157.028L164.786 130.145L173.945 132.747L174.155 159.62Z" fill="#78CEFF"/>
<path d="M157.246 146.348L157.164 136.304L181.695 143.255L181.776 153.298L157.246 146.348Z" fill="#78CEFF"/>
<path d="M171.162 119.401L153.053 122.712L153.144 148.331C153.181 159.247 161.321 166.107 169.907 174.558C180.921 170.073 188.061 161.731 188.907 156.391L188.289 132.392L171.162 119.401Z" stroke="#2E4E94" stroke-miterlimit="10" stroke-linecap="round" stroke-linejoin="round"/>
<path d="M181.96 197.435C184.104 197.223 185.767 196.293 185.675 195.358C185.582 194.423 183.769 193.837 181.625 194.05C179.48 194.262 177.817 195.192 177.909 196.127C178.002 197.062 179.815 197.648 181.96 197.435Z" fill="#BAC7F2"/>
<path d="M183.395 185.23C183.332 183.219 181.267 181.664 178.766 181.755C176.274 181.846 174.3 183.547 174.355 185.548L174.627 194.527H174.646C174.637 194.628 174.637 194.737 174.637 194.846C174.7 196.856 176.756 197.866 179.248 197.784C181.74 197.693 183.732 196.538 183.668 194.527C183.659 194.373 183.65 194.227 183.623 194.082C183.632 194.082 183.404 185.385 183.395 185.23Z" fill="#78CEFF"/>
<path d="M183.632 194.045C183.632 194.045 183.405 185.348 183.405 185.193C183.35 183.446 181.786 182.045 179.739 181.763C179.939 182.164 180.067 182.591 180.076 183.046C180.085 183.201 180.303 191.898 180.303 191.898C180.33 192.043 180.349 192.198 180.349 192.344C180.412 194.354 178.42 195.51 175.928 195.601C175.528 195.619 175.146 195.601 174.773 195.555C175.264 197.065 177.092 197.82 179.257 197.738C181.749 197.647 183.741 196.492 183.677 194.482C183.668 194.345 183.659 194.19 183.632 194.045Z" fill="#65BEE5"/>
<path d="M181.003 180.535L176.483 180.699L176.528 182.164C176.546 182.801 177.574 183.274 178.82 183.228C179.011 183.219 179.202 183.201 179.384 183.174C179.457 183.165 179.53 183.146 179.593 183.128C179.73 183.101 179.866 183.064 179.984 183.019C180.039 183.001 180.094 182.983 180.139 182.964C180.203 182.937 180.266 182.91 180.33 182.883C180.357 182.873 180.385 182.855 180.412 182.846C180.485 182.801 180.557 182.764 180.621 182.71C180.648 182.691 180.667 182.673 180.694 182.655C180.767 182.591 180.83 182.528 180.885 182.464C180.994 182.318 181.058 182.173 181.049 182.009L181.003 180.535Z" fill="#253F75"/>
<path d="M181.012 180.636C181.03 181.218 180.03 181.718 178.784 181.764C177.538 181.809 176.51 181.372 176.492 180.799C176.474 180.217 177.474 179.717 178.72 179.671C179.966 179.626 180.994 180.053 181.012 180.636Z" fill="#2C4A8A"/>
<path d="M226.671 154.189C226.887 154.189 227.062 153.9 227.062 153.543C227.062 153.187 226.887 152.897 226.671 152.897C226.455 152.897 226.28 153.187 226.28 153.543C226.28 153.9 226.455 154.189 226.671 154.189Z" fill="#2E4E94"/>
<path d="M228.399 154.526C228.615 154.526 228.79 154.237 228.79 153.88C228.79 153.524 228.615 153.234 228.399 153.234C228.183 153.234 228.008 153.524 228.008 153.88C228.008 154.237 228.183 154.526 228.399 154.526Z" fill="#2E4E94"/>
</g>
</g>
<defs>
<linearGradient id="paint0_linear" x1="-24.0274" y1="228.706" x2="437.134" y2="246.226" gradientUnits="userSpaceOnUse">
<stop stop-color="#1261BD"/>
</linearGradient>
<linearGradient id="paint1_linear" x1="-64.01" y1="-8.35251" x2="351.678" y2="-4.11441" gradientUnits="userSpaceOnUse">
<stop stop-color="#6DC433"/>
<stop offset="1" stop-color="#3C9326"/>
</linearGradient>
<clipPath id="clip0">
<rect width="375" height="7001" fill="white"/>
</clipPath>
<clipPath id="clip1">
<rect width="114.552" height="117.304" fill="white" transform="translate(242.402 92.9089)"/>
</clipPath>
<clipPath id="clip2">
<rect width="210.184" height="209.84" fill="white" transform="translate(98.9541 72.6133)"/>
</clipPath>
</defs>
</svg>
