<svg width="926" height="720" viewBox="0 0 926 720" fill="none" xmlns="http://www.w3.org/2000/svg">
<rect width="926" height="720" fill="#E5E5E5"/>
<g clip-path="url(#clip0)">
<path d="M926 0H-514V4522H926V0Z" fill="white"/>
<path d="M166.468 571.97L1130.2 336.395C1151.66 331.149 1164.81 309.501 1159.56 288.041L1059.05 -123.166C1053.8 -144.626 1032.15 -157.77 1010.69 -152.524L46.9571 83.0508C25.4975 88.2964 12.3535 109.945 17.599 131.405L118.114 542.612C123.36 564.072 145.009 577.216 166.468 571.97Z" fill="url(#paint0_linear)"/>
<path d="M1174.75 85.7688L256.928 -244.101C236.138 -251.573 213.228 -240.777 205.756 -219.987L2.93837 344.328C-4.53346 365.117 6.26259 388.027 27.052 395.499L944.873 725.369C965.663 732.841 988.573 722.045 996.045 701.255L1198.86 136.94C1206.33 116.151 1195.54 93.2406 1174.75 85.7688Z" fill="url(#paint1_linear)"/>
<path d="M871.03 206.024C849.55 157.652 766.73 186.583 766.73 186.583C766.73 186.583 722.46 283.791 705.92 288.497C689.39 293.203 727.48 198.001 727.48 198.001C694.49 199.852 617.46 252.622 617.46 252.622C617.46 252.622 638.63 354.845 621.48 355.308C604.32 355.771 607.34 263.886 607.34 263.886C577.2 278.236 553.41 319.511 553.41 319.511C525.82 385.088 611.59 417.105 611.59 417.105C611.59 417.105 618.15 452.671 602.39 497.031C602.39 497.031 598.61 505.364 595.52 519.019L604.09 517.707C604.4 515.316 604.86 512.924 605.4 510.687C605.4 510.687 605.4 510.687 605.4 510.61V510.533C605.79 509.144 606.33 507.061 607.03 504.592C608.88 499.037 610.04 494.948 610.74 492.094C616.14 474.735 624.26 451.976 631.13 446.422C631.13 446.422 629.97 445.264 628.66 442.796C629.43 443.953 630.28 445.187 631.13 446.422C650.76 475.661 725.24 469.566 764.95 454.831C804.66 440.095 785.04 431.3 760.01 415.948C734.97 400.595 689.47 412.63 674.63 407.384C659.8 402.138 678.65 391.723 706.39 389.562C734.05 387.479 751.97 412.707 796.86 410.084C841.75 407.461 862.61 319.279 862.61 319.279C833.56 333.475 776.23 325.066 772.52 314.882C768.81 304.698 850.02 293.28 862.15 288.188C874.35 283.019 892.51 254.397 871.03 206.024Z" fill="#DFEBFD" fill-opacity="0.25"/>
<path d="M328.029 278.303C348.861 248.183 401.351 278.602 401.351 278.602C401.351 278.602 418.785 350.464 429.388 355.808C439.99 361.152 426.476 291.457 426.476 291.457C448.726 297.026 494.12 342.878 494.12 342.878C494.12 342.878 466.497 409.658 478.07 412.237C489.64 414.815 499.54 351.847 499.54 351.847C518.13 365.487 528.92 396.691 528.92 396.691C539.15 444.898 476.763 455.511 476.763 455.511C476.763 455.511 467.691 478.867 472.619 511.117C472.619 511.117 474.113 517.283 474.449 526.962L468.774 524.944C468.849 523.263 468.849 521.618 468.811 519.974V519.937C468.811 519.899 468.811 519.899 468.811 519.862C468.737 518.853 468.625 517.396 468.475 515.639C467.953 511.641 467.654 508.688 467.579 506.633C467.579 506.633 467.579 506.633 467.579 506.596C466.161 494.077 463.622 477.559 459.665 472.851C459.665 472.851 460.598 472.178 461.793 470.683C461.121 471.393 460.411 472.103 459.665 472.851C442.566 490.228 392.802 476.401 367.714 461.229C342.664 446.057 357.149 442.619 376.114 435.406C395.079 428.194 424.423 442.32 435.174 440.675C445.926 439.031 434.465 429.464 415.948 424.457C397.431 419.412 382.012 434.248 351.885 426.662C321.72 419.113 319.032 356.406 319.032 356.406C336.914 369.822 376.935 371.541 380.78 365.076C384.626 358.611 331.016 340.337 323.437 335.292C315.821 330.247 307.16 308.423 328.029 278.303Z" fill="#CDE0FB" fill-opacity="0.25"/>
<path d="M653.74 179.091C653.61 170.814 650.6 162.642 645.86 156.295L645.97 156.189C641.58 150.16 635.69 145.717 629.26 144.183L409.227 92.3225C403.675 91.0002 398.572 92.1109 394.58 95.0199L381.465 105.254L392.967 533.042C392.967 533.307 393.02 533.492 393.072 533.598C393.416 549.492 404.283 564.83 417.424 567.925L640.26 624.36L649.67 616.611C656.81 610.714 661.04 605.081 660.86 594.582L653.74 179.091Z" fill="#A7B2D9"/>
<path d="M496.88 280.643C496.88 280.643 381.623 559.938 381.756 543.568L380.222 104.884L394.262 94.3587C398.36 91.3703 403.489 90.2331 409.068 91.5554L629.37 144.077C635.82 145.611 641.63 150.159 645.89 156.321L496.88 280.643Z" fill="#B1BDE6"/>
<path d="M623.65 628.485L404.124 576.466C390.931 573.346 380.566 557.743 380.302 541.796L373.163 124.322C372.899 108.375 383.078 98.0345 396.272 101.155L615.67 153.227C628.86 156.348 639.1 171.977 639.39 187.924L646.53 605.398C646.79 621.345 636.82 631.606 623.65 628.485Z" fill="white"/>
<path d="M619.32 631.236L399.788 579.19C386.594 576.07 376.23 560.467 375.966 544.52L368.827 127.046C368.562 111.099 378.742 100.759 391.935 103.879L611.33 155.951C624.53 159.072 634.76 174.701 635.05 190.648L642.19 608.122C642.43 624.095 632.49 634.356 619.32 631.236Z" fill="#1261BD"/>
<path d="M616.94 184.037C616.89 181.63 615.46 179.832 613.18 179.303L393.469 127.495C388.551 126.332 382.496 131.33 382.602 136.487L388.789 498.372L389.503 540.209C389.556 542.616 390.983 544.414 393.257 544.943L612.97 596.751C617.89 597.914 623.95 592.916 623.84 587.759L617.65 225.874L616.94 184.037Z" fill="#DEE8FF"/>
<path d="M605.6 222.41L343.154 160.209L371.207 119.667L633.65 181.868L605.6 222.41Z" fill="#6DC433"/>
<path d="M372.211 167.085L343.154 160.209L371.207 119.667L400.29 126.57L372.211 167.085Z" fill="white"/>
<path d="M430.564 180.916L401.48 174.041L429.559 133.499L458.617 140.401L430.564 180.916Z" fill="white"/>
<path d="M488.92 194.747L459.833 187.845L487.89 147.33L516.97 154.232L488.92 194.747Z" fill="white"/>
<path d="M547.24 208.579L518.16 201.676L546.24 161.161L575.32 168.037L547.24 208.579Z" fill="white"/>
<path d="M605.6 222.41L576.51 215.507L604.59 174.992L633.65 181.868L605.6 222.41Z" fill="white"/>
<path d="M606.05 253.827C595.95 265.014 577.25 259.407 576.51 246.819V215.507L605.52 222.463L606.05 253.827Z" fill="#F0F5FF"/>
<path d="M547.06 240.604C536.96 251.791 518.27 246.184 517.52 233.596V202.284L546.53 209.239L547.06 240.604Z" fill="#F0F5FF"/>
<path d="M489.02 226.773C478.923 237.96 460.23 232.353 459.489 219.765V188.453L488.49 195.408L489.02 226.773Z" fill="#F0F5FF"/>
<path d="M430.485 212.942C420.385 224.129 401.691 218.522 400.951 205.934V174.622L429.956 181.577L430.485 212.942Z" fill="#F0F5FF"/>
<path d="M374.089 198.397C363.989 209.583 345.295 203.977 344.555 191.389V160.077L373.56 167.032L374.089 198.397Z" fill="#F0F5FF"/>
<path d="M576.51 246.819C567.92 256.974 549.44 256.154 547.14 239.864L547.22 208.578L576.49 215.507L576.51 246.819Z" fill="#6DC433"/>
<path d="M517.97 232.988C509.38 243.143 490.9 242.324 488.6 226.033L488.68 194.748L517.95 201.676L517.97 232.988Z" fill="#6DC433"/>
<path d="M459.437 219.157C450.844 229.312 432.362 228.492 430.062 212.201L430.141 180.916L459.41 187.845L459.437 219.157Z" fill="#6DC433"/>
<path d="M402.009 205.326C393.416 215.481 374.961 214.661 372.661 198.37L372.74 167.085L402.009 174.014V205.326Z" fill="#6DC433"/>
<path d="M343.339 159.786L604.83 221.828" stroke="#6DC433" stroke-width="3.1806" stroke-miterlimit="10" stroke-linecap="round" stroke-linejoin="round"/>
<path d="M488.33 320.708C488.33 320.708 476.807 372.437 512.61 357.23C533.73 348.239 524.85 321.29 524.85 321.29L488.33 320.708Z" fill="#2E4E94"/>
<path d="M492.3 320.735C492.3 320.735 485.665 356.014 506.55 351.227C519.43 348.292 502.96 307.697 502.96 307.697L492.3 320.735Z" fill="#27427A"/>
<path opacity="0.21" d="M541.13 657.975C542.08 646.418 521.65 635.308 495.5 633.161C469.35 631.013 447.381 638.642 446.432 650.199C445.484 661.756 465.915 672.866 492.07 675.014C518.22 677.161 540.19 669.533 541.13 657.975Z" fill="#8288D4"/>
<path d="M463.191 648.611L482.915 628.724C485.823 627.454 491.08 627.269 495.29 628.327C497.17 628.803 498.09 630.125 498.07 632.056L498.28 635.626C498.44 641.603 499.02 643.613 495.18 645.305L472.392 655.275C467.606 658.449 455.021 655.778 463.191 648.611Z" fill="#27427A"/>
<path d="M483.47 630.945C483.47 630.945 472.18 642.819 473.45 643.824C478.711 647.95 492.94 636.076 492.94 636.076C492.94 636.076 485.929 630.469 483.47 630.945Z" fill="#E37B7B"/>
<path d="M492.94 636.075C490.24 641.021 482.545 636.974 482.122 631.474C482.201 600.929 475.75 576.334 475.776 547.773C475.829 515.72 478.156 515.377 478.288 466.24L507.66 473.751C502.27 508.58 500 553.009 500 553.009C507.8 588.023 498.57 594.476 492.94 636.075Z" fill="#E37B7B"/>
<path d="M485.004 547.641C485.004 547.641 486.04 579.27 494.42 587.071C502.8 594.873 497.4 550.55 497.4 550.55L485.004 547.641Z" fill="#D67474"/>
<path d="M435.376 460.396C437.756 463.913 441.986 465.235 444.789 463.305L453.408 453.573C456.211 451.642 454.069 452.727 451.663 449.209C449.284 445.692 451.637 443.418 445.503 445.904L437.729 451.51C436.725 452.251 435.799 453.097 435.085 454.128C433.737 456.032 433.499 457.619 435.376 460.396Z" fill="#FFA9A8"/>
<path d="M479.161 365.455L472.392 401.421C472.392 401.421 461.948 432.046 442.753 444.845L454.942 452.171C469.034 440.535 479.425 440.059 486.51 421.573L494.44 356.543C489.95 353.977 480.483 360.43 479.161 365.455Z" fill="white"/>
<path d="M493.76 663.685L497.56 640.466C498.86 638.8 502.19 637.98 505.36 638.588C506.79 638.852 505.28 637.874 506.13 639.884L510.39 636.737C513.16 643.004 514.83 643.983 514.46 649.404C511.31 658.766 507.29 665.219 502.67 669.556C501 673.496 491.67 672.174 493.76 663.685Z" fill="#27427A"/>
<path d="M498.17 641.576C498.17 641.576 498.88 654.456 500.42 654.614C508.09 655.408 509.94 643.983 509.94 643.983C509.94 643.983 499.47 640.677 498.17 641.576Z" fill="#FFA9A8"/>
<path d="M509.83 644.644C507.08 649.986 498.67 647.157 498.17 641.577C497.93 610.238 493.44 591.065 493.2 561.763C492.94 528.864 506.31 527.595 505.97 477.163L536.59 481.711C531.33 518.021 517.02 563.085 517.02 563.085C525.46 598.152 515.28 601.405 509.83 644.644Z" fill="#FFA9A8"/>
<path d="M482.175 425.329C482.175 425.329 475.909 422.288 469.51 537.856C469.51 537.856 476.252 545.155 495.92 552.031C514.46 558.51 512.34 543.648 527.23 550.206C527.23 550.206 535.82 520.957 537.94 510.723C540.05 500.488 551.34 440.694 534.53 437.335C517.74 433.977 482.175 425.329 482.175 425.329Z" fill="#AEAECF"/>
<path d="M527.25 550.206C527.25 550.206 535.82 520.957 537.96 510.749C540.08 500.54 551.37 440.72 534.55 437.361C530.72 436.594 525.91 435.563 520.78 434.399C521.15 444.528 522.15 461.189 524.61 488.481C527.89 524.871 514.51 543.727 502.08 553.247C517.68 554.04 514.06 544.388 527.25 550.206Z" fill="#9A9AB5"/>
<path d="M487.09 370.533C487.09 370.533 488.57 343.426 503.38 344.563C505.44 344.722 509.01 342.976 511.39 343.214C523.74 344.431 521.99 344.404 530.8 348.318C534.13 349.799 535.77 359.69 535.05 363.34L540 374.606C519.46 380.027 500.71 381.27 487.09 370.533Z" fill="#FFA9A8"/>
<path d="M500.95 343.637C502.24 343.532 503.09 344.96 502.4 346.044C500.23 349.482 497.01 355.564 494.44 360.563C492.04 365.27 494.71 371.115 499.89 372.172C524.51 377.197 527.07 345.938 527.86 346.494L532.65 348.689C545.79 356.041 551.95 364.847 544.78 378.678C544.78 378.678 535.69 403.193 534.92 413.402C534.26 422.234 541.56 436.251 542.93 439.133C544.73 442.889 531.83 465.315 497.93 459.893C471.255 455.609 474.772 444.687 476.014 430.089C476.781 420.912 483.497 396.608 483.708 389.309C483.92 382.01 484.105 377.647 488.52 366.09C490.98 359.69 488.23 352.735 490.21 349.006C491.8 346.018 494.81 344.061 498.2 343.823L500.95 343.637Z" fill="#78CEFF"/>
<path d="M513.93 351.65L513.06 351.703C510.1 351.915 507.64 349.693 507.58 346.784L507.35 330.388C507.29 327.479 509.7 324.94 512.66 324.729L513.53 324.676C516.49 324.464 520.8 325.945 520.86 328.854L521.83 346.282C521.89 349.191 516.89 351.439 513.93 351.65Z" fill="#FFA9A8"/>
<path d="M512.95 305.502C509.17 302.117 505.18 302.514 502.45 305.899C498.57 305.476 495.13 308.808 493.78 315.076C491.93 323.829 494.6 336.021 500.13 340.966C502.53 343.135 505.23 342.95 507.61 342.289C509.83 341.68 511.95 340.57 513.82 339.142C520.54 334.011 521.04 335.095 522.26 329.277C524.11 320.55 518.48 310.448 512.95 305.502Z" fill="#FFA9A8"/>
<path d="M508.93 309.654C514.11 316.028 520.12 332.583 521.28 334.672C521.28 334.672 536.32 329.065 528.47 312.59C518.71 292.094 510.23 307.01 510.23 307.01L508.93 309.654Z" fill="#2E4E94"/>
<path d="M501.53 338.084C501.53 338.084 499.47 337.184 499.81 332.979L507.48 334.54C506.08 337.343 504.62 338.93 501.53 338.084Z" fill="white"/>
<path d="M533.05 348.054C533.05 348.054 531.67 354.374 526.01 362.176C517.34 374.156 513.61 396.635 513.43 415.173C513.24 433.712 511.44 473.354 511.44 473.354L504.86 539.654C504.86 539.654 528.89 543.198 538.7 528.679C548.54 514.16 545.42 448.68 541.77 436.118C538.15 423.557 549.07 390.367 549.07 390.367C549.07 390.367 552.56 368.417 549.78 361.277C547.01 354.163 533.05 348.054 533.05 348.054Z" fill="white"/>
<path d="M500.95 343.637C500.95 343.637 487.7 362.176 486.88 372.913C486.06 383.623 480.483 470.815 480.483 470.815L473.08 529.552C473.08 529.552 464.143 530.689 464.645 521.829C465.148 512.97 476.332 425.725 476.332 425.725L482.836 383.068C482.836 383.068 475.565 382.275 479.187 365.481C481.779 353.475 489.45 346.493 489.87 346.176C492.54 344.219 500.95 343.637 500.95 343.637Z" fill="white"/>
<path d="M507.11 342.447C507.11 342.447 514.33 340.464 519.85 334.223C519.85 334.223 514.09 346.467 507.58 346.811L507.11 342.447Z" fill="#E37B7B"/>
<path d="M521.28 334.646L515.38 363.366C523.08 371.379 532.07 354.877 536.06 349.112C540.4 342.818 535.77 330.229 530.85 318.249C522.57 298.045 521.99 314.838 521.99 314.838L521.28 334.646Z" fill="#2E4E94"/>
<path d="M524.35 329.866C525.48 326.844 524.61 323.72 522.4 322.887C520.18 322.055 517.47 323.829 516.33 326.85C515.19 329.872 516.07 332.996 518.28 333.828C520.5 334.661 523.21 332.887 524.35 329.866Z" fill="#FFA9A8"/>
<path d="M516.26 317.932C507.93 317.403 496.29 307.327 491.22 331.499C490.87 333.191 489.82 323.168 488.73 324.967C487.15 323.459 488.81 318.17 490.45 314.706C493.6 308.068 495.9 304.418 501.53 301.033L502.96 300.372C511.52 296.379 517.39 298.177 522.21 306.111C522.63 306.798 525.32 309.734 525.59 310.342H522.42C524.51 315.261 521.12 315.499 516.26 317.932Z" fill="#2E4E94"/>
<path d="M140.095 589.081L140.333 609.101L510.12 701L508.98 602.833L336.755 560.017L337.284 607.99L140.095 589.081Z" fill="#6178AD"/>
<path d="M579.58 648.743L577.62 554.808L508.98 602.833L510.12 701L579.58 648.743Z" fill="#5D73A6"/>
<path d="M293.447 404.701L224.386 458.465L510.33 529.525L581.19 476.237L293.447 404.701Z" fill="#EDF1FF"/>
<path d="M131 514.239L131.952 597.993L512.21 692.511L510.33 529.525L224.386 458.465L225.311 538.12L131 514.239Z" fill="#A0B8ED"/>
<path d="M583.07 639.196L581.19 476.237L510.33 529.525L512.21 692.511L583.07 639.196Z" fill="#88A2DE"/>
<path d="M481.197 469.308C482.202 471.556 484.819 472.719 487.07 471.873L494.79 468.991C497.01 468.171 498.01 465.659 497.01 463.411C496 461.163 493.39 459.999 491.14 460.845L483.418 463.728C481.197 464.574 480.192 467.087 481.197 469.308Z" fill="#FFA9A8"/>
<path d="M549.78 361.276C549.78 361.276 564.85 424.429 552.69 439.424C541.45 453.282 497.01 469.546 497.01 469.546L493.52 460.977L529.66 427.92L531.62 367.412L549.78 361.276Z" fill="white"/>
<path d="M523.24 435.06C523.24 435.06 535.72 425.831 536.96 419.775C538.2 413.718 533.39 388.383 533.39 388.383" stroke="#DEE8FF" stroke-width="5.1589" stroke-miterlimit="10" stroke-linecap="round" stroke-linejoin="round"/>
<path d="M450.949 499.271L462.451 491.708L432.574 484.224L426.916 493.956L450.949 499.271Z" fill="#6178AD"/>
<path d="M395.373 462.379L502.56 488.587L496.29 432.072L389.106 405.864L395.373 462.379Z" fill="#6178AD"/>
<path d="M426.916 493.955L450.949 499.271L452.377 451.906L428.37 446.591L426.916 493.955Z" fill="#98B2ED"/>
<path d="M452.377 451.906L458.035 477.241L451.637 476.131L452.377 451.906Z" fill="#4A5C85"/>
<path d="M496.29 432.072L500.95 430.115L506.68 485.995L502.56 488.587L496.29 432.072Z" fill="#98B2ED"/>
<path d="M500.95 430.115L392.834 403.722L389.106 405.864L496.29 432.072L500.95 430.115Z" fill="#98B2ED"/>
<path d="M131 514.239L203.63 462.009L224.492 466.981L225.311 538.12L131 514.239Z" fill="#DEE8FF"/>
<path d="M611.84 574.536C609.67 450.293 634.63 452.25 634.71 451.166L628.63 466.293C625.66 458.465 615.78 519.317 614.8 580.354L612.18 604.578L611.84 574.536Z" fill="#3C9326"/>
<path opacity="0.21" d="M659.59 666.788C659.61 660.113 643.92 654.658 624.54 654.604C605.16 654.55 589.44 659.917 589.42 666.592C589.4 673.266 605.1 678.721 624.47 678.775C643.85 678.83 659.57 673.463 659.59 666.788Z" fill="#8288D4"/>
<path d="M560.15 426.598C560.15 426.598 552.29 437.864 552.74 446.115C552.74 446.115 562.76 439.16 573.34 440.641C583.92 442.148 560.15 426.598 560.15 426.598Z" fill="#3C9326"/>
<path d="M616.75 678.839L607.98 678.812C591.13 678.759 577.54 664.346 577.6 646.601L577.91 609.63C577.99 623.726 647.56 623.223 647.45 609.127L647.35 646.813C647.29 664.531 633.6 678.865 616.75 678.839Z" fill="#A0B8ED"/>
<path d="M647.66 610.82L646.42 612.565C641.37 658.978 606.42 668.551 589.47 672.148C594.6 676.3 601 678.786 607.95 678.812L616.73 678.839C633.57 678.891 647.24 664.531 647.29 646.786L647.66 610.82Z" fill="#88A2DE"/>
<path d="M652.08 629.094C652.05 640.148 633.78 649.061 611.31 649.008C588.83 648.955 570.62 639.937 570.64 628.882C570.64 625.682 570.93 616.85 570.93 616.85C577.62 610.291 595.44 608.942 611.41 608.995C623.84 609.022 652.37 617.088 652.37 617.088C652.37 617.088 652.1 625.021 652.08 629.094Z" fill="#ACC6FF"/>
<path d="M652.45 617.045C652.48 605.288 634.28 595.706 611.79 595.643C589.3 595.58 571.05 605.06 571.01 616.818C570.98 628.575 589.18 638.157 611.67 638.22C634.16 638.283 652.42 628.803 652.45 617.045Z" fill="#DEE8FF"/>
<path d="M641.68 616.963C641.71 608.171 628.09 601.005 611.27 600.957C594.45 600.91 580.79 608 580.77 616.793C580.74 625.585 594.36 632.751 611.18 632.798C628 632.845 641.66 625.756 641.68 616.963Z" fill="#27427A"/>
<path d="M612.34 586.252C618.31 507.972 595.36 458.915 595.58 456.773L591.5 456.852C591.5 456.852 613.03 498.663 608.95 616.929L612.84 616.85L612.34 586.252Z" fill="#6DC433"/>
<path d="M612.15 604.552C617.84 518.656 642.14 538.729 642.14 538.729L640.55 541.426C640.55 541.426 632.99 537.988 628.49 546.081C624 554.173 612.87 616.85 612.87 616.85L610.67 616.056L612.15 604.552Z" fill="#6DC433"/>
<path d="M557.93 539.654C557.93 539.654 555.15 547.641 558.06 555.627C558.06 555.627 571.22 532.963 590.13 528.864C609.03 524.765 588.23 515.456 588.23 515.456L557.93 539.654Z" fill="#3C9326"/>
<path d="M618.92 476.977C618.92 476.977 635.84 466.029 645.26 466.029C654.67 466.029 634.31 449.209 625.85 455.715C617.36 462.194 618.92 476.977 618.92 476.977Z" fill="#3C9326"/>
<path d="M600.02 466.743C599.17 469.811 595.39 470.921 593.57 468.647C587.35 460.872 575.83 447.094 567.73 441.223C554.65 431.676 556.89 418.849 576.2 416.734C595.5 414.618 612.37 421.626 605.15 447.94L600.02 466.743Z" fill="#6DC433"/>
<path d="M634.89 538.729C634.89 538.729 628.39 552.798 645.55 557.875C671.06 565.465 683.7 595.64 683.7 595.64C683.7 595.64 684.89 573.399 680.53 557.241C676.22 541.188 671.62 529.975 661.52 526.749C651.42 523.522 642.14 523.364 634.89 538.729Z" fill="#6DC433"/>
<path d="M620.3 464.045C620.3 464.045 625.53 436.674 656.47 449.87C675.45 457.989 672.91 493.136 672.91 493.136C662.89 466.399 633.09 460.502 620.3 464.045Z" fill="#6DC433"/>
<path d="M607.5 537.168C601.71 531.509 585.08 520.031 557.93 539.654C557.93 539.654 560.91 515.192 584.02 509.744C605.83 504.587 609.48 515.747 609.77 536.004C609.8 537.247 608.35 537.988 607.5 537.168Z" fill="#6DC433"/>
<path d="M611.31 561.948C611.31 561.948 598.83 544.917 583.97 568.163C569.11 591.435 561.12 600.136 561.12 600.136C561.12 600.136 596 599.66 604.09 589.319C612.18 578.979 617.76 566.126 611.31 561.948Z" fill="#6DC433"/>
<path d="M581.19 476.237L581.43 495.833L510.57 548.645L510.33 529.525L581.19 476.237Z" fill="#A8BAE6"/>
<path d="M510.57 548.645L510.33 529.525L224.386 458.465L224.624 478.299L510.57 548.645Z" fill="#D1DAF0"/>
<path d="M157.175 500.805C154.69 499.694 153.421 496.785 154.32 494.326L156.514 481.076C157.413 478.617 161.141 482.24 163.6 483.324C166.086 484.435 167.355 487.344 166.456 489.804L163.309 498.346C162.411 500.805 159.661 501.889 157.175 500.805Z" fill="#FFA9A8"/>
<path opacity="0.21" d="M243.312 661.888C243.692 650.62 223.404 640.789 197.997 639.93C172.589 639.071 151.684 647.51 151.303 658.779C150.922 670.048 171.211 679.879 196.618 680.738C222.026 681.596 242.931 673.157 243.312 661.888Z" fill="#8288D4"/>
<path d="M164.129 644.406L173.911 649.43C180.997 650.382 184.514 649.906 186.92 653.688L187.607 654.772C188.533 657.179 187.316 660.22 184.752 660.696L165.742 664.531C161.987 664.505 155.853 660.855 155.694 656.571C155.694 656.571 157.413 645.464 159.132 645.516C162.542 645.596 161.141 644.379 164.129 644.406Z" fill="#27427A"/>
<path d="M171.426 650.462C170.369 655.646 157.757 653.08 158.814 647.897L162.252 631.024L174.863 633.59L171.426 650.462Z" fill="white"/>
<path d="M215.898 656.65L228.722 659.216C237.791 658.396 242.232 656.994 245.59 660.194L246.542 661.093C247.891 663.288 246.542 666.647 243.316 667.784L219.362 676.458C214.603 677.384 209.262 675.533 208.76 671.275C208.76 671.275 207.411 659.401 209.606 659.031C213.968 658.264 212.091 657.391 215.898 656.65Z" fill="#27427A"/>
<path d="M222.112 662.892C221.874 668.181 208.997 667.599 209.262 662.31L210.055 645.12L222.905 645.702L222.112 662.892Z" fill="white"/>
<path d="M228.14 355.67C226.58 365.614 216.744 370.374 209.923 364.847C203.101 359.346 198.818 346.811 200.378 336.867C201.938 326.924 208.733 323.327 215.554 328.854C222.376 334.381 229.7 345.727 228.14 355.67Z" fill="#FFA9A8"/>
<path d="M205.216 385.475L204.185 385.21C200.695 384.364 198.553 380.82 199.399 377.33L204.212 357.707C205.058 354.216 208.601 352.074 212.091 352.92L213.122 353.184C216.612 354.031 218.754 357.575 217.907 361.065L216.057 380.609C215.184 384.1 208.68 386.348 205.216 385.475Z" fill="#FFA9A8"/>
<path d="M193.002 356.04C194.72 362.784 201.33 367.227 208.178 366.037C208.284 366.01 208.363 366.01 208.469 365.984C217.696 364.265 211.166 350.698 220.129 347.842C232.238 343.981 229.171 332.213 224.571 327.902C219.97 323.591 213.281 324.887 205.032 326.527C196.968 328.166 187.343 333.958 193.002 356.04Z" fill="#27427A"/>
<path d="M218.546 356.109C220.964 355.794 222.669 353.578 222.354 351.16C222.039 348.741 219.823 347.036 217.405 347.351C214.987 347.666 213.282 349.882 213.597 352.301C213.912 354.719 216.128 356.425 218.546 356.109Z" fill="#FFA9A8"/>
<path d="M219.203 354.956C218.384 354.956 217.723 354.295 217.723 353.475L216.321 343.822C216.321 343.002 218.331 343.743 219.15 343.743C219.97 343.743 222.35 343.293 222.35 344.113L220.684 353.448C220.684 354.268 220.023 354.956 219.203 354.956Z" fill="#27427A"/>
<path d="M277.239 395.048L259.736 389.679C258.705 389.362 258.044 388.145 258.282 386.929L264.257 355.141C264.495 353.924 265.526 353.184 266.558 353.501L283.902 358.632C284.933 358.949 285.594 360.166 285.356 361.382L279.381 393.011C279.222 393.805 278.879 394.016 278.218 394.439L277.239 395.048Z" fill="#CEDAED"/>
<path d="M270.655 367.095C270.655 367.095 258.044 388.145 258.255 386.929L263.993 354.189L265.315 353.607C265.685 353.396 266.134 353.343 266.557 353.475L283.902 358.605C284.404 358.764 284.827 359.134 285.092 359.61L270.655 367.095Z" fill="#CEDAED"/>
<path d="M275.706 395.365L258.414 390.234C257.383 389.917 256.775 388.674 256.986 387.458L262.988 355.67C263.226 354.453 264.231 353.713 265.262 354.03L282.554 359.161C283.585 359.478 284.193 360.721 283.955 361.937L277.953 393.725C277.715 394.968 276.737 395.682 275.706 395.365Z" fill="#27427A"/>
<path d="M276.605 390.155L259.578 385.131L264.786 357.098L281.708 362.096L276.182 389.521C276.155 389.785 276.843 390.235 276.605 390.155Z" fill="#F5F9FF"/>
<path d="M277.292 381.719C277.662 382.698 277.001 385.395 277.081 386.956C277.292 391.161 278.27 395.075 278.27 395.075C278.27 395.075 275.679 398.698 273.035 395.947C270.391 393.223 273.22 386.85 273.22 386.85L274.965 379.313C274.965 379.339 275.944 378.096 277.292 381.719Z" fill="#FFA9A8"/>
<path d="M288 384.126C287.868 382.724 287.736 381.111 287.736 381.111C287.603 380 286.572 378.44 285.488 377.038C284.484 375.743 282.395 376.351 282.236 377.991C282.236 378.017 281.707 380.582 281.284 382.619C278.825 385.131 276.816 386.612 276.842 388.437L275.362 389.574C275.15 389.733 275.044 389.997 275.071 390.261L276.023 398.169C276.102 398.83 276.895 399.094 277.318 398.645C277.794 398.142 278.429 397.402 279.169 396.503L280.359 398.962C280.359 398.962 285.409 391.187 287.101 387.696C287.128 387.643 287.154 387.59 287.18 387.538C287.815 386.506 288.106 385.316 288 384.126Z" fill="#FFA9A8"/>
<path d="M273.59 394.017L268.699 402.559L279.433 407.821L282.818 395.101L273.59 394.017Z" fill="#FFA9A8"/>
<path d="M267.536 444.845C273.617 428.237 275.124 427.338 282.58 403.749L267.509 397.507C261.481 415.887 256.14 421.176 248.314 436.806C246.04 441.275 247.283 446.697 251.222 449.764C256.907 454.207 265.262 451.668 267.536 444.845Z" fill="#1261BD"/>
<path d="M255.241 422.023L258.916 429.348L260.476 414.618L255.241 422.023Z" fill="#1261BD"/>
<path d="M172.616 387.96L156.197 425.064C153.553 430.115 154.769 438.684 154.716 444.396L154.531 483.959L168.915 484.62C168.915 484.62 170.58 467.589 172.193 450.214C174.335 427.312 203.948 401.316 203.974 400.892C204.027 400.152 172.616 387.96 172.616 387.96Z" fill="#1261BD"/>
<path d="M183.642 478.035L177.428 478.538L174.361 498.319C173.542 502.312 173.753 506.438 174.943 510.326C174.546 521.539 176.424 541.505 172.14 560.308C172.14 560.308 165.372 571.918 163.97 590.615C163.362 598.734 160.031 635.626 160.031 635.626C160.031 635.626 167.17 642.793 177.322 641.92L197.232 565.571L210.822 491.443L183.642 478.035Z" fill="#27427A"/>
<path d="M198.051 568.136L203.895 523.258L187.079 514.001C187.079 514.001 192.287 525.532 195.487 529.657C196.333 534.629 192.763 541.188 193.081 547.032C191.494 551.634 170.686 641.444 170.686 641.444C172.193 641.312 175.366 642.528 177.243 641.946L188.877 601.246L193.953 582.364L198.051 568.136Z" fill="#223A6B"/>
<path d="M201.7 482.267L206.38 570.173C206.38 570.173 201.858 593.974 206.512 649.14C211.43 652.948 221.662 654.376 227.108 651.256C227.108 651.256 235.331 582.1 235.173 579.693L237.684 482.319L201.7 482.267Z" fill="#27427A"/>
<path d="M246.172 411.841C251.539 395.63 218.225 379.577 218.225 379.577L199.638 374.209L181.738 379.022C170.051 383.756 169.523 398.301 170.104 405.68C170.104 405.812 174.573 433.21 174.546 447.014C174.546 451.88 172.51 485.044 173.118 487.159C174.916 493.295 238.161 503.265 241.915 485.44C241.915 485.44 236.045 447.041 240.725 431.173C243.158 423.002 244.771 416.099 246.172 411.841Z" fill="#1261BD"/>
<path d="M260.291 453.599L258.44 454.525C253.681 456.905 247.864 454.974 245.458 450.241L224.861 409.197C222.482 404.436 224.412 398.618 229.145 396.212L230.996 395.286C235.755 392.906 241.571 394.836 243.978 399.57L264.627 440.641C266.98 445.374 265.05 451.219 260.291 453.599Z" fill="#1261BD"/>
<path d="M200.457 370.427L213.571 373.944C217.22 374.923 220.472 376.986 222.905 379.842L226.765 384.39C224.015 383.385 221.424 382.724 219.124 382.671C207.332 381.455 197.972 379.472 194.032 375.69C194.429 373.574 196.597 370.136 200.457 370.427Z" fill="white"/>
<path d="M232.291 416.046C231.049 419.775 228.801 413.639 228.272 420.489C228.193 421.467 228.405 433.606 228.378 434.664C228.325 442.28 232.503 451.801 232.424 458.968C232.291 474.095 227.215 492.342 224.888 493.929C234.962 492.845 241.889 491.258 241.942 485.413C241.942 485.413 238.954 443.973 240.752 426.148L232.291 416.046Z" fill="#1261BD"/>
<path d="M263.649 449.764C258.89 452.145 253.073 450.214 250.667 445.48L233.164 410.625L228.907 417.262L245.485 450.24C247.864 455.001 253.707 456.931 258.467 454.525L260.317 453.599C262.248 452.621 263.702 451.087 264.601 449.288L263.649 449.764Z" fill="#1261BD"/>
<path d="M314.916 429.11L272.189 456.905L308.65 466.637L351.35 438.816L314.916 429.11Z" fill="#D1DAF0"/>
<path d="M308.015 463.517L271.581 453.784L314.308 425.963L350.742 435.695L308.015 463.517Z" fill="white"/>
<path d="M312.272 434.584L333.741 440.482" stroke="#2E4E94" stroke-width="0.9288" stroke-miterlimit="10" stroke-linecap="round" stroke-linejoin="round"/>
<path d="M302.463 440.218L323.932 446.142" stroke="#2E4E94" stroke-width="0.9288" stroke-miterlimit="10" stroke-linecap="round" stroke-linejoin="round"/>
<path d="M293.394 446.194L314.89 452.092" stroke="#2E4E94" stroke-width="0.9288" stroke-miterlimit="10" stroke-linecap="round" stroke-linejoin="round"/>
<path d="M285.171 451.325L292.337 453.15" stroke="#2E4E94" stroke-width="0.9288" stroke-miterlimit="10" stroke-linecap="round" stroke-linejoin="round"/>
<path d="M349.605 478.934L336.227 475.284C334.561 474.835 334.455 473.592 336.015 472.534L356.056 459.02C357.616 457.962 360.287 457.46 361.953 457.936L375.331 461.585C376.997 462.035 377.103 463.278 375.543 464.336L355.501 477.849C353.941 478.907 351.297 479.383 349.605 478.934Z" fill="#BAC7F2"/>
<path d="M374.141 462.828C374.115 462.828 374.141 462.828 374.141 462.828L374.115 461.612L373.269 461.85C373.137 461.797 372.978 461.718 372.793 461.691L359.414 458.042C357.749 457.592 355.078 458.068 353.518 459.126L333.477 472.64L332.34 472.957L332.366 474.253C332.393 474.755 332.842 475.179 333.688 475.417L347.067 479.066C348.733 479.516 351.403 479.04 352.963 477.982L373.005 464.468C373.718 463.965 374.089 463.437 374.115 462.987L374.141 462.828Z" fill="#2B65E0"/>
<path d="M347.068 477.823L333.689 474.174C332.024 473.724 331.918 472.481 333.478 471.423L353.519 457.91C355.079 456.852 357.75 456.349 359.415 456.825L372.794 460.475C374.46 460.924 374.565 462.167 373.005 463.225L352.964 476.739C351.404 477.797 348.734 478.299 347.068 477.823Z" fill="#3071FF"/>
<path d="M340.034 475.919L365.363 458.571" stroke="#2B65E0" stroke-width="1.6825" stroke-miterlimit="10" stroke-linecap="round" stroke-linejoin="round"/>
<path d="M371.233 462.22C371.259 463.066 369.964 463.78 368.325 463.833C366.685 463.886 365.337 463.251 365.31 462.405C365.284 461.559 366.58 460.845 368.219 460.792C369.885 460.765 371.207 461.4 371.233 462.22Z" fill="#2B65E0"/>
<path d="M367.734 463.458C369.369 463.406 370.673 462.69 370.647 461.858C370.621 461.026 369.275 460.393 367.64 460.444C366.005 460.495 364.701 461.211 364.727 462.043C364.753 462.875 366.099 463.509 367.734 463.458Z" fill="white"/>
<path d="M364.861 466.504C364.887 467.351 363.592 468.065 361.953 468.118C360.313 468.17 358.965 467.536 358.938 466.689C358.912 465.843 360.208 465.129 361.847 465.076C363.486 465.023 364.835 465.658 364.861 466.504Z" fill="#2B65E0"/>
<path d="M364.253 466.134C364.279 466.98 362.983 467.694 361.344 467.747C359.705 467.8 358.356 467.166 358.33 466.319C358.304 465.473 359.599 464.759 361.238 464.706C362.878 464.653 364.226 465.288 364.253 466.134Z" fill="white"/>
<path d="M358.489 470.762C358.516 471.609 357.22 472.323 355.581 472.375C353.942 472.428 352.593 471.794 352.567 470.947C352.54 470.101 353.836 469.387 355.475 469.334C357.114 469.281 358.463 469.916 358.489 470.762Z" fill="#2B65E0"/>
<path d="M357.881 470.392C357.907 471.238 356.612 471.952 354.973 472.005C353.333 472.058 351.985 471.423 351.958 470.577C351.932 469.731 353.228 469.017 354.867 468.964C356.506 468.937 357.855 469.572 357.881 470.392Z" fill="white"/>
<path d="M352.09 475.02C352.117 475.866 350.821 476.58 349.182 476.633C347.543 476.686 346.194 476.051 346.168 475.205C346.141 474.359 347.437 473.645 349.076 473.592C350.716 473.565 352.064 474.2 352.09 475.02Z" fill="#2B65E0"/>
<path d="M351.509 474.676C351.535 475.522 350.24 476.236 348.6 476.289C346.961 476.342 345.613 475.707 345.586 474.861C345.56 474.015 346.855 473.301 348.495 473.248C350.134 473.195 351.482 473.83 351.509 474.676Z" fill="white"/>
<path d="M362.164 459.206C362.191 460.052 360.895 460.766 359.256 460.819C357.616 460.872 356.268 460.237 356.242 459.391C356.215 458.545 357.511 457.831 359.15 457.778C360.789 457.751 362.138 458.386 362.164 459.206Z" fill="#2B65E0"/>
<path d="M361.556 458.835C361.583 459.681 360.287 460.395 358.648 460.448C357.009 460.501 355.66 459.867 355.634 459.02C355.607 458.174 356.903 457.46 358.542 457.407C360.181 457.381 361.53 458.015 361.556 458.835Z" fill="white"/>
<path d="M355.793 463.49C355.819 464.336 354.523 465.05 352.884 465.103C351.245 465.156 349.896 464.521 349.87 463.675C349.844 462.829 351.139 462.115 352.778 462.062C354.418 462.009 355.766 462.643 355.793 463.49Z" fill="#2B65E0"/>
<path d="M355.184 463.12C355.211 463.966 353.915 464.68 352.276 464.733C350.637 464.786 349.288 464.151 349.262 463.305C349.235 462.458 350.531 461.744 352.17 461.692C353.809 461.639 355.158 462.273 355.184 463.12Z" fill="white"/>
<path d="M349.394 467.747C349.421 468.593 348.125 469.307 346.486 469.36C344.846 469.413 343.498 468.779 343.472 467.932C343.445 467.086 344.741 466.372 346.38 466.319C348.019 466.266 349.368 466.901 349.394 467.747Z" fill="#2B65E0"/>
<path d="M348.786 467.377C348.812 468.223 347.517 468.937 345.877 468.99C344.238 469.043 342.89 468.409 342.863 467.562C342.837 466.716 344.132 466.002 345.772 465.949C347.411 465.923 348.759 466.557 348.786 467.377Z" fill="white"/>
<path d="M343.022 472.005C343.049 472.852 341.753 473.566 340.114 473.619C338.474 473.672 337.126 473.037 337.1 472.191C337.073 471.344 338.369 470.63 340.008 470.577C341.647 470.551 342.996 471.186 343.022 472.005Z" fill="#2B65E0"/>
<path d="M342.414 471.662C342.44 472.508 341.145 473.222 339.505 473.275C337.866 473.328 336.518 472.693 336.491 471.847C336.465 471 337.76 470.286 339.4 470.234C341.039 470.181 342.387 470.815 342.414 471.662Z" fill="white"/>
<path d="M451.425 655.751L395.664 641.444L394.976 583.052L450.764 597.359L451.425 655.751Z" fill="#D1DAF0"/>
<path d="M460.758 592.228L379.985 572.791C377.103 572.103 374.723 569.115 374.67 566.179C374.644 563.244 376.97 561.392 379.852 562.08L460.626 581.518C463.508 582.205 465.888 585.194 465.941 588.129C465.967 591.065 463.64 592.916 460.758 592.228Z" fill="#88A2DE"/>
<path d="M403.279 589.293C400.873 589.266 398.89 587.256 398.863 584.85L398.678 568.321C398.652 565.914 400.582 563.984 402.988 564.037C405.394 564.063 407.377 566.073 407.403 568.48L407.588 585.008C407.615 587.415 405.658 589.345 403.279 589.293Z" fill="#D1DAF0"/>
<path d="M440.585 598.84C438.179 598.813 436.196 596.803 436.17 594.397L435.985 577.868C435.958 575.462 437.888 573.531 440.294 573.584C442.7 573.611 444.683 575.62 444.71 578.027L444.895 594.556C444.921 596.962 442.991 598.893 440.585 598.84Z" fill="#D1DAF0"/>
<path opacity="0.4" d="M373.19 400.76L372.661 356.49C335.777 330.785 297.492 348.133 297.333 308.438L376.257 252.611L375.966 213.233L428.872 253.378L429.189 346.52C429.982 359.849 415.731 389.838 373.19 400.76Z" fill="#A8AAE5"/>
<path d="M349.288 404.225C312.378 378.52 284.96 348.001 284.801 308.332L277.557 218.099L284.484 215.19L350.293 203.157L416.34 253.272L417.371 341.786C418.138 355.115 391.83 393.303 349.288 404.225Z" fill="#1261BD"/>
<path d="M342.361 407.107C305.477 381.402 278.032 350.91 277.9 311.215L277.583 218.072L343.392 206.04L409.412 256.181L410.444 344.695C411.237 358.024 384.929 396.212 342.361 407.107Z" fill="#78CEFF"/>
<path d="M340.907 227.011L288.265 236.638L288.529 311.109C288.635 342.844 312.299 362.784 337.258 387.352C369.277 374.315 390.032 350.064 392.491 334.54L390.693 264.776L340.907 227.011Z" fill="white"/>
<path d="M349.605 343.928L323.007 336.391L322.372 258.244L348.997 265.807L349.605 343.928Z" fill="#78CEFF"/>
<path d="M300.453 305.344L300.215 276.147L371.524 296.352L371.762 325.548L300.453 305.344Z" fill="#78CEFF"/>
<path d="M340.907 227.011L288.265 236.638L288.529 311.109C288.635 342.844 312.299 362.784 337.258 387.352C369.277 374.315 390.032 350.064 392.491 334.54L390.693 264.776L340.907 227.011Z" stroke="#2E4E94" stroke-width="2.8057" stroke-miterlimit="10" stroke-linecap="round" stroke-linejoin="round"/>
<path d="M372.294 453.854C378.528 453.236 383.363 450.533 383.094 447.815C382.825 445.097 377.554 443.394 371.32 444.012C365.086 444.629 360.251 447.333 360.52 450.051C360.789 452.768 366.06 454.471 372.294 453.854Z" fill="#BAC7F2"/>
<path d="M376.468 418.373C376.283 412.529 370.281 408.006 363.01 408.271C355.766 408.535 350.028 413.481 350.187 419.299L350.98 445.401H351.033C351.006 445.692 351.006 446.009 351.006 446.326C351.192 452.171 357.167 455.106 364.411 454.868C371.656 454.604 377.446 451.245 377.261 445.401C377.235 444.951 377.208 444.528 377.129 444.105C377.156 444.105 376.495 418.823 376.468 418.373Z" fill="#78CEFF"/>
<path d="M377.155 443.999C377.155 443.999 376.494 418.717 376.494 418.267C376.336 413.19 371.788 409.117 365.839 408.297C366.421 409.461 366.791 410.704 366.817 412.026C366.844 412.476 367.478 437.758 367.478 437.758C367.558 438.181 367.61 438.631 367.61 439.054C367.796 444.898 362.005 448.257 354.761 448.522C353.597 448.574 352.487 448.522 351.403 448.389C352.831 452.779 358.145 454.974 364.438 454.736C371.682 454.472 377.473 451.113 377.287 445.269C377.261 444.872 377.235 444.422 377.155 443.999Z" fill="#65BEE5"/>
<path d="M369.515 404.727L356.374 405.203L356.506 409.461C356.559 411.312 359.547 412.687 363.169 412.555C363.724 412.528 364.28 412.476 364.808 412.396C365.02 412.37 365.231 412.317 365.416 412.264C365.813 412.185 366.21 412.079 366.553 411.947C366.712 411.894 366.871 411.841 367.003 411.788C367.188 411.709 367.373 411.629 367.558 411.55C367.637 411.524 367.717 411.471 367.796 411.444C368.008 411.312 368.219 411.206 368.404 411.048C368.483 410.995 368.536 410.942 368.616 410.889C368.827 410.704 369.012 410.519 369.171 410.333C369.488 409.91 369.673 409.487 369.647 409.011L369.515 404.727Z" fill="#253F75"/>
<path d="M369.541 405.018C369.594 406.711 366.686 408.165 363.063 408.297C359.441 408.429 356.453 407.16 356.401 405.494C356.348 403.801 359.256 402.347 362.878 402.215C366.501 402.082 369.488 403.325 369.541 405.018Z" fill="#2C4A8A"/>
<path d="M502.27 328.14C502.9 328.14 503.41 327.299 503.41 326.262C503.41 325.225 502.9 324.385 502.27 324.385C501.64 324.385 501.13 325.225 501.13 326.262C501.13 327.299 501.64 328.14 502.27 328.14Z" fill="#2E4E94"/>
<path d="M507.29 329.119C507.92 329.119 508.43 328.278 508.43 327.241C508.43 326.204 507.92 325.363 507.29 325.363C506.67 325.363 506.16 326.204 506.16 327.241C506.16 328.278 506.67 329.119 507.29 329.119Z" fill="#2E4E94"/>
</g>
<defs>
<linearGradient id="paint0_linear" x1="1255.84" y1="305.683" x2="113.753" y2="562.463" gradientUnits="userSpaceOnUse">
<stop stop-color="#1261BD"/>
</linearGradient>
<linearGradient id="paint1_linear" x1="136.527" y1="-287.375" x2="1215.58" y2="117.029" gradientUnits="userSpaceOnUse">
<stop stop-color="#6DC433"/>
<stop offset="1" stop-color="#3C9326"/>
</linearGradient>
<clipPath id="clip0">
<rect width="1440" height="4522" fill="white" transform="translate(-514)"/>
</clipPath>
</defs>
</svg>
