<svg width="9" height="14" viewBox="0 0 9 14" fill="none" xmlns="http://www.w3.org/2000/svg">
<path d="M7.16072 13.9933C7.27232 13.9933 7.39788 13.9375 7.48159 13.8538L8.17913 13.1562C8.26284 13.0725 8.31864 12.947 8.31864 12.8354C8.31864 12.7238 8.26284 12.5982 8.17913 12.5145L2.69643 7.03181L8.17913 1.54911C8.26284 1.4654 8.31864 1.33984 8.31864 1.22824C8.31864 1.10268 8.26284 0.991071 8.17913 0.907366L7.48159 0.209821C7.39788 0.126116 7.27232 0.0703124 7.16072 0.0703124C7.04911 0.0703123 6.92355 0.126116 6.83984 0.209821L0.338728 6.71094C0.255023 6.79464 0.199219 6.9202 0.199219 7.03181C0.199219 7.14341 0.255023 7.26897 0.338728 7.35268L6.83984 13.8538C6.92355 13.9375 7.04911 13.9933 7.16072 13.9933Z" fill="#333333"/>
</svg>
