<svg width="5" height="9" viewBox="0 0 5 9" fill="none" xmlns="http://www.w3.org/2000/svg">
<path d="M0.749999 0.59961C0.6875 0.59961 0.617187 0.63086 0.570312 0.677735L0.179687 1.06836C0.132812 1.11523 0.101562 1.18555 0.101562 1.24805C0.101562 1.31055 0.132812 1.38086 0.179687 1.42774L3.25 4.49805L0.179687 7.56836C0.132812 7.61524 0.101562 7.68555 0.101562 7.74805C0.101562 7.81836 0.132812 7.88086 0.179687 7.92774L0.570312 8.31836C0.617187 8.36524 0.6875 8.39649 0.75 8.39649C0.8125 8.39649 0.882812 8.36524 0.929687 8.31836L4.57031 4.67774C4.61719 4.63086 4.64844 4.56055 4.64844 4.49805C4.64844 4.43555 4.61719 4.36524 4.57031 4.31836L0.929687 0.677735C0.882812 0.63086 0.812499 0.59961 0.749999 0.59961Z" fill="white"/>
</svg>
