<svg width="526" height="345" xmlns="http://www.w3.org/2000/svg">
 <defs>
  <clipPath id="clip0">
   <rect id="svg_1" x="281" y="317.41199" transform="rotate(-89.29750061035156 281,317.4119873046875) " fill="white" height="241.275" width="276.433"/>
  </clipPath>
  <clipPath id="clip1">
   <rect id="svg_2" fill="white" height="585" width="443"/>
  </clipPath>
 </defs>
 <g>
  <title>background</title>
  <rect fill="none" id="canvas_background" height="347" width="528" y="-1" x="-1"/>
 </g>
 <g>
  <title>Layer 1</title>
  <path id="svg_3" fill-opacity="0.25" fill="#CDE0FB" d="m20.3918,11.6346c18.2112,-26.3295 64.0982,0.2614 64.0982,0.2614c0,0 15.2413,62.8184 24.51,67.4897c9.269,4.6714 -2.546,-56.2523 -2.546,-56.2523c19.452,4.8673 59.138,44.9496 59.138,44.9496c0,0 -24.151,58.376 -14.034,60.63c10.118,2.254 18.766,-52.79 18.766,-52.79c16.253,11.9234 25.685,39.2 25.685,39.2c8.943,42.141 -45.593,51.418 -45.593,51.418c0,0 -7.931,20.417 -3.623,48.608c0,0 1.306,5.39 1.599,13.851l-4.96,-1.764c0.065,-1.47 0.065,-2.907 0.032,-4.345l0,-0.032c0,-0.033 0,-0.033 0,-0.066c-0.065,-0.882 -0.163,-2.156 -0.293,-3.691c-0.457,-3.495 -0.718,-6.076 -0.784,-7.873c0,0 0,0 0,-0.032c-1.24,-10.944 -3.459,-25.383 -6.919,-29.499c0,0 0.816,-0.588 1.861,-1.894c-0.588,0.62 -1.208,1.241 -1.861,1.894c-14.947,15.19 -58.4517,3.104 -80.3835,-10.159c-21.8992,-13.263 -9.2362,-16.268 7.3432,-22.573c16.5794,-6.305 42.2313,6.044 51.6313,4.606c9.399,-1.437 -0.62,-9.8 -16.8081,-14.177c-16.1877,-4.41 -29.6666,8.558 -56.0043,1.927c-26.3704,-6.599 -28.7202,-61.4136 -28.7202,-61.4136c15.6329,11.7274 50.6193,13.2301 53.9809,7.5787c3.3616,-5.6514 -43.5046,-21.6255 -50.1298,-26.0355c-6.65788,-4.41 -14.22957,-23.4875 4.0143,-49.817z"/>
  <g id="svg_4" clip-path="url(#clip0)">
   <path id="svg_5" fill-opacity="0.25" fill="#DFEBFD" d="m504.479,60.1854c-17.824,-34.5129 -71.015,-5.9617 -71.015,-5.9617c0,0 -22.554,76.6363 -33.238,81.5273c-10.683,4.891 7.897,-69.73 7.897,-69.73c-21.971,4.1334 -69.56,50.124 -69.56,50.124c0,0 21.491,74.975 10.049,76.761c-11.41,1.787 -16.011,-67.478 -16.011,-67.478c-19.052,13.25 -31.947,46.252 -31.947,46.252c-13.704,51.497 45.849,68.428 45.849,68.428c0,0 6.935,26.159 -0.378,60.81c0,0 -1.949,6.581 -3.026,17.059l5.654,-1.719c0.053,-1.857 0.167,-3.645 0.372,-5.396l0.001,-0.035c0,-0.034 0,-0.034 0.001,-0.068c0.166,-1.099 0.369,-2.645 0.668,-4.567c0.818,-4.324 1.316,-7.483 1.589,-9.715c0,0 0,0 0,-0.035c2.339,-13.489 6.108,-31.226 10.33,-35.99c0,0 -0.847,-0.802 -1.898,-2.535c0.603,0.799 1.235,1.667 1.898,2.535c15.181,20.343 64.48,9.596 89.944,-4.745c25.464,-14.341 11.718,-19.325 -6.076,-28.796c-17.794,-9.472 -47.311,3.375 -57.595,0.669c-10.284,-2.706 1.557,-12.123 19.912,-15.991c18.325,-3.869 32.102,13.568 61.837,7.913c29.767,-5.655 37.335,-73.635 37.335,-73.635c-18.376,13.052 -57.238,11.475 -60.454,4.143c-3.217,-7.331 50.15,-22.638 57.893,-27.461c7.683,-4.859 17.792,-27.8507 -0.031,-62.3636z"/>
  </g>
  <g id="svg_6" clip-path="url(#clip1)">
   <path id="svg_7" fill="#78CEFF" d="m250.488,278.042l0,55.14c0,4.058 3.279,7.336 7.34,7.336l177.793,0c4.061,0 7.34,-3.278 7.34,-7.336l0,-55.14c0,-4.059 -3.279,-7.336 -7.34,-7.336l-177.793,0c-4.061,0 -7.34,3.277 -7.34,7.336z"/>
   <path id="svg_8" fill="white" d="m276.372,305.592c0,0.547 0.469,1.015 1.015,1.015l140.236,0c0.547,0 1.015,-0.468 1.015,-1.015c0,-0.546 -0.468,-1.014 -1.015,-1.014l-140.236,0c-0.546,0 -1.015,0.468 -1.015,1.014z"/>
   <path id="svg_9" fill="white" d="m421.098,331.27c4.291,0 7.769,-3.477 7.769,-7.766c0,-4.289 -3.478,-7.765 -7.769,-7.765c-4.291,0 -7.769,3.476 -7.769,7.765c0,4.289 3.478,7.766 7.769,7.766z"/>
   <path id="svg_10" fill="white" d="m413.29,287.72c0,4.292 3.474,7.765 7.769,7.765c4.294,0 7.769,-3.473 7.769,-7.765c0,-4.293 -3.475,-7.766 -7.769,-7.766c-4.256,0 -7.769,3.473 -7.769,7.766z"/>
   <path id="svg_11" fill="#DADADA" d="m420.512,318.392l0,10.576c0,0.312 0.273,0.585 0.586,0.585c0.312,0 0.585,-0.273 0.585,-0.585l0,-10.576c0,-0.312 -0.273,-0.585 -0.585,-0.585c-0.352,0 -0.586,0.273 -0.586,0.585z"/>
   <path id="svg_12" fill="#DADADA" d="m416.921,284.403l7.456,7.453c0.235,0.234 0.586,0.234 0.82,0c0.117,-0.117 0.156,-0.273 0.156,-0.429c0,-0.156 -0.039,-0.312 -0.156,-0.429l-7.457,-7.454c-0.234,-0.234 -0.585,-0.234 -0.819,0c-0.235,0.234 -0.235,0.625 0,0.859z"/>
   <path id="svg_13" fill="white" d="m385.18,331.27c4.291,0 7.769,-3.477 7.769,-7.766c0,-4.289 -3.478,-7.765 -7.769,-7.765c-4.291,0 -7.769,3.476 -7.769,7.765c0,4.289 3.478,7.766 7.769,7.766z"/>
   <path id="svg_14" fill="white" d="m377.411,287.72c0,4.292 3.474,7.765 7.769,7.765c4.294,0 7.769,-3.473 7.769,-7.765c0,-4.293 -3.475,-7.766 -7.769,-7.766c-4.295,0 -7.769,3.473 -7.769,7.766z"/>
   <path id="svg_15" fill="#DADADA" d="m379.909,324.48c-0.312,0.078 -0.507,0.39 -0.429,0.702c0.078,0.312 0.39,0.508 0.703,0.429l10.189,-2.731c0.274,-0.078 0.43,-0.312 0.43,-0.586c0,-0.039 0,-0.117 -0.039,-0.156c-0.078,-0.312 -0.391,-0.507 -0.703,-0.429l-10.151,2.771z"/>
   <path id="svg_16" fill="#DADADA" d="m381.042,284.403l7.456,7.453c0.235,0.234 0.586,0.234 0.82,0c0.117,-0.117 0.156,-0.273 0.156,-0.429c0,-0.156 -0.039,-0.312 -0.156,-0.429l-7.457,-7.454c-0.234,-0.234 -0.585,-0.234 -0.819,0c-0.235,0.234 -0.235,0.625 0,0.859z"/>
   <path id="svg_17" fill="white" d="m349.262,331.27c4.291,0 7.769,-3.477 7.769,-7.766c0,-4.289 -3.478,-7.765 -7.769,-7.765c-4.291,0 -7.769,3.476 -7.769,7.765c0,4.289 3.478,7.766 7.769,7.766z"/>
   <path id="svg_18" fill="white" d="m341.493,287.72c0,4.292 3.475,7.765 7.769,7.765c4.295,0 7.769,-3.473 7.769,-7.765c0,-4.293 -3.474,-7.766 -7.769,-7.766c-4.294,0 -7.769,3.473 -7.769,7.766z"/>
   <path id="svg_19" fill="#DADADA" d="m344.929,326.782c-0.235,0.234 -0.274,0.585 -0.039,0.82c0.234,0.234 0.585,0.273 0.819,0.039l7.887,-7.025c0.117,-0.117 0.195,-0.273 0.195,-0.429c0,-0.156 -0.039,-0.273 -0.156,-0.39c-0.235,-0.234 -0.586,-0.273 -0.82,-0.039l-7.886,7.024z"/>
   <path id="svg_20" fill="#DADADA" d="m344.07,288.695c-0.313,0.078 -0.469,0.43 -0.391,0.742c0.078,0.312 0.43,0.468 0.742,0.39l10.112,-3.083c0.234,-0.078 0.429,-0.312 0.429,-0.546c0,-0.039 0,-0.117 -0.039,-0.156c-0.078,-0.312 -0.429,-0.469 -0.741,-0.391l-10.112,3.044z"/>
   <path id="svg_21" fill="white" d="m313.383,331.27c4.291,0 7.769,-3.477 7.769,-7.766c0,-4.289 -3.478,-7.765 -7.769,-7.765c-4.291,0 -7.769,3.476 -7.769,7.765c0,4.289 3.478,7.766 7.769,7.766z"/>
   <path id="svg_22" fill="white" d="m305.614,287.72c0,4.292 3.475,7.765 7.769,7.765c4.295,0 7.769,-3.473 7.769,-7.765c0,-4.293 -3.474,-7.766 -7.769,-7.766c-4.294,0 -7.769,3.473 -7.769,7.766z"/>
   <path id="svg_23" fill="#DADADA" d="m310.299,319.329l5.114,9.248c0.157,0.273 0.508,0.391 0.781,0.234c0.195,-0.117 0.313,-0.312 0.313,-0.507c0,-0.078 -0.039,-0.195 -0.078,-0.273l-5.115,-9.249c-0.156,-0.273 -0.507,-0.39 -0.781,-0.234c-0.273,0.156 -0.39,0.508 -0.234,0.781z"/>
   <path id="svg_24" fill="#DADADA" d="m308.737,290.334c-0.273,0.195 -0.312,0.547 -0.117,0.82c0.195,0.273 0.547,0.312 0.82,0.117l8.55,-6.205c0.156,-0.117 0.234,-0.312 0.234,-0.468c0,-0.117 -0.039,-0.234 -0.117,-0.351c-0.195,-0.273 -0.546,-0.313 -0.82,-0.117l-8.55,6.204z"/>
   <path id="svg_25" fill="white" d="m283.662,328.19c2.593,-3.417 1.925,-8.288 -1.493,-10.881c-3.418,-2.593 -8.292,-1.925 -10.885,1.492c-2.594,3.416 -1.926,8.288 1.492,10.88c3.418,2.593 8.292,1.925 10.886,-1.491z"/>
   <path id="svg_26" fill="#DADADA" d="m272.898,326.548c-0.234,0.195 -0.273,0.585 -0.078,0.819c0.195,0.235 0.585,0.274 0.82,0.078l8.081,-6.79c0.156,-0.117 0.195,-0.273 0.195,-0.468c0,-0.117 -0.039,-0.273 -0.156,-0.39c-0.195,-0.234 -0.585,-0.273 -0.82,-0.078l-8.042,6.829z"/>
   <path id="svg_27" fill="white" d="m270.048,290.061c1.288,4.098 5.661,6.361 9.76,5.073c4.099,-1.288 6.364,-5.658 5.075,-9.756c-1.288,-4.097 -5.661,-6.361 -9.76,-5.073c-4.099,1.288 -6.364,5.659 -5.075,9.756z"/>
   <path id="svg_28" fill="#DADADA" d="m279.379,282.764l-4.881,9.365c-0.156,0.273 -0.039,0.625 0.235,0.781c0.273,0.156 0.624,0.039 0.781,-0.234l4.88,-9.366c0.039,-0.078 0.078,-0.195 0.078,-0.273c0,-0.195 -0.117,-0.429 -0.313,-0.507c-0.273,-0.157 -0.624,-0.039 -0.78,0.234z"/>
   <path id="svg_29" fill="#1261BD" d="m99.8281,21.1117l0,298.7243c0,11.668 9.4479,21.112 21.1209,21.112l148.981,0c11.674,0 21.122,-9.444 21.122,-21.112l0,-298.7243c0,-11.66803 -9.448,-21.1117 -21.122,-21.1117l-148.981,0c-11.673,0 -21.1209,9.44367 -21.1209,21.1117z"/>
   <path id="svg_30" fill="#DEE8FF" d="m112.673,318.392c0,2.146 1.757,3.903 3.904,3.903l157.726,0c2.147,0 3.904,-1.757 3.904,-3.903l0,-297.0852c0,-2.1463 -1.757,-3.9023 -3.904,-3.9023l-157.726,0c-2.147,0 -3.904,1.756 -3.904,3.9023l0,297.0852z"/>
   <path id="svg_31" fill="#FFA9A8" d="m68.7905,135.177c-4.5287,-1.951 -2.3424,4.722 -0.6637,7.298c1.6398,2.575 1.1322,2.614 -3.7089,1.287c-4.802,-1.366 -7.8863,-0.468 -10.463,-3.161c-2.5377,-2.692 -4.724,-6.907 -6.1685,-6.087c-1.4445,0.819 0,9.912 3.0843,14.594c3.0842,4.644 15.4993,10.147 16.8657,12.488c0.0781,0.156 0.1562,0.273 0.2343,0.429l14.6014,-9.209c-2.8891,-6.556 -9.9165,-15.961 -13.7816,-17.639z"/>
   <path id="svg_32" fill="#78CEFF" d="m182.947,127.255c0.898,-0.117 1.757,-0.234 2.655,-0.351c-0.742,0.078 -1.484,0.195 -2.265,0.312c-0.078,0 -0.312,0 -0.39,0.039c-0.039,0 -0.039,0 0,0c0,0 -0.039,0 0,0z"/>
   <path id="svg_33" fill="#78CEFF" d="m214.609,125.733c-0.039,0 -0.078,0 -0.078,0c-0.117,0 -0.234,-0.078 -0.351,-0.117c-0.078,0 -0.156,0 -0.234,0c0,0.039 0,0.078 0.039,0.117c0.195,0 0.429,0 0.624,0z"/>
   <path id="svg_34" fill="#78CEFF" d="m224.291,126.124c0.04,-0.078 0.04,-0.117 0.079,-0.195c0.039,0 0.117,0 0.156,0c-1.835,-0.117 -3.67,-0.196 -5.466,-0.235c0.039,0.039 0.117,0.117 0.156,0.157c1.679,0.039 3.358,0.156 5.075,0.273z"/>
   <path id="svg_35" fill="#78CEFF" d="m215.624,132.562c1.484,3.239 -11.126,8.234 -19.52,8.273c-0.352,0 -0.703,0 -1.015,0c-3.006,-0.117 -5.31,-1.014 -5.974,-2.926l0,-9.561c-2.732,1.405 -5.348,3.317 -7.925,5.736c-4.529,22.595 -12.805,93.618 -14.875,164.562l35.996,0c-0.195,-1.249 -0.351,-2.536 -0.546,-3.746c-2.967,-20.956 -2.03,-37.892 -2.382,-44.604c-0.82,-14.868 1.211,-32.311 4.451,-49.443c-0.117,-0.312 -0.156,-0.702 -0.156,-1.092c0,-0.156 0,-0.351 0.039,-0.508c-0.039,-0.117 -0.078,-0.234 -0.078,-0.39c0.117,-9.365 2.186,-18.848 5.934,-27.433c0.547,-1.249 1.171,-2.537 1.913,-3.746c2.928,-10.888 5.895,-20.683 8.394,-28.37l0,-1.054c0,-2.849 -0.039,-5.776 -1.015,-8.39c-0.469,-1.21 -1.132,-2.303 -1.952,-3.122c-0.703,-0.507 -1.484,-0.82 -2.265,-0.976c-0.195,0 -0.429,0 -0.624,0c0.39,2.342 0.78,4.41 1.249,5.854c0.078,0.351 0.195,0.663 0.351,0.936z"/>
   <path id="svg_36" fill="#78CEFF" d="m221.91,130.026c0.195,0.507 0.351,1.015 0.469,1.561c0.741,-2.146 1.366,-4.019 1.874,-5.463c-1.679,-0.117 -3.397,-0.195 -5.076,-0.274c1.289,1.21 2.226,2.732 2.733,4.176z"/>
   <path id="svg_37" fill="#78CEFF" d="m185.602,126.904c-0.898,0.117 -1.757,0.234 -2.655,0.351c-0.195,0.391 -0.43,1.054 -0.664,1.873c1.093,-0.819 2.186,-1.56 3.319,-2.224z"/>
   <path id="svg_38" fill="#020711" d="m166.237,300.285c0,0.39 -0.039,0.82 -0.039,1.21l36.504,0.156c-0.078,-0.429 -0.117,-0.819 -0.196,-1.249l-36.269,-0.117z" opacity="0.2"/>
   <path id="svg_39" fill="#78CEFF" d="m202.272,298.646l-35.996,0c0,0.546 -0.039,1.093 -0.039,1.639l36.27,0.156c-0.039,-0.624 -0.157,-1.21 -0.235,-1.795z"/>
   <path id="svg_40" fill="#020711" d="m202.272,298.646l-35.996,0c0,0.546 -0.039,1.093 -0.039,1.639l36.27,0.156c-0.039,-0.624 -0.157,-1.21 -0.235,-1.795z" opacity="0.2"/>
   <path id="svg_41" fill="white" d="m289.217,581.02c0.039,-0.039 0.117,-0.079 0.195,-0.118l-33.849,0c0,0.039 0,0.079 -0.039,0.118c-0.273,0.936 -1.054,2.341 -2.186,3.98l38.299,0c-1.6,-2.224 -2.771,-3.824 -2.771,-3.824c0,0 0.117,-0.039 0.351,-0.156z"/>
   <path id="svg_42" fill="white" d="m186.304,581.02c0,-0.039 0,-0.039 0.039,-0.078l-30.647,0c0,0 0,0.039 0,0.117c-0.039,0.429 -0.273,2.107 -1.444,3.98l33.106,0c-0.585,-2.263 -1.015,-3.785 -1.054,-4.019z"/>
   <path id="svg_43" fill="white" d="m112.673,230.277c-2.616,-0.312 -5.193,-1.053 -7.613,-2.302c-10.5804,-5.424 -17.6079,-18.341 -22.527,-28.682c-3.0062,-6.322 -5.5439,-12.878 -8.0425,-19.395c-0.6247,-1.639 -1.2493,-3.239 -1.874,-4.878l-1.7568,1.132c-0.3514,-0.898 -0.7418,-1.951 -1.1322,-3.005c0.976,2.536 1.9911,5.073 2.928,7.609c2.5377,6.634 5.1144,13.307 8.1987,19.707c4.9973,10.498 12.1418,23.649 22.8778,29.151c15.383,7.883 36.621,-4.059 43.414,-18.77c-6.129,11.55 -21.16,20.994 -34.473,19.433z"/>
   <path id="svg_44" fill="white" d="m112.673,188.99c1.483,1.483 2.381,2.342 2.381,2.381c8.238,-13.658 16.046,-27.707 25.143,-40.819c4.45,-6.4 8.706,-14.282 16.319,-17.092c4.685,-1.717 9.409,-3.044 14.289,-4.058c2.225,-0.469 4.451,-0.898 6.715,-1.288c-0.39,0.078 -0.781,0.117 -1.171,0.195c-1.952,0.351 -3.904,0.741 -5.856,1.132c-4.959,1.014 -9.761,2.38 -14.524,4.136c-7.73,2.888 -12.063,10.888 -16.553,17.366c-9.253,13.346 -16.671,25.17 -25.025,39.062c0.468,-0.312 -13.626,-16.468 -23.7765,-26.341l-1.1322,0.742c6.9883,8.234 18.3107,19.706 23.1907,24.584z"/>
   <path id="svg_45" fill="white" d="m141.29,305.358c0,-1.717 0,-3.434 0,-5.19c0,-0.507 -0.078,-0.976 -0.156,-1.444c-0.664,-3.122 2.655,-31.687 3.865,-36.994c2.381,-10.575 2.147,-21.58 2.459,-32.35c0.118,-4.8 0.235,-9.6 0.274,-14.4c0.039,-1.366 -0.508,-4.254 0.039,-5.502c-0.195,0.429 -0.43,0.897 -0.664,1.326c-0.586,1.288 -0.039,4.215 -0.039,5.62c-0.039,4.878 -0.156,9.756 -0.273,14.634c-0.117,4.995 -4.451,46.711 -9.331,90.924l3.865,0c0,-5.541 0,-11.082 -0.039,-16.624z"/>
   <path id="svg_46" fill="white" d="m147.732,215.019c-0.039,4.8 -0.156,9.6 -0.273,14.4c-0.274,10.77 -0.079,21.775 -2.46,32.35c-1.21,5.307 -4.49,33.872 -3.865,36.994c0.078,0.468 0.156,0.937 0.156,1.444c0,1.717 0,3.473 0,5.19c0,5.542 0,11.083 0.039,16.624l19.911,0c0.117,-12.292 0.429,-24.702 0.898,-37.033c-9.877,-57.403 1.874,-106.885 11.517,-134.904c0.469,-3.239 0.898,-6.205 1.328,-8.858c-1.055,1.444 -2.109,2.965 -3.124,4.604c-5.192,8.156 -9.292,16.937 -12.298,26.107c1.757,0.937 2.85,3.122 2.499,5.502c-0.43,2.888 -2.811,4.956 -5.31,4.605c-0.624,-0.078 -1.171,-0.312 -1.678,-0.663c-2.07,-0.742 -3.397,-3.122 -3.007,-5.737c0.391,-2.614 2.343,-4.526 4.529,-4.643c3.045,-9.405 7.262,-18.419 12.571,-26.77c2.265,-3.591 4.568,-6.634 6.872,-9.249c0.507,-2.888 1.015,-5.19 1.444,-6.868c-2.225,0.39 -4.49,0.819 -6.715,1.288c-4.88,1.014 -9.604,2.341 -14.289,4.058c-7.613,2.849 -11.868,10.692 -16.319,17.092c-9.097,13.112 -16.905,27.161 -25.143,40.819c0,0 -0.898,-0.898 -2.381,-2.381l0,41.287c13.313,1.561 28.344,-7.883 34.434,-19.434c0.234,-0.429 0.469,-0.897 0.664,-1.326c-0.547,1.248 0,4.136 0,5.502z"/>
   <path id="svg_47" fill="white" d="m89.4823,164.328l-16.8658,10.692c0.6246,1.639 1.2883,3.239 1.874,4.878c2.4986,6.517 5.0363,13.073 8.0424,19.395c4.9192,10.341 11.9466,23.258 22.5271,28.682c2.42,1.249 4.997,1.99 7.613,2.302l0,-41.287c-4.88,-4.878 -16.2024,-16.35 -23.1907,-24.662z"/>
   <path id="svg_48" fill="white" d="m162.177,284.949c2.108,-53.579 7.34,-105.402 11.517,-134.904c-9.643,28.019 -21.395,77.5 -11.517,134.904z"/>
   <path id="svg_49" fill="#DADADA" d="m181.737,127.411c0.39,-0.039 0.78,-0.117 1.171,-0.156c-1.718,0.195 -3.436,0.469 -5.193,0.781c-0.039,0 -0.195,0.039 -0.195,0.039c1.406,-0.234 2.811,-0.468 4.217,-0.664z"/>
   <path id="svg_50" fill="#DADADA" d="m164.871,301.495c-0.195,6.829 -0.352,13.697 -0.43,20.487l1.367,0c0.039,-6.79 0.195,-13.658 0.351,-20.487l-1.288,0z"/>
   <path id="svg_51" fill="#DADADA" d="m181.854,129.441c0.39,-0.859 0.741,-1.6 1.054,-2.186c-0.391,0.039 -0.781,0.117 -1.171,0.156c-0.274,0.547 -0.586,1.522 -0.898,2.888c0.312,-0.312 0.663,-0.585 1.015,-0.858z"/>
   <path id="svg_52" fill="#DADADA" d="m182.283,129.129c0.235,-0.82 0.469,-1.483 0.664,-1.874l-0.039,0c-0.273,0.586 -0.625,1.327 -1.054,2.186c0.156,-0.117 0.312,-0.234 0.429,-0.312z"/>
   <path id="svg_53" fill="#DADADA" d="m181.151,134.084c-0.508,0.469 -0.976,0.976 -1.445,1.483c-4.567,23.844 -12.571,93.188 -14.718,163.079l1.327,0c2.03,-70.944 10.346,-141.967 14.836,-164.562z"/>
   <path id="svg_54" fill="#DADADA" d="m166.237,300.285l-0.937,0c0,-0.039 0,-0.039 0,-0.078c-0.117,-0.468 -0.234,-0.936 -0.312,-1.405c-0.039,0.898 -0.039,1.795 -0.078,2.693l1.327,0c0,-0.39 0,-0.82 0,-1.21z"/>
   <path id="svg_55" fill="#DADADA" d="m165.3,300.207c0,0.039 0,0.039 0,0.078l0.937,0c0,-0.546 0.039,-1.093 0.039,-1.639l-1.327,0c0,0.039 0,0.078 0,0.156c0.117,0.469 0.234,0.937 0.351,1.405z"/>
   <path id="svg_56" fill="#DADADA" d="m181.737,127.411c-1.406,0.196 -2.811,0.391 -4.217,0.664c1.406,-0.234 2.811,-0.468 4.217,-0.664z"/>
   <path id="svg_57" fill="#DADADA" d="m175.022,141.187c-0.43,2.653 -0.859,5.619 -1.328,8.858c1.835,-5.307 3.592,-9.834 5.075,-13.502c-1.249,1.405 -2.498,2.927 -3.747,4.644z"/>
   <path id="svg_58" fill="#DADADA" d="m164.871,301.495l-0.508,0l0,-0.039c-0.546,-0.937 -1.054,-1.873 -1.522,-2.81l2.069,0c-1.054,-4.605 -1.952,-9.17 -2.733,-13.697c-0.469,12.331 -0.82,24.78 -0.898,37.033l3.201,0c0.078,-6.79 0.195,-13.619 0.391,-20.487z"/>
   <path id="svg_59" fill="#DADADA" d="m180.839,130.299c0.351,-1.327 0.663,-2.302 0.898,-2.888c-1.406,0.196 -2.811,0.43 -4.217,0.664c-0.429,1.678 -0.898,3.98 -1.444,6.868c1.561,-1.756 3.123,-3.317 4.763,-4.644z"/>
   <path id="svg_60" fill="#DADADA" d="m164.949,298.646c2.186,-69.891 10.151,-139.235 14.718,-163.079c-0.312,0.313 -0.624,0.625 -0.897,0.976c-1.523,3.668 -3.28,8.195 -5.076,13.502c-4.177,29.502 -9.409,81.325 -11.517,134.904c0.781,4.527 1.679,9.092 2.772,13.697z"/>
   <path id="svg_61" fill="#DADADA" d="m164.949,298.646l-2.069,0c0.468,0.937 0.976,1.873 1.522,2.81l0,0.039l0.508,0c0.039,-0.898 0.039,-1.795 0.078,-2.693c-0.039,-0.078 -0.039,-0.117 -0.039,-0.156z"/>
   <path id="svg_62" fill="#DADADA" d="m164.949,298.646c-0.039,0.039 0,0.079 0,0.157c0,-0.078 0,-0.118 0,-0.157z"/>
   <path id="svg_63" fill="white" d="m242.953,294.002c0.195,0.937 0.508,2.576 0.898,4.722c0.156,0.742 0.273,1.522 0.43,2.342c1.015,5.307 2.381,12.799 3.865,20.877l1.561,0c-2.772,-15.531 -4.997,-26.848 -5.973,-28.448c-0.039,-0.117 -0.078,-0.195 -0.117,-0.312c-0.469,0 -0.898,-0.039 -1.367,-0.117c0.196,0.39 0.43,0.663 0.703,0.936z"/>
   <path id="svg_64" fill="white" d="m262.279,139.86c4.177,3.941 7.925,8.312 11.595,12.722c2.694,3.238 5.309,6.516 7.886,9.833l0,98.574c-6.442,6.555 -12.844,12.76 -18.271,17.833l0.429,0.39c20.028,-18.301 54.424,-52.018 51.886,-63.881c-0.82,-3.863 -2.967,-7.57 -4.841,-11.004c-3.084,-5.581 -6.481,-11.005 -10.034,-16.312c-8.12,-12.254 -16.787,-24.234 -26.196,-35.512c-3.67,-4.409 -7.418,-8.78 -11.596,-12.721c-7.222,-6.829 -16.514,-10.458 -26.352,-12.293c-3.319,-0.624 -6.676,-1.053 -10.073,-1.326c-0.468,-0.039 -0.976,-0.078 -1.444,-0.117c-0.04,0.039 -0.04,0.117 -0.079,0.195c13.704,1.014 27.29,4.37 37.09,13.619z"/>
   <path id="svg_65" fill="white" d="m249.161,263.642c-0.078,0.117 -0.156,0.234 -0.274,0.312c0.118,-0.078 0.196,-0.195 0.274,-0.312z"/>
   <path id="svg_66" fill="white" d="m240.494,267.584l8.628,-69.228l27.524,20.409c0,0 -17.764,32.429 -27.446,44.838c9.838,-12.487 28.539,-44.604 28.539,-44.604l-31.467,-28.76l-6.637,77.501c0,0 -0.196,0.273 0.585,0.468l0.43,-0.312c-0.274,-0.195 -0.156,-0.312 -0.156,-0.312z"/>
   <path id="svg_67" fill="white" d="m219.958,162.533l-0.078,-19.941c-2.07,6.634 -4.373,14.438 -6.637,22.828c0.117,-0.156 0.273,-0.273 0.429,-0.429c1.796,-1.717 4.139,-2.576 6.286,-2.458z"/>
   <path id="svg_68" fill="white" d="m223.081,139.157l0.117,24c1.289,0.507 2.46,1.288 3.475,2.263c1.327,0.976 2.459,2.303 3.396,3.942c1.328,2.263 2.304,5.229 3.007,8.975c1.288,6.829 1.561,14.478 0.859,22.751c0,0.156 -0.04,0.273 -0.118,0.39c0,0.039 0,0.039 0,0.078c0,1.249 -0.624,2.263 -1.444,2.263c-0.469,0 -0.898,-0.351 -1.132,-0.936c-0.742,-0.078 -1.367,-1.054 -1.367,-2.264c0,-1.014 0.391,-1.834 0.976,-2.146c0.547,-7.492 0.235,-14.439 -0.937,-20.682c-0.117,-0.703 -0.273,-1.405 -0.429,-2.108c-0.156,-0.663 -0.352,-1.326 -0.547,-1.99c-0.195,-0.585 -0.39,-1.21 -0.624,-1.795c-0.196,-0.546 -0.43,-1.054 -0.703,-1.6c-0.234,-0.468 -0.508,-0.936 -0.781,-1.405c-0.273,-0.429 -0.547,-0.819 -0.859,-1.209c-0.195,-0.274 -0.429,-0.508 -0.664,-0.742c-0.234,-0.156 -0.429,-0.312 -0.663,-0.429c-0.664,-0.39 -1.367,-0.663 -2.069,-0.82c-0.352,-0.078 -0.742,-0.117 -1.094,-0.156c-0.39,-0.039 -0.819,-0.078 -1.21,-0.039c-0.781,0.039 -1.562,0.312 -2.264,0.703c-0.625,0.312 -1.172,0.741 -1.679,1.209c-1.64,1.522 -2.694,3.669 -3.631,5.737c-3.514,7.961 -5.466,16.78 -5.739,25.482c0.43,0.39 0.742,1.132 0.742,1.99c0,1.249 -0.625,2.264 -1.445,2.264c-0.468,0 -0.898,-0.351 -1.132,-0.937c0,0 0,0 -0.039,0c-2.85,15.961 -4.568,31.999 -3.787,45.853c0.391,6.751 -0.546,23.648 2.382,44.603c1.288,9.249 2.85,19.278 4.528,29.541l40.096,0c-1.445,-8.078 -2.85,-15.57 -3.865,-20.877c-0.157,-0.859 -0.313,-1.639 -0.43,-2.342c-0.39,-2.146 -0.703,-3.785 -0.898,-4.722c-0.273,-0.273 -0.507,-0.585 -0.703,-0.897c-0.702,-0.117 -1.405,-0.312 -2.108,-0.625c-0.039,0 -0.078,-0.039 -0.117,-0.039c-2.264,-1.014 -6.246,-0.117 -8.901,0.703c-1.835,0.546 -3.826,0.117 -5.271,-1.132c-1.679,-1.483 -3.514,-3.59 -3.318,-5.541c0.39,-3.551 6.481,-6.985 6.481,-6.985c0,0 -3.241,-0.312 -6.091,1.287c-2.85,1.561 -4.529,2.108 -2.264,-1.131c2.264,-3.239 12.805,-4.527 17.685,-5.346c0.313,-0.039 0.625,-0.117 0.898,-0.235l-3.435,-2.965l4.333,-2.888c-0.781,-0.234 -0.585,-0.468 -0.585,-0.468l6.637,-77.501l31.467,28.76c0,0 -18.701,32.156 -28.539,44.604l-0.039,0.039c-0.078,0.117 -0.156,0.234 -0.274,0.312c-0.546,0.664 -1.054,1.288 -1.522,1.834c-0.274,0.313 -0.547,0.625 -0.742,0.898c0.312,-0.39 0.625,-0.78 1.054,-1.249l15.812,13.385c5.426,-5.073 11.829,-11.277 18.271,-17.833l0,-98.535c-2.577,-3.317 -5.192,-6.594 -7.886,-9.833c-3.67,-4.41 -7.418,-8.781 -11.596,-12.722c-9.799,-9.288 -23.424,-12.644 -37.05,-13.697c-0.702,2.029 -1.522,4.487 -2.459,7.297c0.195,1.912 0.234,3.863 0.234,5.658z"/>
   <path id="svg_69" fill="#DADADA" d="m225.306,126.007c-0.273,-0.039 -0.546,-0.039 -0.78,-0.078c0.234,0.039 0.507,0.039 0.78,0.078z"/>
   <path id="svg_70" fill="#DADADA" d="m224.448,126.124c0.273,0 0.546,0.039 0.781,0.039c0.039,-0.078 0.039,-0.117 0.078,-0.195c-0.274,0 -0.547,-0.039 -0.781,-0.039c-0.039,0.078 -0.078,0.156 -0.078,0.195z"/>
   <path id="svg_71" fill="#DADADA" d="m201.179,247.838c-0.781,-13.815 0.937,-29.853 3.787,-45.853c-0.429,-0.039 -0.82,-0.39 -1.054,-0.897c-3.201,17.053 -5.232,34.379 -4.412,49.169c1.211,22.087 2.889,37.658 3.514,48.389l0.156,0c0.156,1.093 0.273,2.107 0.391,3.005l-0.859,0c0.976,6.517 2.03,13.385 3.162,20.331l2.186,0c-1.679,-10.263 -3.201,-20.292 -4.529,-29.541c-2.928,-20.955 -1.991,-37.852 -2.342,-44.603z"/>
   <path id="svg_72" fill="#DADADA" d="m222.769,133.499c0.937,-2.81 1.757,-5.268 2.46,-7.297c-0.274,-0.039 -0.547,-0.039 -0.781,-0.039c-0.547,1.522 -1.211,3.434 -1.952,5.736c0.117,0.507 0.195,1.054 0.273,1.6z"/>
   <path id="svg_73" fill="#DADADA" d="m213.243,165.42c2.264,-8.429 4.568,-16.195 6.637,-22.829l0,-2.77c-2.421,7.531 -5.31,16.975 -8.121,27.472c0.43,-0.702 0.937,-1.326 1.484,-1.873z"/>
   <path id="svg_74" fill="#DADADA" d="m224.526,125.929c-0.039,0 -0.117,0 -0.157,0c-0.039,0.039 -0.039,0.117 -0.078,0.195c0.039,0 0.118,0 0.157,0c0,-0.039 0.039,-0.117 0.078,-0.195z"/>
   <path id="svg_75" fill="#DADADA" d="m222.456,131.86c0.781,-2.263 1.445,-4.214 1.952,-5.736c-0.039,0 -0.117,0 -0.156,0c-0.507,1.444 -1.132,3.317 -1.874,5.463c0.039,0.078 0.078,0.156 0.078,0.273z"/>
   <path id="svg_76" fill="#DADADA" d="m219.841,139.782l0,-0.468c-2.46,7.687 -5.466,17.482 -8.394,28.37c0.078,-0.156 0.195,-0.274 0.273,-0.43c2.85,-10.497 5.739,-19.941 8.121,-27.472z"/>
   <path id="svg_77" fill="#DADADA" d="m199.344,250.257c0.39,6.751 -0.547,23.648 2.382,44.604c0.156,1.249 0.351,2.497 0.546,3.746l0.742,0c-0.625,-10.692 -2.304,-26.302 -3.514,-48.389c-0.82,-14.79 1.171,-32.116 4.412,-49.169c-0.039,-0.078 -0.078,-0.156 -0.117,-0.274c-3.241,17.21 -5.271,34.614 -4.451,49.482z"/>
   <path id="svg_78" fill="#DADADA" d="m202.546,300.402c0.078,0.429 0.117,0.82 0.195,1.249l0.859,0c-0.117,-0.898 -0.235,-1.912 -0.391,-3.005l-0.156,0c0.039,0.624 0.078,1.21 0.117,1.756l-0.624,0z"/>
   <path id="svg_79" fill="#DADADA" d="m202.545,300.402l0.586,0c-0.039,-0.585 -0.078,-1.171 -0.117,-1.756l-0.742,0c0.078,0.585 0.195,1.171 0.273,1.756z"/>
   <path id="svg_80" fill="#DADADA" d="m90.6145,163.586c-0.6637,-0.78 -1.3665,-1.444 -2.1083,-2.068l-0.039,0c0.7027,0.663 1.4055,1.366 2.1473,2.068z"/>
   <path id="svg_81" fill="#DADADA" d="m69.6884,173.147c0.3904,1.054 0.8199,2.146 1.1322,3.005l1.7569,-1.132c-0.3905,-0.976 -0.7809,-1.99 -1.1322,-2.966l-1.7569,1.093z"/>
   <path id="svg_82" fill="#DADADA" d="m87.6474,162.064c0.5856,0.703 1.1712,1.483 1.8349,2.264l1.1322,-0.742c-0.7418,-0.702 -1.4445,-1.405 -2.1473,-2.029l-0.8198,0.507z"/>
   <path id="svg_83" fill="#DADADA" d="m87.6474,162.064l-16.2021,9.99c0.3904,0.976 0.7808,1.99 1.1322,2.966l16.9048,-10.692c-0.6637,-0.781 -1.2493,-1.522 -1.8349,-2.264z"/>
   <path id="svg_84" fill="#78CEFF" d="m189.076,128.348l0,-0.273l0,-0.625c-2.615,1.249 -5.153,2.888 -7.574,5.034c-0.117,0.508 -0.234,1.054 -0.351,1.6c2.538,-2.458 5.153,-4.331 7.925,-5.736z"/>
   <path id="svg_85" fill="#1D1D1B" d="m189.076,128.348l0,-0.273l0,-0.625c-2.615,1.249 -5.153,2.888 -7.574,5.034c-0.117,0.508 -0.234,1.054 -0.351,1.6c2.538,-2.458 5.153,-4.331 7.925,-5.736z" opacity="0.26"/>
   <path id="svg_86" fill="white" d="m170.961,145.323c-5.192,8.156 -9.291,16.936 -12.298,26.107c1.757,0.936 2.85,3.122 2.499,5.502c-0.429,2.888 -2.811,4.956 -5.31,4.605c-0.273,-0.039 -0.507,-0.117 -0.741,-0.195c0.507,0.351 1.054,0.546 1.678,0.663c2.499,0.351 4.881,-1.678 5.31,-4.605c0.351,-2.38 -0.703,-4.604 -2.499,-5.502c2.968,-9.17 7.106,-17.951 12.298,-26.107c1.054,-1.639 2.07,-3.16 3.124,-4.604c0.117,-0.742 0.234,-1.444 0.351,-2.147c-1.484,1.874 -2.967,3.981 -4.412,6.283z"/>
   <path id="svg_87" fill="#1D1D1B" d="m170.961,145.323c-5.192,8.156 -9.291,16.936 -12.298,26.107c1.757,0.936 2.85,3.122 2.499,5.502c-0.429,2.888 -2.811,4.956 -5.31,4.605c-0.273,-0.039 -0.507,-0.117 -0.741,-0.195c0.507,0.351 1.054,0.546 1.678,0.663c2.499,0.351 4.881,-1.678 5.31,-4.605c0.351,-2.38 -0.703,-4.604 -2.499,-5.502c2.968,-9.17 7.106,-17.951 12.298,-26.107c1.054,-1.639 2.07,-3.16 3.124,-4.604c0.117,-0.742 0.234,-1.444 0.351,-2.147c-1.484,1.874 -2.967,3.981 -4.412,6.283z" opacity="0.26"/>
   <path id="svg_88" fill="#DADADA" d="m181.151,134.084c0.117,-0.546 0.234,-1.092 0.351,-1.6c-0.468,0.43 -0.976,0.859 -1.444,1.327c-0.117,0.547 -0.234,1.132 -0.351,1.717c0.468,-0.507 0.937,-0.975 1.444,-1.444z"/>
   <path id="svg_89" fill="#1D1D1B" d="m181.151,134.084c0.117,-0.546 0.234,-1.092 0.351,-1.6c-0.468,0.43 -0.976,0.859 -1.444,1.327c-0.117,0.547 -0.234,1.132 -0.351,1.717c0.468,-0.507 0.937,-0.975 1.444,-1.444z" opacity="0.26"/>
   <path id="svg_90" fill="#DADADA" d="m179.863,134.006c-1.523,1.483 -3.006,3.161 -4.49,5.073c-0.117,0.703 -0.234,1.405 -0.351,2.147c1.249,-1.717 2.498,-3.239 3.748,-4.644c0.39,-0.937 0.741,-1.795 1.093,-2.576z"/>
   <path id="svg_91" fill="#1D1D1B" d="m179.863,134.006c-1.523,1.483 -3.006,3.161 -4.49,5.073c-0.117,0.703 -0.234,1.405 -0.351,2.147c1.249,-1.717 2.498,-3.239 3.748,-4.644c0.39,-0.937 0.741,-1.795 1.093,-2.576z" opacity="0.26"/>
   <path id="svg_92" fill="#DADADA" d="m179.863,134.006c-0.352,0.781 -0.703,1.639 -1.054,2.537c0.312,-0.351 0.585,-0.663 0.897,-0.976c0.118,-0.624 0.235,-1.17 0.352,-1.717c-0.078,0.039 -0.156,0.078 -0.195,0.156z"/>
   <path id="svg_93" fill="#1D1D1B" d="m179.863,134.006c-0.352,0.781 -0.703,1.639 -1.054,2.537c0.312,-0.351 0.585,-0.663 0.897,-0.976c0.118,-0.624 0.235,-1.17 0.352,-1.717c-0.078,0.039 -0.156,0.078 -0.195,0.156z" opacity="0.26"/>
   <path id="svg_94" fill="#1D1D1B" d="m189.076,126.007l0,-0.586c-0.156,-0.039 -0.273,-0.039 -0.429,-0.078c-1.015,0.469 -2.03,0.976 -3.006,1.561c0.742,-0.078 1.444,-0.156 2.186,-0.234c0.39,-0.234 0.82,-0.468 1.249,-0.663z"/>
   <path id="svg_95" fill="#1D1D1B" d="m187.788,126.67c0,-0.039 0.039,-0.039 0,0c-0.703,0.078 -1.445,0.156 -2.186,0.234c0.741,-0.078 1.444,-0.156 2.186,-0.234z"/>
   <path id="svg_96" fill="#1D1D1B" d="m181.893,130.611c1.913,-1.561 3.865,-2.887 5.895,-3.941c-0.742,0.078 -1.445,0.156 -2.186,0.234c-1.132,0.664 -2.226,1.405 -3.319,2.224c-0.117,0.43 -0.234,0.937 -0.39,1.483z"/>
   <path id="svg_97" fill="#1D1D1B" d="m153.002,176.074c0.391,-2.615 2.343,-4.527 4.529,-4.644c3.045,-9.405 7.262,-18.419 12.571,-26.77c1.874,-2.927 3.709,-5.503 5.622,-7.805c0.117,-0.663 0.234,-1.327 0.352,-1.912c-2.343,2.615 -4.607,5.697 -6.872,9.249c-5.309,8.351 -9.526,17.365 -12.571,26.77c-2.225,0.117 -4.177,2.029 -4.529,4.643c-0.39,2.615 0.937,4.995 3.006,5.737c-1.522,-1.015 -2.42,-3.083 -2.108,-5.268z"/>
   <path id="svg_98" fill="#1D1D1B" d="m181.854,129.441c-0.352,0.273 -0.703,0.546 -1.054,0.858c-0.118,0.468 -0.235,1.015 -0.391,1.6c0.195,-0.156 0.352,-0.312 0.547,-0.468c0.351,-0.742 0.624,-1.405 0.898,-1.99z"/>
   <path id="svg_99" fill="#1D1D1B" d="m181.893,130.611c0.117,-0.546 0.273,-1.053 0.39,-1.483c-0.156,0.118 -0.273,0.235 -0.429,0.313c-0.274,0.585 -0.586,1.248 -0.898,1.951c0.312,-0.273 0.624,-0.507 0.937,-0.781z"/>
   <path id="svg_100" fill="#1D1D1B" d="m180.448,131.899c0.117,-0.585 0.274,-1.132 0.391,-1.6c-1.601,1.366 -3.202,2.888 -4.763,4.644c-0.117,0.624 -0.235,1.249 -0.352,1.912c1.562,-1.834 3.124,-3.512 4.724,-4.956z"/>
   <path id="svg_101" fill="#1D1D1B" d="m188.374,126.592c0.195,-0.039 0.429,-0.039 0.663,-0.078l0,-0.468c-0.429,0.195 -0.82,0.39 -1.249,0.624c0.234,-0.039 0.39,-0.078 0.586,-0.078z"/>
   <path id="svg_102" fill="#1D1D1B" d="m189.076,126.514c-0.234,0.039 -0.507,0.039 -0.663,0.078c-0.196,0.039 -0.391,0.039 -0.547,0.078l-0.039,0c0.39,-0.078 0.82,-0.117 1.249,-0.156z"/>
   <path id="svg_103" fill="#1D1D1B" d="m181.502,132.484c2.421,-2.146 4.959,-3.824 7.574,-5.034l0,-0.897c-0.429,0.039 -0.858,0.078 -1.288,0.117c-2.03,1.054 -3.982,2.38 -5.895,3.941c-0.117,0.547 -0.273,1.171 -0.391,1.873z"/>
   <path id="svg_104" fill="#1D1D1B" d="m161.162,176.932c0.351,-2.38 -0.703,-4.605 -2.499,-5.502c2.967,-9.171 7.106,-17.951 12.298,-26.107c1.484,-2.302 2.928,-4.37 4.412,-6.283c0.117,-0.741 0.234,-1.482 0.351,-2.185c-1.874,2.263 -3.748,4.878 -5.622,7.805c-5.309,8.351 -9.526,17.365 -12.571,26.77c-2.225,0.117 -4.177,2.029 -4.529,4.644c-0.312,2.185 0.547,4.253 2.109,5.268c0.234,0.078 0.507,0.156 0.741,0.195c2.499,0.39 4.881,-1.678 5.31,-4.605z"/>
   <path id="svg_105" fill="#1D1D1B" d="m180.995,131.392c-0.195,0.156 -0.352,0.312 -0.547,0.468c-0.117,0.468 -0.195,0.937 -0.312,1.444c0.273,-0.663 0.586,-1.288 0.859,-1.912z"/>
   <path id="svg_106" fill="#1D1D1B" d="m180.136,133.343c-0.039,0.156 -0.078,0.312 -0.117,0.468c0.468,-0.468 0.976,-0.897 1.444,-1.327c0.156,-0.663 0.274,-1.287 0.43,-1.873c-0.313,0.274 -0.625,0.508 -0.937,0.781c-0.235,0.624 -0.547,1.249 -0.82,1.951z"/>
   <path id="svg_107" fill="#1D1D1B" d="m180.448,131.899c-1.601,1.444 -3.162,3.122 -4.724,4.995c-0.117,0.703 -0.234,1.444 -0.351,2.185c1.483,-1.873 2.967,-3.551 4.49,-5.073c0.078,-0.234 0.195,-0.429 0.273,-0.663c0.117,-0.507 0.195,-1.015 0.312,-1.444z"/>
   <path id="svg_108" fill="#1D1D1B" d="m180.136,133.343c-0.078,0.234 -0.195,0.429 -0.273,0.663c0.078,-0.078 0.117,-0.117 0.195,-0.195c0,-0.156 0.039,-0.312 0.078,-0.468z"/>
   <path id="svg_109" fill="#1D1D1B" d="m218.865,125.694c0.078,0 0.117,0 0.195,0c-0.234,-0.234 -0.508,-0.429 -0.742,-0.624c0.156,0.195 0.351,0.39 0.547,0.624z" opacity="0.26"/>
   <path id="svg_110" fill="#1D1D1B" d="m214.18,125.616c0.468,0 0.898,0 1.366,0c-0.546,-0.351 -1.132,-0.585 -1.718,-0.741c0.039,0.195 0.039,0.351 0.078,0.546c0.079,0.078 0.196,0.156 0.274,0.195z" opacity="0.26"/>
   <path id="svg_111" fill="#78CEFF" d="m218.982,125.851c0.078,0 0.156,0 0.234,0c-0.039,-0.039 -0.117,-0.118 -0.156,-0.157c-0.078,0 -0.117,0 -0.195,0c0.039,0.039 0.078,0.078 0.117,0.157z"/>
   <path id="svg_112" fill="#1D1D1B" d="m218.982,125.851c0.078,0 0.156,0 0.234,0c-0.039,-0.039 -0.117,-0.118 -0.156,-0.157c-0.078,0 -0.117,0 -0.195,0c0.039,0.039 0.078,0.078 0.117,0.157z" opacity="0.26"/>
   <path id="svg_113" fill="#78CEFF" d="m214.531,125.733c0.039,0 0.078,0 0.078,0c0.391,0 0.781,0 1.132,0c-0.078,-0.039 -0.117,-0.078 -0.195,-0.117c-0.468,0 -0.937,0 -1.366,0c0.117,0.039 0.195,0.078 0.351,0.117z"/>
   <path id="svg_114" fill="#1D1D1B" d="m214.531,125.733c0.039,0 0.078,0 0.078,0c0.391,0 0.781,0 1.132,0c-0.078,-0.039 -0.117,-0.078 -0.195,-0.117c-0.468,0 -0.937,0 -1.366,0c0.117,0.039 0.195,0.078 0.351,0.117z" opacity="0.26"/>
   <path id="svg_115" fill="#78CEFF" d="m215.741,125.772c-0.39,0 -0.78,0 -1.132,0c0.781,0.156 1.562,0.469 2.265,0.976c-0.352,-0.39 -0.742,-0.702 -1.133,-0.976z"/>
   <path id="svg_116" fill="#1D1D1B" d="m215.741,125.772c-0.39,0 -0.78,0 -1.132,0c0.781,0.156 1.562,0.469 2.265,0.976c-0.352,-0.39 -0.742,-0.702 -1.133,-0.976z" opacity="0.26"/>
   <path id="svg_117" fill="#78CEFF" d="m221.793,133.382c0.195,-0.624 0.39,-1.21 0.586,-1.795c-0.118,-0.507 -0.274,-1.054 -0.469,-1.561c-0.547,-1.444 -1.444,-2.966 -2.733,-4.176c-0.078,0 -0.156,0 -0.234,0c0.82,1.015 1.483,2.186 1.874,3.278c0.546,1.366 0.82,2.81 0.976,4.254z"/>
   <path id="svg_118" fill="#1D1D1B" d="m221.793,133.382c0.195,-0.624 0.39,-1.21 0.586,-1.795c-0.118,-0.507 -0.274,-1.054 -0.469,-1.561c-0.547,-1.444 -1.444,-2.966 -2.733,-4.176c-0.078,0 -0.156,0 -0.234,0c0.82,1.015 1.483,2.186 1.874,3.278c0.546,1.366 0.82,2.81 0.976,4.254z" opacity="0.26"/>
   <path id="svg_119" fill="white" d="m223.511,165.693c-0.664,-0.39 -1.367,-0.663 -2.07,-0.819c-0.351,-0.078 -0.741,-0.117 -1.093,-0.156c-0.39,-0.039 -0.82,-0.078 -1.21,-0.039c-0.781,0.039 -1.562,0.312 -2.264,0.702c-0.625,0.312 -1.172,0.742 -1.679,1.21c-1.64,1.522 -2.694,3.668 -3.631,5.736c-0.039,0.117 -0.078,0.235 -0.156,0.352c-2.03,7.999 -3.943,16.428 -5.583,24.936c0,0.078 0,0.156 0,0.195c0.429,0.39 0.742,1.131 0.742,1.99c0,1.249 -0.625,2.263 -1.445,2.263c-0.039,0 -0.039,0 -0.078,0c0.273,0.547 0.664,0.937 1.132,0.937c0.781,0 1.445,-1.015 1.445,-2.264c0,-0.858 -0.274,-1.599 -0.742,-1.99c0.273,-8.702 2.225,-17.482 5.739,-25.482c0.898,-2.068 1.991,-4.215 3.631,-5.736c0.507,-0.469 1.093,-0.859 1.679,-1.21c0.702,-0.351 1.483,-0.664 2.264,-0.703c0.429,-0.039 0.82,0 1.21,0.039c0.391,0.039 0.742,0.078 1.093,0.157c0.742,0.156 1.445,0.429 2.07,0.819c0.234,0.156 0.468,0.273 0.663,0.429c-0.078,-0.078 -0.195,-0.195 -0.273,-0.273c-0.429,-0.429 -0.937,-0.78 -1.444,-1.093z"/>
   <path id="svg_120" fill="#1D1D1B" d="m223.511,165.693c-0.664,-0.39 -1.367,-0.663 -2.07,-0.819c-0.351,-0.078 -0.741,-0.117 -1.093,-0.156c-0.39,-0.039 -0.82,-0.078 -1.21,-0.039c-0.781,0.039 -1.562,0.312 -2.264,0.702c-0.625,0.312 -1.172,0.742 -1.679,1.21c-1.64,1.522 -2.694,3.668 -3.631,5.736c-0.039,0.117 -0.078,0.235 -0.156,0.352c-2.03,7.999 -3.943,16.428 -5.583,24.936c0,0.078 0,0.156 0,0.195c0.429,0.39 0.742,1.131 0.742,1.99c0,1.249 -0.625,2.263 -1.445,2.263c-0.039,0 -0.039,0 -0.078,0c0.273,0.547 0.664,0.937 1.132,0.937c0.781,0 1.445,-1.015 1.445,-2.264c0,-0.858 -0.274,-1.599 -0.742,-1.99c0.273,-8.702 2.225,-17.482 5.739,-25.482c0.898,-2.068 1.991,-4.215 3.631,-5.736c0.507,-0.469 1.093,-0.859 1.679,-1.21c0.702,-0.351 1.483,-0.664 2.264,-0.703c0.429,-0.039 0.82,0 1.21,0.039c0.391,0.039 0.742,0.078 1.093,0.157c0.742,0.156 1.445,0.429 2.07,0.819c0.234,0.156 0.468,0.273 0.663,0.429c-0.078,-0.078 -0.195,-0.195 -0.273,-0.273c-0.429,-0.429 -0.937,-0.78 -1.444,-1.093z" opacity="0.26"/>
   <path id="svg_121" fill="white" d="m221.988,138.26l0.117,24.546c0.352,0.117 0.703,0.234 1.054,0.351l-0.117,-24c0,-1.795 0,-3.746 -0.273,-5.658c-0.273,0.781 -0.547,1.639 -0.82,2.459c0.039,0.78 0.039,1.561 0.039,2.302z"/>
   <path id="svg_122" fill="#1D1D1B" d="m221.988,138.26l0.117,24.546c0.352,0.117 0.703,0.234 1.054,0.351l-0.117,-24c0,-1.795 0,-3.746 -0.273,-5.658c-0.273,0.781 -0.547,1.639 -0.82,2.459c0.039,0.78 0.039,1.561 0.039,2.302z" opacity="0.26"/>
   <path id="svg_123" fill="white" d="m228.976,168.464c1.328,2.263 2.304,5.229 3.007,8.975c1.288,6.83 1.561,14.478 0.858,22.751c0,0.156 -0.039,0.273 -0.117,0.39c0,0.039 0,0.039 0,0.078c0,1.249 -0.624,2.264 -1.444,2.264c-0.039,0 -0.039,0 -0.078,0c0.273,0.546 0.663,0.936 1.132,0.936c0.781,0 1.444,-1.014 1.444,-2.263c0,-0.039 0,-0.039 0,-0.078c0.079,-0.117 0.118,-0.273 0.118,-0.39c0.702,-8.234 0.429,-15.883 -0.859,-22.751c-0.703,-3.746 -1.679,-6.673 -3.007,-8.975c-0.936,-1.639 -2.108,-2.966 -3.396,-3.942c0.898,0.82 1.679,1.795 2.342,3.005z"/>
   <path id="svg_124" fill="#1D1D1B" d="m228.976,168.464c1.328,2.263 2.304,5.229 3.007,8.975c1.288,6.83 1.561,14.478 0.858,22.751c0,0.156 -0.039,0.273 -0.117,0.39c0,0.039 0,0.039 0,0.078c0,1.249 -0.624,2.264 -1.444,2.264c-0.039,0 -0.039,0 -0.078,0c0.273,0.546 0.663,0.936 1.132,0.936c0.781,0 1.444,-1.014 1.444,-2.263c0,-0.039 0,-0.039 0,-0.078c0.079,-0.117 0.118,-0.273 0.118,-0.39c0.702,-8.234 0.429,-15.883 -0.859,-22.751c-0.703,-3.746 -1.679,-6.673 -3.007,-8.975c-0.936,-1.639 -2.108,-2.966 -3.396,-3.942c0.898,0.82 1.679,1.795 2.342,3.005z" opacity="0.26"/>
   <path id="svg_125" fill="#DADADA" d="m211.369,172.64c-3.358,7.804 -5.31,16.389 -5.583,24.936c1.64,-8.547 3.553,-16.976 5.583,-24.936z"/>
   <path id="svg_126" fill="#1D1D1B" d="m211.369,172.64c-3.358,7.804 -5.31,16.389 -5.583,24.936c1.64,-8.547 3.553,-16.976 5.583,-24.936z" opacity="0.26"/>
   <path id="svg_127" fill="#DADADA" d="m221.988,135.958c0.273,-0.859 0.547,-1.678 0.82,-2.459c-0.078,-0.546 -0.195,-1.093 -0.312,-1.639c-0.196,0.585 -0.43,1.249 -0.625,1.873c0.039,0.742 0.078,1.483 0.117,2.225z"/>
   <path id="svg_128" fill="#1D1D1B" d="m221.988,135.958c0.273,-0.859 0.547,-1.678 0.82,-2.459c-0.078,-0.546 -0.195,-1.093 -0.312,-1.639c-0.196,0.585 -0.43,1.249 -0.625,1.873c0.039,0.742 0.078,1.483 0.117,2.225z" opacity="0.26"/>
   <path id="svg_129" fill="#DADADA" d="m222.456,131.86c-0.039,-0.078 -0.039,-0.195 -0.078,-0.273c-0.195,0.585 -0.39,1.171 -0.585,1.795c0,0.117 0.039,0.234 0.039,0.351c0.234,-0.663 0.429,-1.287 0.624,-1.873z"/>
   <path id="svg_130" fill="#1D1D1B" d="m222.456,131.86c-0.039,-0.078 -0.039,-0.195 -0.078,-0.273c-0.195,0.585 -0.39,1.171 -0.585,1.795c0,0.117 0.039,0.234 0.039,0.351c0.234,-0.663 0.429,-1.287 0.624,-1.873z" opacity="0.26"/>
   <path id="svg_131" fill="#1D1D1B" d="m214.844,123.626c1.327,0.195 2.459,0.742 3.435,1.444c-1.171,-1.171 -2.694,-2.107 -4.529,-2.38c-0.078,0 -0.156,0 -0.234,0c0.078,0.507 0.156,0.975 0.195,1.483c0.235,-0.391 0.664,-0.625 1.133,-0.547z"/>
   <path id="svg_132" fill="#1D1D1B" d="m218.826,129.87c0.976,2.615 1.015,5.58 1.015,8.39l0,1.054c0.351,-1.093 0.703,-2.108 1.015,-3.122c-0.078,-1.873 -0.313,-3.707 -0.937,-5.424c-0.664,-1.718 -1.718,-3.161 -3.045,-4.059c0.82,0.859 1.522,1.912 1.952,3.161z"/>
   <path id="svg_133" fill="#1D1D1B" d="m209.651,174.708c0.586,-2.381 1.21,-4.722 1.835,-7.024c-0.742,1.209 -1.367,2.497 -1.913,3.746c-3.748,8.585 -5.817,18.068 -5.934,27.433c0,0.117 0.039,0.274 0.078,0.391c-0.039,0.156 -0.039,0.312 -0.039,0.507c0,0.39 0.078,0.78 0.156,1.093c0.351,-1.835 0.703,-3.63 1.054,-5.425c0.507,-7.102 2.147,-14.165 4.763,-20.721z"/>
   <path id="svg_134" fill="#1D1D1B" d="m231.904,199.41c0.547,-7.493 0.235,-14.439 -0.937,-20.683c-0.117,-0.702 -0.273,-1.405 -0.429,-2.107c-0.156,-0.663 -0.351,-1.327 -0.547,-1.99c-0.195,-0.586 -0.39,-1.21 -0.624,-1.795c-0.195,-0.547 -0.43,-1.054 -0.703,-1.6c-0.234,-0.469 -0.508,-0.937 -0.781,-1.405c-0.273,-0.429 -0.546,-0.82 -0.859,-1.21c-0.312,-0.351 -0.624,-0.702 -0.976,-1.014c-0.234,-0.235 -0.507,-0.43 -0.781,-0.625c0.235,0.234 0.469,0.469 0.664,0.742c0.312,0.39 0.586,0.78 0.859,1.209c0.273,0.43 0.547,0.898 0.781,1.405c0.273,0.508 0.507,1.054 0.703,1.6c0.234,0.586 0.429,1.171 0.624,1.795c0.195,0.664 0.391,1.327 0.547,1.99c0.156,0.703 0.312,1.405 0.429,2.108c1.172,6.243 1.484,13.19 0.937,20.682c-0.546,0.312 -0.976,1.171 -0.976,2.146c0,1.21 0.586,2.225 1.367,2.264c-0.196,-0.39 -0.274,-0.859 -0.274,-1.366c0,-1.015 0.391,-1.834 0.976,-2.146z"/>
   <path id="svg_135" fill="#1D1D1B" d="m204.966,202.026c0.04,0 0,-0.041 0,-0.041c0,0 0,0 0,0.041z"/>
   <path id="svg_136" fill="#1D1D1B" d="m219.958,162.533c-2.147,-0.118 -4.451,0.78 -6.286,2.458c-0.156,0.117 -0.273,0.273 -0.429,0.429c-0.312,1.171 -0.625,2.381 -0.937,3.59c0.664,-1.131 1.444,-2.146 2.42,-3.082c1.835,-1.717 4.139,-2.576 6.286,-2.459l-0.117,-24.194c-0.351,1.092 -0.703,2.185 -1.054,3.356l0.117,19.902z"/>
   <path id="svg_137" fill="#1D1D1B" d="m226.634,165.42c-1.015,-1.014 -2.186,-1.756 -3.475,-2.263l0,0.546c1.289,0.351 2.46,0.937 3.475,1.717z"/>
   <path id="svg_138" fill="#1D1D1B" d="m220.934,139.236l0,-0.039c0,-0.859 0,-1.678 -0.039,-2.537c-0.352,1.015 -0.664,2.068 -1.015,3.161l0,2.771c0.351,-1.171 0.702,-2.303 1.054,-3.356z"/>
   <path id="svg_139" fill="#1D1D1B" d="m211.72,167.254c-0.546,2.069 -1.132,4.215 -1.679,6.361c0.196,-0.429 0.352,-0.858 0.547,-1.288c0.508,-1.131 1.054,-2.263 1.679,-3.356c0.312,-1.209 0.624,-2.38 0.937,-3.59c-0.508,0.586 -1.015,1.21 -1.484,1.873z"/>
   <path id="svg_140" fill="#1D1D1B" d="m204.693,200.658c0,-0.156 0,-0.351 0.039,-0.507c-0.039,-0.117 -0.078,-0.234 -0.078,-0.39c0,-1.054 0.039,-2.146 0.117,-3.2c-0.313,1.483 -0.586,3.005 -0.898,4.527c0.234,0.507 0.625,0.858 1.054,0.897l0,-0.039c-0.117,-0.351 -0.234,-0.78 -0.234,-1.288z"/>
   <path id="svg_141" fill="#1D1D1B" d="m210.081,173.615c0.546,-2.146 1.093,-4.292 1.678,-6.361c-0.078,0.156 -0.195,0.273 -0.273,0.43c-0.625,2.302 -1.21,4.643 -1.835,7.024c0.117,-0.39 0.273,-0.742 0.43,-1.093z"/>
   <path id="svg_142" fill="#1D1D1B" d="m204.888,195.39c-0.351,1.795 -0.742,3.629 -1.054,5.425c0.039,0.078 0.078,0.195 0.117,0.273c0.273,-1.522 0.586,-3.005 0.898,-4.527c-0.039,-0.351 0,-0.781 0.039,-1.171z"/>
   <path id="svg_143" fill="#1D1D1B" d="m219.841,139.782c0.351,-1.093 0.702,-2.146 1.015,-3.161c0,-0.156 0,-0.273 0,-0.429c-0.313,0.975 -0.664,2.029 -1.015,3.122l0,0.468z"/>
   <path id="svg_144" fill="#1D1D1B" d="m213.75,124.172c0.039,0.235 0.078,0.508 0.117,0.742c0.586,0.156 1.172,0.39 1.718,0.741c0.469,0 0.937,0 1.445,0l0.039,0c0.624,0 1.21,0.039 1.835,0.039c-0.195,-0.195 -0.352,-0.429 -0.547,-0.624c-0.976,-0.741 -2.147,-1.249 -3.435,-1.444c-0.547,-0.078 -0.976,0.156 -1.172,0.546z"/>
   <path id="svg_145" fill="#1D1D1B" d="m218.982,125.85c-0.039,-0.039 -0.078,-0.117 -0.117,-0.156c-0.625,0 -1.211,-0.039 -1.835,-0.039l-0.039,0c-0.469,0 -0.937,0 -1.445,0c0.078,0.039 0.117,0.078 0.195,0.117c1.093,0 2.148,0.039 3.241,0.078z"/>
   <path id="svg_146" fill="#1D1D1B" d="m216.874,126.709c1.288,0.898 2.381,2.341 3.045,4.059c0.624,1.717 0.859,3.551 0.937,5.424c0.312,-0.976 0.624,-1.951 0.937,-2.849c-0.156,-1.444 -0.43,-2.888 -0.937,-4.254c-0.391,-1.092 -1.054,-2.224 -1.874,-3.277c-1.093,-0.039 -2.147,-0.079 -3.241,-0.079c0.391,0.313 0.781,0.625 1.133,0.976z"/>
   <path id="svg_147" fill="#1D1D1B" d="m204.888,195.39c1.445,-7.063 3.084,-14.048 4.763,-20.721c-2.616,6.595 -4.255,13.658 -4.763,20.721z"/>
   <path id="svg_148" fill="#1D1D1B" d="m221.988,138.26c0,-0.742 0,-1.522 -0.039,-2.303c-0.351,1.054 -0.703,2.147 -1.054,3.278l0.117,24.195c-2.147,-0.117 -4.451,0.78 -6.286,2.458c-0.976,0.898 -1.756,1.952 -2.42,3.083c-0.313,1.21 -0.625,2.42 -0.937,3.629c0.039,-0.117 0.078,-0.234 0.156,-0.351c0.898,-2.068 1.991,-4.214 3.631,-5.736c0.507,-0.468 1.093,-0.859 1.679,-1.21c0.702,-0.351 1.483,-0.663 2.264,-0.702c0.429,-0.039 0.82,0 1.21,0.039c0.391,0.039 0.742,0.078 1.093,0.156c0.742,0.156 1.445,0.429 2.07,0.819c0.507,0.312 1.015,0.664 1.483,1.093c0.117,0.078 0.195,0.195 0.273,0.273c0.274,0.195 0.547,0.429 0.781,0.624c0.352,0.313 0.664,0.664 0.976,1.015c0.313,0.39 0.586,0.781 0.859,1.21c0.273,0.429 0.547,0.897 0.781,1.405c0.273,0.507 0.508,1.053 0.703,1.6c0.234,0.585 0.429,1.17 0.624,1.795c0.196,0.663 0.391,1.327 0.547,1.99c0.156,0.702 0.312,1.405 0.429,2.107c1.172,6.244 1.484,13.19 0.937,20.683c-0.546,0.312 -0.976,1.17 -0.976,2.146c0,0.507 0.118,0.975 0.274,1.366c0.039,0 0.039,0 0.078,0c0.781,0 1.444,-1.015 1.444,-2.264c0,-0.039 0,-0.039 0,-0.078c0.078,-0.117 0.117,-0.273 0.117,-0.39c0.703,-8.234 0.43,-15.882 -0.858,-22.751c-0.703,-3.746 -1.679,-6.673 -3.007,-8.975c-0.663,-1.171 -1.444,-2.185 -2.342,-3.005c-1.054,-0.78 -2.186,-1.366 -3.475,-1.717l0,-0.546c-0.351,-0.156 -0.703,-0.273 -1.054,-0.351l-0.078,-24.585z"/>
   <path id="svg_149" fill="#1D1D1B" d="m206.489,199.761c0,-0.859 -0.274,-1.6 -0.742,-1.99c0,-0.078 0,-0.156 0,-0.195c-0.273,1.482 -0.547,2.926 -0.82,4.409c0,0 0,0.039 0.039,0.039c0.039,0 0.039,0 0.078,0c0.82,0 1.445,-1.014 1.445,-2.263z"/>
   <path id="svg_150" fill="#1D1D1B" d="m220.934,139.236c0.351,-1.132 0.703,-2.225 1.054,-3.278c-0.039,-0.742 -0.039,-1.483 -0.117,-2.225c-0.312,0.937 -0.625,1.873 -0.976,2.888c0.039,0.859 0.039,1.717 0.039,2.537l0,0.078z"/>
   <path id="svg_151" fill="#1D1D1B" d="m210.081,173.615c-1.874,7.376 -3.709,15.102 -5.271,22.985c-0.078,1.054 -0.117,2.146 -0.117,3.2c0,0.117 0.039,0.273 0.078,0.39c-0.039,0.156 -0.039,0.312 -0.039,0.507c0,0.508 0.117,0.937 0.273,1.327c0.274,-1.483 0.547,-2.966 0.82,-4.409c0.273,-8.507 2.225,-17.093 5.583,-24.936c0.312,-1.21 0.625,-2.459 0.937,-3.63c-0.664,1.093 -1.21,2.225 -1.679,3.356c-0.234,0.352 -0.429,0.781 -0.585,1.21z"/>
   <path id="svg_152" fill="#1D1D1B" d="m209.651,174.708c-1.679,6.673 -3.318,13.619 -4.763,20.721c-0.039,0.39 -0.078,0.781 -0.078,1.21c1.601,-7.844 3.396,-15.609 5.27,-22.985c-0.156,0.312 -0.312,0.664 -0.429,1.054z"/>
   <path id="svg_153" fill="#1D1D1B" d="m221.832,133.733c0,-0.117 -0.039,-0.234 -0.039,-0.351c-0.313,0.898 -0.625,1.834 -0.937,2.849c0,0.156 0,0.273 0,0.429c0.351,-1.054 0.663,-1.99 0.976,-2.927z"/>
   <path id="svg_154" fill="white" d="m83.7042,155.86c0.1562,0.624 0.6247,1.521 1.2884,2.575c0.976,0.781 2.0692,1.756 3.2404,2.849c0.0781,0.078 0.1952,0.156 0.2733,0.234l1.5226,-0.937l-5.5048,-9.014l-1.952,1.21c0.2732,0.585 0.4684,1.131 0.6637,1.678c0.1952,0.507 0.3513,0.975 0.4684,1.405z"/>
   <path id="svg_155" fill="white" d="m66.2918,163.157l1.7569,-0.976c-0.039,-0.078 -0.0781,-0.117 -0.0781,-0.195l-4.0603,2.537l3.0452,10.224l2.6939,-1.678c-0.3514,-0.859 -0.6637,-1.756 -0.976,-2.615c-0.859,-2.38 -1.2884,-4.956 -2.3816,-7.297z"/>
   <path id="svg_156" fill="white" d="m81.5568,154.884c0.1953,0.507 0.0391,1.21 0.4295,1.444c0.0781,0.039 0.1562,0.078 0.2343,0.117l0.1171,-0.078c0,0.039 0.039,0.117 0.039,0.156c0.7028,0.429 1.6007,1.054 2.6158,1.912c-0.7028,-1.054 -1.1713,-1.951 -1.2884,-2.575c-0.1171,-0.43 -0.2342,-0.898 -0.4294,-1.405c-0.1952,-0.508 -0.4295,-1.093 -0.6637,-1.678l-14.6014,9.209c0.039,0.078 0.078,0.117 0.078,0.195l13.4692,-7.297z"/>
   <path id="svg_157" fill="white" d="m68.7907,170.766c-0.6247,-1.717 -0.4295,-3.434 -1.0151,-5.19l1.2884,-0.819c-0.2343,-0.742 -0.5076,-1.444 -0.8199,-2.146c-0.0781,-0.117 -0.1171,-0.274 -0.1952,-0.391l-1.7569,0.976c1.0932,2.341 1.5226,4.917 2.3815,7.375c0.3124,0.859 0.6637,1.756 0.9761,2.615c-0.2733,-0.898 -0.5856,-1.717 -0.8589,-2.42z"/>
   <path id="svg_158" fill="white" d="m88.2328,161.323c-1.1712,-1.093 -2.2643,-2.068 -3.2404,-2.849c0.2343,0.351 0.5076,0.742 0.7809,1.132c0.7808,0.507 1.6397,1.053 2.4595,1.717z"/>
   <path id="svg_159" fill="white" d="m85.7735,159.606c-0.2733,-0.39 -0.5466,-0.781 -0.7808,-1.132c-1.0151,-0.858 -1.913,-1.483 -2.6158,-1.912c0.0391,0.117 0.0781,0.234 0.0781,0.351c0.1952,0.781 1.6007,1.6 3.3185,2.693z"/>
   <path id="svg_160" fill="white" d="m81.9864,156.328c-0.4294,-0.195 -0.2732,-0.937 -0.4294,-1.444l-13.4692,7.297c0.0781,0.117 0.1171,0.273 0.1952,0.391c0.3123,0.702 0.5856,1.443 0.8199,2.146l13.1178,-8.273c-0.0781,-0.039 -0.1562,-0.078 -0.2343,-0.117z"/>
   <path id="svg_161" fill="white" d="m88.5063,161.557c-0.0781,-0.078 -0.1562,-0.156 -0.2733,-0.234c0.0781,0.078 0.1562,0.156 0.2733,0.234z"/>
   <path id="svg_162" fill="white" d="m82.3383,156.406l-0.1177,0.078c0.0392,0.039 0.0785,0.039 0.1569,0.079c-0.0392,-0.079 -0.0392,-0.118 -0.0392,-0.157z"/>
   <path id="svg_163" fill="white" d="m87.6473,162.064l0.8589,-0.507c-0.0781,-0.078 -0.1562,-0.156 -0.2733,-0.234c-0.8199,-0.664 -1.6788,-1.21 -2.4596,-1.717c0.5466,0.741 1.1712,1.6 1.874,2.458z"/>
   <path id="svg_164" fill="white" d="m70.6253,169.83c-0.5856,-1.678 -0.976,-3.395 -1.5226,-5.073l-1.2884,0.819c0.5857,1.756 0.3904,3.473 1.0151,5.191c0.2733,0.702 0.5856,1.56 0.898,2.38l1.7568,-1.093c-0.3123,-0.741 -0.5856,-1.483 -0.8589,-2.224z"/>
   <path id="svg_165" fill="white" d="m71.4454,172.054l16.202,-9.99c-0.7027,-0.897 -1.3274,-1.717 -1.874,-2.458c-1.7178,-1.093 -3.1232,-1.912 -3.3185,-2.732c-0.039,-0.117 -0.078,-0.234 -0.078,-0.351c-0.0391,-0.039 -0.1172,-0.039 -0.1562,-0.078l-13.1178,8.312c0.5466,1.678 0.937,3.434 1.5226,5.073c0.2733,0.741 0.5466,1.483 0.8199,2.224z"/>
   <path id="svg_166" fill="#FFA9A8" d="m253.143,286.237c-0.117,-0.039 -0.195,-0.078 -0.313,-0.117c-0.937,-0.273 -2.381,-0.195 -3.201,0.429c-0.156,0.117 -0.547,0.273 -0.742,0.429c-0.078,0.039 -0.156,0.039 -0.234,0.078c-0.625,0.156 -1.288,0.273 -1.952,0.39c-1.484,0.313 -2.46,1.522 -2.85,2.888c-0.117,0.195 -0.195,0.429 -0.234,0.664c-0.039,0.351 -0.117,0.741 -0.156,1.092c0,0.39 0.039,0.781 0.156,1.132c2.03,0 4.021,-0.663 5.622,-2.029l4.88,-4.02c-0.273,-0.312 -0.586,-0.663 -0.976,-0.936z"/>
   <path id="svg_167" fill="#FFA9A8" d="m253.572,286.432c-0.117,-0.078 -0.273,-0.117 -0.429,-0.195c0.351,0.273 0.664,0.585 0.976,0.936l0.156,-0.156l-0.703,-0.585z"/>
   <path id="svg_168" fill="#FFA9A8" d="m243.617,290.998c0.078,-0.235 0.156,-0.43 0.234,-0.664c0.39,-1.366 1.366,-2.575 2.85,-2.888c0.664,-0.156 1.288,-0.234 1.952,-0.39c0.078,-0.039 0.156,-0.039 0.234,-0.078c0.195,-0.156 0.586,-0.312 0.742,-0.429c0.82,-0.585 2.264,-0.663 3.201,-0.429c0.118,0.039 0.196,0.078 0.313,0.117c-0.117,-0.078 -0.195,-0.156 -0.313,-0.234c-1.288,-0.859 -3.552,-0.742 -4.763,0.351c-0.195,0.039 -0.39,0.117 -0.585,0.156c-0.898,0.234 -1.835,0.39 -2.733,0.507c-2.303,0.351 -3.358,3.161 -2.889,5.112c0.078,0.312 0.195,0.625 0.39,0.937c0.469,0.078 0.898,0.117 1.367,0.117c-0.117,-0.351 -0.195,-0.742 -0.156,-1.132c0.039,-0.312 0.117,-0.702 0.156,-1.053z"/>
   <path id="svg_169" fill="#FFA9A8" d="m238.424,274.256c-4.88,0.82 -15.421,2.108 -17.685,5.347c-2.265,3.239 -0.586,2.692 2.264,1.131c2.85,-1.561 6.091,-1.287 6.091,-1.287c0,0 -6.091,3.473 -6.481,6.985c-0.195,1.951 1.639,4.058 3.318,5.541c1.445,1.288 3.436,1.678 5.271,1.132c2.616,-0.781 6.598,-1.678 8.901,-0.703c0.039,0 0.078,0.039 0.117,0.039c0.664,0.313 1.367,0.508 2.108,0.625c-0.195,-0.312 -0.312,-0.625 -0.39,-0.937c-0.468,-1.99 0.586,-4.761 2.889,-5.112c0.937,-0.156 1.835,-0.273 2.733,-0.507c0.195,-0.039 0.39,-0.117 0.586,-0.156c1.21,-1.093 3.435,-1.171 4.763,-0.351c0.117,0.078 0.195,0.156 0.312,0.234c0.156,0.039 0.273,0.117 0.429,0.195l-14.25,-12.371c-0.39,0.078 -0.702,0.156 -0.976,0.195z"/>
   <path id="svg_170" fill="#DADADA" d="m262.279,279.993l0.429,0.351c0.39,-0.351 0.82,-0.741 1.249,-1.131l-0.429,-0.391c-0.469,0.43 -0.859,0.82 -1.249,1.171z"/>
   <path id="svg_171" fill="#DADADA" d="m246.623,266.725l15.655,13.268c0.391,-0.39 0.82,-0.741 1.211,-1.132l-15.812,-13.385c-0.429,0.43 -0.742,0.859 -1.054,1.249z"/>
   <path id="svg_172" fill="white" d="m244.515,268.364c0.312,-0.117 0.663,-0.39 1.054,-0.702c0.234,-0.508 0.351,-0.781 0.351,-0.781l0.273,0.234c0.118,-0.117 0.235,-0.234 0.391,-0.39l-0.937,-0.78l-3.514,2.341c0.156,0 0.312,0.039 0.469,0.039c0.507,0 1.132,0 1.913,0.039z"/>
   <path id="svg_173" fill="white" d="m257.555,287.446l-1.211,1.405l-1.952,-1.678l1.952,1.678l6.95,-7.96l-0.625,-0.508c-2.46,2.264 -4.685,4.215 -6.559,5.854l1.445,1.209z"/>
   <path id="svg_174" fill="white" d="m246.193,267.037l0.079,0.078c0.117,-0.117 0.234,-0.273 0.351,-0.429l-0.039,-0.039c-0.156,0.156 -0.273,0.273 -0.391,0.39z"/>
   <path id="svg_175" fill="white" d="m254.275,287.056l0.119,0.08l-0.119,-0.08z"/>
   <path id="svg_176" fill="white" d="m244.866,268.364c0.117,0 0.274,-0.039 0.391,-0.117c0.117,-0.234 0.234,-0.429 0.312,-0.585c-0.39,0.351 -0.742,0.585 -1.054,0.702c0.117,0 0.234,0 0.351,0z"/>
   <path id="svg_177" fill="white" d="m242.641,268.286c-0.195,0 -0.352,-0.039 -0.469,-0.039l-0.273,0.195c0.156,0 0.312,0.039 0.508,0.039l0.234,-0.195z"/>
   <path id="svg_178" fill="white" d="m241.86,268.403l-3.514,2.38l0.234,0.196l3.787,-2.537c-0.156,0 -0.351,-0.039 -0.507,-0.039z"/>
   <path id="svg_179" fill="white" d="m246.272,267.154c0.117,-0.117 0.234,-0.273 0.351,-0.429c-0.117,0.117 -0.234,0.273 -0.351,0.429z"/>
   <path id="svg_180" fill="white" d="m235.887,271.096l3.396,2.965l-3.396,-2.965z"/>
   <path id="svg_181" fill="white" d="m245.569,267.623c0.195,-0.156 0.39,-0.352 0.624,-0.586l-0.273,-0.234c0,0.039 -0.117,0.351 -0.351,0.82z"/>
   <path id="svg_182" fill="white" d="m253.572,286.432l0.703,0.624l-0.703,-0.624z"/>
   <path id="svg_183" fill="white" d="m246.193,267.037c-0.234,0.195 -0.429,0.39 -0.624,0.585c-0.078,0.196 -0.195,0.391 -0.312,0.586c0.156,-0.117 0.312,-0.273 0.507,-0.468c0.156,-0.157 0.312,-0.391 0.508,-0.625l-0.079,-0.078z"/>
   <path id="svg_184" fill="white" d="m239.283,274.061l14.289,12.371l-14.289,-12.371z"/>
   <path id="svg_185" fill="white" d="m245.764,267.779c0.156,-0.156 0.312,-0.391 0.508,-0.625c-0.196,0.234 -0.352,0.43 -0.508,0.625z"/>
   <path id="svg_186" fill="white" d="m244.866,268.364c0.117,0 0.273,-0.039 0.391,-0.117c0,0 0,0 0,-0.039c-0.118,0.078 -0.274,0.156 -0.391,0.156z"/>
   <path id="svg_187" fill="white" d="m261.693,280.539l0.234,0.234l-4.958,4.098c-0.391,0.351 -0.781,0.702 -1.171,1.054l0.351,0.312c1.874,-1.639 4.06,-3.629 6.559,-5.854l-0.43,-0.351c-0.195,0.156 -0.39,0.312 -0.585,0.507z"/>
   <path id="svg_188" fill="white" d="m242.368,268.442c0.468,0.039 1.015,0.039 1.639,0.039c0.157,0 0.313,-0.039 0.508,-0.117c-0.742,0 -1.366,-0.039 -1.874,-0.078l-0.273,0.156z"/>
   <path id="svg_189" fill="white" d="m244.515,268.364c-0.196,0.078 -0.352,0.117 -0.508,0.117c-0.625,0 -1.171,0 -1.64,-0.039l-3.787,2.537l2.499,2.185c1.991,-1.327 3.397,-3.512 4.138,-4.917c-0.117,0.078 -0.234,0.117 -0.39,0.117c-0.078,0 -0.195,0 -0.312,0z"/>
   <path id="svg_190" fill="white" d="m255.798,285.925c0.39,-0.352 0.78,-0.703 1.171,-1.054l-1.211,1.014l0.04,0.04z"/>
   <path id="svg_191" fill="white" d="m246.272,267.154l15.421,13.385c0.195,-0.156 0.39,-0.351 0.547,-0.507l-15.656,-13.268c-0.078,0.117 -0.195,0.234 -0.312,0.39z"/>
   <path id="svg_192" fill="white" d="m245.257,268.208c0,0 0,0.039 0,0c0.156,-0.078 0.312,-0.234 0.507,-0.468c-0.195,0.234 -0.351,0.39 -0.507,0.468z"/>
   <path id="svg_193" fill="white" d="m261.966,280.734l-0.234,-0.234c-1.718,1.6 -3.319,3.044 -4.763,4.332l4.997,-4.098z"/>
   <path id="svg_194" fill="white" d="m245.764,267.779c-0.195,0.234 -0.351,0.39 -0.508,0.468c-0.78,1.405 -2.147,3.59 -4.138,4.917l14.641,12.721l1.21,-1.014c1.444,-1.288 3.045,-2.771 4.763,-4.332l-15.421,-13.385c-0.196,0.234 -0.391,0.43 -0.547,0.625z"/>
   <path id="svg_195" fill="#DADADA" d="m245.647,265.867l-0.898,-0.742l0.898,0.742z"/>
   <path id="svg_196" fill="#DADADA" d="m254.861,287.369c-0.117,-0.118 -0.235,-0.235 -0.352,-0.313c-0.039,0.039 -0.078,0.078 -0.117,0.078l1.952,1.678l1.211,-1.404l-1.406,-1.21c-0.039,0.039 -0.078,0.078 -0.117,0.117c-0.43,0.39 -0.82,0.741 -1.171,1.054z"/>
   <path id="svg_197" fill="#DADADA" d="m244.749,265.125l-4.099,2.732c0.195,0.117 0.624,0.273 1.483,0.351l3.514,-2.341l-0.898,-0.742z"/>
   <path id="svg_198" fill="#DADADA" d="m254.392,286.978l-0.117,0.078l0.117,0.078c0.039,-0.039 0.078,-0.078 0.117,-0.078c-0.039,-0.039 -0.078,-0.039 -0.117,-0.078z"/>
   <path id="svg_199" fill="#DADADA" d="m254.861,287.369c0.39,-0.313 0.781,-0.664 1.171,-1.054l-0.351,-0.312c-0.391,0.351 -0.781,0.702 -1.172,1.014c0.118,0.156 0.235,0.234 0.352,0.352z"/>
   <path id="svg_200" fill="#DADADA" d="m242.133,268.247c-0.859,-0.078 -1.288,-0.234 -1.483,-0.351l-0.43,0.312c0.352,0.078 0.859,0.195 1.679,0.234l0.234,-0.195z"/>
   <path id="svg_201" fill="#DADADA" d="m240.962,273.242l-2.499,-2.185l0.156,-0.078l-0.234,-0.195l3.514,-2.381c-0.82,-0.039 -1.328,-0.156 -1.679,-0.234l-4.333,2.888l3.435,2.965c0.586,-0.156 1.132,-0.429 1.64,-0.78z"/>
   <path id="svg_202" fill="#DADADA" d="m254.509,287.056c0.391,-0.312 0.742,-0.663 1.171,-1.014l-0.039,-0.039l-1.21,1.014c0,0 0.039,0 0.078,0.039z"/>
   <path id="svg_203" fill="#DADADA" d="m253.572,286.432l0.742,0.624l0.117,-0.078c-0.273,-0.234 -0.585,-0.39 -0.859,-0.546z"/>
   <path id="svg_204" fill="#DADADA" d="m239.283,274.061l14.25,12.371c0.274,0.156 0.586,0.312 0.82,0.546l1.21,-1.014l-14.64,-12.722c-0.468,0.351 -1.015,0.624 -1.64,0.819z"/>
   <path id="svg_205" fill="#DADADA" d="m256.032,286.354c0.039,-0.039 0.078,-0.078 0.117,-0.117l-0.351,-0.312c-0.039,0.039 -0.078,0.078 -0.117,0.117l0.351,0.312z"/>
   <path id="svg_206" fill="#DADADA" d="m255.602,285.964l0.039,0.039c0.04,-0.039 0.079,-0.078 0.118,-0.117l-0.039,-0.04l-0.118,0.118z"/>
   <path id="svg_207" fill="#DADADA" d="m238.463,271.096l2.499,2.185c0.039,-0.039 0.078,-0.078 0.156,-0.078l-2.498,-2.185l-0.157,0.078z"/>
   <path id="svg_208" fill="#DADADA" d="m255.602,285.964l0.117,-0.118l-14.64,-12.682c-0.039,0.039 -0.078,0.078 -0.156,0.078l14.679,12.722z"/>
   <path id="svg_209" fill="#FFA9A8" d="m211.564,117.265c-1.483,2.576 -3.279,4.995 -5.622,6.829c-0.82,0.625 -1.679,1.171 -2.616,1.678c0.742,0 1.445,-0.039 2.187,-0.039c2.733,-0.078 5.583,-0.117 8.472,-0.117c0,-0.078 0,-0.117 -0.039,-0.195c-0.157,-0.156 -0.274,-0.351 -0.313,-0.585c-0.078,0 -0.117,-0.039 -0.195,-0.039c-0.586,-0.078 -0.976,-0.625 -0.898,-1.21c0.078,-0.507 0.508,-0.858 0.976,-0.897c-0.312,-2.264 -0.585,-4.605 -0.781,-6.634c-0.312,0.312 -0.663,0.663 -1.015,0.975c-0.078,0.078 -0.117,0.156 -0.156,0.234z"/>
   <path id="svg_210" fill="#FFA9A8" d="m204.459,125.85c3.084,-0.078 6.246,-0.117 9.487,-0.117c0,-0.039 0,-0.078 -0.039,-0.117c-2.889,0 -5.74,0.039 -8.472,0.117c-0.742,0 -1.445,0.039 -2.187,0.039c-0.078,0.039 -0.117,0.078 -0.195,0.117c0.508,0 0.976,-0.039 1.406,-0.039z"/>
   <path id="svg_211" fill="#FFA9A8" d="m189.428,128.153c-0.117,0.078 -0.234,0.117 -0.352,0.195l0,9.561c0.664,1.951 2.968,2.809 5.974,2.927c0.351,0 0.663,0.039 1.015,0c8.394,-0.079 21.004,-5.034 19.52,-8.273c-0.117,-0.274 -0.234,-0.625 -0.351,-0.976c-0.469,-1.444 -0.898,-3.512 -1.249,-5.854c-3.241,-0.039 -6.442,0.039 -9.487,0.118c-0.469,0 -0.898,0.039 -1.367,0.039c-2.498,1.287 -5.309,2.107 -7.964,2.497c-1.913,0.273 -3.904,0.234 -5.739,-0.234z"/>
   <path id="svg_212" fill="#FFA9A8" d="m189.076,128.075l0,0.273c0.118,-0.078 0.235,-0.117 0.352,-0.195c-0.117,-0.039 -0.234,-0.039 -0.352,-0.078z"/>
   <path id="svg_213" fill="#FFA9A8" d="m213.633,124.836c0.039,0.234 0.156,0.429 0.312,0.585c-0.039,-0.195 -0.039,-0.351 -0.078,-0.546c-0.117,0 -0.156,0 -0.234,-0.039z"/>
   <path id="svg_214" fill="#FFA9A8" d="m212.54,123.587c-0.078,0.585 0.312,1.132 0.898,1.21c0.078,0 0.117,0.039 0.195,0.039c0,-0.117 -0.039,-0.234 0,-0.351c0,-0.117 0.078,-0.234 0.117,-0.352c-0.078,-0.507 -0.156,-0.975 -0.195,-1.482c-0.507,0.078 -0.937,0.429 -1.015,0.936z"/>
   <path id="svg_215" fill="#FFA9A8" d="m213.75,124.173c-0.039,0.117 -0.117,0.234 -0.117,0.351c0,0.117 0,0.234 0,0.351c0.078,0 0.156,0.039 0.234,0.039c-0.078,-0.273 -0.117,-0.507 -0.117,-0.741z"/>
   <path id="svg_216" fill="#DE8469" d="m191.458,125.733c0.078,0.078 0.156,0.196 0.195,0.274c0.039,0.078 0.039,0.156 0.078,0.234c3.826,-0.352 7.73,-0.391 11.595,-0.469c0.937,-0.507 1.796,-1.053 2.616,-1.678c2.343,-1.834 4.139,-4.253 5.622,-6.829c0.039,-0.078 0.078,-0.156 0.156,-0.234c-3.24,3.005 -7.613,6.283 -12.142,7.883c-2.654,0.897 -5.426,1.054 -8.12,0.819z"/>
   <path id="svg_217" fill="#DE8469" d="m191.731,126.28c3.787,-0.273 7.613,-0.312 11.4,-0.391c0.078,-0.039 0.117,-0.078 0.195,-0.117c-3.865,0.078 -7.769,0.117 -11.595,0.469c0,0.039 0,0.039 0,0.039z"/>
   <path id="svg_218" fill="#DE8469" d="m191.106,127.411c-0.546,0.235 -1.132,0.508 -1.678,0.781c1.874,0.468 3.826,0.507 5.739,0.234c2.654,-0.39 5.465,-1.21 7.964,-2.497c-3.787,0.078 -7.613,0.117 -11.4,0.39c0.078,0.429 -0.195,0.897 -0.625,1.092z"/>
   <path id="svg_219" fill="#DE8469" d="m190.755,126.358c0.117,0 0.234,-0.039 0.351,-0.039c0.118,0 0.196,0 0.313,-0.039c0.078,0 0.195,0 0.273,-0.039c0,-0.078 -0.039,-0.156 -0.078,-0.234c-0.039,-0.117 -0.117,-0.196 -0.195,-0.274c-0.234,-0.039 -0.469,-0.039 -0.703,-0.078c0.117,0.235 0.117,0.469 0.039,0.703z"/>
   <path id="svg_220" fill="#DE8469" d="m191.106,126.319c-0.117,0 -0.234,0.039 -0.351,0.039l0,0.039c0.312,-0.039 0.664,-0.039 0.976,-0.078l0,-0.039c-0.078,0 -0.195,0 -0.273,0.039c-0.117,-0.039 -0.234,-0.039 -0.352,0z"/>
   <path id="svg_221" fill="#DE8469" d="m190.169,126.943c-0.39,0.156 -0.741,0.312 -1.132,0.507l0,0.625c0.117,0.039 0.234,0.078 0.352,0.078c0.546,-0.273 1.093,-0.546 1.678,-0.781c0.43,-0.195 0.703,-0.663 0.625,-1.092c-0.312,0.039 -0.664,0.039 -0.976,0.078c-0.078,0.273 -0.273,0.468 -0.547,0.585z"/>
   <path id="svg_222" fill="#DE8469" d="m189.076,125.421l0,0.586c0.313,-0.157 0.664,-0.313 0.976,-0.43c-0.351,-0.039 -0.663,-0.117 -0.976,-0.156z"/>
   <path id="svg_223" fill="#DE8469" d="m190.755,126.358c0.078,-0.195 0.078,-0.429 0,-0.664c-0.234,-0.039 -0.468,-0.078 -0.703,-0.078c-0.351,0.156 -0.663,0.273 -0.976,0.43l0,0.468c0.664,-0.078 1.406,-0.156 1.406,-0.156c0.078,0 0.156,0 0.273,0z"/>
   <path id="svg_224" fill="#DE8469" d="m190.404,126.397c0.117,0 0.234,0 0.351,-0.039l0,-0.039c-0.078,0 -0.195,0 -0.273,0.039c0,0 -0.742,0.078 -1.406,0.156l0,0.039c0.43,-0.078 0.898,-0.117 1.328,-0.156z"/>
   <path id="svg_225" fill="#DE8469" d="m190.755,126.358c-0.117,0 -0.234,0 -0.351,0.039c-0.469,0.039 -0.898,0.078 -1.367,0.117l0,0.897c0.352,-0.156 0.742,-0.351 1.132,-0.507c0.274,-0.078 0.469,-0.273 0.586,-0.546z"/>
   <path id="svg_226" fill="#FFA9A8" d="m180.448,105.129c0.469,-1.249 1.562,-2.615 2.616,-3.278c1.093,-0.702 2.381,-0.897 3.67,-0.936c0.429,0 0.82,0 1.249,0c1.289,0.039 2.655,0.195 3.865,0.741c1.093,0.468 2.147,1.366 2.889,2.38c0,0 4.607,5.269 4.1,10.771c2.732,-0.937 5.348,-2.342 7.3,-4.449c2.616,-2.809 3.631,-6.4 4.919,-9.912c0.274,-0.7412 0.547,-1.4826 0.781,-2.2241c-0.937,-1.1317 -1.483,-2.5365 -1.483,-4.0584c0,-2.6536 1.679,-4.917 4.099,-6.0486c0.039,-0.2732 0.078,-0.5854 0.078,-0.8586c-0.039,-0.6634 -0.117,-1.3658 -0.156,-2.0292l0,-0.039c-0.039,-0.6244 -0.117,-1.2097 -0.195,-1.7951c0,-0.117 -0.039,-0.1951 -0.039,-0.3122c-0.078,-0.5463 -0.156,-1.0536 -0.234,-1.5999c-0.04,-0.1561 -0.04,-0.2732 -0.079,-0.4293c-0.117,-0.6244 -0.195,-1.2878 -0.312,-1.9121c0,0 0,0 0,-0.0391c-0.195,-1.1316 -0.507,-2.2633 -1.132,-3.1608c-0.312,-0.5073 -0.703,-0.9366 -1.21,-1.2488c-0.43,-0.2732 -0.937,-0.4683 -1.484,-0.5853c-1.64,-0.3513 -3.592,-0.1171 -5.192,0.1951c-0.196,0.039 -0.391,0.078 -0.547,0.117c-0.156,0.0391 -0.351,0.0781 -0.508,0.1171c-2.342,0.5073 -4.606,1.3658 -6.832,2.3414c-1.132,0.5073 -2.225,1.0536 -3.357,1.561c-1.211,0.5463 -2.46,1.0536 -3.748,1.4048c-0.274,0.078 -0.547,0.1561 -0.82,0.1951c-0.351,0.0781 -0.703,0.1561 -1.054,0.1951c-2.85,0.4293 -5.817,0.1171 -8.589,-0.6243c-0.664,-0.1561 -1.406,-0.3903 -2.108,-0.7025c-0.586,-0.2731 -1.172,-0.5853 -1.64,-0.9756c0.156,3.8634 0.507,10.1461 1.366,19.3947c0.469,4.8776 1.132,9.7556 2.733,14.3996c0.039,0.117 0.078,0.234 0.117,0.351c0.117,-2.848 0.391,-5.58 0.937,-6.946z"/>
   <path id="svg_227" fill="#FFA9A8" d="m189.35,116.68c0.195,0 0.39,-0.039 0.624,-0.039c0.898,-0.078 1.757,-0.234 2.655,-0.39c0.547,-0.117 2.538,-0.195 2.577,-0.82c0.156,-1.951 0.039,-3.824 0.039,-5.775c-0.156,-1.444 -0.508,-4.449 -2.343,-4.527c-3.435,-0.156 -6.832,-0.312 -10.268,-0.078c-0.507,0.039 -1.015,0.078 -1.21,0.546c-0.117,0.313 -0.117,0.703 -0.156,1.015c-0.234,1.522 -0.469,3.044 -0.508,4.605c-0.039,1.327 -0.234,2.731 0.781,3.746c0.586,0.585 1.367,0.898 2.108,1.171c1.835,0.585 3.787,0.663 5.701,0.546z"/>
   <path id="svg_228" fill="#020711" d="m226.634,89.5977c-0.039,0.0781 -0.078,0.1562 -0.078,0.1952c0.039,-0.039 0.078,-0.1171 0.078,-0.1952z" opacity="0.25"/>
   <path id="svg_229" fill="#020711" d="m225.385,91.7831c0.039,-0.039 0.078,-0.1171 0.117,-0.1561c-0.078,0.1171 -0.156,0.2341 -0.273,0.3512c0.039,-0.039 0.078,-0.1171 0.156,-0.1951z" opacity="0.25"/>
   <path id="svg_230" fill="#020711" d="m225.736,91.2367c0.039,-0.078 0.117,-0.156 0.156,-0.2731c0,-0.039 0.039,-0.039 0.039,-0.0781c-0.078,0.1561 -0.195,0.3122 -0.273,0.4293c0.039,0 0.078,-0.039 0.078,-0.0781z" opacity="0.25"/>
   <path id="svg_231" fill="#020711" d="m174.163,76.0957c0.156,0.7024 0.546,1.2487 1.093,1.717c-0.547,-0.4683 -0.937,-1.0146 -1.093,-1.717z" opacity="0.25"/>
   <path id="svg_232" fill="#020711" d="m175.334,69.7349c-0.313,0.8975 -0.586,1.756 -0.781,2.6926c0.195,-0.9366 0.468,-1.8341 0.781,-2.6926z" opacity="0.25"/>
   <path id="svg_233" fill="#020711" d="m226.243,90.4563c0,-0.039 0.039,-0.0781 0.039,-0.0781c-0.039,0.1171 -0.117,0.2342 -0.156,0.3122c0.039,-0.1171 0.078,-0.1561 0.117,-0.2341z" opacity="0.25"/>
   <path id="svg_234" fill="#020711" d="m224.838,92.4478c0,-0.0395 0,-0.0395 0,0c0.04,-0.0395 0.079,-0.0789 0.119,-0.1184c-0.04,0 -0.079,0.0395 -0.119,0.1184c0,0 0,-0.0395 0,0z" opacity="0.25"/>
   <path id="svg_235" fill="#020711" d="m226.985,88.7782c-0.039,0.1171 -0.078,0.2342 -0.117,0.3513c0.039,-0.1171 0.078,-0.2342 0.117,-0.3513z" opacity="0.25"/>
   <path id="svg_236" fill="#020711" d="m227.297,87.6857c-0.039,0.2341 -0.117,0.4682 -0.195,0.7024c0.078,-0.2342 0.156,-0.4683 0.195,-0.7024z" opacity="0.25"/>
   <path id="svg_237" fill="#020711" d="m175.841,68.4869c0.04,-0.0392 0.04,-0.1176 0.079,-0.1569c-0.039,0.0393 -0.079,0.1177 -0.079,0.1569z" opacity="0.25"/>
   <path id="svg_238" fill="#FFA9A8" d="m193.176,78.3201c1.132,-0.5074 2.225,-1.0537 3.357,-1.561c2.187,-0.9756 4.451,-1.8341 6.832,-2.3414c-2.342,0.5073 -4.606,1.3658 -6.832,2.3414c-1.132,0.5073 -2.225,1.0536 -3.357,1.561z"/>
   <path id="svg_239" fill="#020711" d="m193.176,78.3201c1.132,-0.5074 2.225,-1.0537 3.357,-1.561c2.187,-0.9756 4.451,-1.8341 6.832,-2.3414c-2.342,0.5073 -4.606,1.3658 -6.832,2.3414c-1.132,0.5073 -2.225,1.0536 -3.357,1.561z" opacity="0.25"/>
   <path id="svg_240" fill="#FFA9A8" d="m187.593,80.1151c0.351,-0.0391 0.702,-0.1171 1.054,-0.1952c0.273,-0.078 0.546,-0.117 0.82,-0.1951c-0.274,0.0781 -0.547,0.1561 -0.82,0.1951c-0.352,0.0781 -0.703,0.1561 -1.054,0.1952z"/>
   <path id="svg_241" fill="#020711" d="m187.593,80.1151c0.351,-0.0391 0.702,-0.1171 1.054,-0.1952c0.273,-0.078 0.546,-0.117 0.82,-0.1951c-0.274,0.0781 -0.547,0.1561 -0.82,0.1951c-0.352,0.0781 -0.703,0.1561 -1.054,0.1952z" opacity="0.25"/>
   <path id="svg_242" fill="#FFA9A8" d="m212.306,75.8615c0.586,0.8976 0.898,2.0683 1.132,3.1609c0,0 0,0 0,0.0391c0,0 0,0 0,-0.0391c-0.234,-1.0926 -0.546,-2.2633 -1.132,-3.1609z"/>
   <path id="svg_243" fill="#020711" d="m212.306,75.8615c0.586,0.8976 0.898,2.0683 1.132,3.1609c0,0 0,0 0,0.0391c0,0 0,0 0,-0.0391c-0.234,-1.0926 -0.546,-2.2633 -1.132,-3.1609z" opacity="0.25"/>
   <path id="svg_244" fill="#FFA9A8" d="m214.063,83.315c0,-0.117 -0.039,-0.1951 -0.039,-0.3122c0.039,0.1171 0.039,0.1952 0.039,0.3122z"/>
   <path id="svg_245" fill="#020711" d="m214.063,83.315c0,-0.117 -0.039,-0.1951 -0.039,-0.3122c0.039,0.1171 0.039,0.1952 0.039,0.3122z" opacity="0.25"/>
   <path id="svg_246" fill="#FFA9A8" d="m213.828,81.4028c-0.039,-0.1561 -0.039,-0.2732 -0.078,-0.4292c0.039,0.156 0.039,0.3121 0.078,0.4292z"/>
   <path id="svg_247" fill="#020711" d="m213.828,81.4028c-0.039,-0.1561 -0.039,-0.2732 -0.078,-0.4292c0.039,0.156 0.039,0.3121 0.078,0.4292z" opacity="0.25"/>
   <path id="svg_248" fill="#FFA9A8" d="m175.256,77.8127c0.468,0.3902 1.015,0.7414 1.64,0.9756c-0.625,-0.2732 -1.211,-0.5854 -1.64,-0.9756z"/>
   <path id="svg_249" fill="#020711" d="m175.256,77.8127c0.468,0.3902 1.015,0.7414 1.64,0.9756c-0.625,-0.2732 -1.211,-0.5854 -1.64,-0.9756z" opacity="0.25"/>
   <path id="svg_250" fill="#FFA9A8" d="m204.419,74.2226c1.601,-0.2732 3.553,-0.5463 5.193,-0.1951c-1.64,-0.3512 -3.592,-0.0781 -5.193,0.1951z"/>
   <path id="svg_251" fill="#020711" d="m204.419,74.2226c1.601,-0.2732 3.553,-0.5463 5.193,-0.1951c-1.64,-0.3512 -3.592,-0.0781 -5.193,0.1951z" opacity="0.25"/>
   <path id="svg_252" fill="#FFA9A8" d="m224.604,92.6806c-0.078,0.0781 -0.156,0.1561 -0.196,0.2342c-0.039,0.039 -0.117,0.117 -0.156,0.1561c-0.078,0.078 -0.156,0.1561 -0.234,0.2341c-0.078,0.0781 -0.156,0.1171 -0.234,0.1951c-0.039,0.0391 -0.039,0.0391 -0.078,0.0781c-0.117,0.117 -0.274,0.1951 -0.391,0.3122l-0.039,0.039c-0.078,0.039 -0.117,0.078 -0.195,0.1561c-0.117,0.078 -0.195,0.1561 -0.312,0.1951c-0.078,0.039 -0.117,0.078 -0.195,0.1171c0,0 -0.039,0 -0.039,0.039c-0.079,0.039 -0.157,0.1171 -0.235,0.1561c-0.078,0.039 -0.156,0.1171 -0.234,0.1561l-0.039,0.039c-0.039,0.039 -0.117,0.078 -0.156,0.078c-0.078,0.0391 -0.156,0.0781 -0.273,0.1561c-0.04,0 -0.079,0.0391 -0.118,0.0391c-0.078,0.039 -0.117,0.039 -0.195,0.078c-0.078,0.039 -0.156,0.0781 -0.234,0.1171c-0.078,0.039 -0.156,0.078 -0.273,0.117c-0.039,0 -0.078,0.0391 -0.117,0.0391c-0.196,0.078 -0.391,0.1561 -0.625,0.2341c-0.351,0.1171 -0.664,0.2342 -0.976,0.3122c0.078,1.717 0.039,3.356 -0.039,4.8384c3.435,-0.585 6.012,-3.3555 6.012,-6.6335c0,-0.5853 -0.078,-1.1317 -0.234,-1.678c-0.078,0.0781 -0.117,0.1171 -0.195,0.1951c0.039,-0.039 0.039,0 0,0z"/>
   <path id="svg_253" fill="#FFA9A8" d="m214.336,88.271c0,-0.078 0,-0.1171 0.039,-0.1951c-2.421,1.1317 -4.099,3.395 -4.099,6.0486c0,1.5219 0.546,2.9268 1.483,4.0585c0.664,-1.9902 1.25,-4.0195 1.796,-6.0097c0.351,-1.3268 0.625,-2.6145 0.781,-3.9023z"/>
   <path id="svg_254" fill="#FFA9A8" d="m224.253,93.0709c0.039,-0.039 0.117,-0.1171 0.156,-0.1561c-0.117,0.1171 -0.274,0.2732 -0.391,0.3902c0.078,-0.078 0.156,-0.1561 0.235,-0.2341z"/>
   <path id="svg_255" fill="#FFA9A8" d="m224.604,92.6805c0.039,-0.039 0.039,-0.039 0.078,-0.078c0.078,-0.078 0.117,-0.1171 0.195,-0.1951c-0.117,0.1171 -0.195,0.1951 -0.273,0.2731z"/>
   <path id="svg_256" fill="#FFA9A8" d="m222.066,94.7099l0.039,-0.0391c0.078,-0.039 0.156,-0.078 0.234,-0.1561c-0.156,0.0781 -0.312,0.1952 -0.468,0.2732c0.078,0 0.117,-0.039 0.195,-0.078z"/>
   <path id="svg_257" fill="#FFA9A8" d="m222.613,94.3586c0.078,-0.039 0.117,-0.0781 0.195,-0.1171c0.117,-0.078 0.195,-0.1561 0.312,-0.1951c-0.195,0.1171 -0.351,0.2341 -0.507,0.3122c0,0.039 -0.039,0.039 0,0z"/>
   <path id="svg_258" fill="#FFA9A8" d="m221.324,95.1c0.079,-0.039 0.118,-0.039 0.196,-0.078c0.039,0 0.078,-0.0391 0.117,-0.0391c-0.156,0.0781 -0.352,0.1561 -0.508,0.2342c0.078,-0.039 0.156,-0.0781 0.195,-0.1171z"/>
   <path id="svg_259" fill="#FFA9A8" d="m219.138,95.9195c0.312,-0.117 0.664,-0.1951 0.976,-0.3122c0.195,-0.078 0.391,-0.1561 0.625,-0.2341c0.039,0 0.078,-0.039 0.117,-0.039c-0.234,0.117 -0.508,0.1951 -0.742,0.2731c-0.312,0.1171 -0.664,0.1952 -0.976,0.3122z"/>
   <path id="svg_260" fill="#FFA9A8" d="m223.315,93.8513c0.118,-0.1171 0.274,-0.1951 0.391,-0.3122c0.039,-0.039 0.039,-0.039 0.078,-0.078c-0.156,0.1561 -0.351,0.2731 -0.508,0.4292c0,0 0.039,0 0.039,-0.039z"/>
   <path id="svg_261" fill="#2E4E94" d="m225.97,90.9245c0.039,-0.078 0.117,-0.1561 0.156,-0.2731l-0.039,0.039c-0.039,0.1171 -0.078,0.1561 -0.117,0.2341z"/>
   <path id="svg_262" fill="#2E4E94" d="m224.955,92.2904c0.078,-0.1171 0.156,-0.1951 0.273,-0.3122c-0.039,0.039 -0.078,0.0781 -0.117,0.1561c-0.039,0.039 -0.117,0.1171 -0.156,0.1561z"/>
   <path id="svg_263" fill="#2E4E94" d="m227.102,88.3881c-0.039,0.156 -0.078,0.2731 -0.156,0.3902c0.078,-0.1171 0.117,-0.2732 0.156,-0.3902z"/>
   <path id="svg_264" fill="#2E4E94" d="m189.076,122.807c-1.054,-0.313 -2.069,-0.742 -3.006,-1.327c-3.435,-2.146 -5.27,-5.854 -6.559,-9.561c-0.195,3.434 -0.156,6.751 -0.156,6.751c-0.273,1.132 -0.468,2.42 0.234,3.161c0.664,0.703 4.412,2.615 9.097,3.512c0.156,-0.078 0.273,-0.117 0.429,-0.195l0,-2.341l-0.039,0z"/>
   <path id="svg_265" fill="#2E4E94" d="m175.334,69.7348c0.156,-0.4292 0.312,-0.8195 0.507,-1.2487c-0.195,0.3902 -0.351,0.8195 -0.507,1.2487z"/>
   <path id="svg_266" fill="#2E4E94" d="m174.123,75.1591c0.079,-0.9366 0.235,-1.8341 0.43,-2.7707c-0.195,0.9366 -0.351,1.8341 -0.43,2.7707c-0.039,0.3512 0,0.6634 0.039,0.9365c-0.078,-0.2731 -0.078,-0.5853 -0.039,-0.9365z"/>
   <path id="svg_267" fill="#2E4E94" d="m226.868,89.1295c-0.078,0.1561 -0.156,0.3512 -0.195,0.5073c0.039,-0.1951 0.117,-0.3512 0.195,-0.5073z"/>
   <path id="svg_268" fill="#2E4E94" d="m175.88,68.33c0.157,-0.3902 0.352,-0.7805 0.547,-1.1707c-0.195,0.3902 -0.351,0.7805 -0.547,1.1707z"/>
   <path id="svg_269" fill="#2E4E94" d="m175.529,72.8957l27.407,-1.3268c0.742,-0.2341 1.523,-0.3902 2.264,-0.5463c2.031,-0.3902 4.92,-0.8585 6.911,0.1171c0.117,0.039 0.195,0.117 0.312,0.1561c1.484,0.8975 2.03,2.6926 2.342,4.4096c0.586,3.0438 0.898,6.1657 1.094,9.2486c0,0.117 0,0.2341 0.039,0.3512c0.976,-0.4293 2.03,-0.6634 3.162,-0.6634c3.24,0 6.012,1.9121 6.988,4.5657c0.469,-0.5073 0.898,-1.0536 1.25,-1.639c0.195,-0.8585 0.273,-1.717 0.273,-2.6145c-0.078,-5.8926 -0.468,-12.1363 -2.538,-17.7167c-3.357,-9.0144 -14.718,-13.1899 -23.581,-13.6972c-10.384,-0.6244 -20.418,4.3316 -25.064,13.5802c-0.507,1.5219 -0.82,3.0828 -0.976,4.6828c0,0.4292 0.039,0.7804 0.117,1.0926z"/>
   <path id="svg_270" fill="#2E4E94" d="m226.556,89.8319c-0.078,0.1951 -0.156,0.3512 -0.274,0.5073c0.118,-0.1561 0.196,-0.3512 0.274,-0.5073z"/>
   <path id="svg_271" fill="#2E4E94" d="m225.463,91.627c0.078,-0.078 0.117,-0.1951 0.195,-0.2732c-0.039,0.039 -0.078,0.0781 -0.078,0.1171c-0.039,0.078 -0.078,0.1171 -0.117,0.1561z"/>
   <path id="svg_272" fill="#2E4E94" d="m227.336,87.6076c0,0.039 0,0.078 -0.039,0.078c0,-0.039 0.039,-0.039 0.039,-0.078z"/>
   <path id="svg_273" fill="#2E4E94" d="m216.249,106.612c-0.703,1.483 -1.445,2.966 -2.264,4.41c-0.469,0.819 -0.976,1.6 -1.523,2.38c0.039,0.585 0.117,1.21 0.195,1.873c0.039,0.273 0.039,0.507 0.078,0.781c2.226,-2.186 3.748,-4.098 4.178,-4.956c0.585,-1.21 1.835,-4.995 2.186,-10.342c-0.429,0.079 -0.859,0.118 -1.327,0.118c-0.352,1.912 -1.25,5.112 -1.523,5.736z"/>
   <path id="svg_274" fill="#2E4E94" d="m189.076,125.148c-0.156,0.078 -0.273,0.117 -0.429,0.195c0.156,0.039 0.273,0.039 0.429,0.078l0,-0.273z"/>
   <path id="svg_275" fill="#2E4E94" d="m211.72,117.031c0.352,-0.312 0.703,-0.663 1.015,-0.975c-0.039,-0.274 -0.039,-0.508 -0.078,-0.781c-0.312,0.585 -0.624,1.171 -0.937,1.756z"/>
   <path id="svg_276" fill="#2E4E94" d="m212.657,115.275c-0.078,-0.663 -0.117,-1.288 -0.195,-1.873c0.078,0.585 0.117,1.21 0.195,1.873z"/>
   <path id="svg_277" fill="#2E4E94" d="m207.777,118.514c-3.279,2.576 -7.73,4.098 -11.829,4.683c-2.304,0.312 -4.685,0.273 -6.872,-0.39l0,2.341c0.118,-0.039 0.196,-0.078 0.313,-0.117c0.468,-0.195 1.015,-0.039 1.249,0.39c0.312,0 0.625,0.117 0.82,0.351c2.655,0.235 5.466,0.079 8.081,-0.858c4.568,-1.6 8.941,-4.878 12.142,-7.883c0.313,-0.585 0.625,-1.17 0.937,-1.756c-0.078,-0.663 -0.117,-1.288 -0.195,-1.873c-1.288,1.912 -2.811,3.668 -4.646,5.112z"/>
   <path id="svg_278" fill="#2E4E94" d="m190.755,125.655c0.234,0.039 0.469,0.039 0.703,0.078c-0.195,-0.234 -0.508,-0.351 -0.82,-0.351c0.039,0.039 0.078,0.117 0.078,0.195c0.039,0.039 0.039,0.078 0.039,0.078z"/>
   <path id="svg_279" fill="#2E4E94" d="m190.287,125.46c0.117,-0.039 0.234,-0.078 0.351,-0.078c-0.273,-0.39 -0.82,-0.585 -1.249,-0.39c-0.117,0.039 -0.195,0.078 -0.313,0.117l0,0.273c0.313,0.039 0.664,0.117 0.976,0.156c0.079,0 0.157,-0.039 0.235,-0.078z"/>
   <path id="svg_280" fill="#2E4E94" d="m190.052,125.577c0.235,0.039 0.469,0.078 0.703,0.078c0,-0.039 0,-0.078 -0.039,-0.078c-0.039,-0.078 -0.078,-0.117 -0.078,-0.195c-0.117,0 -0.234,0.039 -0.351,0.078c-0.078,0.039 -0.157,0.078 -0.235,0.117z"/>
   <path id="svg_281" fill="#2E4E94" d="m186.031,121.48c0.937,0.585 1.952,1.014 3.006,1.327l0,-3.044l23.035,-10.38c0,-0.078 0.156,1.561 0.39,4.019c0.547,-0.78 1.054,-1.561 1.523,-2.38c0.819,-1.444 1.561,-2.927 2.264,-4.41c0.312,-0.624 1.171,-3.824 1.523,-5.736c-0.039,0 -0.078,0 -0.078,0c-2.421,0 -4.568,-1.0541 -5.935,-2.6931c-0.234,0.7415 -0.507,1.4829 -0.781,2.2241c-1.288,3.512 -2.342,7.103 -4.919,9.912c-1.952,2.107 -4.528,3.551 -7.3,4.449c0.507,-5.502 -4.1,-10.771 -4.1,-10.771c-0.702,-1.053 -1.796,-1.912 -2.889,-2.38c-1.21,-0.507 -2.537,-0.702 -3.865,-0.741c-0.39,0 -0.82,0 -1.249,0c-1.289,0.039 -2.577,0.234 -3.67,0.936c-1.054,0.703 -2.108,2.029 -2.616,3.278c-0.546,1.327 -0.82,4.098 -0.976,6.79c1.367,3.746 3.241,7.454 6.637,9.6zm-4.529,-6.517c-1.015,-1.015 -0.819,-2.459 -0.78,-3.746c0.039,-1.561 0.273,-3.083 0.507,-4.605c0.039,-0.312 0.039,-0.741 0.156,-1.015c0.195,-0.468 0.703,-0.507 1.211,-0.546c3.396,-0.234 6.832,-0.078 10.267,0.078c1.835,0.078 2.187,3.083 2.343,4.527c0,1.951 0.117,3.824 -0.039,5.775c-0.039,0.625 -2.069,0.742 -2.577,0.82c-0.859,0.156 -1.757,0.312 -2.655,0.39c-0.195,0.039 -0.39,0.039 -0.624,0.039c-1.913,0.156 -3.904,0.039 -5.739,-0.546c-0.703,-0.234 -1.484,-0.586 -2.07,-1.171z"/>
   <path id="svg_282" fill="#2E4E94" d="m214.258,85.1491c-0.039,-0.6243 -0.117,-1.2097 -0.195,-1.795c0.078,0.5853 0.156,1.1707 0.195,1.795z"/>
   <path id="svg_283" fill="#2E4E94" d="m178.965,79.4907c-0.664,-0.1561 -1.406,-0.3903 -2.109,-0.7025c0.703,0.3122 1.484,0.5464 2.109,0.7025c2.811,0.7414 5.739,1.0926 8.589,0.6243c-2.85,0.4683 -5.778,0.1171 -8.589,-0.6243z"/>
   <path id="svg_284" fill="#2E4E94" d="m193.176,78.32c-1.211,0.5464 -2.46,1.0537 -3.748,1.4049c1.288,-0.3512 2.537,-0.8585 3.748,-1.4049z"/>
   <path id="svg_285" fill="#2E4E94" d="m214.024,83.0028c-0.079,-0.5463 -0.157,-1.0536 -0.235,-1.5999c0.117,0.5463 0.196,1.0536 0.235,1.5999z"/>
   <path id="svg_286" fill="#2E4E94" d="m213.75,80.9736c-0.117,-0.6244 -0.195,-1.2878 -0.312,-1.9122c0.117,0.6244 0.234,1.2878 0.312,1.9122z"/>
   <path id="svg_287" fill="#2E4E94" d="m211.096,74.6128c-0.43,-0.2732 -0.937,-0.4683 -1.484,-0.5854c0.508,0.1561 1.015,0.3122 1.484,0.5854c0.507,0.3122 0.898,0.7414 1.21,1.2487c-0.312,-0.5073 -0.703,-0.9365 -1.21,-1.2487z"/>
   <path id="svg_288" fill="#2E4E94" d="m214.375,86.2417c-0.039,-0.3512 -0.078,-0.7024 -0.117,-1.0536c0.078,0.6634 0.117,1.3658 0.156,2.0292c-0.039,0.2731 -0.078,0.5853 -0.078,0.8585c0.039,-0.039 0.117,-0.039 0.156,-0.0781c-0.039,-0.5853 -0.078,-1.1706 -0.117,-1.756z"/>
   <path id="svg_289" fill="#2E4E94" d="m180.331,76.2127c3.123,0.8195 6.481,1.1707 9.643,0.4292c2.772,-0.6243 5.31,-1.9902 7.887,-3.1609c1.639,-0.7414 3.318,-1.4048 5.036,-1.8731l-27.407,1.3268c0.547,1.9121 3.045,2.7707 4.841,3.278z"/>
   <path id="svg_290" fill="#2E4E94" d="m203.365,74.4567c0.157,-0.039 0.352,-0.078 0.508,-0.1171c0.195,-0.039 0.351,-0.078 0.546,-0.117c-0.195,0.039 -0.39,0.078 -0.546,0.117c-0.195,0.0391 -0.351,0.0781 -0.508,0.1171z"/>
   <path id="svg_291" fill="#2E4E94" d="m212.072,109.383l-22.996,10.38l22.996,-10.38z"/>
   <path id="svg_292" fill="#2E4E94" d="m212.462,113.402c-0.234,-2.458 -0.39,-4.097 -0.39,-4.019c0.039,0.039 0.156,1.639 0.39,4.019z"/>
   <path id="svg_293" fill="#2E4E94" d="m195.947,123.197c4.1,-0.585 8.55,-2.146 11.83,-4.683c1.835,-1.444 3.357,-3.2 4.685,-5.112c-0.234,-2.38 -0.352,-3.98 -0.391,-4.019l-23.034,10.38l0,3.044c2.226,0.663 4.607,0.741 6.91,0.39z"/>
   <path id="svg_294" fill="#2E4E94" d="m219.099,84.6808c-1.132,0 -2.225,0.2341 -3.162,0.6634c0,-0.1171 0,-0.2341 -0.039,-0.3512c-0.196,-3.1219 -0.508,-6.2047 -1.093,-9.2486c-0.313,-1.717 -0.859,-3.5121 -2.343,-4.4096c-0.117,-0.0781 -0.195,-0.1171 -0.312,-0.1561l3.357,16.5069c0.703,-0.1951 1.445,-0.3122 2.226,-0.3122c3.474,0 6.363,2.1463 7.183,5.0731c0.039,-0.0391 0.078,-0.0781 0.117,-0.1171c0.039,-0.078 0.117,-0.1171 0.156,-0.1951c0.039,-0.039 0.079,-0.0781 0.118,-0.1561c0.078,-0.1171 0.195,-0.2342 0.273,-0.3512c0.039,-0.039 0.078,-0.0781 0.117,-0.1561c0.039,-0.039 0.078,-0.0781 0.078,-0.1171c0.117,-0.1561 0.195,-0.3122 0.273,-0.4292c0.039,-0.0781 0.078,-0.1171 0.117,-0.1952l0.04,-0.039c0.078,-0.1171 0.117,-0.1951 0.156,-0.3122c0.078,-0.1561 0.195,-0.3512 0.273,-0.5073c0.039,-0.078 0.078,-0.1561 0.078,-0.1951c0.078,-0.1561 0.156,-0.3122 0.195,-0.5073c0.039,-0.1171 0.078,-0.2341 0.117,-0.3512c0.039,-0.1171 0.078,-0.2732 0.157,-0.3902c0.078,-0.2342 0.117,-0.4683 0.195,-0.7025c0,-0.039 0,-0.078 0.039,-0.078c-0.352,0.5853 -0.781,1.1317 -1.25,1.639c-1.093,-2.6926 -3.826,-4.6048 -7.066,-4.6048z"/>
   <path id="svg_295" fill="#2E4E94" d="m175.256,77.8127c-0.117,-3.356 -0.078,-4.8779 -0.078,-4.8779l0.39,0c-0.078,-0.3122 -0.117,-0.6634 -0.078,-1.0536c0.156,-1.6 0.469,-3.1609 0.976,-4.6828c-0.195,0.3902 -0.351,0.7804 -0.546,1.1707c-0.04,0.039 -0.04,0.117 -0.079,0.1561c-0.156,0.3902 -0.351,0.8195 -0.507,1.2487c-0.312,0.8585 -0.586,1.7561 -0.781,2.6926c-0.195,0.8976 -0.351,1.8341 -0.429,2.7707c-0.039,0.3512 0,0.6634 0.039,0.9365c0.156,0.6244 0.546,1.1707 1.093,1.639z"/>
   <path id="svg_296" fill="#2E4E94" d="m205.2,71.0226c-0.78,0.1561 -1.522,0.3512 -2.264,0.5463l9.175,-0.4292c-1.991,-0.9756 -4.841,-0.5073 -6.911,-0.1171z"/>
   <path id="svg_297" fill="#2E4E94" d="m214.492,87.9978c0.312,-0.1171 0.625,-0.2732 0.976,-0.3512l-3.357,-16.5069l-9.175,0.4292c-1.718,0.5073 -3.397,1.1707 -5.036,1.8732c-2.577,1.1707 -5.115,2.5365 -7.887,3.1609c-3.201,0.7024 -6.52,0.3902 -9.643,-0.4293c-1.796,-0.4683 -4.255,-1.3658 -4.763,-3.278l-0.39,0c0,0 -0.039,1.5219 0.078,4.878c0.468,0.3902 1.015,0.7414 1.639,0.9755c0.703,0.3122 1.445,0.5464 2.109,0.7025c2.811,0.7414 5.739,1.0926 8.589,0.6243c0.351,-0.039 0.702,-0.117 1.054,-0.1951c0.273,-0.078 0.546,-0.117 0.82,-0.1951c1.288,-0.3512 2.537,-0.8585 3.748,-1.4048c1.132,-0.5073 2.225,-1.0537 3.357,-1.561c2.186,-0.9756 4.451,-1.8341 6.832,-2.3414c0.157,-0.039 0.352,-0.078 0.508,-0.117c0.195,-0.0391 0.351,-0.0781 0.547,-0.1171c1.6,-0.2732 3.552,-0.5463 5.192,-0.1951c0.547,0.117 1.054,0.3122 1.484,0.5853c0.507,0.3122 0.898,0.7415 1.21,1.2488c0.585,0.8975 0.898,2.0682 1.132,3.1609c0,0 0,0 0,0.039c0.117,0.6244 0.234,1.2878 0.312,1.9121c0.039,0.1561 0.039,0.2732 0.078,0.4293c0.079,0.5463 0.157,1.0536 0.235,1.6c0,0.117 0.039,0.1951 0.039,0.3121c0.078,0.5854 0.117,1.2098 0.195,1.7951l0,0.039c0.039,0.3512 0.078,0.7025 0.117,1.0537c-0.078,0.7024 -0.039,1.2877 0,1.8731z"/>
   <path id="svg_298" fill="#2E4E94" d="m223.784,93.5001c0.078,-0.078 0.156,-0.117 0.234,-0.1951c-0.039,0.0391 -0.078,0.0781 -0.117,0.1171c-0.039,0 -0.078,0.039 -0.117,0.078z"/>
   <path id="svg_299" fill="#2E4E94" d="m220.856,95.2951c0.078,-0.039 0.156,-0.078 0.273,-0.117c-0.078,0.039 -0.156,0.078 -0.195,0.078c-0.039,0.039 -0.039,0.039 -0.078,0.039z"/>
   <path id="svg_300" fill="#2E4E94" d="m221.871,94.8269c-0.078,0.039 -0.156,0.078 -0.273,0.1561c0.117,-0.0781 0.195,-0.1171 0.273,-0.1561z"/>
   <path id="svg_301" fill="#2E4E94" d="m222.574,94.3976c-0.078,0.0391 -0.156,0.0781 -0.235,0.1561c0.079,-0.078 0.157,-0.117 0.235,-0.1561z"/>
   <path id="svg_302" fill="#2E4E94" d="m224.409,92.9148c0.078,-0.0781 0.156,-0.1561 0.195,-0.2341c-0.039,0.078 -0.117,0.156 -0.195,0.2341c0,0 0,-0.039 0,0z"/>
   <path id="svg_303" fill="#2E4E94" d="m223.081,94.0473c0.079,-0.0393 0.118,-0.0785 0.196,-0.157c-0.039,0.0393 -0.078,0.0785 -0.157,0.1177c0,0 0,0.0393 -0.039,0.0393z"/>
   <path id="svg_304" fill="#2E4E94" d="m219.138,95.9195c-0.664,0.1951 -1.288,0.3902 -1.874,0.5463l0.625,3.1609c0.039,0.2342 0,0.7023 -0.117,1.2883c0.468,0 0.897,-0.04 1.327,-0.118c0.078,-1.5215 0.117,-3.1605 0.039,-4.8775z"/>
   <path id="svg_305" fill="#2E4E94" d="m217.889,99.5877l-0.625,-3.1609c-1.64,0.4293 -2.811,0.4683 -2.694,-0.2341c0.469,-2.6146 0.117,-5.3072 -0.039,-7.9608c0,-0.078 0,-0.1951 -0.039,-0.2732c-0.039,0.0391 -0.117,0.0391 -0.156,0.0781c0,0.078 0,0.1171 -0.039,0.1951c-0.156,1.2878 -0.429,2.5756 -0.781,3.9023c-0.546,2.0293 -1.132,4.0194 -1.796,6.0096c1.367,1.639 3.514,2.6922 5.935,2.6922c0.039,0 0.078,0 0.078,0c0.156,-0.546 0.195,-1.0142 0.156,-1.2483z"/>
   <path id="svg_306" fill="#2E4E94" d="m219.138,95.9195c0.312,-0.117 0.664,-0.1951 0.976,-0.3122c0.234,-0.078 0.508,-0.1951 0.742,-0.2731c0,0 0.039,0 0.039,-0.039c0.078,-0.0391 0.156,-0.0781 0.195,-0.0781c0.156,-0.078 0.352,-0.1561 0.508,-0.2341c0.078,-0.039 0.156,-0.0781 0.273,-0.1561c0.156,-0.0781 0.312,-0.1951 0.468,-0.2732c0.079,-0.039 0.157,-0.078 0.235,-0.1561c0.195,-0.117 0.351,-0.2341 0.507,-0.3512l0.039,-0.039c0.039,-0.039 0.078,-0.0781 0.156,-0.1171c0.157,-0.117 0.352,-0.2731 0.508,-0.4292c0.039,-0.0391 0.078,-0.0391 0.117,-0.0781c0.039,-0.039 0.078,-0.078 0.117,-0.1171c0.117,-0.117 0.274,-0.2341 0.391,-0.3902c0,0 0,0 0.039,-0.039c0.078,-0.0781 0.117,-0.1171 0.195,-0.1951c0.078,-0.0781 0.156,-0.1951 0.234,-0.2732c-0.82,-2.9267 -3.709,-5.073 -7.183,-5.073c-0.781,0 -1.523,0.1171 -2.226,0.3122l1.796,8.8192c0.547,-0.117 1.21,-0.3121 1.874,-0.5073z"/>
   <path id="svg_307" fill="#2E4E94" d="m214.531,88.2709c0.156,2.6146 0.508,5.3072 0.039,7.9608c-0.117,0.7024 1.015,0.6244 2.694,0.2342l-1.796,-8.8193c-0.351,0.078 -0.663,0.2341 -0.976,0.3512c0,0.078 0.039,0.1951 0.039,0.2731z"/>
   <path id="svg_308" fill="white" d="m165.847,321.982c0,0.273 0,0.546 0,0.859l40.134,0c-0.039,-0.273 -0.078,-0.547 -0.117,-0.859l-40.017,0z"/>
   <path id="svg_309" fill="white" d="m141.329,321.982c0,0.273 0,0.546 0,0.859l19.911,0c0,-0.273 0,-0.547 0,-0.859l-19.911,0z"/>
   <path id="svg_310" fill="white" d="m164.48,321.982c0,0.273 0,0.546 0,0.859l1.367,0c0,-0.273 0,-0.547 0,-0.859l-1.367,0z"/>
   <path id="svg_311" fill="white" d="m164.48,321.982l-3.201,0c0,0.273 0,0.546 0,0.859l3.201,0c0,-0.273 0,-0.586 0,-0.859z"/>
   <path id="svg_312" fill="white" d="m267.393,430.194c0,0.039 0,0.078 0,0.078c0.039,0 0.039,-0.039 0,-0.078z"/>
   <path id="svg_313" fill="white" d="m267.354,429.96c0,0.04 0,0.079 0,0.118c0.039,-0.039 0.039,-0.078 0,-0.118z"/>
   <path id="svg_314" fill="white" d="m267.198,428.906c0,0.078 0.039,0.195 0.039,0.273c0,-0.078 -0.039,-0.156 -0.039,-0.273z"/>
   <path id="svg_315" fill="white" d="m267.315,429.648c0,0.078 0,0.118 0.039,0.157c0,-0.039 -0.039,-0.079 -0.039,-0.157z"/>
   <path id="svg_316" fill="white" d="m267.276,429.336c0,0.078 0.039,0.117 0.039,0.195c-0.039,-0.039 -0.039,-0.117 -0.039,-0.195z"/>
   <path id="svg_317" fill="white" d="m208.207,322.841l40.095,0c-0.039,-0.273 -0.117,-0.547 -0.156,-0.859l-40.096,0c0.079,0.273 0.118,0.586 0.157,0.859z"/>
   <path id="svg_318" fill="white" d="m267.393,430.077c0,0.04 0,0.08 0.04,0.119c-0.04,-0.039 -0.04,-0.079 -0.04,-0.119z"/>
   <path id="svg_319" fill="white" d="m267.354,429.843c0,0.039 0,0.079 0.039,0.118c-0.039,-0.039 -0.039,-0.079 -0.039,-0.118z"/>
   <path id="svg_320" fill="white" d="m267.471,430.467c0,0.04 0,0.08 0.04,0.119c-0.04,-0.039 -0.04,-0.079 -0.04,-0.119z"/>
   <path id="svg_321" fill="white" d="m267.237,429.18c0,0.039 0,0.117 0.039,0.156c0,-0.039 -0.039,-0.078 -0.039,-0.156z"/>
   <path id="svg_322" fill="white" d="m267.315,429.531c0,0.039 0,0.079 0.039,0.118c-0.039,-0.039 -0.039,-0.079 -0.039,-0.118z"/>
   <path id="svg_323" fill="white" d="m208.05,321.982l-2.186,0c0.039,0.273 0.078,0.546 0.117,0.859l2.187,0c0,-0.273 -0.039,-0.586 -0.118,-0.859z"/>
   <path id="svg_324" fill="white" d="m71.4064,83.237c-4.724,-5.2682 -12.8055,-5.7365 -18.0761,-1.0537c-5.2705,4.7219 -5.739,12.7997 -1.0541,18.0677c4.724,5.268 12.8055,5.737 18.0761,1.054c5.2705,-4.722 5.739,-12.7999 1.0541,-18.068zm-1.4836,12.5265l-16.3973,-5.7755c-0.5075,-0.1951 -0.7808,-0.7414 -0.5856,-1.2487c0.1952,-0.5074 0.7418,-0.7805 1.2493,-0.5854l16.3973,5.7755c0.1562,0.039 0.3123,0.1561 0.3904,0.2731c0.2343,0.2732 0.3124,0.6244 0.1952,0.9756c-0.1952,0.5073 -0.7418,0.7805 -1.2493,0.5854z"/>
   <path id="svg_325" fill="white" d="m29.8275,68.0959c-9.2527,-2.1853 -18.5836,3.5511 -20.76986,12.7997c-2.1863,9.2485 3.55276,18.5751 12.80546,20.7604c9.2528,2.185 18.5836,-3.5511 20.7699,-12.7997c2.2254,-9.2485 -3.5137,-18.5361 -12.8055,-20.7604zm1.0151,28.7993c-0.6637,0.2731 -1.4445,-0.0391 -1.7178,-0.7025l-8.9795,-21.658c-0.2733,-0.6634 0.0391,-1.4438 0.7028,-1.717c0.2733,-0.1171 0.5466,-0.1171 0.7808,-0.078c0.3904,0.078 0.7418,0.3512 0.8979,0.7804l8.9795,21.658c0.3123,0.7024 0,1.4439 -0.6637,1.7171z"/>
   <path id="svg_326" fill="#6DC433" d="m238.62,21.4239l66.526,0c3.084,0 5.583,2.4975 5.583,5.5803l0,47.9598c0,3.0828 -2.499,5.5803 -5.583,5.5803l-16.515,0c-1.171,2.7317 -4.177,7.9608 -10.424,9.99c3.124,-3.9414 2.772,-7.5705 1.835,-9.99l-41.422,0c-3.085,0 -5.583,-2.4975 -5.583,-5.5803l0,-47.9598c0,-3.0828 2.498,-5.5803 5.583,-5.5803z"/>
   <path id="svg_327" fill="white" d="m242.866,43.8414l59.537,0l0,-1.9512l-59.537,0l0,1.9512z"/>
   <path id="svg_328" fill="white" d="m242.866,49.0735l59.537,0l0,-1.9512l-59.537,0l0,1.9512z"/>
   <path id="svg_329" fill="white" d="m242.866,54.3055l59.537,0l0,-1.9512l-59.537,0l0,1.9512z"/>
   <path id="svg_330" fill="white" d="m242.866,59.5375l59.537,0l0,-1.9511l-59.537,0l0,1.9511z"/>
   <path id="svg_331" fill="#1261BD" d="m328.492,222.902l-2.42,0l0,7.57l2.42,0l0,-5.619l7.574,0l0,5.619l2.46,0l0,-7.57l-2.46,0l-7.574,0z"/>
   <path id="svg_332" fill="#EDF1FF" d="m370.501,231.994l-76.404,0c-2.538,0 -4.607,2.068 -4.607,4.605l0,99.315c0,2.536 2.069,4.604 4.607,4.604l76.404,0c2.537,0 4.606,-2.068 4.606,-4.604l0,-99.315c0,-2.537 -2.069,-4.605 -4.606,-4.605z"/>
   <path id="svg_333" fill="white" d="m371.828,235.545l-79.058,0l0,101.383l79.058,0l0,-101.383z"/>
   <path id="svg_334" fill="#78CEFF" d="m371.828,235.545l-79.058,0l0,9.21l79.058,0l0,-9.21z"/>
   <path id="svg_335" fill="#78CEFF" d="m347.388,253.769l-30.179,0l0,1.991l30.179,0l0,-1.991z"/>
   <path id="svg_336" fill="#78CEFF" d="m360.272,314.88l-55.946,0l0,1.093l55.946,0l0,-1.093z"/>
   <path id="svg_337" fill="#78CEFF" d="m360.272,317.143l-55.946,0l0,1.093l55.946,0l0,-1.093z"/>
   <path id="svg_338" fill="#78CEFF" d="m360.272,319.446l-55.946,0l0,1.092l55.946,0l0,-1.092z"/>
   <path id="svg_339" fill="#78CEFF" d="m360.272,321.748l-55.946,0l0,1.093l55.946,0l0,-1.093z"/>
   <path id="svg_340" fill="#78CEFF" d="m350.59,249.36l-36.582,0l0,1.99l36.582,0l0,-1.99z"/>
   <path id="svg_341" fill="#1261BD" d="m348.755,228.287l-32.873,0l0,7.922l32.873,0l0,-7.922z"/>
   <path id="svg_342" fill="#6DC433" d="m365.777,281.476c-2.304,-6.322 -3.905,-8.468 -7.965,-11.161c-4.06,-2.692 -10.112,-4.448 -14.016,-2.263c-2.967,1.639 -1.366,7.766 0.781,12.214c0.82,1.717 1.367,3.239 1.601,4.761c-0.312,0.156 -0.664,0.351 -1.015,0.546c-3.202,1.678 -9.097,0.781 -10.893,0.469c0.039,-4.566 0.156,-8.703 0.235,-10.42c0.195,-4.604 -0.43,-10.926 -2.187,-10.926c-1.718,0 -2.381,6.322 -2.186,10.926c0.078,1.756 0.156,5.854 0.234,10.42c-1.796,0.312 -7.691,1.248 -10.892,-0.469c-0.391,-0.195 -0.703,-0.39 -1.015,-0.546c0.234,-1.522 0.78,-3.044 1.6,-4.761c2.148,-4.448 3.748,-10.536 0.781,-12.214c-3.904,-2.185 -9.955,-0.429 -14.016,2.263c-4.06,2.693 -5.661,4.839 -7.964,11.161c-2.303,6.322 0.507,14.946 3.787,18.848c3.24,3.903 11.049,8.429 16.944,6.322c5.895,-2.107 3.006,-9.327 0.507,-14.009c-0.741,-1.405 -1.249,-2.693 -1.483,-3.903c1.874,0.508 4.177,0.898 6.051,0.586c2.538,-0.391 4.607,-1.015 5.739,-1.366c0.078,7.024 0.039,14.438 -0.273,15.726c-0.547,2.225 -0.898,6.088 2.225,6.088c3.124,0 2.772,-3.824 2.226,-6.088c-0.313,-1.288 -0.352,-8.702 -0.274,-15.726c1.133,0.39 3.202,0.975 5.739,1.366c1.874,0.312 4.178,-0.117 6.052,-0.586c-0.274,1.21 -0.742,2.498 -1.484,3.903c-2.498,4.682 -5.387,11.863 0.508,14.009c5.895,2.146 13.664,-2.419 16.944,-6.322c3.201,-3.902 6.012,-12.526 3.709,-18.848z"/>
   <path id="svg_343" fill="#EDF1FF" d="m62.9131,331.897l21.1994,3.824l0,-14.555l-21.1994,3.824l0,6.907z"/>
   <path id="svg_344" fill="#EDF1FF" d="m157.627,321.322c-0.703,-1.288 -2.03,-2.107 -3.514,-2.107l-68.7905,0l0,18.458l68.7515,0c1.484,0 2.811,-0.82 3.514,-2.108l2.537,-4.682l2.304,0l0,-4.878l-2.304,0l-2.498,-4.683z"/>
   <path id="svg_345" fill="#6DC433" d="m180.505,327.331l-5.856,0l-0.43,-1.287c-0.273,-0.781 -0.976,-1.288 -1.796,-1.288l-9.916,0l0,-0.624c0,-0.313 -0.234,-0.547 -0.547,-0.547c-0.312,0 -0.546,0.234 -0.546,0.547l0,8.663c0,0.312 0.234,0.546 0.546,0.546c0.313,0 0.547,-0.234 0.547,-0.546l0,-0.625l9.916,0c0.82,0 1.523,-0.507 1.796,-1.287l0.43,-1.288l5.856,0c0.39,0 0.742,-0.312 0.742,-0.742l0,-0.741c0,-0.429 -0.313,-0.781 -0.742,-0.781z"/>
   <path id="svg_346" fill="#78CEFF" d="m153.879,320.815l-45.913,0l0,15.258l45.913,0l0,-15.258z"/>
   <path id="svg_347" fill="#3D4166" d="m181.247,328.073l0,0.741l38.26,0l-1.288,-0.741l-36.972,0z"/>
   <path id="svg_348" fill="white" d="m149.78,319.215l-0.781,0l0,12.955l0.781,0l0,-12.955z"/>
   <path id="svg_349" fill="white" d="m147.515,319.215l-0.781,0l0,6.79l0.781,0l0,-6.79z"/>
   <path id="svg_350" fill="white" d="m145.251,319.215l-0.781,0l0,6.79l0.781,0l0,-6.79z"/>
   <path id="svg_351" fill="white" d="m143.026,319.215l-0.781,0l0,6.79l0.781,0l0,-6.79z"/>
   <path id="svg_352" fill="white" d="m140.761,319.215l-0.781,0l0,6.79l0.781,0l0,-6.79z"/>
   <path id="svg_353" fill="white" d="m138.497,319.215l-0.781,0l0,12.955l0.781,0l0,-12.955z"/>
   <path id="svg_354" fill="white" d="m136.271,319.215l-0.781,0l0,6.79l0.781,0l0,-6.79z"/>
   <path id="svg_355" fill="white" d="m134.007,319.215l-0.781,0l0,6.79l0.781,0l0,-6.79z"/>
   <path id="svg_356" fill="white" d="m131.743,319.215l-0.781,0l0,6.79l0.781,0l0,-6.79z"/>
   <path id="svg_357" fill="white" d="m129.478,319.215l-0.781,0l0,6.79l0.781,0l0,-6.79z"/>
   <path id="svg_358" fill="white" d="m127.253,319.215l-0.781,0l0,12.955l0.781,0l0,-12.955z"/>
   <path id="svg_359" fill="white" d="m124.989,319.215l-0.781,0l0,6.79l0.781,0l0,-6.79z"/>
   <path id="svg_360" fill="white" d="m122.724,319.215l-0.781,0l0,6.79l0.781,0l0,-6.79z"/>
   <path id="svg_361" fill="white" d="m120.499,319.215l-0.781,0l0,6.79l0.781,0l0,-6.79z"/>
   <path id="svg_362" fill="white" d="m118.234,319.215l-0.78,0l0,6.79l0.78,0l0,-6.79z"/>
   <path id="svg_363" fill="white" d="m115.97,319.215l-0.781,0l0,12.955l0.781,0l0,-12.955z"/>
   <path id="svg_364" fill="white" d="m113.745,319.215l-0.781,0l0,6.79l0.781,0l0,-6.79z"/>
   <path id="svg_365" fill="white" d="m111.48,319.215l-0.781,0l0,6.79l0.781,0l0,-6.79z"/>
   <path id="svg_366" fill="white" d="m109.216,319.215l-0.781,0l0,6.79l0.781,0l0,-6.79z"/>
   <path id="svg_367" fill="white" d="m106.99,319.215l-0.781,0l0,6.79l0.781,0l0,-6.79z"/>
   <path id="svg_368" fill="white" d="m104.726,319.215l-0.781,0l0,12.955l0.781,0l0,-12.955z"/>
   <path id="svg_369" fill="#78CEFF" d="m84.5418,315c-0.7809,0 -1.4055,0.624 -1.4055,1.405l0,24.077c0,0.781 0.6246,1.405 1.4055,1.405c0.7808,0 1.4054,-0.624 1.4054,-1.405l0,-24.077c0,-0.781 -0.6246,-1.405 -1.4054,-1.405z"/>
   <path id="svg_370" fill="#78CEFF" d="m62.0541,319.215c-0.5856,0 -1.0541,0.468 -1.0541,1.053l0,16.351c0,0.585 0.4685,1.054 1.0541,1.054c0.5857,0 1.0542,-0.469 1.0542,-1.054l0,-16.351c0.039,-0.585 -0.4685,-1.053 -1.0542,-1.053z"/>
  </g>
 </g>
</svg>