<svg width="66" height="84" viewBox="0 0 66 84" fill="none" xmlns="http://www.w3.org/2000/svg">
<path d="M39.9997 50.3999V37.7999H31.5997V33.5999C31.5997 29.6801 28.5194 26.5999 24.5997 26.5999C20.68 26.5999 17.5997 29.6801 17.5997 33.5999V37.7999H9.19971V76.9999H25.9997V74.1999H11.9997V40.5999H17.5997V43.3999H20.3997V40.5999H28.7997V43.3999H31.5997V40.5999H37.1997V50.3999H39.9997ZM28.7997 37.7999H20.3997V33.5999C20.3997 31.2196 22.2194 29.3999 24.5997 29.3999C26.98 29.3999 28.7997 31.2196 28.7997 33.5999V37.7999Z" fill="#6DC433"/>
<path d="M55.4003 81.2H5.00029C4.16016 81.2 3.60029 80.6401 3.60029 79.8V4.2C3.60029 3.35986 4.16016 2.8 5.00029 2.8H45.6003V11.2C45.6003 13.5803 47.42 15.4 49.8003 15.4H52.6003V12.6H49.8003C48.9602 12.6 48.4003 12.0401 48.4003 11.2V5.04014L56.8003 14.4197V50.4H59.6003V13.4401L47.5602 0H5.00029C2.62002 0 0.800293 1.81973 0.800293 4.2V79.8C0.800293 82.1803 2.62002 84 5.00029 84H55.4003C57.7806 84 59.6003 82.1803 59.6003 79.8H56.8003C56.8003 80.6401 56.2404 81.2 55.4003 81.2Z" fill="#6DC433"/>
<path d="M20.3999 7H35.7999V9.8H20.3999V7Z" fill="#6DC433"/>
<path d="M9.19971 14H38.5997V16.8H9.19971V14Z" fill="#6DC433"/>
<path d="M9.19971 21H51.1997V23.8H9.19971V21Z" fill="#6DC433"/>
<path d="M35.8003 28H51.2003V30.8H35.8003V28Z" fill="#6DC433"/>
<path d="M42.8003 35H51.2003V37.8H42.8003V35Z" fill="#6DC433"/>
<path d="M42.8003 42H51.2003V44.8H42.8003V42Z" fill="#6DC433"/>
<path d="M9.19971 28H14.7997V30.8H9.19971V28Z" fill="#6DC433"/>
<path d="M34.3999 64.4001H41.3999V67.2001H34.3999V64.4001Z" fill="#6DC433"/>
<path d="M34.3999 68.5999H38.5999V71.3999H34.3999V68.5999Z" fill="#6DC433"/>
<path d="M60.9998 53.2H32.9998C30.6195 53.2 28.7998 55.0197 28.7998 57.4V72.7999C28.7998 75.1802 30.6195 76.9999 32.9998 76.9999H60.9998C63.3801 76.9999 65.1998 75.1802 65.1998 72.7999V57.4C65.1998 55.0197 63.3801 53.2 60.9998 53.2ZM62.3998 72.7999C62.3998 73.6401 61.8399 74.1999 60.9998 74.1999H32.9998C32.1597 74.1999 31.5998 73.6401 31.5998 72.7999V61.5999H62.3998V72.7999ZM62.3998 58.8H31.5998V57.4C31.5998 56.5598 32.1597 56 32.9998 56H60.9998C61.8399 56 62.3998 56.5598 62.3998 57.4V58.8Z" fill="#6DC433"/>
</svg>
