<svg width="78" height="84" viewBox="0 0 78 84" fill="none" xmlns="http://www.w3.org/2000/svg">
<g clip-path="url(#clip0)">
<path d="M75.8395 40.8316C73.2847 38.7013 69.461 39.0081 67.2834 41.5132L65.8087 43.03V13.4621C65.8087 12.6271 65.1229 11.9454 64.2827 11.9454H53.8918L53.909 9.16753C53.9604 4.14014 49.8967 0.0330164 44.8556 -0.00106759C39.8145 -0.0351516 35.6821 4.0038 35.6307 9.01415L35.6135 11.9454H25.137C24.2968 11.9454 23.6109 12.6271 23.6109 13.4621V47.3757C17.7125 48.6027 13.0314 52.2497 10.5109 57.5668C8.52187 57.4645 6.5843 58.1973 5.14399 59.6289L0.445812 64.2813C0.15432 64.5711 0 64.946 0 65.355C0 65.764 0.15432 66.1389 0.445812 66.4286L17.6953 83.5558C17.9868 83.8455 18.3812 83.9989 18.7756 83.9989C19.1699 83.9989 19.5472 83.8455 19.8558 83.5558L24.5368 78.9034C26.0629 77.3866 26.8002 75.3245 26.5773 73.2284L28.2576 71.6264C29.5951 70.3483 31.344 69.6496 33.1787 69.6496H53.2403C56.8411 69.6496 60.2361 68.2862 62.8081 65.781C62.8424 65.7469 62.8767 65.7129 62.911 65.6617L76.5597 49.3696C78.7373 46.8133 78.4115 42.9788 75.8395 40.8316ZM38.6828 9.03119C38.7171 5.69096 41.4605 2.99832 44.8213 3.03241C48.182 3.06649 50.8912 5.79321 50.8569 9.13344L50.8397 11.9454H38.6485L38.6828 9.03119ZM26.663 14.9618H62.7738V46.1487L58.3671 50.6818C57.2354 49.3014 55.5036 48.4323 53.6346 48.4323H35.9736C35.8707 48.4323 35.7679 48.4152 35.665 48.3641C33.2987 47.4098 30.7782 46.9155 28.1891 46.9155C27.6747 46.9155 27.1774 46.9326 26.663 46.9667V14.9618ZM22.3763 76.7561L18.7756 80.3349L3.66938 65.355L7.28732 61.7762C8.88195 60.1913 11.4539 60.2253 13.0143 61.7762L22.3763 71.0811C23.9538 72.6319 23.9881 75.1712 22.3763 76.7561ZM74.2277 47.4268L60.6305 63.6678C58.6415 65.5765 56.018 66.6161 53.2574 66.6161H33.1959C30.5553 66.6161 28.0519 67.6216 26.1486 69.4451L25.4799 70.0927C25.2055 69.6836 24.8969 69.2917 24.5368 68.9508L15.1748 59.6459C14.6775 59.1517 14.1117 58.7427 13.4944 58.4189C15.8263 53.8516 19.9758 50.9545 25.3427 50.1706C28.4291 49.7275 31.4983 49.9831 34.499 51.1931C34.9791 51.3805 35.4592 51.4828 35.9565 51.4828H53.6175C55.2636 51.4828 56.6696 52.8291 56.6696 54.5163C56.6696 56.1864 55.2979 57.5498 53.6175 57.5498H40.3632C39.523 57.5498 38.8371 58.2314 38.8371 59.0665C38.8371 59.9015 39.523 60.5832 40.3632 60.5832H53.6175C56.9782 60.5832 59.7045 57.8735 59.7045 54.5333C59.7045 54.2606 59.6874 54.005 59.6531 53.7323C59.9789 53.4085 69.1866 43.9502 69.4953 43.6094C69.5124 43.5924 69.5467 43.5583 69.5639 43.5412C70.6441 42.2631 72.5817 42.1097 73.8677 43.1833C75.1537 44.2229 75.3251 46.1316 74.2277 47.4268Z" fill="#6DC433"/>
<path d="M54.7492 26.1942C52.623 24.081 49.1422 24.081 47.016 26.1942L44.7527 28.4267L42.5065 26.1942C40.3803 24.081 36.8995 24.081 34.7733 26.1942C32.6472 28.3074 32.6472 31.7669 34.7733 33.8801L37.0196 36.1126L40.7061 39.7766C40.7232 39.7937 40.7575 39.8107 40.7747 39.8448L40.8947 39.9641C41.9578 41.0207 43.3638 41.549 44.7698 41.549C46.1759 41.549 47.5647 41.0207 48.645 39.9641L52.5201 36.1126L54.7663 33.8801C56.8925 31.7669 56.8925 28.3244 54.7492 26.1942ZM36.488 32.1759C35.3049 31 35.3049 29.0743 36.488 27.8984C37.0881 27.3019 37.8597 27.0122 38.6313 27.0122C39.4029 27.0122 40.1917 27.3019 40.7747 27.8984L43.0209 30.1309L38.7171 34.4084L36.488 32.1759ZM47.1018 38.0895C45.8158 39.3676 43.7582 39.3676 42.455 38.1236L40.466 36.1296L44.7698 31.8521L49.0736 36.1296L47.1018 38.0895ZM53.0345 32.1759L50.7883 34.4084L46.4845 30.1309L48.7307 27.8984C49.9138 26.7225 51.8514 26.7225 53.0345 27.8984C54.2176 29.0913 54.2176 31 53.0345 32.1759Z" fill="#6DC433"/>
</g>
<defs>
<clipPath id="clip0">
<rect width="78" height="84" fill="white"/>
</clipPath>
</defs>
</svg>
