<svg width="479" height="478" viewBox="0 0 479 478" fill="none" xmlns="http://www.w3.org/2000/svg">
<rect x="44.2598" y="407.706" width="422.896" height="97.1274" rx="10" transform="rotate(-74.5973 44.2598 407.706)" fill="url(#paint0_linear)"/>
<rect x="0.759766" y="170.648" width="380.686" height="325.786" rx="10" transform="rotate(-23.187 0.759766 170.648)" fill="url(#paint1_linear)"/>
<g clip-path="url(#clip0)">
<path d="M377.628 278.146C369.846 260.621 339.84 271.102 339.84 271.102C339.84 271.102 323.801 306.32 317.81 308.025C311.82 309.73 325.62 275.239 325.62 275.239C313.668 275.91 285.761 295.028 285.761 295.028C285.761 295.028 293.43 332.062 287.216 332.23C281.002 332.397 282.094 299.109 282.094 299.109C271.177 304.307 262.556 319.261 262.556 319.261C252.563 343.019 283.633 354.618 283.633 354.618C283.633 354.618 286.012 367.503 280.302 383.575C280.302 383.575 278.931 386.593 277.811 391.54L280.918 391.065C281.03 390.199 281.198 389.332 281.394 388.522C281.394 388.522 281.394 388.522 281.394 388.494V388.466C281.534 387.963 281.73 387.208 281.982 386.314C282.654 384.301 283.073 382.82 283.325 381.786C285.285 375.497 288.224 367.252 290.715 365.239C290.715 365.239 290.295 364.82 289.819 363.925C290.099 364.345 290.407 364.792 290.715 365.239C297.825 375.832 324.808 373.624 339.196 368.286C353.583 362.947 346.474 359.761 337.404 354.199C328.335 348.637 311.848 352.997 306.474 351.096C301.1 349.196 307.93 345.422 317.978 344.64C327.999 343.885 334.493 353.025 350.756 352.074C367.019 351.124 374.577 319.177 374.577 319.177C364.052 324.32 343.283 321.273 341.939 317.584C340.595 313.894 370.014 309.758 374.409 307.913C378.831 306.04 385.409 295.671 377.628 278.146Z" fill="#DFEBFD" fill-opacity="0.25"/>
</g>
<g clip-path="url(#clip1)">
<path d="M180.903 327.525C188.451 316.612 207.467 327.633 207.467 327.633C207.467 327.633 213.783 353.668 217.625 355.604C221.466 357.54 216.57 332.29 216.57 332.29C224.631 334.307 241.077 350.919 241.077 350.919C241.077 350.919 231.069 375.113 235.262 376.047C239.454 376.981 243.039 354.169 243.039 354.169C249.774 359.11 253.683 370.415 253.683 370.415C257.389 387.88 234.788 391.725 234.788 391.725C234.788 391.725 231.502 400.187 233.287 411.87C233.287 411.87 233.828 414.104 233.95 417.611L231.894 416.88C231.921 416.271 231.921 415.675 231.907 415.079V415.066C231.907 415.052 231.907 415.052 231.907 415.039C231.88 414.673 231.84 414.145 231.786 413.509C231.596 412.06 231.488 410.99 231.461 410.246C231.461 410.246 231.461 410.246 231.461 410.232C230.947 405.697 230.027 399.713 228.594 398.007C228.594 398.007 228.932 397.763 229.365 397.222C229.121 397.479 228.864 397.736 228.594 398.007C222.399 404.302 204.37 399.293 195.281 393.796C186.205 388.3 191.453 387.054 198.324 384.441C205.195 381.828 215.826 386.946 219.721 386.35C223.616 385.754 219.464 382.288 212.755 380.474C206.047 378.647 200.461 384.021 189.546 381.273C178.618 378.538 177.644 355.82 177.644 355.82C184.122 360.681 198.622 361.304 200.015 358.961C201.408 356.619 181.985 349.999 179.24 348.171C176.481 346.343 173.343 338.437 180.903 327.525Z" fill="#CDE0FB" fill-opacity="0.25"/>
</g>
<g clip-path="url(#clip2)">
<path d="M331.521 302.059C331.521 299.55 330.644 297.079 329.252 295.131L329.29 295.103C327.994 293.259 326.23 291.881 324.285 291.387L257.836 274.577C256.159 274.149 254.614 274.453 253.384 275.318L249.352 278.34L250.62 407.643C250.62 407.729 250.629 407.786 250.648 407.814C250.677 412.613 253.89 417.308 257.855 418.315L325.115 436.513L328.003 434.222C330.196 432.474 331.502 430.801 331.502 427.628L331.521 302.059Z" fill="#A7B2D9"/>
<path d="M283.434 331.935C283.434 331.935 247.054 415.721 247.168 410.779L248.98 278.235L253.289 275.128C254.547 274.244 256.111 273.931 257.789 274.358L324.304 291.359C326.249 291.853 327.994 293.259 329.252 295.15L283.434 331.935Z" fill="#B1BDE6"/>
<path d="M320.071 437.682L253.784 420.824C249.799 419.816 246.739 415.046 246.739 410.228V284.07C246.739 279.252 249.885 276.183 253.861 277.19L320.109 294.058C324.094 295.065 327.116 299.845 327.116 304.663V430.821C327.116 435.638 324.047 438.689 320.071 437.682Z" fill="white"/>
<path d="M318.736 438.489L252.45 421.631C248.465 420.624 245.405 415.854 245.405 411.036V284.878C245.405 280.06 248.551 276.991 252.526 277.998L318.784 294.856C322.769 295.863 325.791 300.643 325.791 305.461V431.619C325.791 436.446 322.721 439.497 318.736 438.489Z" fill="#1261BD"/>
<path d="M320.338 303.37C320.338 302.648 319.909 302.097 319.223 301.916L252.879 285.134C251.392 284.754 249.532 286.237 249.532 287.795V397.162V409.81C249.532 410.532 249.962 411.083 250.648 411.264L316.992 428.046C318.479 428.426 320.338 426.943 320.338 425.385V316.018V303.37Z" fill="#DEE8FF"/>
<path d="M132.842 426.478L190.52 387.308L236.72 398.806L234.765 428.15L209.73 439.554C209.73 439.554 146.447 457.476 144.292 456.744C142.147 456.003 132.842 426.478 132.842 426.478Z" fill="#5C73A8"/>
<path d="M197.48 423.807L193.457 388.03L236.72 398.796L234.765 428.141L209.73 439.544L197.48 423.807Z" fill="#708CCC"/>
<path d="M141.175 423.998L193.923 390.52C194.362 390.244 194.905 390.158 195.382 390.291L228.902 400.079C229.178 400.165 229.398 400.307 229.541 400.488L237.711 398.312C237.282 397.571 236.529 396.953 235.471 396.639L199.329 385.806C196.393 384.922 192.932 385.455 190.177 387.194L133.405 423.209C131.984 424.112 131.288 425.404 131.26 426.63L141.175 423.998Z" fill="#1261BD"/>
<path d="M173.732 468.337C173.732 468.337 177.841 469.249 182.045 467.14C185.334 465.486 179.795 463.738 179.795 463.738L171.386 464.033L173.732 468.337Z" fill="#92A8D9"/>
<path d="M172.721 463.728C172.721 463.728 177.116 465.714 182.369 462.512C187.756 459.234 176.115 458.198 176.115 458.198L172.721 463.728Z" fill="#97B3E8"/>
<path d="M166.286 464.945C155.437 462.132 152.796 450.491 161.233 442.689L164.131 440.618L196.507 418.562L226.481 429.1C230.151 430.64 230.141 435.125 226.462 437.406L187.288 461.676C181.082 465.524 173.398 466.779 166.696 465.049L166.286 464.945Z" fill="#657EB8"/>
<path d="M317.799 464.681C317.867 463.666 316.41 462.741 314.545 462.617C312.68 462.493 311.113 463.216 311.045 464.232C310.977 465.248 312.433 466.172 314.298 466.296C316.163 466.42 317.731 465.697 317.799 464.681Z" fill="#BAC7F2"/>
<path d="M324.828 458.749L324.771 458.663L324.161 457.78L324.085 457.666L324.075 457.675C323.76 457.314 323.227 457.105 322.54 457.133C321.024 457.2 319.299 458.388 318.698 459.785C318.422 460.421 318.431 460.982 318.66 461.41L318.651 461.419L319.404 462.503C319.718 462.883 320.262 463.101 320.967 463.073C322.483 463.006 324.209 461.818 324.809 460.421C325.095 459.766 325.086 459.177 324.828 458.749Z" fill="#BAC7F2"/>
<path d="M348.681 447.745L330.425 459.034C330.253 458.901 330.129 458.825 330.129 458.825L323.322 457.124L322.95 460.241C322.95 460.241 325.639 462.512 328.899 461.885C330.339 462.246 331.635 461.98 332.636 461.153L349.034 453.427C349.33 453.351 349.606 453.228 349.882 453.085C353.887 450.957 350.264 447.023 348.681 447.745Z" fill="#BAC7F2"/>
<path d="M350.216 447.108C350.798 442.243 348.071 435.914 344.134 432.987C342.255 431.59 340.444 431.21 338.995 431.723C338.842 431.78 338.69 431.847 338.537 431.923L320.462 439.573L330.405 459.709L346.86 451.955C348.624 451.498 349.901 449.816 350.216 447.108Z" fill="#6DC433"/>
<path d="M329.536 460.275C332.851 458.857 333.542 453.071 331.079 447.351C328.617 441.63 323.934 438.142 320.62 439.56C317.305 440.977 316.614 446.764 319.076 452.484C321.538 458.204 326.221 461.692 329.536 460.275Z" fill="#6DC433"/>
<path d="M327.197 459.156C329.93 457.998 330.515 453.238 328.503 448.524C326.492 443.811 322.646 440.929 319.914 442.087C317.181 443.246 316.596 448.006 318.608 452.719C320.619 457.433 324.465 460.315 327.197 459.156Z" fill="#3C9326"/>
<path d="M346.59 450.205C349.322 449.046 349.907 444.286 347.896 439.573C345.884 434.859 342.039 431.977 339.306 433.136C336.574 434.294 335.989 439.055 338 443.768C340.012 448.482 343.857 451.363 346.59 450.205Z" fill="#3C9326"/>
<path d="M325.362 442.765C323.446 441.34 321.606 441.121 320.262 441.929C321.148 442.043 322.111 442.461 323.103 443.193C326.573 445.778 328.966 451.346 328.451 455.632C328.222 457.552 327.45 458.891 326.354 459.547C328.594 459.842 330.348 458.264 330.72 455.204C331.225 450.919 328.832 445.35 325.362 442.765Z" fill="#6DC433"/>
<path opacity="0.5" d="M324.371 442.841C327.841 445.426 330.234 450.995 329.729 455.28" stroke="white" stroke-width="3.1667" stroke-miterlimit="10" stroke-linecap="round" stroke-linejoin="round"/>
<path d="M323.513 458.283C320.043 455.699 317.65 450.13 318.165 445.844C318.393 443.925 319.166 442.585 320.262 441.929C318.022 441.635 316.267 443.212 315.896 446.272C315.381 450.558 317.783 456.126 321.244 458.711C323.16 460.136 325 460.355 326.344 459.547C325.467 459.433 324.495 459.015 323.513 458.283Z" fill="#90CC3D"/>
<path opacity="0.24" d="M338.242 436.342L328.661 440.637C327.946 440.96 327.088 440.637 326.764 439.924C326.439 439.211 326.764 438.356 327.479 438.033L337.06 433.738C337.775 433.415 338.633 433.738 338.957 434.451C339.281 435.173 338.957 436.018 338.242 436.342Z" fill="#FCFEFF"/>
<path d="M327.723 457.907C327.942 456.789 326.665 455.601 324.871 455.254C323.078 454.906 321.447 455.53 321.229 456.648C321.011 457.766 322.288 458.954 324.081 459.302C325.875 459.65 327.505 459.025 327.723 457.907Z" fill="white"/>
<path d="M321.446 455.436L321.193 456.733L327.678 457.989L327.931 456.693L321.446 455.436Z" fill="white"/>
<path d="M327.922 456.845C328.141 455.727 326.863 454.539 325.07 454.191C323.277 453.843 321.646 454.468 321.428 455.586C321.21 456.704 322.487 457.892 324.28 458.239C326.074 458.587 327.704 457.963 327.922 456.845Z" fill="white"/>
<path d="M327.922 456.845C328.141 455.727 326.863 454.539 325.07 454.191C323.277 453.843 321.646 454.468 321.428 455.586C321.21 456.704 322.487 457.892 324.28 458.239C326.074 458.587 327.704 457.963 327.922 456.845Z" stroke="#DEE8FF" stroke-width="3.1667" stroke-miterlimit="10" stroke-linecap="round" stroke-linejoin="round"/>
<path d="M327.075 456.535C327.234 455.722 326.303 454.856 324.995 454.603C323.688 454.349 322.499 454.804 322.34 455.618C322.181 456.432 323.113 457.297 324.42 457.55C325.728 457.804 326.917 457.349 327.075 456.535Z" fill="#EDF3FF"/>
<path d="M321.609 462.043C323.112 461.008 323.803 459.409 323.154 458.472C322.504 457.535 320.759 457.615 319.256 458.651C317.753 459.686 317.061 461.285 317.711 462.222C318.361 463.159 320.106 463.079 321.609 462.043Z" fill="white"/>
<path d="M322.452 457.479L317.017 461.224L317.771 462.31L323.205 458.566L322.452 457.479Z" fill="white"/>
<path d="M320.991 461.163C322.494 460.127 323.186 458.528 322.536 457.591C321.886 456.654 320.141 456.734 318.638 457.77C317.136 458.805 316.444 460.404 317.093 461.341C317.743 462.278 319.488 462.198 320.991 461.163Z" fill="white"/>
<path d="M320.991 461.163C322.494 460.127 323.186 458.528 322.536 457.591C321.886 456.654 320.141 456.734 318.638 457.77C317.136 458.805 316.444 460.404 317.093 461.341C317.743 462.278 319.488 462.198 320.991 461.163Z" stroke="#DEE8FF" stroke-width="3.1667" stroke-miterlimit="10" stroke-linecap="round" stroke-linejoin="round"/>
<path d="M320.595 460.584C321.691 459.829 322.196 458.664 321.723 457.982C321.25 457.3 319.978 457.359 318.882 458.114C317.787 458.869 317.282 460.034 317.755 460.716C318.228 461.398 319.5 461.339 320.595 460.584Z" fill="#EDF3FF"/>
<path d="M324.086 454.23C324.95 453.484 324.68 451.764 323.483 450.388C322.287 449.011 320.617 448.5 319.754 449.246C318.89 449.992 319.16 451.712 320.356 453.088C321.553 454.465 323.222 454.976 324.086 454.23Z" fill="white"/>
<path d="M320.682 448.459L319.68 449.324L324.006 454.301L325.008 453.436L320.682 448.459Z" fill="white"/>
<path d="M324.906 453.525C325.77 452.779 325.5 451.059 324.304 449.683C323.107 448.306 321.438 447.795 320.574 448.541C319.711 449.286 319.98 451.007 321.177 452.383C322.373 453.759 324.043 454.271 324.906 453.525Z" fill="white"/>
<path d="M324.906 453.525C325.77 452.779 325.5 451.059 324.304 449.683C323.107 448.306 321.438 447.795 320.574 448.541C319.711 449.286 319.98 451.007 321.177 452.383C322.373 453.759 324.043 454.271 324.906 453.525Z" stroke="#DEE8FF" stroke-width="3.1667" stroke-miterlimit="10" stroke-linecap="round" stroke-linejoin="round"/>
<path d="M324.423 452.757C325.052 452.214 324.854 450.961 323.982 449.957C323.11 448.953 321.893 448.58 321.264 449.123C320.635 449.666 320.833 450.92 321.705 451.923C322.577 452.927 323.794 453.3 324.423 452.757Z" fill="#EDF3FF"/>
<path d="M315.828 464.289V464.194L315.886 462.978L315.237 462.949C315.142 462.864 315.047 462.778 314.923 462.702C313.674 461.837 311.577 461.752 310.251 462.493C310.127 462.56 310.023 462.636 309.918 462.712L309.269 462.683L309.212 463.995H309.222C309.241 464.489 309.536 464.992 310.118 465.391C311.367 466.256 313.464 466.342 314.789 465.6C315.419 465.258 315.752 464.783 315.828 464.289Z" fill="white"/>
<path d="M315.883 463.115C315.935 461.977 314.497 460.988 312.672 460.906C310.847 460.824 309.325 461.68 309.274 462.817C309.222 463.955 310.66 464.944 312.485 465.026C314.31 465.108 315.832 464.253 315.883 463.115Z" fill="white"/>
<path d="M315.883 463.115C315.935 461.977 314.497 460.988 312.672 460.906C310.847 460.824 309.325 461.68 309.274 462.817C309.222 463.955 310.66 464.944 312.485 465.026C314.31 465.108 315.832 464.253 315.883 463.115Z" stroke="#DEE8FF" stroke-width="3.1667" stroke-miterlimit="10" stroke-linecap="round" stroke-linejoin="round"/>
<path d="M314.246 463.966C313.274 464.508 311.748 464.441 310.833 463.814C309.918 463.187 309.956 462.237 310.928 461.685C311.901 461.134 313.426 461.21 314.341 461.837C315.257 462.465 315.209 463.424 314.246 463.966Z" fill="#EDF3FF"/>
<path opacity="0.5" d="M317.211 446.281C317.211 446.281 316.687 450.235 318.45 452.857" stroke="white" stroke-width="3.1667" stroke-miterlimit="10" stroke-linecap="round" stroke-linejoin="round"/>
<path d="M313.97 462.949C313.97 462.949 313.96 462.949 313.951 462.949L311.243 462.674C311.167 462.664 311.11 462.598 311.119 462.522C311.129 462.446 311.195 462.389 311.272 462.398L313.979 462.674C314.055 462.683 314.113 462.75 314.103 462.826C314.103 462.892 314.046 462.949 313.97 462.949Z" fill="#DEE8FF"/>
<path d="M318.918 460.241C318.889 460.241 318.851 460.231 318.822 460.203C318.765 460.155 318.756 460.06 318.803 460.003L320.214 458.369C320.262 458.312 320.357 458.302 320.414 458.35C320.472 458.397 320.481 458.492 320.434 458.549L319.023 460.184C318.994 460.222 318.956 460.241 318.918 460.241Z" fill="#DEE8FF"/>
<path d="M325.953 456.43C325.944 456.43 325.934 456.43 325.915 456.43L323.818 455.898C323.742 455.879 323.694 455.803 323.713 455.727C323.732 455.651 323.808 455.604 323.885 455.623L325.982 456.155C326.058 456.174 326.106 456.25 326.087 456.326C326.077 456.392 326.02 456.43 325.953 456.43Z" fill="#DEE8FF"/>
<path d="M323.56 451.86C323.513 451.86 323.465 451.831 323.436 451.793L322.311 449.949C322.273 449.883 322.292 449.797 322.359 449.75C322.426 449.712 322.512 449.731 322.559 449.797L323.684 451.641C323.722 451.707 323.703 451.793 323.637 451.841C323.618 451.86 323.589 451.86 323.56 451.86Z" fill="#DEE8FF"/>
<path opacity="0.5" d="M320.481 439.572C320.481 439.572 325.686 436.655 330.911 446.956C330.911 446.956 334.953 455.632 330.434 459.709" stroke="white" stroke-width="1.4428" stroke-miterlimit="10" stroke-linecap="round" stroke-linejoin="round"/>
<path d="M204.125 439.711C211.589 439.061 217.409 435.902 217.124 432.655C216.839 429.408 210.558 427.303 203.094 427.953C195.63 428.604 189.81 431.763 190.095 435.009C190.379 438.256 196.661 440.361 204.125 439.711Z" fill="#586EA1"/>
<path d="M209.597 397.476C209.463 390.52 202.332 385.046 193.657 385.255C184.981 385.464 178.05 391.27 178.184 398.236L178.756 429.367H178.813C178.784 429.728 178.765 430.089 178.775 430.459C178.908 437.415 186.001 441.017 194.677 440.808C203.352 440.599 210.312 436.665 210.188 429.699C210.178 429.177 210.131 428.654 210.035 428.141C210.045 428.141 209.606 397.998 209.597 397.476Z" fill="#78CEFF"/>
<path opacity="0.27" d="M207.881 405.781C207.871 405.382 207.833 404.992 207.757 404.603C207.509 407.853 200.016 409.497 194.191 409.81C186.993 410.2 181.034 407.919 180.367 405.667C180.339 405.924 180.329 406.18 180.339 406.437L180.777 430.269H180.825C180.796 430.545 180.787 430.821 180.787 431.106C180.882 436.437 187.088 438.603 194.696 438.423C202.304 438.242 208.424 435.772 208.319 430.441C208.31 430.041 208.272 429.642 208.195 429.253C208.205 429.253 207.89 406.18 207.881 405.781Z" fill="#FCFEFF"/>
<path opacity="0.27" d="M194.229 409.801C201.808 409.611 207.893 407.101 207.82 404.195C207.747 401.288 201.543 399.085 193.964 399.275C186.384 399.465 180.299 401.975 180.372 404.881C180.445 407.788 186.649 409.991 194.229 409.801Z" fill="#FCFEFF"/>
<path d="M195.12 437.502C201.153 437.351 205.994 435.293 205.933 432.906C205.873 430.519 200.934 428.706 194.902 428.857C188.87 429.009 184.029 431.067 184.089 433.454C184.149 435.841 189.088 437.654 195.12 437.502Z" fill="#78CEFF"/>
<path d="M193.822 391.454C198.628 391.329 202.472 389.25 202.408 386.81C202.344 384.371 198.397 382.494 193.591 382.619C188.785 382.744 184.941 384.823 185.005 387.263C185.069 389.703 189.017 391.579 193.822 391.454Z" fill="#21386B"/>
<path d="M202.408 386.823C202.456 389.265 198.595 391.337 193.79 391.451L192.055 391.403C197.079 390.235 199.691 387.707 199.424 383.592C201.236 384.362 202.38 385.512 202.408 386.823Z" fill="#21386B"/>
<path d="M201.465 381.121L185.734 381.501L185.83 386.576C185.868 388.771 189.424 390.472 193.771 390.368C194.448 390.349 195.106 390.291 195.735 390.196C195.983 390.158 196.231 390.111 196.469 390.063C196.946 389.959 197.403 389.835 197.842 389.693C198.033 389.626 198.204 389.56 198.385 389.493C198.614 389.398 198.833 389.303 199.043 389.208C199.139 389.161 199.224 389.113 199.31 389.066C199.577 388.923 199.815 388.771 200.044 388.619C200.13 388.552 200.216 388.486 200.302 388.419C200.559 388.21 200.788 387.992 200.969 387.764C201.36 387.279 201.57 386.747 201.56 386.196L201.465 381.121Z" fill="white"/>
<path d="M185.801 386.025C185.839 388.229 189.395 389.93 193.742 389.826C194.419 389.807 195.077 389.75 195.706 389.655C195.954 389.617 196.202 389.569 196.44 389.522C196.917 389.417 197.375 389.294 197.813 389.151C198.004 389.085 198.175 389.018 198.357 388.952C198.585 388.857 198.805 388.762 199.014 388.667C199.11 388.619 199.196 388.572 199.281 388.524C199.548 388.381 199.787 388.229 200.015 388.068C200.101 388.001 200.187 387.935 200.273 387.868C200.53 387.659 200.759 387.441 200.94 387.203C201.331 386.718 201.541 386.186 201.531 385.635" stroke="white" stroke-width="1.3142" stroke-miterlimit="10" stroke-linecap="round" stroke-linejoin="round"/>
<path d="M193.704 385.295C198.047 385.184 201.525 383.465 201.473 381.456C201.422 379.446 197.86 377.907 193.517 378.018C189.174 378.129 185.696 379.848 185.748 381.858C185.8 383.867 189.362 385.406 193.704 385.295Z" fill="white"/>
<path d="M193.704 385.295C198.047 385.184 201.525 383.465 201.473 381.456C201.422 379.446 197.86 377.907 193.517 378.018C189.174 378.129 185.696 379.848 185.748 381.858C185.8 383.867 189.362 385.406 193.704 385.295Z" stroke="#2E4E94" stroke-miterlimit="10" stroke-linecap="round" stroke-linejoin="round"/>
<path d="M193.784 383.432C196.431 383.365 198.555 382.435 198.528 381.354C198.501 380.274 196.332 379.451 193.685 379.518C191.037 379.585 188.913 380.515 188.94 381.596C188.968 382.676 191.136 383.499 193.784 383.432Z" stroke="#2E4E94" stroke-miterlimit="10" stroke-linecap="round" stroke-linejoin="round"/>
<path d="M187.393 384.457L187.45 387.555" stroke="#2E4E94" stroke-miterlimit="10" stroke-linecap="round" stroke-linejoin="round"/>
<path d="M189.853 385.417L189.91 388.515" stroke="#2E4E94" stroke-miterlimit="10" stroke-linecap="round" stroke-linejoin="round"/>
<path d="M192.684 385.882L192.741 388.98" stroke="#2E4E94" stroke-miterlimit="10" stroke-linecap="round" stroke-linejoin="round"/>
<path d="M195.907 385.645L195.964 388.743" stroke="#2E4E94" stroke-miterlimit="10" stroke-linecap="round" stroke-linejoin="round"/>
<path d="M198.452 385.008L198.509 388.106" stroke="#2E4E94" stroke-miterlimit="10" stroke-linecap="round" stroke-linejoin="round"/>
<path d="M200.158 383.811L200.216 386.909" stroke="#2E4E94" stroke-miterlimit="10" stroke-linecap="round" stroke-linejoin="round"/>
<path opacity="0.24" d="M183.885 392.354L182.073 395.014C180.949 396.658 180.367 398.673 180.405 400.726L180.577 409.867C180.596 411.15 181.521 412.186 182.693 412.252C183.99 412.328 185.077 411.179 185.048 409.753L184.895 401.543C184.848 399.205 185.62 396.924 187.05 395.185C188.251 393.722 187.279 391.413 185.486 391.451C184.857 391.47 184.266 391.802 183.885 392.354Z" fill="#FCFEFF"/>
<path opacity="0.5" d="M207.795 404.28C207.852 407.149 201.751 409.63 194.172 409.81C186.593 409.991 180.405 407.815 180.358 404.935" stroke="white" stroke-width="1.0885" stroke-miterlimit="10" stroke-linecap="round" stroke-linejoin="round"/>
<path d="M163.026 370.003L162.816 408.043L170.023 404.194L169.699 371.98C169.69 371.01 170.938 370.203 171.968 370.507L202.771 378.803C204.782 379.392 205.602 381.064 205.621 382.955L207.261 418.353L213.82 414.599L212.419 380.817C212.39 377.729 210.293 375.22 206.975 374.298L172.245 364.748C167.316 362.829 163.359 364.967 163.026 370.003Z" fill="#1261BD"/>
<path d="M203.61 446.567L175.124 465.173L150.127 458.473L202.523 431.267L203.61 446.567Z" fill="#EDF3FF"/>
<path d="M202.523 431.267L174.037 449.873L149.04 443.174L177.526 424.568L202.523 431.267Z" fill="white"/>
<path d="M149.04 443.174L150.098 458.055L175.123 465.173L174.037 449.873L149.04 443.174Z" fill="white"/>
<path d="M179.023 437.696C184.842 437.286 189.414 434.896 189.234 432.357C189.054 429.818 184.191 428.092 178.372 428.501C172.553 428.911 167.981 431.301 168.161 433.84C168.341 436.379 173.204 438.105 179.023 437.696Z" fill="#5E75AB"/>
<path d="M174.009 438.039C179.391 437.831 183.629 434.452 183.475 430.493C183.32 426.534 178.832 423.493 173.45 423.701C168.068 423.91 163.83 427.288 163.985 431.247C164.139 435.206 168.627 438.247 174.009 438.039Z" fill="#6AB339"/>
<path d="M173.217 421.665C178.602 421.564 182.916 418.726 182.852 415.326C182.788 411.926 178.371 409.251 172.985 409.352C167.6 409.452 163.286 412.29 163.35 415.69C163.414 419.09 167.831 421.765 173.217 421.665Z" fill="#DA7500"/>
<path d="M173.389 422.208C178.771 422 183.009 418.621 182.855 414.662C182.701 410.703 178.213 407.662 172.831 407.871C167.449 408.079 163.211 411.457 163.365 415.416C163.519 419.376 168.007 422.416 173.389 422.208Z" fill="#DA7500"/>
<path d="M182.641 409.139L163.151 409.894L163.941 430.148L183.431 429.392L182.641 409.139Z" fill="#6DC433"/>
<path d="M183.265 425.147L181.358 425.223C181.063 424.948 165.952 425.537 165.676 425.832L163.769 425.908L163.931 430.165C164.007 431.999 165.027 433.795 166.982 435.125C170.9 437.776 177.068 437.539 180.767 434.593C182.617 433.12 183.494 431.248 183.427 429.414L183.265 425.147Z" fill="#6DC433"/>
<path d="M163.483 418.315C163.483 418.315 172.54 424.482 182.979 417.754L182.865 414.865L163.368 415.474L163.483 418.315Z" fill="#6AB339"/>
<path d="M183.923 413.925L161.9 414.599L161.776 412.053L183.799 411.378L183.923 413.925Z" fill="#EBEBEB"/>
<path d="M173.046 419.495C179.13 419.341 184.003 416.893 183.93 414.028C183.857 411.163 178.865 408.967 172.78 409.122C166.695 409.276 161.822 411.724 161.895 414.589C161.969 417.454 166.961 419.65 173.046 419.495Z" fill="#EBEBEB"/>
<path d="M179.49 432.065L179.461 431.419L179.232 425.47L179.128 422.743C174.933 424.368 169.251 424.302 165.466 422.42C165.39 422.382 165.304 422.335 165.228 422.296C164.589 421.973 164.036 421.612 163.588 421.223L163.702 424.054L163.922 429.718L163.931 430.06C166.686 435.334 175.972 434.669 179.49 432.065Z" fill="white"/>
<path d="M172.922 416.777C179.006 416.622 183.879 414.175 183.806 411.31C183.733 408.445 178.74 406.249 172.656 406.404C166.571 406.558 161.698 409.006 161.771 411.871C161.845 414.736 166.837 416.932 172.922 416.777Z" fill="white"/>
<path d="M172.886 415.307C177.413 415.189 181.039 413.431 180.986 411.379C180.932 409.328 177.219 407.76 172.692 407.878C168.165 407.995 164.539 409.754 164.593 411.805C164.646 413.856 168.359 415.424 172.886 415.307Z" stroke="#EBEBEB" stroke-width="2.435" stroke-miterlimit="10" stroke-linecap="round" stroke-linejoin="round"/>
<path d="M173.875 429.88C170.872 430.165 167.84 429.775 165.542 428.635" stroke="#2E4E94" stroke-width="0.8082" stroke-miterlimit="10" stroke-linecap="round" stroke-linejoin="round"/>
<path d="M173.865 426.867C170.862 427.152 167.83 426.763 165.533 425.622" stroke="#2E4E94" stroke-width="0.8082" stroke-miterlimit="10" stroke-linecap="round" stroke-linejoin="round"/>
<path d="M176.258 449.664L175.505 439.601L175.467 439.592L132.842 426.478L142.5 455.908C143.158 457.903 144.845 459.462 147.133 460.174L172.702 468.138L172.864 468.185C175.047 468.869 177.774 468.413 177.774 468.413L176.506 452.99L176.554 453.009L176.344 450.805L176.258 449.664ZM150.298 455.537C148.067 455.119 145.875 453.171 145.436 451.194L143.034 440.361C142.595 438.385 144.063 437.111 146.294 437.52C148.525 437.938 150.718 439.886 151.156 441.863L153.559 452.696C154.007 454.672 152.539 455.955 150.298 455.537ZM169.26 457.552C169.422 459.585 167.811 460.726 165.676 460.089C163.54 459.452 161.672 457.276 161.51 455.242L160.633 444.096C160.471 442.062 162.082 440.922 164.217 441.559C166.353 442.195 168.221 444.371 168.383 446.405L169.26 457.552Z" fill="#A0B8ED"/>
<path d="M198.776 443.668L184.457 452.639V446.642L198.776 437.672V443.668Z" fill="#78CEFF"/>
<path d="M175.505 439.601L175.905 444.675L175.867 444.694L177.488 465.287C177.65 467.358 180.453 468.233 182.522 466.855L208.577 449.569L208.586 449.626L231.095 434.688C233.23 433.272 234.575 431.163 234.718 428.986L236.987 400.07L175.505 439.601ZM191.922 454.226C189.948 455.518 188.194 454.919 188.013 452.886L187.05 441.758C186.878 439.725 188.347 437.007 190.32 435.714C192.293 434.422 194.048 435.021 194.229 437.054L195.192 448.182C195.363 450.216 193.895 452.933 191.922 454.226ZM210.617 438.936C210.722 440.979 209.158 443.668 207.147 444.913C205.135 446.158 203.409 445.512 203.305 443.469L202.742 432.274C202.637 430.231 204.201 427.542 206.212 426.297C208.224 425.052 209.949 425.699 210.054 427.742L210.617 438.936ZM225.88 417.26L225.909 428.511C225.918 430.564 224.231 433.215 222.171 434.393C220.112 435.581 218.425 434.869 218.415 432.816L218.387 421.565C218.377 419.512 220.065 416.861 222.124 415.683C224.183 414.495 225.87 415.208 225.88 417.26Z" fill="#89A2D9"/>
<path d="M229.055 402.312L176.182 435.372C174.981 436.123 173.474 436.351 172.187 435.961L140.812 426.525C139.745 426.202 139.649 424.957 140.66 424.321L141.175 423.998L131.26 426.63C131.222 428.065 132.108 429.424 133.882 429.956L171.453 441.197C173.751 441.882 176.449 441.473 178.603 440.095L235.966 403.491C238.092 402.141 238.626 399.908 237.711 398.321L229.541 400.497C229.96 401.01 229.817 401.837 229.055 402.312Z" fill="#1261BD"/>
<path d="M232.62 477.023L214.554 471.578C212.285 470.893 212.19 469.116 214.325 467.624L241.677 448.59C243.822 447.099 247.426 446.443 249.695 447.118L267.761 452.563C270.03 453.247 270.125 455.024 267.989 456.516L240.638 475.55C238.493 477.042 234.88 477.707 232.62 477.023Z" fill="#BAC7F2"/>
<path d="M266.073 454.368C266.073 454.359 266.073 454.349 266.073 454.34V452.61L264.929 452.924C264.739 452.829 264.538 452.743 264.31 452.677L246.244 447.232C243.975 446.547 240.371 447.213 238.226 448.705L210.874 467.738L209.33 468.157V470.01C209.368 470.732 209.959 471.35 211.093 471.692L229.169 477.137C231.438 477.821 235.042 477.156 237.187 475.664L264.538 456.63C265.53 455.936 266.035 455.185 266.073 454.511H266.083V454.368H266.073Z" fill="#78CEFF"/>
<path d="M229.169 475.407L211.103 469.962C208.834 469.278 208.739 467.501 210.874 466.009L238.226 446.975C240.371 445.483 243.974 444.827 246.243 445.502L264.309 450.947C266.578 451.631 266.674 453.408 264.538 454.9L237.187 473.934C235.041 475.426 231.438 476.091 229.169 475.407Z" fill="#78CEFF"/>
<path d="M219.683 472.547L254.261 448.115" stroke="#78CEFF" stroke-width="6.5107" stroke-miterlimit="10" stroke-linecap="round" stroke-linejoin="round"/>
<path d="M258.223 455.715C260.434 455.667 262.205 454.658 262.179 453.461C262.152 452.265 260.339 451.334 258.128 451.382C255.917 451.431 254.146 452.439 254.172 453.636C254.198 454.832 256.012 455.763 258.223 455.715Z" fill="#2B65E0"/>
<path d="M258.237 451.242C257.722 451.128 257.159 451.061 256.559 451.08C255.958 451.09 255.396 451.175 254.89 451.318L252.593 452.107L252.612 453.152C252.602 453.218 252.593 453.275 252.602 453.342C252.621 454.539 254.433 455.47 256.654 455.423C258.866 455.375 260.639 454.368 260.62 453.171L260.601 452.059L258.237 451.242Z" fill="#DEE8FF"/>
<path d="M258.237 451.242C257.722 451.128 257.16 451.061 256.559 451.08C255.958 451.09 255.396 451.175 254.891 451.318C258.704 452.648 258.942 454.017 256.645 455.414C258.857 455.366 260.63 454.359 260.611 453.161L260.592 452.05L258.237 451.242Z" fill="#BACCF2"/>
<path d="M256.64 454.384C258.851 454.336 260.622 453.327 260.596 452.131C260.57 450.934 258.756 450.004 256.545 450.052C254.334 450.1 252.563 451.109 252.589 452.305C252.616 453.502 254.429 454.432 256.64 454.384Z" fill="white"/>
<path d="M258.914 451.232L254.767 453.057C254.643 453.114 254.423 453.085 254.28 453C254.137 452.914 254.118 452.8 254.242 452.753L258.389 450.928C258.513 450.871 258.733 450.9 258.876 450.985C259.019 451.071 259.038 451.185 258.914 451.232Z" fill="#DEE8FF"/>
<path d="M249.509 461.721C251.72 461.672 253.491 460.664 253.465 459.467C253.438 458.271 251.625 457.34 249.414 457.388C247.203 457.436 245.432 458.445 245.458 459.642C245.484 460.838 247.298 461.769 249.509 461.721Z" fill="#2B65E0"/>
<path d="M249.533 457.247C249.018 457.133 248.455 457.067 247.855 457.086C247.254 457.095 246.692 457.181 246.186 457.323L243.889 458.112L243.908 459.158C243.898 459.224 243.889 459.281 243.898 459.348C243.917 460.545 245.729 461.476 247.95 461.429C250.162 461.381 251.935 460.374 251.916 459.177L251.897 458.065L249.533 457.247Z" fill="#DEE8FF"/>
<path d="M249.533 457.247C249.018 457.133 248.455 457.067 247.855 457.086C247.254 457.095 246.692 457.181 246.187 457.323C250 458.654 250.238 460.022 247.941 461.419C250.152 461.372 251.926 460.364 251.907 459.167L251.888 458.055L249.533 457.247Z" fill="#BACCF2"/>
<path d="M247.926 460.39C250.137 460.342 251.908 459.333 251.882 458.137C251.855 456.94 250.042 456.01 247.831 456.058C245.62 456.106 243.849 457.115 243.875 458.311C243.901 459.508 245.715 460.438 247.926 460.39Z" fill="white"/>
<path d="M250.21 457.238L246.063 459.062C245.939 459.119 245.719 459.091 245.576 459.005C245.433 458.92 245.414 458.806 245.538 458.758L249.685 456.934C249.809 456.877 250.029 456.905 250.172 456.991C250.305 457.076 250.324 457.19 250.21 457.238Z" fill="#DEE8FF"/>
<path d="M240.804 467.727C243.015 467.678 244.786 466.669 244.76 465.473C244.733 464.277 242.92 463.346 240.709 463.394C238.498 463.442 236.727 464.451 236.753 465.648C236.779 466.844 238.593 467.775 240.804 467.727Z" fill="#2B65E0"/>
<path d="M240.819 463.253C240.304 463.139 239.742 463.073 239.141 463.092C238.54 463.101 237.978 463.187 237.473 463.329L235.175 464.118L235.194 465.163C235.185 465.23 235.175 465.287 235.185 465.353C235.204 466.551 237.015 467.482 239.236 467.434C241.448 467.387 243.221 466.38 243.202 465.182L243.183 464.07L240.819 463.253Z" fill="#DEE8FF"/>
<path d="M240.819 463.253C240.304 463.139 239.742 463.073 239.141 463.092C238.541 463.101 237.978 463.187 237.473 463.329C241.286 464.66 241.525 466.028 239.227 467.425C241.439 467.377 243.212 466.37 243.193 465.173L243.174 464.061L240.819 463.253Z" fill="#BACCF2"/>
<path d="M239.212 466.396C241.423 466.348 243.194 465.339 243.168 464.143C243.141 462.946 241.328 462.016 239.117 462.064C236.906 462.112 235.135 463.121 235.161 464.317C235.187 465.514 237.001 466.444 239.212 466.396Z" fill="white"/>
<path d="M241.496 463.253L237.349 465.078C237.225 465.135 237.006 465.106 236.863 465.021C236.72 464.935 236.701 464.821 236.825 464.774L240.972 462.949C241.096 462.892 241.315 462.921 241.458 463.006C241.601 463.082 241.62 463.196 241.496 463.253Z" fill="#DEE8FF"/>
<path d="M232.09 473.733C234.301 473.684 236.072 472.675 236.046 471.479C236.02 470.283 234.206 469.352 231.995 469.4C229.784 469.448 228.013 470.457 228.039 471.654C228.066 472.85 229.879 473.781 232.09 473.733Z" fill="#2B65E0"/>
<path d="M232.105 469.259C231.59 469.145 231.028 469.078 230.427 469.097C229.827 469.107 229.264 469.192 228.759 469.335L226.461 470.124L226.48 471.169C226.471 471.236 226.461 471.293 226.471 471.359C226.49 472.556 228.301 473.488 230.523 473.44C232.744 473.393 234.508 472.385 234.489 471.188L234.47 470.076L232.105 469.259Z" fill="#DEE8FF"/>
<path d="M232.106 469.259C231.591 469.145 231.028 469.078 230.428 469.097C229.827 469.107 229.265 469.192 228.759 469.335C232.573 470.665 232.811 472.034 230.513 473.431C232.725 473.383 234.498 472.376 234.479 471.179L234.46 470.067L232.106 469.259Z" fill="#BACCF2"/>
<path d="M230.507 472.402C232.718 472.354 234.489 471.345 234.463 470.149C234.437 468.952 232.623 468.022 230.412 468.07C228.201 468.118 226.43 469.127 226.457 470.323C226.483 471.52 228.297 472.45 230.507 472.402Z" fill="white"/>
<path d="M232.782 469.259L228.635 471.084C228.511 471.141 228.292 471.112 228.149 471.027C228.006 470.941 227.987 470.827 228.111 470.779L232.258 468.955C232.382 468.898 232.601 468.926 232.744 469.012C232.887 469.088 232.906 469.202 232.782 469.259Z" fill="#DEE8FF"/>
<path d="M245.971 451.239C248.182 451.19 249.954 450.182 249.927 448.985C249.901 447.789 248.087 446.858 245.876 446.906C243.665 446.955 241.894 447.963 241.921 449.16C241.947 450.356 243.761 451.287 245.971 451.239Z" fill="#2B65E0"/>
<path d="M245.986 446.766C245.472 446.652 244.909 446.585 244.308 446.604C243.708 446.614 243.145 446.699 242.64 446.842L240.342 447.631L240.362 448.676C240.352 448.743 240.342 448.8 240.352 448.866C240.371 450.063 242.182 450.995 244.404 450.947C246.616 450.9 248.389 449.892 248.37 448.695L248.351 447.583L245.986 446.766Z" fill="#DEE8FF"/>
<path d="M245.986 446.766C245.471 446.652 244.909 446.585 244.308 446.604C243.708 446.614 243.145 446.699 242.64 446.842C246.453 448.172 246.692 449.541 244.394 450.938C246.606 450.89 248.379 449.883 248.36 448.686L248.341 447.574L245.986 446.766Z" fill="#BACCF2"/>
<path d="M244.38 449.918C246.591 449.87 248.362 448.861 248.335 447.664C248.309 446.468 246.495 445.537 244.284 445.585C242.074 445.634 240.302 446.643 240.329 447.839C240.355 449.035 242.169 449.966 244.38 449.918Z" fill="white"/>
<path d="M246.663 446.766L242.516 448.59C242.392 448.648 242.173 448.619 242.03 448.533C241.887 448.448 241.868 448.334 241.992 448.286L246.139 446.462C246.263 446.405 246.482 446.433 246.625 446.519C246.768 446.595 246.778 446.709 246.663 446.766Z" fill="#DEE8FF"/>
<path d="M237.258 457.245C239.468 457.196 241.24 456.188 241.213 454.991C241.187 453.795 239.373 452.864 237.162 452.912C234.951 452.961 233.18 453.969 233.207 455.166C233.233 456.362 235.047 457.293 237.258 457.245Z" fill="#2B65E0"/>
<path d="M237.273 452.772C236.758 452.658 236.195 452.591 235.595 452.61C234.994 452.62 234.432 452.705 233.926 452.848L231.629 453.637L231.648 454.682C231.638 454.748 231.629 454.805 231.638 454.872C231.657 456.069 233.469 457.001 235.69 456.953C237.902 456.905 239.675 455.898 239.656 454.701L239.637 453.589L237.273 452.772Z" fill="#DEE8FF"/>
<path d="M237.273 452.772C236.758 452.658 236.195 452.591 235.595 452.61C234.994 452.62 234.432 452.705 233.926 452.848C237.74 454.178 237.978 455.547 235.681 456.943C237.892 456.896 239.666 455.889 239.646 454.691L239.627 453.58L237.273 452.772Z" fill="#BACCF2"/>
<path d="M235.666 455.924C237.877 455.876 239.648 454.867 239.621 453.67C239.595 452.474 237.781 451.543 235.57 451.592C233.359 451.64 231.588 452.649 231.615 453.845C231.641 455.041 233.455 455.972 235.666 455.924Z" fill="white"/>
<path d="M237.95 452.772L233.803 454.596C233.679 454.653 233.459 454.625 233.316 454.539C233.173 454.454 233.154 454.34 233.278 454.292L237.425 452.468C237.549 452.411 237.768 452.439 237.911 452.525C238.055 452.601 238.074 452.715 237.95 452.772Z" fill="#DEE8FF"/>
<path d="M228.543 463.251C230.754 463.203 232.525 462.194 232.499 460.997C232.473 459.801 230.659 458.87 228.448 458.918C226.237 458.967 224.466 459.976 224.492 461.172C224.519 462.368 226.332 463.299 228.543 463.251Z" fill="#2B65E0"/>
<path d="M228.568 458.787C228.053 458.673 227.491 458.606 226.89 458.625C226.29 458.635 225.727 458.72 225.222 458.863L222.924 459.652L222.943 460.697C222.934 460.764 222.924 460.821 222.934 460.887C222.953 462.084 224.764 463.016 226.986 462.968C229.197 462.921 230.971 461.913 230.952 460.716L230.933 459.604L228.568 458.787Z" fill="#DEE8FF"/>
<path d="M228.568 458.787C228.053 458.673 227.491 458.606 226.89 458.625C226.29 458.635 225.727 458.72 225.222 458.863C229.035 460.193 229.274 461.562 226.976 462.959C229.188 462.911 230.961 461.904 230.942 460.707L230.923 459.595L228.568 458.787Z" fill="#BACCF2"/>
<path d="M226.961 461.93C229.172 461.881 230.943 460.873 230.917 459.676C230.89 458.48 229.077 457.549 226.866 457.597C224.655 457.646 222.884 458.654 222.91 459.851C222.936 461.047 224.75 461.978 226.961 461.93Z" fill="white"/>
<path d="M229.236 458.777L225.089 460.602C224.965 460.659 224.745 460.63 224.602 460.545C224.459 460.459 224.44 460.345 224.564 460.298L228.711 458.473C228.835 458.416 229.055 458.445 229.198 458.53C229.341 458.606 229.36 458.72 229.236 458.777Z" fill="#DEE8FF"/>
<path d="M219.839 469.257C222.05 469.208 223.821 468.199 223.795 467.003C223.768 465.807 221.955 464.876 219.744 464.924C217.533 464.972 215.762 465.981 215.788 467.178C215.814 468.374 217.628 469.305 219.839 469.257Z" fill="#2B65E0"/>
<path d="M219.855 464.793C219.34 464.679 218.778 464.612 218.177 464.631C217.576 464.641 217.014 464.726 216.509 464.869L214.211 465.657L214.23 466.703C214.221 466.769 214.211 466.826 214.221 466.893C214.24 468.09 216.051 469.021 218.272 468.974C220.484 468.926 222.257 467.919 222.238 466.722L222.219 465.61L219.855 464.793Z" fill="#DEE8FF"/>
<path d="M219.855 464.793C219.34 464.679 218.777 464.612 218.177 464.631C217.576 464.641 217.014 464.726 216.508 464.869C220.322 466.199 220.56 467.567 218.263 468.964C220.474 468.917 222.248 467.91 222.228 466.712L222.209 465.6L219.855 464.793Z" fill="#BACCF2"/>
<path d="M218.247 467.936C220.458 467.887 222.229 466.879 222.203 465.682C222.176 464.486 220.363 463.555 218.152 463.603C215.941 463.652 214.17 464.66 214.196 465.857C214.222 467.053 216.036 467.984 218.247 467.936Z" fill="white"/>
<path d="M220.532 464.783L216.384 466.608C216.261 466.665 216.041 466.636 215.898 466.551C215.755 466.465 215.736 466.351 215.86 466.304L220.007 464.479C220.131 464.422 220.35 464.451 220.493 464.536C220.636 464.612 220.655 464.726 220.532 464.783Z" fill="#DEE8FF"/>
<path d="M286.599 334.843C286.599 334.843 282.157 348.061 289.679 348.917C297.2 349.781 297.896 339.509 297.896 339.509L286.599 334.843Z" fill="#2E4E94"/>
<path d="M287.39 334.843C287.39 334.843 285.055 346.265 288.573 346.341C292.92 346.436 292.91 332.648 292.91 332.648L287.39 334.843Z" fill="#27427A"/>
<path opacity="0.21" d="M294.588 454.188C303.244 454.188 310.261 451.099 310.261 447.289C310.261 443.479 303.244 440.39 294.588 440.39C285.932 440.39 278.915 443.479 278.915 447.289C278.915 451.099 285.932 454.188 294.588 454.188Z" fill="#8288D4"/>
<path d="M284.387 446.329L290.327 439.288C291.251 438.793 292.977 438.594 294.378 438.822C295.008 438.926 295.351 439.335 295.389 439.972L295.551 441.141C295.761 443.098 296.009 443.735 294.798 444.39L287.571 448.268C286.103 449.427 281.89 448.885 284.387 446.329Z" fill="#27427A"/>
<path d="M290.575 439.991C290.575 439.991 287.181 444.181 287.629 444.476C289.469 445.683 293.826 441.416 293.826 441.416C293.826 441.416 291.366 439.772 290.575 439.991Z" fill="#E37B7B"/>
<path d="M293.816 441.416C293.063 443.108 290.432 441.986 290.136 440.2C289.335 430.193 286.552 422.306 285.798 412.955C284.95 402.455 285.703 402.284 284.426 386.177L294.283 387.849C293.444 399.405 293.902 414.02 293.902 414.02C297.41 425.28 294.55 427.637 293.816 441.416Z" fill="#E37B7B"/>
<path d="M288.83 412.661C288.83 412.661 290.022 423 292.986 425.328C295.951 427.656 292.986 413.279 292.986 413.279L288.83 412.661Z" fill="#D67474"/>
<path d="M280.822 387.859C282.204 388.096 283.482 387.393 283.663 386.291L283.31 382.034C283.491 380.931 283.262 381.692 281.871 381.454C280.488 381.216 280.488 380.143 279.668 382.167L279.23 385.293C279.173 385.702 279.173 386.11 279.249 386.519C279.411 387.26 279.735 387.678 280.822 387.859Z" fill="#FFA9A8"/>
<path d="M283.224 352.604L280.736 365.1C280.736 365.1 279.163 369.718 279.84 381.482L283.043 382.186L286.018 366.896L286.771 349.8C285.226 349.088 283.529 350.922 283.224 352.604Z" fill="white"/>
<path d="M294.836 450.444L295.465 442.737C295.846 442.157 296.914 441.796 297.972 441.91C298.449 441.958 297.925 441.682 298.258 442.319L299.574 441.179C300.661 443.155 301.233 443.431 301.252 445.217C300.47 448.363 299.326 450.596 297.915 452.135C297.477 453.466 294.378 453.275 294.836 450.444Z" fill="#27427A"/>
<path d="M295.685 443.079C295.685 443.079 296.266 447.279 296.771 447.289C299.317 447.346 299.612 443.554 299.612 443.554C299.612 443.554 296.085 442.746 295.685 443.079Z" fill="#FFA9A8"/>
<path d="M299.603 443.773C298.84 445.597 296.008 444.894 295.684 443.079C294.76 432.826 292.767 426.658 291.899 417.07C290.927 406.304 295.284 405.524 293.816 389.018L303.998 389.683C303.244 401.723 299.765 416.861 299.765 416.861C303.492 428.122 300.232 429.452 299.603 443.773Z" fill="#FFA9A8"/>
<path d="M284.597 372.673C284.597 372.673 282.452 371.847 283.472 409.877C283.472 409.877 285.884 412.081 292.539 413.801C298.802 415.426 297.715 410.608 302.778 412.357C302.778 412.357 304.808 402.54 305.228 399.139C305.647 395.737 307.745 375.838 302.129 375.192C296.524 374.546 284.597 372.673 284.597 372.673Z" fill="#AEAECF"/>
<path d="M302.777 412.366C302.777 412.366 304.808 402.559 305.227 399.158C305.647 395.756 307.744 375.857 302.129 375.211C300.852 375.059 299.24 374.85 297.515 374.612C297.906 377.919 298.687 383.355 300.241 392.23C302.301 404.061 298.411 410.599 294.588 414.048C299.746 413.877 298.287 410.817 302.777 412.366Z" fill="#9A9AB5"/>
<path d="M284.731 354.59C284.731 354.59 284.483 345.667 289.393 345.648C290.079 345.648 291.195 344.973 291.986 344.992C296.076 345.059 295.504 345.097 298.507 346.142C299.641 346.532 300.452 349.734 300.309 350.941L302.234 354.504C295.628 356.823 289.498 357.745 284.731 354.59Z" fill="#FFA9A8"/>
<path d="M288.563 345.41C288.983 345.344 289.307 345.781 289.107 346.161C288.487 347.349 287.591 349.42 286.885 351.131C286.218 352.746 287.257 354.58 288.992 354.789C297.22 355.778 297.22 345.467 297.486 345.619L299.117 346.208C307.926 348.537 305.895 350.988 303.912 355.711C303.912 355.711 301.586 363.988 301.615 367.352C301.634 370.26 304.417 374.659 304.942 375.572C305.628 376.76 301.996 384.447 290.708 383.583C281.823 382.898 282.69 379.221 282.7 374.412C282.71 371.381 284.254 363.247 284.121 360.852C283.987 358.457 282.08 356.728 283.224 352.832C283.854 350.675 284.616 348.755 285.169 347.482C285.608 346.455 286.552 345.743 287.657 345.562L288.563 345.41Z" fill="#78CEFF"/>
<path d="M293.053 347.681L292.767 347.729C291.795 347.881 290.927 347.216 290.832 346.265L290.308 340.906C290.212 339.956 290.937 339.053 291.9 338.91L292.186 338.863C293.158 338.711 294.617 339.081 294.703 340.032L295.494 345.714C295.599 346.665 294.016 347.539 293.053 347.681Z" fill="#FFA9A8"/>
<path d="M296.228 333.228C295.494 331.726 294.226 331.346 292.967 332.04C291.833 331.422 290.365 332.011 289.183 333.76C287.533 336.193 286.818 340.241 287.896 342.426C288.363 343.386 289.202 343.662 290.012 343.757C290.765 343.852 291.547 343.776 292.3 343.576C294.988 342.854 295.008 343.244 296.113 341.619C297.763 339.195 297.296 335.413 296.228 333.228Z" fill="#FFA9A8"/>
<path d="M294.493 333.988C295.284 336.573 295.055 342.36 295.141 343.13C295.141 343.13 300.432 343.291 300.089 337.304C299.67 329.854 295.217 333.342 295.217 333.342L294.493 333.988Z" fill="#2E4E94"/>
<path d="M289.04 341.685C289.04 341.685 288.391 341.324 288.63 339.965L291.109 340.716C290.556 341.581 290.022 342.065 289.04 341.685Z" fill="white"/>
<path d="M299.231 345.99C299.231 345.99 298.945 348.09 297.296 350.798C294.76 354.951 294.15 362.42 294.588 368.502C295.027 374.584 295.503 387.612 295.503 387.612L295.132 409.506C295.132 409.506 303.121 410.019 305.962 405.002C308.803 399.984 306.01 378.622 304.475 374.603C302.94 370.583 305.638 359.417 305.638 359.417C305.638 359.417 306.734 351.901 305.638 349.639C304.541 347.387 299.231 345.99 299.231 345.99Z" fill="white"/>
<path d="M288.563 345.41C288.563 345.41 284.711 351.843 284.73 355.379C284.75 358.914 285.264 387.621 285.264 387.621L284.416 407.064C284.416 407.064 281.508 407.681 281.432 404.755C281.356 401.837 282.681 372.959 282.681 372.959L283.672 358.809C283.672 358.809 281.127 355.436 283.672 350.39C285.684 346.417 285.817 346.313 285.951 346.199C286.771 345.496 288.563 345.41 288.563 345.41Z" fill="white"/>
<path d="M283.539 374.831L292.071 376.655C293.74 377.016 294.664 376.132 294.131 374.698L289.297 361.745C288.763 360.31 286.961 358.847 285.293 358.495L276.761 356.671C275.092 356.31 274.167 357.194 274.701 358.628L279.535 371.581C280.069 373.016 281.87 374.479 283.539 374.831Z" fill="#1261BD"/>
<path d="M287.867 370.07C287.934 370.877 288.639 371.514 289.421 371.495L292.138 371.429C292.92 371.41 293.501 370.735 293.425 369.927C293.358 369.119 292.653 368.483 291.871 368.502L289.154 368.568C288.382 368.597 287.8 369.262 287.867 370.07Z" fill="#FFA9A8"/>
<path d="M305.752 349.943C305.752 349.943 313.579 367.979 309.985 373.225C306.667 378.061 292.672 371.828 292.672 371.828V368.511L303.616 366.677L301.567 353.697L305.752 349.943Z" fill="white"/>
<path d="M298.354 368.502C298.354 368.502 304.741 369.756 304.98 367.742C305.218 365.727 302.196 357.621 302.196 357.621" stroke="#DEE8FF" stroke-miterlimit="10" stroke-linecap="round" stroke-linejoin="round"/>
<path d="M290.556 343.804C290.556 343.804 292.872 344.013 294.522 341.818C294.522 341.818 292.863 345.002 290.727 345.287L290.556 343.804Z" fill="#E37B7B"/>
<path d="M295.141 343.13C295.141 343.13 293.33 347.539 294.159 349.648C295.503 353.041 297.906 347.434 299.841 346.17C301.948 344.793 300.108 343.586 300.099 339.328C300.089 332.154 297.82 337.181 297.82 337.181L295.141 343.13Z" fill="#2E4E94"/>
<path d="M296.991 340.269C296.562 341.191 295.56 341.809 294.741 341.647C293.921 341.486 293.606 340.602 294.026 339.68C294.455 338.758 295.456 338.141 296.275 338.302C297.095 338.454 297.41 339.338 296.991 340.269Z" fill="#FFA9A8"/>
<path d="M296.228 335.109C293.749 333.912 290.908 331.707 286.351 338.426C286.027 338.901 286.962 335.717 286.409 336.126C286.113 335.47 287.114 333.408 288.087 332.781C290.127 331.47 291.156 330.757 293.301 330.424L293.816 330.396C296.934 330.244 298.497 331.527 298.983 334.539C299.021 334.805 299.479 336.031 299.489 336.25L298.516 335.86C298.545 337.637 298.02 334.976 296.228 335.109Z" fill="#2E4E94"/>
<path d="M316.696 314.897L237.454 294.751L246.167 282.654L325.41 302.8L316.696 314.897Z" fill="#6DC433"/>
<path d="M246.234 296.984L237.454 294.751L246.167 282.654L254.948 284.887L246.234 296.984Z" fill="white"/>
<path d="M263.852 301.46L255.072 299.227L263.785 287.13L272.566 289.363L263.852 301.46Z" fill="white"/>
<path d="M281.46 305.936L272.68 303.703L281.403 291.606L290.184 293.839L281.46 305.936Z" fill="white"/>
<path d="M299.078 310.421L290.298 308.188L299.021 296.091L307.802 298.315L299.078 310.421Z" fill="white"/>
<path d="M316.696 314.897L307.916 312.664L316.639 300.567L325.41 302.8L316.696 314.897Z" fill="white"/>
<path d="M316.677 324.39C313.56 327.716 307.916 325.93 307.764 322.119L307.926 312.664L316.687 314.916L316.677 324.39Z" fill="#F0F5FF"/>
<path d="M298.859 320.095C295.742 323.421 290.098 321.634 289.945 317.824L290.107 308.369L298.869 310.621L298.859 320.095Z" fill="#F0F5FF"/>
<path d="M281.336 315.61C278.219 318.936 272.575 317.149 272.422 313.339L272.585 303.883L281.346 306.135L281.336 315.61Z" fill="#F0F5FF"/>
<path d="M263.661 311.134C260.544 314.46 254.9 312.673 254.747 308.863L254.91 299.408L263.671 301.66L263.661 311.134Z" fill="#F0F5FF"/>
<path d="M246.634 306.449C243.517 309.775 237.873 307.988 237.721 304.178L237.883 294.723L246.644 296.975L246.634 306.449Z" fill="#F0F5FF"/>
<path d="M307.754 322.119C305.094 325.141 299.498 324.799 298.888 319.867L299.078 310.421L307.916 312.664L307.754 322.119Z" fill="#6DC433"/>
<path d="M290.079 317.643C287.419 320.665 281.823 320.323 281.212 315.391L281.403 305.945L290.241 308.188L290.079 317.643Z" fill="#6DC433"/>
<path d="M272.404 313.167C269.744 316.189 264.148 315.847 263.538 310.915L263.728 301.47L272.566 303.712L272.404 313.167Z" fill="#6DC433"/>
<path d="M255.062 308.682C252.402 311.704 246.806 311.362 246.196 306.43L246.387 296.984L255.224 299.227L255.062 308.682Z" fill="#6DC433"/>
<path d="M237.511 294.628L316.468 314.716" stroke="#6DC433" stroke-miterlimit="10" stroke-linecap="round" stroke-linejoin="round"/>
<path d="M187.498 446.966L187.031 441.52C187.031 441.52 187.174 436.627 191.845 434.973" stroke="#1261BD" stroke-width="3" stroke-miterlimit="10" stroke-linecap="round" stroke-linejoin="round"/>
<path d="M202.981 437.605L202.514 432.16C202.514 432.16 202.657 427.266 207.328 425.613" stroke="#1261BD" stroke-width="3" stroke-miterlimit="10" stroke-linecap="round" stroke-linejoin="round"/>
<path d="M218.444 427.438L218.177 421.983C218.177 421.983 218.501 417.099 223.23 415.616" stroke="#1261BD" stroke-width="3" stroke-miterlimit="10" stroke-linecap="round" stroke-linejoin="round"/>
<ellipse rx="0.36228" ry="0.724578" transform="matrix(0.98915 0.146907 -0.1469 0.989151 290.045 337.242)" fill="#2E4E94"/>
<ellipse rx="0.362304" ry="0.724581" transform="matrix(0.989152 0.146898 -0.146909 0.98915 291.959 338.012)" fill="#2E4E94"/>
</g>
<path d="M260.597 331.411H253.091V324.155H244.782V331.411H237.41V339.591H244.782V346.979H253.091V339.591H260.597V331.411Z" fill="#6DC433"/>
<path d="M267.842 347.766H263.972V344.081H259.688V347.766H255.887V351.921H259.688V355.674H263.972V351.921H267.842V347.766Z" fill="#6DC433"/>
<defs>
<linearGradient id="paint0_linear" x1="9.01848" y1="407.706" x2="470.179" y2="425.225" gradientUnits="userSpaceOnUse">
<stop stop-color="#6DC433"/>
</linearGradient>
<linearGradient id="paint1_linear" x1="-30.9641" y1="170.648" x2="384.724" y2="174.886" gradientUnits="userSpaceOnUse">
<stop stop-color="#1261BD"/>
<stop offset="1" stop-color="#78CEFF"/>
</linearGradient>
<clipPath id="clip0">
<rect width="120.642" height="123.54" fill="white" transform="translate(260.597 268)"/>
</clipPath>
<clipPath id="clip1">
<rect width="77.8921" height="94.9197" fill="white" transform="translate(176.183 322.706)"/>
</clipPath>
<clipPath id="clip2">
<rect width="228.966" height="203.244" fill="white" transform="translate(131.26 274.159)"/>
</clipPath>
</defs>
</svg>
