<svg width="42" height="38" viewBox="0 0 42 38" fill="none" xmlns="http://www.w3.org/2000/svg">
<path d="M36.0913 13.981H16.8003C16.4646 13.981 16.1924 14.2531 16.1924 14.5889C16.1924 14.9246 16.4646 15.1968 16.8003 15.1968H36.0913C36.427 15.1968 36.6992 14.9246 36.6992 14.5889C36.6992 14.2531 36.427 13.981 36.0913 13.981Z" fill="white"/>
<path d="M36.0913 18.6282H16.8003C16.4646 18.6282 16.1924 18.9004 16.1924 19.2361C16.1924 19.5718 16.4646 19.844 16.8003 19.844H36.0913C36.427 19.844 36.6992 19.5718 36.6992 19.2361C36.6992 18.9004 36.427 18.6282 36.0913 18.6282Z" fill="white"/>
<path d="M36.0913 23.2751H16.8003C16.4646 23.2751 16.1924 23.5473 16.1924 23.8831C16.1924 24.2188 16.4646 24.491 16.8003 24.491H36.0913C36.427 24.491 36.6992 24.2188 36.6992 23.8831C36.6992 23.5473 36.427 23.2751 36.0913 23.2751Z" fill="white"/>
<path d="M38.0222 8.66455H14.8693C12.9197 8.66455 11.3335 10.2506 11.3335 12.2003V26.7591C11.3335 28.7087 12.9196 30.2949 14.8693 30.2949H31.0973C31.2708 30.2949 31.4321 30.3729 31.5397 30.5092L36.7803 37.1438C36.9868 37.4052 37.2882 37.5477 37.6037 37.5477C37.721 37.5477 37.8403 37.528 37.9574 37.4874C38.3891 37.3374 38.6681 36.9452 38.6681 36.4881V30.2345C40.3075 29.9283 41.558 28.4789 41.558 26.7591V12.2002C41.558 10.2506 39.9719 8.66455 38.0222 8.66455ZM40.3422 26.7591C40.3422 28.0217 39.3149 29.062 38.0524 29.0781C37.7197 29.0824 37.4522 29.3533 37.4522 29.686V36.033L32.4938 29.7555C32.1543 29.3256 31.6452 29.079 31.0973 29.079H14.8693C13.5901 29.079 12.5493 28.0382 12.5493 26.759V12.2002C12.5493 10.921 13.59 9.88029 14.8693 9.88029H38.0222C39.3014 9.88029 40.3422 10.921 40.3422 12.2002V26.7591Z" fill="white"/>
<path d="M9.01416 18.7162C8.59835 18.7753 8.22599 18.9893 7.96564 19.3189L3.78962 24.6058V19.3071C3.78962 18.9744 3.52214 18.7035 3.18949 18.6992C2.13327 18.6858 1.27393 17.8155 1.27393 16.7592V4.08539C1.27393 3.01522 2.14462 2.14453 3.21478 2.14453H23.3701C24.4402 2.14453 25.3109 3.01522 25.3109 4.08539V6.43046C25.3109 6.76619 25.5831 7.03837 25.9188 7.03837C26.2546 7.03837 26.5268 6.76619 26.5268 6.43046V4.08539C26.5268 2.34482 25.1107 0.928711 23.3701 0.928711H3.21478C1.47421 0.928711 0.0581055 2.34482 0.0581055 4.08539V16.7592C0.0581055 18.2722 1.14189 19.5505 2.57388 19.8493V25.2286C2.57388 25.6604 2.83747 26.0311 3.2455 26.1728C3.35614 26.2112 3.46881 26.2298 3.57969 26.2298C3.87773 26.2298 4.16263 26.0951 4.35773 25.8482L8.91982 20.0725C8.98563 19.9891 9.0799 19.935 9.18511 19.92C9.51751 19.8728 9.74876 19.565 9.70151 19.2326C9.65433 18.9002 9.34705 18.6688 9.01416 18.7162Z" fill="white"/>
</svg>
