<svg xmlns="http://www.w3.org/2000/svg" xmlns:xlink="http://www.w3.org/1999/xlink">
    <symbol id="account" viewBox="0 0 25 25" xmlns="http://www.w3.org/2000/svg">
        <path d="M25 12.5C25 5.59139 19.4094 0 12.5 0C5.59139 0 0 5.59063 0 12.5C0 19.3474 5.5439 25 12.5 25C19.4275 25 25 19.3789 25 12.5ZM12.5 1.46484C18.5848 1.46484 23.5352 6.41518 23.5352 12.5C23.5352 14.7259 22.8731 16.8653 21.6454 18.6775C16.7152 13.3743 8.29372 13.3648 3.35464 18.6775C2.12688 16.8653 1.46484 14.7259 1.46484 12.5C1.46484 6.41518 6.41518 1.46484 12.5 1.46484ZM4.26826 19.8486C8.65173 14.9319 16.3494 14.933 20.7315 19.8486C16.3334 24.7692 8.66833 24.7707 4.26826 19.8486Z" fill="inherit"/>
        <path d="M12.5 13.2324C14.9231 13.2324 16.8945 11.261 16.8945 8.83789V7.37305C16.8945 4.94995 14.9231 2.97852 12.5 2.97852C10.0769 2.97852 8.10547 4.94995 8.10547 7.37305V8.83789C8.10547 11.261 10.0769 13.2324 12.5 13.2324ZM9.57031 7.37305C9.57031 5.75752 10.8845 4.44336 12.5 4.44336C14.1155 4.44336 15.4297 5.75752 15.4297 7.37305V8.83789C15.4297 10.4534 14.1155 11.7676 12.5 11.7676C10.8845 11.7676 9.57031 10.4534 9.57031 8.83789V7.37305Z" fill="inherit"/>
    </symbol>
    <symbol id="cart" viewBox="0 0 25 25"  xmlns="http://www.w3.org/2000/svg">
        <path d="M7.97469 19.1108C6.53323 19.1108 5.36475 20.2794 5.36475 21.7208C5.36475 23.1623 6.53328 24.3307 7.97469 24.3307C9.41616 24.3307 10.5846 23.1622 10.5846 21.7208C10.5847 20.2794 9.41616 19.1108 7.97469 19.1108ZM7.97469 23.1708C7.17389 23.1708 6.52474 22.5216 6.52474 21.7208C6.52474 20.92 7.17389 20.2709 7.97469 20.2709C8.7755 20.2709 9.42465 20.92 9.42465 21.7208C9.42471 22.5216 8.7755 23.1708 7.97469 23.1708Z" fill="inherit"/>
        <path d="M18.9947 19.1108C17.5532 19.1108 16.3848 20.2794 16.3848 21.7208C16.3848 23.1623 17.5533 24.3307 18.9947 24.3307C20.4361 24.3307 21.6047 23.1622 21.6047 21.7208C21.6047 20.2794 20.4362 19.1108 18.9947 19.1108ZM18.9947 23.1708C18.1939 23.1708 17.5448 22.5216 17.5448 21.7208C17.5448 20.92 18.1939 20.2709 18.9947 20.2709C19.7955 20.2709 20.4447 20.92 20.4447 21.7208C20.4447 22.5216 19.7955 23.1708 18.9947 23.1708Z" fill="inherit"/>
        <path d="M24.8817 3.886C24.7609 3.75406 24.5957 3.67147 24.4177 3.65398L5.53895 3.39299L5.01696 1.79799C4.64923 0.731751 3.65077 0.011934 2.52297 0H0.579995C0.259663 0 0 0.259663 0 0.579995C0 0.900327 0.259663 1.15999 0.579995 1.15999H2.52297C3.15359 1.17392 3.70888 1.57885 3.91498 2.17499L7.59794 13.2819L7.30797 13.9488C6.98453 14.7829 7.08167 15.7216 7.56896 16.4718C8.0516 17.2086 8.86356 17.6633 9.74396 17.6898H21.0249C21.3452 17.6898 21.6049 17.4301 21.6049 17.1098C21.6049 16.7895 21.3452 16.5298 21.0249 16.5298H9.7439C9.24673 16.5174 8.78907 16.2558 8.52591 15.8338C8.26569 15.417 8.21224 14.9034 8.38092 14.4418L8.61294 13.9198L20.8218 12.6438C22.1629 12.4961 23.266 11.5207 23.5768 10.2078L24.9688 4.37891C25.0315 4.21105 24.9982 4.02227 24.8817 3.886ZM22.4458 9.94689C22.2575 10.792 21.54 11.4154 20.6768 11.4839L8.61294 12.7309L5.91596 4.55298L23.6928 4.81397L22.4458 9.94689Z" fill="inherit"/> 
    </symbol>
    <symbol id="menu-icon1" viewBox="0 0 48 60" xmlns="http://www.w3.org/2000/svg">
        <path d="M1.37466 45.4686C0.889271 45.4686 0.495754 45.0751 0.495754 44.5897V23.496C0.495754 22.4469 0.904621 21.3738 1.64701 20.4744L8.16533 12.5767C8.50681 12.1629 8.89939 11.8141 9.32572 11.5364C9.29958 11.2678 9.2847 10.9965 9.2847 10.7227V0.878906C9.2847 0.393516 9.67822 0 10.1636 0C10.649 0 11.0425 0.393516 11.0425 0.878906C11.0425 0.878906 11.0443 10.8064 11.045 10.8484C11.2951 10.8041 11.5489 10.7813 11.8042 10.7813H23.1714C23.9717 10.7813 24.7561 11.0058 25.4585 11.4184C25.4888 11.4293 25.5189 11.4415 25.5485 11.4559L34.1161 15.6292C35.0654 16.1053 35.8244 16.9039 36.2536 17.8779C36.2583 17.8886 36.2628 17.8992 36.267 17.91L39.8094 26.895C39.9874 27.3466 39.7656 27.857 39.314 28.0351C39.2082 28.0768 39.0992 28.0965 38.9919 28.0965C38.6415 28.0965 38.3103 27.8855 38.174 27.5398L34.6386 18.5721C34.3727 17.9781 33.9078 17.4914 33.3372 17.205L28.8105 15.0001L33.3288 20.4745C34.0053 21.2941 34.3628 22.3391 34.3628 23.4962V53.8478C34.3628 54.2012 34.3318 54.5473 34.2754 54.8845L43.3319 50.8716C45.3778 49.9651 46.3049 47.5573 45.3984 45.5041C45.3945 45.4952 45.3908 45.4862 45.387 45.4773L39.6585 31.2409C39.4774 30.7906 39.6954 30.2787 40.1458 30.0974C40.5964 29.9162 41.108 30.1344 41.2893 30.5847L47.0128 44.8078C48.2997 47.7434 46.9703 51.1819 44.044 52.4784L33.424 57.1842C33.411 57.19 33.3978 57.1942 33.3847 57.1992C32.3068 58.8834 30.4433 59.9999 28.3277 59.9999H6.64798C3.31306 59.9999 0.495636 57.1825 0.495636 53.8475V48.6913C0.495636 48.2059 0.889153 47.8124 1.37454 47.8124C1.85993 47.8124 2.25345 48.2059 2.25345 48.6913V53.8475C2.25345 56.2296 4.26591 58.2421 6.64798 58.2421H28.3277C30.6862 58.2421 32.605 56.2707 32.605 53.8475V23.496C32.605 22.7415 32.3924 22.1013 31.973 21.5933L25.4547 13.6956C24.848 12.9606 24.0158 12.5389 23.1714 12.5389H11.8042C11.6386 12.5389 11.4736 12.5557 11.3106 12.5873C11.8608 14.4636 13.2237 16.0293 15.0642 16.8138C15.5454 16.0089 16.4253 15.4686 17.4293 15.4686C18.9479 15.4686 20.1833 16.704 20.1833 18.2225C20.1833 19.7411 18.9479 20.9764 17.4293 20.9764C16.0251 20.9764 14.8638 19.9196 14.6968 18.5597C12.3297 17.6644 10.5398 15.7673 9.74232 13.4518C9.66579 13.5288 9.59173 13.6098 9.52095 13.6956L3.00263 21.5934C2.51958 22.1787 2.25345 22.8544 2.25345 23.4961V44.5898C2.25357 45.0751 1.86005 45.4686 1.37466 45.4686ZM17.4293 19.2186C17.9786 19.2186 18.4254 18.7718 18.4254 18.2225C18.4254 17.6733 17.9786 17.2264 17.4293 17.2264C16.8801 17.2264 16.4333 17.6733 16.4333 18.2225C16.4333 18.7718 16.8801 19.2186 17.4293 19.2186Z" fill="inherit"/>
        <path d="M25.0467 46.7578C24.8218 46.7578 24.5968 46.672 24.4253 46.5003L9.42527 31.5003C9.08203 31.1571 9.08203 30.6006 9.42527 30.2574C9.76852 29.9142 10.325 29.9142 10.6682 30.2574L25.6682 45.2574C26.2286 45.7797 25.7986 46.7844 25.0467 46.7578Z" fill="inherit"/>
        <path d="M23.1714 37.5C21.0714 37.5 19.3628 35.7914 19.3628 33.6914C19.3628 31.5914 21.0714 29.8828 23.1714 29.8828H23.2886C25.3886 29.8828 27.0972 31.5914 27.0972 33.6914C27.0972 35.7914 25.3886 37.5 23.2886 37.5H23.1714ZM25.3394 33.6914C25.3394 32.5607 24.4193 31.6406 23.2886 31.6406H23.1714C22.0406 31.6406 21.1206 32.5607 21.1206 33.6914C21.1206 34.8221 22.0406 35.7422 23.1714 35.7422H23.2886C24.4193 35.7422 25.3394 34.8221 25.3394 33.6914Z" fill="inherit"/>
        <path d="M11.8042 46.7578H11.687C9.58701 46.7578 7.87842 45.0492 7.87842 42.9492C7.87842 40.8492 9.58701 39.1406 11.687 39.1406H11.8042C13.9042 39.1406 15.6128 40.8492 15.6128 42.9492C15.6128 45.0492 13.9042 46.7578 11.8042 46.7578ZM11.8042 40.8984H11.687C10.5563 40.8984 9.63623 41.8185 9.63623 42.9492C9.63623 44.08 10.5563 45 11.687 45H11.8042C12.9349 45 13.855 44.08 13.855 42.9492C13.855 41.8185 12.9349 40.8984 11.8042 40.8984Z" fill="inherit"/>
    </symbol>
    <symbol id="menu-icon2" viewBox="0 0 38 50"  xmlns="http://www.w3.org/2000/svg">
        <path d="M15.2406 37.3218C15.0902 37.1108 14.8476 36.9858 14.5886 36.9858C14.3296 36.9858 14.087 37.1108 13.9366 37.3218C13.3702 38.1178 11.521 40.8172 11.521 42.1156C11.521 43.6984 12.8972 44.986 14.5886 44.986C16.28 44.986 17.6558 43.6984 17.6558 42.1156C17.6558 40.8172 15.807 38.118 15.2406 37.3218ZM14.5886 43.3858C13.7792 43.3858 13.121 42.8162 13.121 42.1154C13.121 41.6982 13.8002 40.4334 14.5886 39.2122C15.3768 40.4326 16.0558 41.6974 16.0558 42.1154C16.0558 42.8164 15.3976 43.3858 14.5886 43.3858Z" fill="inherit"/>
        <path d="M36.9758 17.7855C37.4176 17.7855 37.7758 17.4274 37.7758 16.9855C37.7758 16.5437 37.4176 16.1855 36.9758 16.1855C36.534 16.1855 36.1758 16.5437 36.1758 16.9855C36.1758 17.4274 36.534 17.7855 36.9758 17.7855Z" fill="inherit"/>
        <path d="M27.2679 24.0732C26.8457 24.2036 26.6085 24.6514 26.7387 25.0732C27.8305 28.6224 27.8551 31.242 26.8091 32.6498C26.0067 33.7294 24.6495 33.9728 23.6149 33.981C23.1137 32.8362 22.3263 31.5428 21.7005 30.5858H23.7971C24.1103 30.5858 24.3947 30.403 24.5249 30.1186C24.6549 29.8334 24.6069 29.499 24.4019 29.2624C21.2477 25.6186 19.2077 24.2928 17.7879 24.9592C16.2257 25.6912 16.5833 28.378 16.6707 28.9084C16.7421 29.3444 17.1473 29.6444 17.5903 29.5678C18.0263 29.496 18.3215 29.085 18.2497 28.649C18.0907 27.6834 18.2025 26.5318 18.4673 26.4076C18.4763 26.403 19.2497 26.0952 21.9959 28.9858H20.9763C20.8337 28.9858 20.7069 29.0332 20.5911 29.0984C20.4703 29.0278 20.3333 28.9858 20.1893 28.9858C19.9303 28.9858 19.6877 29.1108 19.5373 29.3218C19.3073 29.645 18.6897 30.5302 18.0529 31.5736C15.8483 29.6302 10.9203 29.189 9.90586 29.189C8.67066 29.189 6.95986 26.864 6.95986 22.4976C6.95986 21.9664 8.38486 20.5186 9.42546 19.4624C10.2463 18.6288 11.1767 17.6834 11.9931 16.6952C17.3803 10.1748 25.3939 1.58984 25.4739 1.50384C25.7759 1.18124 25.7587 0.674837 25.4357 0.373437C25.1131 0.0718369 24.6065 0.0882369 24.3053 0.411637C24.2245 0.497637 16.1779 9.11784 10.7595 15.6764C9.98766 16.6108 9.12186 17.4896 8.28526 18.3396C6.58686 20.0638 5.35986 21.3106 5.35986 22.4974C5.35986 27.8826 7.70206 30.7888 9.90586 30.7888C11.6363 30.7888 16.0255 31.5456 17.2319 33.0124C16.6907 34.0414 16.2711 35.0568 16.2711 35.7388C16.2711 37.7498 18.0285 39.3856 20.1891 39.3856C22.3493 39.3856 24.1067 37.7496 24.1067 35.7388C24.1067 35.6832 24.0963 35.6194 24.0909 35.5594C25.8393 35.4472 27.2181 34.7816 28.0937 33.6036C29.4753 31.745 29.5339 28.7168 28.2679 24.6028C28.1379 24.1802 27.6867 23.942 27.2679 24.0732ZM20.1887 37.7856C18.9105 37.7856 17.8707 36.8676 17.8707 35.7388C17.8707 34.9834 19.0743 32.8826 20.1887 31.2006C21.3031 32.8826 22.5063 34.9826 22.5063 35.7388C22.5063 36.8678 21.4665 37.7856 20.1887 37.7856Z" fill="inherit"/>
        <path d="M5.77559 7.38554C6.21738 7.38554 6.57558 7.02774 6.57558 6.58554V4.98555C6.57558 4.54335 6.21738 4.18555 5.77559 4.18555C5.33379 4.18555 4.97559 4.54335 4.97559 4.98555V6.58554C4.97559 7.02774 5.33379 7.38554 5.77559 7.38554Z" fill="inherit"/>
        <path d="M6.57558 11.3854V9.78535C6.57558 9.34315 6.21738 8.98535 5.77559 8.98535C5.33379 8.98535 4.97559 9.34315 4.97559 9.78535V11.3854C4.97559 11.8276 5.33379 12.1854 5.77559 12.1854C6.21738 12.1854 6.57558 11.8276 6.57558 11.3854Z" fill="inherit"/>
        <path d="M2.57539 8.98574H4.17539C4.61719 8.98574 4.97539 8.62794 4.97539 8.18574C4.97539 7.74354 4.61719 7.38574 4.17539 7.38574H2.57539C2.13359 7.38574 1.77539 7.74354 1.77539 8.18574C1.77539 8.62794 2.13359 8.98574 2.57539 8.98574Z" fill="inherit"/>
        <path d="M7.37568 8.98574H8.97568C9.41748 8.98574 9.77568 8.62794 9.77568 8.18574C9.77568 7.74354 9.41748 7.38574 8.97568 7.38574H7.37568C6.93388 7.38574 6.57568 7.74354 6.57568 8.18574C6.57568 8.62794 6.93388 8.98574 7.37568 8.98574Z" fill="inherit"/>
        <path d="M1.97714 16.6928C1.34633 16.8842 0.827934 17.3092 0.516934 17.8904C0.205933 18.4716 0.140334 19.1396 0.331334 19.77C0.522334 20.4012 0.947734 20.92 1.52893 21.231C1.89214 21.4248 2.28873 21.5232 2.68954 21.5232C2.93014 21.5232 3.17194 21.488 3.40874 21.4162C4.03954 21.2248 4.55794 20.7998 4.86894 20.2186C5.17994 19.6374 5.24554 18.9694 5.05454 18.339C4.65994 17.0364 3.28034 16.3006 1.97714 16.6928ZM2.94474 19.885C2.72374 19.9514 2.48893 19.9296 2.28373 19.8202C2.07953 19.7108 1.92974 19.528 1.86274 19.3062C1.79574 19.0844 1.81853 18.85 1.92793 18.6452C2.03733 18.4404 2.21974 18.2912 2.44114 18.2242C2.52474 18.1992 2.60913 18.1866 2.69234 18.1866C3.06454 18.1866 3.40954 18.4288 3.52314 18.803C3.66194 19.2606 3.40254 19.7458 2.94474 19.885Z" fill="inherit"/>
        <path d="M20.1887 41.7856C19.9297 41.7856 19.6871 41.9106 19.5367 42.1216C18.9703 42.9176 17.1211 45.617 17.1211 46.9154C17.1211 48.4983 18.4973 49.7859 20.1887 49.7859C21.8801 49.7859 23.2559 48.4983 23.2559 46.9154C23.2559 45.617 21.4071 42.9178 20.8407 42.1216C20.6903 41.9106 20.4477 41.7856 20.1887 41.7856ZM20.1887 48.1857C19.3793 48.1857 18.7211 47.616 18.7211 46.9152C18.7211 46.498 19.4003 45.2332 20.1887 44.012C20.9769 45.2324 21.6559 46.4972 21.6559 46.9152C21.6559 47.6162 20.9977 48.1857 20.1887 48.1857Z" fill="inherit"/>
    </symbol>
    <symbol id="menu-icon3" viewBox="0 0 49 56"  xmlns="http://www.w3.org/2000/svg">
        <path d="M42.6295 28.0728V26.404C42.6295 24.5231 42.3388 22.6753 41.7667 20.9022L48.1982 15.7228C48.8809 15.173 49.1337 14.2835 48.8423 13.4568C48.5509 12.63 47.796 12.0959 46.9194 12.0959H44.1502L48.4142 4.57781C48.843 3.82185 48.8378 2.92203 48.4004 2.17097C47.9628 1.42012 47.1828 0.97168 46.3136 0.97168H38.4343C37.517 0.97168 36.6647 1.50462 36.2631 2.32952L32.4205 10.2233C31.0507 9.56912 29.6051 9.0927 28.1116 8.80575C26.9991 8.59144 25.854 8.48276 24.7082 8.48276C20.4323 8.48276 16.292 10.0136 13.0501 12.7935C12.7076 13.087 12.6681 13.6027 12.9617 13.9451C13.1232 14.1334 13.3519 14.2301 13.5821 14.2301C13.7703 14.2301 13.9593 14.1655 14.1133 14.0334C17.0593 11.5073 20.8219 10.1161 24.7081 10.1161C25.7505 10.1161 26.7917 10.2149 27.8029 10.4097C29.1555 10.6696 30.464 11.1019 31.7047 11.6933L30.3401 14.4965C30.0353 15.1226 30.0737 15.8488 30.4429 16.4391C30.8121 17.0296 31.4482 17.3821 32.1446 17.3821H34.76L32.3733 23.716C32.0531 24.5657 32.3321 25.4944 33.0676 26.0269C33.4209 26.2827 33.8281 26.4099 34.2344 26.4099C34.6739 26.4099 35.1123 26.2609 35.4798 25.965L40.3939 22.0076C40.7931 23.4327 40.9957 24.9067 40.9957 26.4041V28.1056C35.4004 28.0321 27.6914 27.2451 21.2065 24.0903C17.1521 22.1178 15.4804 20.1243 15.4658 20.1066C15.2477 19.8384 14.8843 19.7364 14.5587 19.8521C14.2329 19.9677 14.0153 20.276 14.0153 20.6217C14.0153 22.049 13.3101 23.6242 12.0295 25.0569C11.0353 26.1694 9.76022 27.1065 8.42122 27.7276V26.404C8.42122 22.8013 9.57335 19.3873 11.7532 16.5313C12.0268 16.1727 11.958 15.6601 11.5994 15.3865C11.2409 15.1129 10.7283 15.1818 10.4547 15.5403C8.05576 18.6836 6.78776 22.4402 6.78776 26.4041V28.0777C6.65088 28.0731 6.53065 28.0698 6.45976 28.0698C2.91886 28.0698 0.0380859 30.95 0.0380859 34.4904C0.0380859 38.0313 2.91886 40.9121 6.45976 40.9121C6.64456 40.9121 6.82903 40.9023 7.01285 40.8865C8.37581 49.4253 15.7912 55.9717 24.7079 55.9717C25.8538 55.9717 26.999 55.8629 28.111 55.6487C32.8625 54.7353 37.1055 51.872 39.7523 47.7933C39.9979 47.4149 39.8902 46.9091 39.5117 46.6636C39.1334 46.418 38.6276 46.5258 38.382 46.9041C35.976 50.6121 32.12 53.2146 27.8022 54.0447C26.7914 54.2396 25.7504 54.3383 24.7079 54.3383C15.7275 54.3383 8.42133 47.0322 8.42133 38.0518V29.5024C10.2243 28.8057 11.9209 27.6302 13.2476 26.1456C14.3232 24.9419 15.0632 23.6278 15.4148 22.3242C16.3919 23.1593 17.996 24.3312 20.3681 25.4985C24.1889 27.3786 30.8407 29.6122 40.9958 29.739V38.0518C40.9958 40.1964 40.5857 42.2802 39.7768 44.2455C39.6051 44.6627 39.804 45.1399 40.2212 45.3116C40.3229 45.3534 40.4282 45.3732 40.5318 45.3732C40.8529 45.3732 41.1576 45.1826 41.2873 44.8672C41.8133 43.5892 42.1848 42.2655 42.402 40.9102C42.437 40.9107 42.472 40.9122 42.5071 40.9122C46.0474 40.9122 48.9277 38.0314 48.9277 34.4905C48.9279 30.991 46.1134 28.1385 42.6295 28.0728ZM34.4555 24.6927C34.2721 24.8403 34.1074 24.7629 34.0256 24.7038C33.9438 24.6445 33.8189 24.5122 33.9019 24.292L36.7048 16.8535C36.7993 16.6026 36.7647 16.3213 36.6122 16.1008C36.4597 15.8804 36.2087 15.7487 35.9406 15.7487H32.1446C31.9645 15.7487 31.8688 15.6387 31.8278 15.5732C31.7869 15.5076 31.7299 15.3736 31.8088 15.2116L37.7318 3.04454C37.8617 2.77763 38.1376 2.60514 38.4344 2.60514H46.3137C46.7191 2.60514 46.9209 2.87651 46.9888 2.99325C47.0568 3.10999 47.1934 3.41947 46.9933 3.77197L42.0376 12.5097C41.8942 12.7625 41.896 13.0725 42.0423 13.3237C42.1887 13.5749 42.4574 13.7293 42.7481 13.7293H46.9194C47.1783 13.7293 47.2731 13.9186 47.3017 13.9999C47.3305 14.0813 47.3753 14.2881 47.1736 14.4506L34.4555 24.6927ZM6.46009 39.2786C3.81987 39.2786 1.67187 37.1306 1.67187 34.4904C1.67187 31.8507 3.81987 29.7033 6.46009 29.7033C6.519 29.7033 6.64075 29.7068 6.78809 29.7122V32.4511C5.67189 32.427 4.27365 32.8114 3.61199 34.3331C3.43209 34.7467 3.62168 35.2279 4.03538 35.4077C4.14145 35.4539 4.25187 35.4757 4.36055 35.4757C4.67591 35.4757 4.97625 35.292 5.10998 34.9843C5.46019 34.1787 6.2362 34.0556 6.78809 34.0817V38.0516C6.78809 38.4587 6.80301 38.8624 6.8299 39.2628C6.70696 39.2723 6.58369 39.2786 6.46009 39.2786ZM42.5877 39.2765C42.6149 38.8704 42.6295 38.4621 42.6295 38.0516V34.0817C43.1813 34.0557 43.9564 34.1793 44.3065 34.9843C44.4402 35.292 44.7406 35.4757 45.0559 35.4757C45.1646 35.4757 45.2751 35.4538 45.3811 35.4077C45.7948 35.2279 45.9844 34.7467 45.8045 34.3331C45.1431 32.8119 43.7456 32.4273 42.6295 32.4511V29.7063C45.2127 29.7715 47.2944 31.8917 47.2944 34.4904C47.2944 37.1036 45.1902 39.2333 42.5877 39.2765Z" fill="inherit"/>
        <path d="M20.5774 45.3995C22.8552 43.1217 26.5612 43.1218 28.8389 45.3995C28.9983 45.5589 29.2074 45.6387 29.4164 45.6387C29.6254 45.6387 29.8344 45.559 29.9939 45.3995C30.3128 45.0805 30.3128 44.5634 29.9939 44.2445C27.0792 41.3299 22.337 41.33 19.4223 44.2445C19.1034 44.5635 19.1034 45.0806 19.4223 45.3995C19.7413 45.7185 20.2584 45.7185 20.5774 45.3995Z" fill="inherit"/>
        <path d="M15.07 37.9168C15.178 38.268 15.5012 38.4935 15.8504 38.4935C15.9299 38.4935 16.0109 38.4819 16.0908 38.4573L20.4077 37.129C20.6815 37.0447 20.8911 36.8232 20.9602 36.5452C21.0292 36.2671 20.9475 35.9733 20.745 35.7708L17.8394 32.8652C17.5204 32.5462 17.0033 32.5462 16.6844 32.8652C16.3655 33.1842 16.3655 33.7013 16.6844 34.0202L18.6308 35.9666L15.6105 36.8959C15.1793 37.0287 14.9374 37.4857 15.07 37.9168Z" fill="inherit"/>
        <path d="M33.4502 38.494C33.7993 38.494 34.1225 38.2684 34.2305 37.9173C34.3632 37.4861 34.1212 37.0291 33.6901 36.8965L30.6698 35.9671L32.6163 34.0207C32.9352 33.7017 32.9352 33.1846 32.6163 32.8657C32.2973 32.5467 31.7801 32.5468 31.4613 32.8657L28.5557 35.7713C28.3531 35.9739 28.2715 36.2677 28.3405 36.5457C28.4095 36.8237 28.6192 37.0452 28.8929 37.1295L33.2099 38.4578C33.2898 38.4823 33.3707 38.494 33.4502 38.494Z" fill="inherit"/>
        <path d="M5.04423 10.9152L1.88578 11.6441C1.62442 11.7044 1.40935 11.8892 1.31036 12.1384C1.21137 12.3877 1.2411 12.6698 1.38986 12.8929L4.71057 17.874C4.86793 18.11 5.12689 18.2378 5.39085 18.2378C5.54658 18.2378 5.70394 18.1934 5.84311 18.1005C6.21847 17.8503 6.31986 17.3432 6.06961 16.9679L3.40435 12.9701L6.56989 12.2396C6.832 12.1791 7.04762 11.9934 7.14617 11.743C7.24472 11.4927 7.21369 11.2099 7.06319 10.9869L2.46838 4.17936C2.21606 3.80541 1.70827 3.70675 1.33454 3.95928C0.960584 4.21159 0.862141 4.71927 1.11446 5.09312L5.04423 10.9152Z" fill="inherit"/>
        <path d="M11.2362 11.0342C11.3691 11.3433 11.6703 11.5285 11.9868 11.5285C12.0945 11.5285 12.2039 11.507 12.3091 11.4618C12.7235 11.2836 12.9149 10.8032 12.7367 10.3888L11.4196 7.32689L13.5769 7.22964C13.8457 7.21755 14.0913 7.07381 14.2335 6.84545C14.3757 6.61699 14.3963 6.3332 14.2886 6.08676L12.6026 2.22831C12.422 1.81494 11.9402 1.62611 11.5273 1.80688C11.1139 1.98754 10.9253 2.46898 11.1058 2.88224L12.3158 5.65128L10.1657 5.7482C9.89771 5.76029 9.6528 5.90305 9.51037 6.13043C9.36793 6.3577 9.34626 6.64051 9.45222 6.88683L11.2362 11.0342Z" fill="inherit"/>
    </symbol>
    <symbol id="menu-icon4" viewBox="0 0 58 58"  xmlns="http://www.w3.org/2000/svg">
        <path d="M52.0924 53.347V33.7523L52.4783 31.8227C53.4553 26.9311 53.9537 21.956 53.9666 16.9678L56.8738 9.70007C57.1702 8.95081 57.2015 8.1227 56.9625 7.3532C56.7235 6.58368 56.2285 5.91905 55.5597 5.4696L55.4931 5.42519C53.3772 4.00928 50.8886 3.25342 48.3427 3.25342C45.7968 3.25342 43.3082 4.00928 41.1923 5.42519L41.1257 5.4696C40.4569 5.91902 39.9619 6.58365 39.7229 7.35318C39.4839 8.1227 39.5152 8.95082 39.8117 9.70007L42.7188 16.9679C42.7316 21.9561 43.2301 26.9312 44.2071 31.8227L44.593 33.7525V53.347C44.593 54.3416 44.9881 55.2954 45.6913 55.9987C46.3946 56.7019 47.3484 57.097 48.343 57.097C49.3375 57.097 50.2914 56.7019 50.9946 55.9987C51.6979 55.2954 52.093 54.3416 52.093 53.347H52.0924ZM44.2896 15.847L41.5522 9.00328C41.4138 8.6536 41.3992 8.26711 41.5107 7.90797C41.6223 7.54883 41.8533 7.23864 42.1654 7.0289L42.232 6.98449C44.0401 5.77456 46.1667 5.12867 48.3423 5.12867C50.5179 5.12867 52.6445 5.77456 54.4527 6.98449L54.5193 7.0289C54.8315 7.23862 55.0626 7.54878 55.1742 7.90792C55.2858 8.26705 55.2712 8.65356 55.1329 9.00328L52.3952 15.847H50.4234L51.1366 12.2809C51.1615 12.1599 51.1623 12.0351 51.1388 11.9138C51.1154 11.7925 51.0681 11.677 50.9999 11.574C50.9317 11.471 50.8437 11.3825 50.7411 11.3136C50.6386 11.2447 50.5234 11.1968 50.4022 11.1725C50.2811 11.1483 50.1563 11.1482 50.0351 11.1724C49.914 11.1965 49.7988 11.2444 49.6961 11.3132C49.5935 11.3821 49.5055 11.4705 49.4372 11.5735C49.3689 11.6764 49.3216 11.7919 49.2981 11.9132L48.5118 15.847H48.174L47.3868 11.9132C47.3633 11.7919 47.316 11.6764 47.2477 11.5735C47.1794 11.4705 47.0914 11.3821 46.9888 11.3132C46.8861 11.2444 46.7709 11.1965 46.6497 11.1724C46.5286 11.1482 46.4038 11.1483 46.2826 11.1725C46.1615 11.1968 46.0463 11.2447 45.9437 11.3136C45.8412 11.3825 45.7532 11.471 45.685 11.574C45.6167 11.677 45.5695 11.7925 45.5461 11.9138C45.5226 12.0351 45.5234 12.1599 45.5483 12.2809L46.2618 15.847H44.2896ZM50.2174 53.347C50.2174 53.8443 50.0198 54.3212 49.6682 54.6729C49.3166 55.0245 48.8397 55.222 48.3424 55.222C47.8451 55.222 47.3682 55.0245 47.0166 54.6729C46.6649 54.3212 46.4674 53.8443 46.4674 53.347V34.597H50.2174V53.347ZM50.3868 32.722H46.2984L46.045 31.455C45.1413 26.9316 44.6568 22.3345 44.5978 17.722H52.0861C52.0626 19.598 51.9678 21.473 51.8015 23.347H49.2799C49.0312 23.347 48.7928 23.4458 48.617 23.6216C48.4412 23.7974 48.3424 24.0359 48.3424 24.2845C48.3424 24.5332 48.4412 24.7716 48.617 24.9474C48.7928 25.1233 49.0312 25.222 49.2799 25.222H51.6131C51.3758 27.3138 51.0513 29.3915 50.6396 31.455L50.3868 32.722Z" fill="inherit"/>
        <path d="M38.3028 29.2097L36.4639 28.597C36.1468 28.4913 35.8092 28.4625 35.4788 28.5129C35.1484 28.5633 34.8347 28.6915 34.5636 28.8869C34.2925 29.0823 34.0716 29.3393 33.9193 29.6368C33.767 29.9342 33.6875 30.2637 33.6875 30.5979V40.222C33.4389 40.222 33.2004 40.3208 33.0246 40.4966C32.8488 40.6724 32.75 40.9109 32.75 41.1595V56.1595C32.75 56.4082 32.8488 56.6466 33.0246 56.8224C33.2004 56.9983 33.4389 57.097 33.6875 57.097H41.1875C41.4361 57.097 41.6746 56.9983 41.8504 56.8224C42.0262 56.6466 42.125 56.4082 42.125 56.1595V41.1595C42.125 40.9109 42.0262 40.6724 41.8504 40.4966C41.6746 40.3208 41.4361 40.222 41.1875 40.222V33.2121C41.1883 32.3264 40.91 31.4631 40.3921 30.7446C39.8743 30.0261 39.1433 29.489 38.3028 29.2097ZM35.5625 30.5979C35.5624 30.5607 35.5712 30.5241 35.5881 30.4909C35.605 30.4578 35.6296 30.4292 35.6597 30.4075C35.6899 30.3857 35.7248 30.3715 35.7615 30.3659C35.7982 30.3602 35.8358 30.3635 35.8711 30.3752L37.7098 30.9881C38.1768 31.1433 38.583 31.4417 38.8708 31.841C39.1585 32.2402 39.313 32.72 39.3125 33.2121V40.222H35.5625V30.5979ZM40.25 55.222H34.625V45.847H40.25V55.222ZM40.25 43.972H34.625V42.097H40.25V43.972Z" fill="inherit"/>
        <path d="M0.875 48.6594V49.1281C0.877388 51.2408 1.71772 53.2663 3.21163 54.7602C4.70554 56.2542 6.73104 57.0945 8.84375 57.0969H22.9062C25.019 57.0945 27.0445 56.2542 28.5384 54.7602C30.0323 53.2663 30.8726 51.2408 30.875 49.1281V48.6594C30.875 48.4107 30.7762 48.1723 30.6004 47.9965C30.4246 47.8206 30.1861 47.7219 29.9375 47.7219H27.7344C28.6829 45.7213 29.11 43.5134 28.9759 41.3034C28.8417 39.0934 28.1507 36.9533 26.9671 35.0822C25.7835 33.2111 24.1459 31.6698 22.2065 30.6018C20.2671 29.5337 18.089 28.9736 15.875 28.9736C13.661 28.9736 11.4829 29.5337 9.54353 30.6018C7.60415 31.6698 5.96646 33.2111 4.78287 35.0822C3.59928 36.9533 2.90826 39.0934 2.77411 41.3034C2.63997 43.5134 3.06705 45.7213 4.01562 47.7219H1.8125C1.56386 47.7219 1.3254 47.8206 1.14959 47.9965C0.973772 48.1723 0.875 48.4107 0.875 48.6594ZM15.875 30.8469C17.8497 30.8471 19.7896 31.367 21.4998 32.3544C23.2099 33.3418 24.63 34.7619 25.6175 36.4721C26.6049 38.1822 27.1248 40.1221 27.125 42.0968C27.1252 44.0716 26.6056 46.0116 25.6186 47.7219H23.3782C24.4228 46.3288 25.059 44.6723 25.2153 42.9381C25.3716 41.2038 25.0418 39.4603 24.2631 37.9029C23.4843 36.3454 22.2872 35.0356 20.806 34.1202C19.3247 33.2048 17.6179 32.7199 15.8766 32.7199C14.1353 32.7199 12.4284 33.2048 10.9472 34.1202C9.46594 35.0356 8.26887 36.3454 7.4901 37.9029C6.71133 39.4603 6.38161 41.2038 6.5379 42.9381C6.6942 44.6723 7.33032 46.3288 8.375 47.7219H6.13145C5.14436 46.0116 4.62481 44.0716 4.625 42.0968C4.6252 40.1221 5.14513 38.1822 6.13255 36.4721C7.11997 34.7619 8.5401 33.3418 10.2502 32.3544C11.9604 31.367 13.9003 30.8471 15.875 30.8469ZM17.1925 34.7151C17.9676 34.8526 18.7159 35.1122 19.4096 35.4842L10.2868 47.0952C9.83727 46.5928 9.45752 46.032 9.15781 45.4282L17.1925 34.7151ZM8.46266 43.23C8.3104 42.2441 8.35667 41.2378 8.59873 40.2702C8.8408 39.3025 9.27379 38.3929 9.87227 37.5949C10.4708 36.7969 11.2227 36.1265 12.0838 35.6231C12.945 35.1197 13.8981 34.7935 14.8871 34.6636L8.46266 43.23ZM20.9401 36.5712C21.7079 37.2756 22.3213 38.1316 22.7414 39.0852C22.7414 39.0852 16.0048 47.6693 15.9777 47.7219H12.1789L20.9401 36.5712ZM13.0625 49.5969H18.6875C18.9361 49.5969 19.1746 49.6956 19.3504 49.8715C19.5262 50.0473 19.625 50.2857 19.625 50.5344C19.625 50.783 19.5262 51.0215 19.3504 51.1973C19.1746 51.3731 18.9361 51.4719 18.6875 51.4719H13.0625C12.8139 51.4719 12.5754 51.3731 12.3996 51.1973C12.2238 51.0215 12.125 50.783 12.125 50.5344C12.125 50.2857 12.2238 50.0473 12.3996 49.8715C12.5754 49.6956 12.8139 49.5969 13.0625 49.5969ZM18.3397 47.7219L23.3384 41.3598C23.3619 41.6025 23.375 41.8481 23.375 42.0969C23.377 43.1615 23.1512 44.2142 22.7128 45.1844C22.2745 46.1545 21.6337 47.0197 20.8334 47.7219H18.3397ZM10.4113 49.5969C10.2611 50.0211 10.2149 50.4751 10.2766 50.9208C10.3383 51.3666 10.5061 51.791 10.7658 52.1584C11.0256 52.5258 11.3698 52.8256 11.7694 53.0324C12.1691 53.2392 12.6125 53.347 13.0625 53.3469H18.6875C19.1374 53.347 19.5808 53.2392 19.9804 53.0325C20.38 52.8258 20.7242 52.5261 20.984 52.1588C21.2437 51.7915 21.4116 51.3671 21.4734 50.9215C21.5351 50.4758 21.4891 50.0218 21.339 49.5977L21.3429 49.5969H28.9822C28.8623 51.1267 28.1704 52.5552 27.0443 53.5977C25.9183 54.6401 24.4408 55.2201 22.9062 55.2219H8.84375C7.30924 55.2201 5.83174 54.6401 4.7057 53.5977C3.57965 52.5552 2.88773 51.1267 2.76781 49.5969H10.4113Z" fill="inherit"/>
        <path d="M27.5425 14.7518L29.0449 15.7534C29.7675 16.2357 30.352 16.8979 30.7408 17.6749L30.9741 18.1415C31.052 18.2972 31.1716 18.4282 31.3197 18.5197C31.4678 18.6112 31.6385 18.6597 31.8126 18.6597C31.9866 18.6597 32.1573 18.6112 32.3054 18.5197C32.4535 18.4282 32.5732 18.2972 32.651 18.1415L32.8844 17.6749C33.273 16.8978 33.8575 16.2354 34.5802 15.753L36.0826 14.7514C36.2287 14.654 36.3444 14.5177 36.4168 14.3578C36.4891 14.1978 36.5151 14.0209 36.4918 13.8469C36.4685 13.6729 36.3969 13.509 36.285 13.3738C36.1731 13.2386 36.0255 13.1374 35.859 13.0819C35.1248 12.8352 34.4576 12.4218 33.9099 11.8741C33.3621 11.3263 32.9487 10.6592 32.702 9.92492C32.6398 9.7382 32.5204 9.5758 32.3608 9.46071C32.2012 9.34562 32.0094 9.28369 31.8126 9.28369C31.6158 9.28369 31.4239 9.34562 31.2643 9.46071C31.1047 9.5758 30.9853 9.7382 30.9231 9.92492C30.6764 10.6592 30.263 11.3263 29.7152 11.8741C29.1675 12.4218 28.5003 12.8352 27.7661 13.0819C27.5996 13.1374 27.452 13.2386 27.3401 13.3738C27.2283 13.509 27.1566 13.6729 27.1333 13.8469C27.11 14.0209 27.136 14.1978 27.2083 14.3578C27.2807 14.5177 27.3964 14.654 27.5425 14.7514V14.7518ZM31.8126 12.2804C32.3167 12.9986 32.9526 13.6146 33.6865 14.0957L33.5401 14.1934C32.8722 14.6389 32.2875 15.198 31.8126 15.8453C31.3376 15.1979 30.7529 14.6386 30.085 14.193L29.9386 14.0954C30.6725 13.6144 31.3084 12.9985 31.8126 12.2804Z" fill="inherit"/>
        <path d="M25.5465 18.7074C24.8123 18.4607 24.1451 18.0473 23.5974 17.4996C23.0496 16.9518 22.6362 16.2847 22.3895 15.5504C22.3273 15.3637 22.2079 15.2013 22.0483 15.0862C21.8887 14.9711 21.6969 14.9092 21.5001 14.9092C21.3033 14.9092 21.1115 14.9711 20.9518 15.0862C20.7922 15.2013 20.6728 15.3637 20.6106 15.5504C20.3639 16.2847 19.9505 16.9518 19.4027 17.4996C18.855 18.0473 18.1878 18.4607 17.4536 18.7074C17.2871 18.7629 17.1395 18.864 17.0276 18.9993C16.9158 19.1345 16.8441 19.2984 16.8208 19.4724C16.7975 19.6463 16.8235 19.8233 16.8958 19.9832C16.9682 20.1431 17.0839 20.2795 17.23 20.3769L18.7324 21.3785C19.455 21.8608 20.0395 22.5231 20.4283 23.3L20.6616 23.7667C20.7395 23.9224 20.8591 24.0533 21.0072 24.1448C21.1553 24.2363 21.326 24.2848 21.5001 24.2848C21.6741 24.2848 21.8448 24.2363 21.9929 24.1448C22.141 24.0533 22.2607 23.9224 22.3385 23.7667L22.5719 23.3C22.9605 22.5229 23.545 21.8605 24.2677 21.3781L25.7701 20.3765C25.9162 20.2792 26.0319 20.1428 26.1043 19.9829C26.1766 19.823 26.2026 19.646 26.1793 19.472C26.156 19.2981 26.0844 19.1342 25.9725 18.9989C25.8606 18.8637 25.713 18.7626 25.5465 18.7071V18.7074ZM23.2276 19.8185C22.5597 20.2641 21.975 20.8232 21.5001 21.4705C21.0251 20.823 20.4404 20.2638 19.7725 19.8181L19.6261 19.7205C20.36 19.2395 20.9959 18.6236 21.5001 17.9055C22.0042 18.6238 22.6401 19.2398 23.374 19.7209L23.2276 19.8185Z" fill="inherit"/>
        <path d="M28.0177 7.31564L29.5201 6.31404C29.6661 6.21666 29.7817 6.08028 29.854 5.92042C29.9263 5.76056 29.9523 5.58363 29.929 5.40974C29.9057 5.23586 29.834 5.072 29.7222 4.93679C29.6105 4.80159 29.463 4.70047 29.2965 4.64493C28.5623 4.39823 27.8951 3.9848 27.3474 3.43707C26.7996 2.88934 26.3862 2.22218 26.1395 1.4879C26.0773 1.30119 25.9579 1.13879 25.7983 1.0237C25.6387 0.908611 25.4469 0.84668 25.2501 0.84668C25.0533 0.84668 24.8615 0.908611 24.7018 1.0237C24.5422 1.13879 24.4228 1.30119 24.3606 1.4879C24.1139 2.22218 23.7005 2.88934 23.1527 3.43707C22.605 3.9848 21.9378 4.39823 21.2036 4.64493C21.0371 4.70043 20.8895 4.80155 20.7776 4.93678C20.6658 5.07201 20.5941 5.23593 20.5708 5.40989C20.5475 5.58384 20.5735 5.76084 20.6458 5.92074C20.7182 6.08065 20.8339 6.21704 20.98 6.31439L22.4824 7.31564C23.2051 7.79804 23.7896 8.46043 24.1783 9.23751L24.4116 9.70415C24.4895 9.85985 24.6091 9.99079 24.7572 10.0823C24.9053 10.1738 25.076 10.2223 25.2501 10.2223C25.4241 10.2223 25.5948 10.1738 25.7429 10.0823C25.891 9.99079 26.0107 9.85985 26.0885 9.70415L26.3219 9.23751C26.7105 8.46043 27.295 7.79804 28.0177 7.31564ZM25.2501 7.40798C24.7751 6.76051 24.1904 6.20127 23.5225 5.75564L23.3761 5.65802C24.11 5.17703 24.7459 4.56113 25.2501 3.84302C25.7542 4.56126 26.3901 5.17727 27.124 5.65837L26.9776 5.75599C26.3097 6.20155 25.725 6.76066 25.2501 7.40798Z" fill="inherit"/>
    </symbol>
    <symbol id="menu-icon5" viewBox="0 0 51 55"  xmlns="http://www.w3.org/2000/svg">
        <path d="M49.5128 10.5715L50.1255 9.95879C50.464 9.62035 50.464 9.07175 50.1255 8.73332C49.7871 8.39488 49.2385 8.39488 48.9001 8.73332L48.2873 9.34605L47.6746 8.73332C47.3362 8.39488 46.7876 8.39488 46.4491 8.73332C46.1107 9.07175 46.1107 9.62035 46.4491 9.95879L47.0619 10.5715L46.4491 11.1843C46.1107 11.5227 46.1107 12.0713 46.4491 12.4097C46.6184 12.5789 46.8402 12.6637 47.0619 12.6637C47.2835 12.6637 47.5054 12.5789 47.6746 12.4097L48.2873 11.797L48.9001 12.4099C49.0693 12.5792 49.2911 12.6639 49.5128 12.6639C49.7344 12.6639 49.9563 12.5792 50.1255 12.4099C50.464 12.0715 50.464 11.5229 50.1255 11.1845L49.5128 10.5715Z" fill="inherit"/>
        <path d="M47.9417 31.2559C47.312 30.9185 46.5884 30.8466 45.9054 31.0548C45.2225 31.2617 44.6605 31.7226 44.3236 32.3522C43.9866 32.9819 43.9147 33.7051 44.1221 34.3885C44.3294 35.0718 44.7898 35.6334 45.4195 35.9703C45.8129 36.1807 46.243 36.2878 46.6772 36.2878C46.9379 36.2878 47.1994 36.2492 47.4559 36.1714C48.1397 35.9645 48.7017 35.5036 49.0387 34.874C49.3747 34.2444 49.4466 33.5211 49.2393 32.8378C49.0319 32.1544 48.5713 31.5928 47.9417 31.2559ZM47.5101 34.0565C47.3916 34.2777 47.1935 34.44 46.9532 34.5126C46.459 34.6608 45.9308 34.3822 45.7811 33.8858C45.7083 33.6455 45.7336 33.3911 45.8521 33.1697C45.9707 32.9483 46.1678 32.7862 46.4081 32.7136C46.4987 32.6861 46.5901 32.6727 46.6824 32.6727C46.8347 32.6727 46.9853 32.7104 47.1242 32.7845C47.3452 32.903 47.5077 33.1002 47.5803 33.3404C47.6529 33.5807 47.6286 33.8353 47.5101 34.0565Z" fill="inherit"/>
        <path d="M6.25374 40.3569C5.71186 40.3569 5.27246 40.7963 5.27246 41.3384C5.27246 41.8803 5.71186 42.3197 6.25374 42.3197C6.79563 42.3197 7.23503 41.8803 7.23503 41.3384C7.23503 40.7963 6.79563 40.3569 6.25374 40.3569Z" fill="inherit"/>
        <path d="M11.3394 32.6719C11.3394 33.2138 11.7788 33.6532 12.3206 33.6532C12.8625 33.6532 13.3019 33.2138 13.3019 32.6719C13.3019 32.1298 12.8625 31.6904 12.3206 31.6904C11.7788 31.6904 11.3394 32.13 11.3394 32.6719Z" fill="inherit"/>
        <path d="M38.7277 38.5629L31.8037 35.4149C31.8067 35.1885 31.8095 34.9393 31.8121 34.7038C35.1317 33.1191 37.655 30.1647 38.6785 26.6035C39.2464 26.6263 39.7846 26.4636 40.3078 26.1377C41.1127 25.6368 41.657 24.8199 41.7636 23.9528C41.8711 23.0844 41.602 22.2136 41.0274 21.5632C40.6473 21.1342 40.159 20.8257 39.6208 20.6651V19.2124V18.9788V17.7904C41.7302 16.8063 43.1992 14.6706 43.1992 12.1937C43.1992 5.50995 37.8292 0.600279 37.6006 0.394662C37.2706 0.0976125 36.7712 0.0976125 36.441 0.394662C36.2891 0.531379 33.872 2.75265 32.2636 6.18378C27.8569 4.94531 23.0497 5.60961 19.916 7.9351C17.487 9.73733 16.2091 12.3989 16.2208 15.6322L16.2318 17.0271C16.2394 17.8108 16.2476 18.5598 16.2396 19.1459C16.2362 19.1777 16.221 19.2057 16.221 19.2386V20.663C15.7259 20.8094 15.2748 21.0824 14.905 21.4657C14.3286 22.0633 14.0272 22.8504 14.0569 23.6816C14.089 24.6087 14.6155 25.5042 15.4635 26.0768C16.0002 26.4391 16.5393 26.6113 17.1206 26.6061C18.0271 29.9177 20.2252 32.6968 23.1584 34.3845C23.1632 34.8449 23.1675 35.1792 23.1704 35.4156L16.2472 38.5627C13.0726 40.0057 11.021 43.2299 11.021 46.7765V53.905C11.021 54.3837 11.4086 54.7717 11.8877 54.7717H43.0877C43.5667 54.7717 43.9543 54.3837 43.9543 53.905V46.7763C43.9539 43.2297 41.9023 40.0054 38.7277 38.5629ZM37.0214 2.26623C38.3442 3.6776 41.4657 7.50436 41.4657 12.1935C41.4657 14.6444 39.4717 16.6386 37.0206 16.6386C34.5694 16.6386 32.5754 14.6446 32.5754 12.1935C32.5754 7.51866 35.6993 3.68085 37.0214 2.26623ZM20.9482 9.32675C23.5794 7.3735 27.7984 6.7937 31.6065 7.8038C31.1469 9.14431 30.8421 10.617 30.8421 12.1932C30.8421 15.5999 33.6139 18.3717 37.0206 18.3717C37.3154 18.3717 37.6032 18.3438 37.8872 18.3037V18.781C35.2744 20.6916 32.3208 21.4063 29.5278 20.7927C27.0675 20.2524 25.0285 18.7247 23.9326 16.6011C23.8056 16.3552 23.5686 16.1847 23.2954 16.142C23.0219 16.0997 22.7444 16.1907 22.549 16.3862C21.4301 17.5081 19.7949 18.1826 17.9753 18.2931C17.9736 17.8914 17.9695 17.4561 17.9652 17.0095L17.9541 15.6252C17.9437 12.9277 18.9516 10.8083 20.9482 9.32675ZM18.6234 25.4426C18.5736 25.1993 18.4219 24.9889 18.207 24.8654C17.992 24.7411 17.7338 24.7157 17.4978 24.7952C17.1626 24.9085 16.8528 24.9235 16.4331 24.6403C16.049 24.3805 15.8017 23.9899 15.7881 23.62C15.7753 23.263 15.9049 22.9252 16.1521 22.6691C16.3993 22.4125 16.731 22.2717 17.0872 22.2717C17.5663 22.2717 17.9539 21.8837 17.9539 21.405V20.0294C19.8363 19.9399 21.5787 19.3419 22.9431 18.3286C24.3488 20.4238 26.5612 21.9159 29.1562 22.4856C29.9358 22.6569 30.7236 22.7417 31.5133 22.7417C33.6841 22.7414 35.861 22.091 37.8872 20.8532V21.405C37.8872 21.8837 38.2748 22.2717 38.7539 22.2717C39.1263 22.2717 39.4817 22.4316 39.728 22.7109C39.9785 22.9941 40.0903 23.3596 40.0437 23.7409C39.9997 24.093 39.7568 24.4388 39.392 24.6661C39.0271 24.8929 38.7184 24.9302 38.3247 24.79C38.0885 24.707 37.8313 24.7287 37.6138 24.85C37.3971 24.9712 37.2422 25.1796 37.1889 25.4227C36.345 29.2973 33.4811 32.4626 29.7156 33.6835L29.3306 33.8079C28.2531 34.157 27.1529 34.1693 26.1491 33.8473C22.3169 32.6134 19.4333 29.3931 18.6234 25.4426ZM24.4056 36.7576C24.7262 36.612 24.926 36.2751 24.9117 35.9226C24.9091 35.8561 24.905 35.5586 24.9009 35.2152C25.1405 35.3085 25.3717 35.418 25.6185 35.4973C26.2743 35.7081 26.9583 35.8134 27.6506 35.8134C28.3862 35.8134 29.1317 35.6944 29.8647 35.4567L30.071 35.39C30.0677 35.6535 30.0647 35.8639 30.0627 35.9091C30.0383 36.2697 30.2395 36.6083 30.5689 36.7576L32.7665 37.7569L27.4874 46.2034L22.2081 37.7569L24.4056 36.7576ZM12.7539 46.7763C12.7539 43.9076 14.4068 41.3028 16.9646 40.1404L20.6169 38.4799L26.6206 48.0862V53.0384H18.8206V49.5717C18.8206 49.0931 18.4329 48.705 17.9539 48.705C17.4748 48.705 17.0872 49.0931 17.0872 49.5717V53.0384H12.7539V46.7763ZM42.2206 53.0384H37.8872V49.5717C37.8872 49.0931 37.4996 48.705 37.0206 48.705C36.5415 48.705 36.1539 49.0931 36.1539 49.5717V53.0384H28.3539V48.0862L34.3575 38.4801L38.0099 40.1409C40.5676 41.3028 42.2206 43.9076 42.2206 46.7763V53.0384Z" fill="inherit"/>
        <path d="M32.2539 25.7382C32.7325 25.7382 33.1205 25.3502 33.1205 24.8715C33.1205 24.3929 32.7325 24.0049 32.2539 24.0049C31.7752 24.0049 31.3872 24.3929 31.3872 24.8715C31.3872 25.3502 31.7752 25.7382 32.2539 25.7382Z" fill="inherit"/>
        <path d="M23.5874 25.7382C24.066 25.7382 24.454 25.3502 24.454 24.8715C24.454 24.3929 24.066 24.0049 23.5874 24.0049C23.1087 24.0049 22.7207 24.3929 22.7207 24.8715C22.7207 25.3502 23.1087 25.7382 23.5874 25.7382Z" fill="inherit"/>
        <path d="M10.7666 10.8258L9.64597 9.70516H11.5284L13.0078 11.1846C13.177 11.354 13.3986 11.4385 13.6205 11.4385C13.8424 11.4385 14.064 11.354 14.2332 11.1848C14.5717 10.8463 14.5717 10.2977 14.2332 9.95931L13.1126 8.8385L14.2332 7.71811C14.5717 7.37968 14.5717 6.83108 14.2332 6.49265C13.8948 6.15421 13.3462 6.15421 13.0078 6.49265L11.5284 7.97183H9.64597L10.7666 6.85145C11.105 6.51301 11.105 5.96441 10.7666 5.62598C10.4281 5.28755 9.87953 5.28755 9.5411 5.62598L8.4205 6.74658V4.86418L9.8999 3.38478C10.2383 3.04635 10.2383 2.49775 9.8999 2.15931C9.56147 1.82088 9.01287 1.82088 8.67443 2.15931L7.55383 3.27991L6.43323 2.1591C6.0948 1.82067 5.5462 1.82067 5.20776 2.1591C4.86933 2.49753 4.86933 3.04613 5.20776 3.38456L6.68716 4.86396V6.74636L5.56656 5.62576C5.22813 5.28733 4.67953 5.28733 4.3411 5.62576C4.00266 5.9642 4.00266 6.5128 4.3411 6.85123L5.4617 7.97183H3.5793L2.0999 6.49243C1.76146 6.154 1.21286 6.154 0.874431 6.49243C0.535997 6.83086 0.535997 7.37946 0.874431 7.7179L1.99503 8.8385L0.874431 9.9591C0.535997 10.2975 0.535997 10.8461 0.874431 11.1846C1.04365 11.354 1.2653 11.4385 1.48716 11.4385C1.70903 11.4385 1.93068 11.354 2.0999 11.1848L3.5793 9.70516H5.4617L4.3411 10.8258C4.00266 11.1642 4.00266 11.7128 4.3411 12.0512C4.51031 12.2207 4.73196 12.3052 4.95383 12.3052C5.1757 12.3052 5.39735 12.2207 5.56656 12.0514L6.68716 10.9308V12.8132L5.20776 14.2926C4.86933 14.6311 4.86933 15.1797 5.20776 15.5181C5.5462 15.8565 6.0948 15.8565 6.43323 15.5181L7.55383 14.3975L8.67443 15.5181C8.84365 15.6873 9.0653 15.7718 9.28716 15.7718C9.50903 15.7718 9.73068 15.6873 9.8999 15.5181C10.2383 15.1797 10.2383 14.6311 9.8999 14.2926L8.4205 12.8132V10.9308L9.5411 12.0514C9.71032 12.2207 9.93196 12.3052 10.1538 12.3052C10.3757 12.3052 10.5973 12.2207 10.7666 12.0514C11.105 11.7128 11.105 11.1644 10.7666 10.8258Z" fill="inherit"/>
        <path d="M37.0206 15.7716C37.4997 15.7716 37.8873 15.3835 37.8873 14.9049C37.8873 14.4263 37.4997 14.0382 37.0206 14.0382C35.8255 14.0382 34.8539 13.0663 34.8539 11.8716C34.8539 11.3929 34.4663 11.0049 33.9873 11.0049C33.5082 11.0049 33.1206 11.3929 33.1206 11.8716C33.1206 14.0222 34.87 15.7716 37.0206 15.7716Z" fill="inherit"/>
    </symbol>
    <symbol id="menu-icon6" viewBox="0 0 55 56"  xmlns="http://www.w3.org/2000/svg">
        <g clip-path="url(#clip0)">
        <path d="M40.3303 38.5552H32.9971V33.4C36.3958 31.4378 38.4916 27.8134 38.497 23.8888V19.3056H39.4136V17.4723H36.7764C35.5053 17.4707 34.4003 16.5997 34.1017 15.364L32.0465 8.05831C31.9356 7.66255 31.5748 7.38905 31.1638 7.38916C30.7542 7.38905 30.3943 7.66072 30.282 8.05465L28.3937 14.6949C27.9859 16.3263 26.5205 17.4712 24.8389 17.4723H15.5808V19.3056H16.4974V23.8888C16.5028 27.8134 18.5986 31.4378 21.9973 33.4V39.4719C21.9973 39.715 22.094 39.9481 22.2659 40.1199L26.8491 44.7032C27.2071 45.061 27.7873 45.061 28.1453 44.7032L32.4599 40.3885H40.3303C42.8602 40.3915 44.9106 42.4418 44.9135 44.9718V54.1383H10.0809V53.2216H8.24756V55.0549C8.24756 55.5611 8.65799 55.9716 9.16421 55.9716H45.8302C46.3364 55.9716 46.7468 55.5611 46.7468 55.0549V44.9718C46.7428 41.4297 43.8723 38.5594 40.3303 38.5552ZM31.1638 39.0924L27.4972 42.759L23.8306 39.0924V34.247C26.2001 35.1024 28.7943 35.1024 31.1638 34.247V39.0924ZM27.4972 33.0553C22.4347 33.0553 18.3307 28.9514 18.3307 23.8888V19.3056H24.8389C27.3535 19.3116 29.5499 17.6064 30.1674 15.1688L31.162 11.6717L32.3334 15.8342C32.8328 17.8316 34.6054 19.2489 36.6637 19.2964V23.8888C36.6637 28.9514 32.5597 33.0553 27.4972 33.0553Z" fill="inherit"/>
        <path d="M17.4141 38.5552H14.6641V40.3885H17.4141C19.9453 40.3885 21.9973 42.4405 21.9973 44.9717C21.9973 47.5029 19.9453 49.555 17.4141 49.555H12.8308C11.312 49.555 10.0809 48.3238 10.0809 46.805H8.24756C8.25054 49.335 10.3009 51.3853 12.8308 51.3883H17.4141C20.9578 51.3883 23.8306 48.5155 23.8306 44.9717C23.8306 41.428 20.9578 38.5552 17.4141 38.5552Z" fill="inherit"/>
        <path d="M48.2627 34.6903C47.6119 34.1097 46.8498 33.6679 46.0226 33.3919V33.3882C46.4905 32.7628 46.7445 32.0033 46.7467 31.2222C46.7467 29.1972 45.1051 27.5556 43.0801 27.5556V16.9701C43.2055 8.53419 36.6706 1.49329 28.2488 0.990162C19.6524 0.574919 12.3473 7.20711 11.9322 15.8033C11.92 16.0539 11.9141 16.3049 11.9141 16.5557V27.5555C9.88907 27.5555 8.24746 29.1971 8.24746 31.2221C8.24975 32.0032 8.50366 32.7627 8.97161 33.3881C5.61164 34.5144 3.80091 38.1514 4.92724 41.5113C5.80218 44.1215 8.2446 45.8826 10.9974 45.8885H16.4973V44.0552H10.9974C8.4662 44.0552 6.41416 42.0031 6.41416 39.4719C6.41416 36.9407 8.4662 34.8887 10.9974 34.8887H16.4973V33.0554H11.9141C10.9015 33.0554 10.0808 32.2346 10.0808 31.2221C10.0808 30.2095 10.9015 29.3888 11.9141 29.3888H12.8307C13.3369 29.3888 13.7474 28.9783 13.7474 28.4721V16.5557C13.747 8.96192 19.9028 2.8057 27.4965 2.80536C27.7189 2.80536 27.9413 2.81074 28.1635 2.82151C35.6059 3.28121 41.3698 9.51443 41.2468 16.97V28.4721C41.2468 28.9783 41.6573 29.3888 42.1635 29.3888H43.0801C44.0927 29.3888 44.9134 30.2095 44.9134 31.2221C44.9134 32.2346 44.0927 33.0554 43.0801 33.0554H38.4969V34.8887H43.9968C46.528 34.8887 48.58 36.9407 48.5799 39.472C48.5799 40.5993 48.1645 41.6869 47.4132 42.5271L48.779 43.7499C51.1382 41.1056 50.907 37.0494 48.2627 34.6903Z" fill="inherit"/>
        <path d="M22.9137 21.3682C22.0278 21.3682 21.3096 22.0864 21.3096 22.9723C21.3096 23.8582 22.0278 24.5764 22.9137 24.5764C23.7997 24.5764 24.5178 23.8582 24.5178 22.9723C24.5168 22.0868 23.7992 21.3692 22.9137 21.3682ZM22.6845 22.9723C22.6845 22.8457 22.7871 22.7431 22.9137 22.7431C23.0403 22.7431 23.1429 22.8457 23.1429 22.9723C23.1429 23.2244 22.6845 23.2244 22.6845 22.9723Z" fill="inherit"/>
        <path d="M32.0802 21.3682C31.1943 21.3682 30.4761 22.0864 30.4761 22.9723C30.4771 23.8578 31.1947 24.5754 32.0802 24.5764C32.9662 24.5764 33.6843 23.8582 33.6843 22.9723C33.6843 22.0864 32.9662 21.3682 32.0802 21.3682ZM31.851 22.9723C31.851 22.8457 31.9536 22.7431 32.0802 22.7431C32.2068 22.7431 32.3094 22.8457 32.3094 22.9723C32.3094 23.2244 31.851 23.2244 31.851 22.9723Z" fill="inherit"/>
        <path d="M29.5595 27.5557C29.5595 28.6947 28.6361 29.6181 27.497 29.6181C26.358 29.6181 25.4345 28.6947 25.4345 27.5557H24.0596C24.0596 29.4542 25.5985 30.9931 27.497 30.9931C29.3955 30.9931 30.9344 29.4542 30.9344 27.5557H29.5595Z" fill="inherit"/>
        </g>
        <defs>
        <clipPath id="clip0">
        <rect width="55" height="55" fill="inherit" transform="translate(0 0.97168)"/>
        </clipPath>
        </defs>
    </symbol>
    <symbol id="menu-icon7" viewBox="0 0 47 41"  xmlns="http://www.w3.org/2000/svg">
        <path d="M44.551 12.4717C42.8995 11.8867 39.7556 10.5144 37.2353 7.89176C36.956 7.60137 36.6718 7.32223 36.3908 7.06184C36.0347 6.73184 35.4785 6.75317 35.1487 7.1093C34.819 7.46531 34.84 8.02136 35.1962 8.35136C35.4526 8.5889 35.7124 8.84437 35.9682 9.11015C38.5947 11.8435 41.7554 13.3448 43.951 14.1241C40.3874 15.4171 35.9165 16.5343 31.3427 15.6284C31.331 15.6256 31.32 15.621 31.308 15.6187C28.4221 15.0405 25.8535 13.7143 23.6317 11.8181C23.3441 11.5727 22.9376 11.542 22.6204 11.7261C22.6091 11.7327 22.5991 11.7419 22.588 11.749C22.5548 11.7703 22.5215 11.7916 22.4907 11.8179L22.4904 11.818C22.4853 11.8224 22.48 11.8265 22.475 11.831C21.3693 12.7721 20.1951 13.5586 18.9713 14.1792V10.8272C18.9713 8.62019 18.121 6.58125 16.7081 5.05326C19.3626 4.39642 21.4316 5.0604 22.4059 6.15001C22.5727 6.33657 22.8111 6.44309 23.0612 6.44309C23.3114 6.44309 23.5497 6.33645 23.7164 6.14989C25.1512 4.54455 28.6104 4.08084 32.4458 6.30024C32.8662 6.5434 33.4038 6.40008 33.6467 5.97985C33.8899 5.55974 33.7465 5.02197 33.3263 4.77892C31.2432 3.57342 29.0736 2.97178 27.0544 3.04233C25.4781 3.09647 24.0935 3.55994 23.063 4.36478C21.1679 2.86854 18.1845 2.60815 15.1102 3.70268C14.3224 3.18905 13.4403 2.80198 12.4902 2.57124C11.1951 0.290197 8.67515 0.584689 8.59429 0.565119C7.84793 0.565119 7.24079 1.17238 7.24079 1.91874V11.358V15.5545C5.30755 15.1886 3.54834 14.6255 2.17023 14.1242C3.25151 13.7409 4.31065 13.2713 5.31857 12.7283C5.74583 12.4981 5.90568 11.9651 5.67552 11.5378C5.44537 11.1105 4.91217 10.9508 4.4849 11.1808C3.55163 11.6836 2.57054 12.1182 1.56941 12.4724C1.56941 12.4724 1.56941 12.4724 1.56929 12.4724C0.82961 12.7522 0.354417 13.276 0.131411 13.9152C-0.104018 14.5898 -0.0216352 15.3243 0.357347 15.9303C1.62004 17.9504 3.82678 20.854 7.2409 23.3917V40.0102C7.2409 40.4957 7.63442 40.8891 8.1198 40.8891C8.60519 40.8891 8.99871 40.4957 8.99871 40.0102V12.7129H9.04207C11.2306 12.7129 13.0112 10.9324 13.0112 8.74382V4.58146C13.5146 4.7856 13.9865 5.04681 14.4181 5.35876C14.4431 5.37986 14.469 5.39943 14.4959 5.41747C16.1594 6.65708 17.2134 8.63788 17.2134 10.8274V15.5328C17.2134 15.5342 17.2133 15.5357 17.2133 15.5371C17.2133 15.5391 17.2134 15.541 17.2134 15.5429V17.8863C17.2134 17.8893 17.2134 17.8924 17.2134 17.8955V19.1634H13.1061C12.6207 19.1634 12.2272 19.5568 12.2272 20.0423C12.2272 20.5278 12.6207 20.9212 13.1061 20.9212H17.2134V32.0538H13.1061C12.6207 32.0538 12.2272 32.4472 12.2272 32.9327C12.2272 33.4182 12.6207 33.8116 13.1061 33.8116H17.2134V40.0103C17.2134 40.4958 17.6069 40.8892 18.0923 40.8892C18.5777 40.8892 18.9712 40.4958 18.9712 40.0103V32.9417C18.9712 32.9387 18.9717 32.9357 18.9717 32.9327C18.9717 32.9297 18.9712 32.9267 18.9712 32.9237V20.0512C18.9712 20.0481 18.9717 20.0452 18.9717 20.0422C18.9717 20.0391 18.9712 20.0362 18.9712 20.0331V19.034C20.2778 19.3372 21.6482 19.4922 23.061 19.4922C26.1332 19.4922 29.0431 18.7522 31.3044 17.4056C32.4356 17.6106 33.6009 17.7142 34.7993 17.7142C34.9323 17.7142 35.0665 17.7129 35.2003 17.7105C38.3132 17.6514 41.2165 16.9097 43.515 16.1392C40.7612 20.0369 34.3765 26.7414 23.0611 26.7414C22.5862 26.7414 22.1099 26.7294 21.6456 26.706C21.1604 26.6794 20.748 27.0545 20.7235 27.5393C20.699 28.0241 21.0721 28.4369 21.5568 28.4614C22.0506 28.4864 22.5568 28.4991 23.0611 28.4991C36.4631 28.4991 43.4032 19.7092 45.7653 15.9302C46.5236 14.7167 46.0486 13.0356 44.551 12.4717ZM7.24114 21.1569C5.1858 19.4529 3.66858 17.6472 2.60558 16.1381C3.94373 16.5868 5.52728 17.0384 7.24114 17.341V21.1569ZM11.2536 8.7437C11.2536 9.96303 10.2616 10.955 9.0423 10.955H8.99894V2.32304H9.0423C9.9369 2.32304 10.7379 2.85554 11.0824 3.67866C11.1961 3.95111 11.2536 4.23893 11.2536 4.53435V8.7437ZM23.0612 17.7343C21.6375 17.7343 20.2652 17.5622 18.9714 17.2244V16.1273C20.4019 15.4868 21.7731 14.6485 23.0611 13.6252C24.8336 15.0337 26.7319 16.0633 28.6914 16.7306C27.0186 17.3846 25.0842 17.7343 23.0612 17.7343Z" fill="inherit"/>
    </symbol>
    <symbol id="menu-icon8" viewBox="0 0 60 16"  xmlns="http://www.w3.org/2000/svg">
        <path d="M30 0.47168C28.5166 0.47168 27.0666 0.911548 25.8332 1.73566C24.5999 2.55977 23.6386 3.73111 23.0709 5.10155C22.5032 6.472 22.3547 7.98 22.6441 9.43486C22.9335 10.8897 23.6478 12.2261 24.6967 13.275C25.7456 14.3239 27.082 15.0382 28.5368 15.3276C29.9917 15.617 31.4997 15.4684 32.8701 14.9008C34.2406 14.3331 35.4119 13.3718 36.236 12.1385C37.0601 10.9051 37.5 9.45504 37.5 7.97168C37.4978 5.98324 36.7069 4.07689 35.3008 2.67085C33.8948 1.26481 31.9884 0.473913 30 0.47168ZM30 13.5967C28.8875 13.5967 27.7999 13.2668 26.8749 12.6487C25.9499 12.0306 25.2289 11.1521 24.8032 10.1243C24.3774 9.09644 24.266 7.96544 24.4831 6.8743C24.7001 5.78315 25.2359 4.78087 26.0225 3.9942C26.8092 3.20753 27.8115 2.6718 28.9026 2.45476C29.9938 2.23772 31.1248 2.34911 32.1526 2.77486C33.1804 3.2006 34.0589 3.92157 34.677 4.8466C35.2951 5.77162 35.625 6.85916 35.625 7.97168C35.6233 9.463 35.0301 10.8927 33.9756 11.9473C32.9211 13.0018 31.4913 13.595 30 13.5967Z" fill="inherit"/>
        <path d="M8.4375 0.47168C6.95414 0.47168 5.5041 0.911548 4.27073 1.73566C3.03736 2.55977 2.07606 3.73111 1.50841 5.10155C0.94075 6.472 0.792225 7.98 1.08161 9.43486C1.371 10.8897 2.08531 12.2261 3.1342 13.275C4.1831 14.3239 5.51947 15.0382 6.97433 15.3276C8.42918 15.617 9.93718 15.4684 11.3076 14.9008C12.6781 14.3331 13.8494 13.3718 14.6735 12.1385C15.4976 10.9051 15.9375 9.45504 15.9375 7.97168C15.9353 5.98324 15.1444 4.07689 13.7383 2.67085C12.3323 1.26481 10.4259 0.473913 8.4375 0.47168ZM8.4375 13.5967C7.32498 13.5967 6.23745 13.2668 5.31242 12.6487C4.38739 12.0306 3.66642 11.1521 3.24068 10.1243C2.81494 9.09644 2.70354 7.96544 2.92059 6.8743C3.13763 5.78315 3.67336 4.78087 4.46003 3.9942C5.2467 3.20753 6.24898 2.6718 7.34012 2.45476C8.43126 2.23772 9.56226 2.34911 10.5901 2.77486C11.6179 3.2006 12.4964 3.92157 13.1145 4.8466C13.7326 5.77162 14.0625 6.85916 14.0625 7.97168C14.0608 9.463 13.4676 10.8927 12.4131 11.9473C11.3586 13.0018 9.92882 13.595 8.4375 13.5967Z" fill="inherit"/>
        <path d="M51.5625 0.47168C50.0791 0.47168 48.6291 0.911548 47.3957 1.73566C46.1624 2.55977 45.2011 3.73111 44.6334 5.10155C44.0657 6.472 43.9172 7.98 44.2066 9.43486C44.496 10.8897 45.2103 12.2261 46.2592 13.275C47.3081 14.3239 48.6445 15.0382 50.0993 15.3276C51.5542 15.617 53.0622 15.4684 54.4326 14.9008C55.8031 14.3331 56.9744 13.3718 57.7985 12.1385C58.6226 10.9051 59.0625 9.45504 59.0625 7.97168C59.0603 5.98324 58.2694 4.07689 56.8633 2.67085C55.4573 1.26481 53.5509 0.473913 51.5625 0.47168ZM51.5625 13.5967C50.45 13.5967 49.3625 13.2668 48.4374 12.6487C47.5124 12.0306 46.7914 11.1521 46.3657 10.1243C45.9399 9.09644 45.8285 7.96544 46.0456 6.8743C46.2626 5.78315 46.7984 4.78087 47.585 3.9942C48.3717 3.20753 49.374 2.6718 50.4651 2.45476C51.5563 2.23772 52.6873 2.34911 53.7151 2.77486C54.7429 3.2006 55.6214 3.92157 56.2395 4.8466C56.8576 5.77162 57.1875 6.85916 57.1875 7.97168C57.1858 9.463 56.5926 10.8927 55.5381 11.9473C54.4836 13.0018 53.0538 13.595 51.5625 13.5967Z" fill="inherit"/>
    </symbol>
    <symbol id="message" viewBox="0 0 42 38" xmlns="http://www.w3.org/2000/svg">
        <path d="M36.0913 13.981H16.8003C16.4646 13.981 16.1924 14.2531 16.1924 14.5889C16.1924 14.9246 16.4646 15.1968 16.8003 15.1968H36.0913C36.427 15.1968 36.6992 14.9246 36.6992 14.5889C36.6992 14.2531 36.427 13.981 36.0913 13.981Z" fill="inherit"/>
        <path d="M36.0913 18.6282H16.8003C16.4646 18.6282 16.1924 18.9004 16.1924 19.2361C16.1924 19.5718 16.4646 19.844 16.8003 19.844H36.0913C36.427 19.844 36.6992 19.5718 36.6992 19.2361C36.6992 18.9004 36.427 18.6282 36.0913 18.6282Z" fill="inherit"/>
        <path d="M36.0913 23.2751H16.8003C16.4646 23.2751 16.1924 23.5473 16.1924 23.8831C16.1924 24.2188 16.4646 24.491 16.8003 24.491H36.0913C36.427 24.491 36.6992 24.2188 36.6992 23.8831C36.6992 23.5473 36.427 23.2751 36.0913 23.2751Z" fill="inherit"/>
        <path d="M38.0222 8.66455H14.8693C12.9197 8.66455 11.3335 10.2506 11.3335 12.2003V26.7591C11.3335 28.7087 12.9196 30.2949 14.8693 30.2949H31.0973C31.2708 30.2949 31.4321 30.3729 31.5397 30.5092L36.7803 37.1438C36.9868 37.4052 37.2882 37.5477 37.6037 37.5477C37.721 37.5477 37.8403 37.528 37.9574 37.4874C38.3891 37.3374 38.6681 36.9452 38.6681 36.4881V30.2345C40.3075 29.9283 41.558 28.4789 41.558 26.7591V12.2002C41.558 10.2506 39.9719 8.66455 38.0222 8.66455ZM40.3422 26.7591C40.3422 28.0217 39.3149 29.062 38.0524 29.0781C37.7197 29.0824 37.4522 29.3533 37.4522 29.686V36.033L32.4938 29.7555C32.1543 29.3256 31.6452 29.079 31.0973 29.079H14.8693C13.5901 29.079 12.5493 28.0382 12.5493 26.759V12.2002C12.5493 10.921 13.59 9.88029 14.8693 9.88029H38.0222C39.3014 9.88029 40.3422 10.921 40.3422 12.2002V26.7591Z" fill="inherit"/>
        <path d="M9.01416 18.7162C8.59835 18.7753 8.22599 18.9893 7.96564 19.3189L3.78962 24.6058V19.3071C3.78962 18.9744 3.52214 18.7035 3.18949 18.6992C2.13327 18.6858 1.27393 17.8155 1.27393 16.7592V4.08539C1.27393 3.01522 2.14462 2.14453 3.21478 2.14453H23.3701C24.4402 2.14453 25.3109 3.01522 25.3109 4.08539V6.43046C25.3109 6.76619 25.5831 7.03837 25.9188 7.03837C26.2546 7.03837 26.5268 6.76619 26.5268 6.43046V4.08539C26.5268 2.34482 25.1107 0.928711 23.3701 0.928711H3.21478C1.47421 0.928711 0.0581055 2.34482 0.0581055 4.08539V16.7592C0.0581055 18.2722 1.14189 19.5505 2.57388 19.8493V25.2286C2.57388 25.6604 2.83747 26.0311 3.2455 26.1728C3.35614 26.2112 3.46881 26.2298 3.57969 26.2298C3.87773 26.2298 4.16263 26.0951 4.35773 25.8482L8.91982 20.0725C8.98563 19.9891 9.0799 19.935 9.18511 19.92C9.51751 19.8728 9.74876 19.565 9.70151 19.2326C9.65433 18.9002 9.34705 18.6688 9.01416 18.7162Z" fill="inherit"/>
    </symbol>
    <symbol id="heart" viewBox="0 0 18 16" xmlns="http://www.w3.org/2000/svg">
        <path d="M16.6867 1.63928C15.7989 0.631914 14.5673 0.0771484 13.2188 0.0771484C11.3221 0.0771484 10.1214 1.20988 9.44807 2.16016C9.27337 2.40674 9.12477 2.654 9 2.88666C8.87523 2.654 8.72666 2.40674 8.55193 2.16016C7.87862 1.20988 6.67786 0.0771484 4.78125 0.0771484C3.43273 0.0771484 2.2011 0.631949 1.31326 1.63932C0.466418 2.60028 0 3.88728 0 5.26322C0 6.76098 0.584754 8.15405 1.84025 9.64721C2.96234 10.9817 4.57661 12.3573 6.4459 13.9502C7.14245 14.5438 7.86277 15.1576 8.62963 15.8286L8.65266 15.8488C8.75208 15.9358 8.87604 15.9793 9 15.9793C9.12396 15.9793 9.24792 15.9358 9.34734 15.8488L9.37037 15.8286C10.1372 15.1576 10.8576 14.5438 11.5542 13.9502C13.4234 12.3574 15.0377 10.9818 16.1597 9.64721C17.4152 8.15401 18 6.76098 18 5.26322C18 3.88728 17.5336 2.60028 16.6867 1.63928ZM10.8701 13.1475C10.2696 13.6591 9.65162 14.1857 9 14.7522C8.34841 14.1858 7.7304 13.6592 7.12983 13.1474C3.4715 10.03 1.05469 7.9705 1.05469 5.26322C1.05469 4.1442 1.42752 3.10484 2.10452 2.33664C2.7893 1.55972 3.73989 1.13184 4.78125 1.13184C6.22719 1.13184 7.16189 2.02262 7.69134 2.76991C8.16627 3.44012 8.41409 4.11576 8.4986 4.37511C8.5693 4.5922 8.7717 4.73911 9 4.73911C9.2283 4.73911 9.4307 4.5922 9.5014 4.37511C9.58591 4.11576 9.83373 3.44012 10.3087 2.76987C10.8381 2.02262 11.7728 1.13184 13.2188 1.13184C14.2601 1.13184 15.2107 1.55972 15.8954 2.33664C16.5725 3.10484 16.9453 4.1442 16.9453 5.26322C16.9453 7.9705 14.5285 10.03 10.8701 13.1475Z" fill="inherit"/>
    </symbol>
    <symbol id="diamond" viewBox="0 0 18 19" xmlns="http://www.w3.org/2000/svg">
        <g clip-path="url(#clip0)">
        <path d="M9.00015 17.2783C9.1104 17.2783 9.2154 17.2296 9.2874 17.1448L17.9124 6.90057C18.0121 6.78207 18.0286 6.61407 17.9544 6.47907L14.9304 0.97332C14.8644 0.85332 14.7384 0.77832 14.6019 0.77832H3.3984C3.26115 0.77832 3.13515 0.85332 3.0699 0.97332L0.0466499 6.47907C-0.0283508 6.61482 -0.0111008 6.78207 0.0886497 6.90057L8.71365 17.1448C8.7849 17.2296 8.8899 17.2783 9.00015 17.2783ZM17.1721 6.61407L9.00015 16.3213L0.82815 6.61407L3.6204 1.52832H14.3799L17.1721 6.61407Z" fill="inherit"/>
        <path d="M0.562498 7.15332H17.4375C17.6445 7.15332 17.8125 6.98532 17.8125 6.77832C17.8125 6.57132 17.6445 6.40332 17.4375 6.40332H0.562498C0.355499 6.40332 0.187498 6.57132 0.187498 6.77832C0.187498 6.98532 0.355499 7.15332 0.562498 7.15332Z" fill="inherit"/>
        <path d="M5.20346 6.94257C5.32121 6.94257 5.43746 6.88707 5.51021 6.78282L8.99846 1.80807L12.4425 6.75657C12.5595 6.92682 12.7942 6.96807 12.9637 6.85032C13.1347 6.73182 13.176 6.49857 13.0575 6.32832L9.30746 0.93882C9.23771 0.83832 9.12296 0.77832 9.00071 0.77832H8.99996C8.87771 0.77832 8.76371 0.83757 8.69321 0.93807L4.89671 6.35232C4.77746 6.52257 4.8187 6.75582 4.9882 6.87432C5.0527 6.92007 5.12846 6.94257 5.20346 6.94257Z" fill="inherit"/>
        <path d="M8.99998 17.2784C9.15898 17.2784 9.29998 17.1787 9.35323 17.0294L14.955 1.27944C15.024 1.08369 14.922 0.869192 14.7277 0.800192C14.5312 0.728192 14.3175 0.832442 14.2485 1.02744L8.99998 15.7844L3.75148 1.02744C3.68248 0.833192 3.46873 0.729692 3.27223 0.800192C3.07724 0.869192 2.97523 1.08369 3.04498 1.27944L8.64673 17.0294C8.69998 17.1787 8.84098 17.2784 8.99998 17.2784Z" fill="inherit"/>
        </g>
        <defs>
        <clipPath id="clip0">
        <rect width="18" height="18" fill="white" transform="matrix(-1 0 0 1 18 0.0283203)"/>
        </clipPath>
        </defs>
    </symbol>
    <symbol id="star" viewBox="0 0 22 20" xmlns="http://www.w3.org/2000/svg">
        <path d="M11 1.67468L12.9941 7.81196L13.1064 8.15745H13.4697H19.9228L14.7021 11.9505L14.4082 12.164L14.5205 12.5095L16.5146 18.6468L11.2939 14.8538L11 14.6402L10.7061 14.8538L5.48542 18.6468L7.47954 12.5095L7.5918 12.164L7.29791 11.9505L2.07722 8.15745H8.53035H8.89362L9.00587 7.81196L11 1.67468Z" stroke="inherit"/>
    </symbol>
    <symbol id="close" viewBox="0 0 19 19" xmlns="http://www.w3.org/2000/svg">
        <g clip-path="url(#clip0)">
        <path d="M8.45082 9.501L0.217865 1.26801C-0.0719967 0.978148 -0.0719967 0.508196 0.217865 0.218372C0.507725 -0.0714515 0.977678 -0.0714886 1.2675 0.218372L9.5005 8.45137L17.7335 0.218372C18.0233 -0.0714886 18.4933 -0.0714886 18.7831 0.218372C19.0729 0.508233 19.073 0.978185 18.7831 1.26801L10.5501 9.50097L18.7831 17.734C19.073 18.0238 19.073 18.4938 18.7831 18.7836C18.6382 18.9285 18.4482 19.0009 18.2583 19.0009C18.0683 19.0009 17.8784 18.9285 17.7334 18.7836L9.5005 10.5506L1.26754 18.7836C1.12263 18.9285 0.932665 19.0009 0.742702 19.0009C0.552738 19.0009 0.362814 18.9285 0.217865 18.7836C-0.0719967 18.4937 -0.0719967 18.0238 0.217865 17.734L8.45082 9.501Z" fill="inherit"/>
        </g>
        <defs>
        <clipPath id="clip0">
        <rect width="19" height="19" fill="inherit" transform="matrix(-1 0 0 1 19 0)"/>
        </clipPath>
        </defs>
    </symbol>    
</svg>