<svg width="223" height="61" viewBox="0 0 223 61" fill="none" xmlns="http://www.w3.org/2000/svg">
<g clip-path="url(#clip0)">
<path d="M216.798 1.63794H166.891C164.354 1.63794 162.325 4.05293 162.325 7.05085V36.7802C162.325 39.7781 164.354 42.1931 166.891 42.1931H172.347C172.306 42.5679 172.306 42.901 172.263 43.1508C171.797 47.4394 170.572 50.5623 170.572 50.5623C170.572 50.5623 174.081 49.7711 177.465 46.2319C178.691 44.9411 179.368 43.4006 179.749 42.1931H216.798C219.335 42.1931 221.366 39.7781 221.366 36.7802V7.05085C221.366 4.05293 219.335 1.63794 216.798 1.63794Z" fill="white"/>
<path d="M170.563 51.1874C170.394 51.1874 170.225 51.1041 170.098 50.9792C169.929 50.8126 169.887 50.5628 169.972 50.3547C169.972 50.3129 171.156 47.2734 171.622 43.1097C171.622 43.0263 171.622 42.9432 171.663 42.8183H166.885C164.008 42.8183 161.682 40.1117 161.682 36.7808V7.05138C161.682 3.72037 164.008 1.01392 166.885 1.01392H216.789C219.666 1.01392 221.992 3.72037 221.992 7.05138V36.7808C221.992 40.1117 219.666 42.8183 216.789 42.8183H180.206C179.784 43.9424 179.107 45.3998 177.922 46.6488C174.454 50.2713 170.86 51.1457 170.732 51.1457C170.648 51.1874 170.606 51.1874 170.563 51.1874ZM166.885 2.26305C164.727 2.26305 162.951 4.38657 162.951 7.05138V36.7808C162.951 39.4038 164.727 41.569 166.885 41.569H172.34C172.509 41.569 172.678 41.6523 172.806 41.7773C172.932 41.9022 172.975 42.0687 172.975 42.2353C172.932 42.61 172.932 42.9432 172.89 43.2346C172.594 45.9827 172.001 48.2311 171.579 49.5635C172.847 49.0638 174.962 47.9397 176.992 45.8161C178.176 44.567 178.81 43.0681 179.15 42.0271C179.234 41.7773 179.488 41.569 179.741 41.569H216.789C218.946 41.569 220.723 39.4456 220.723 36.7808V7.05138C220.723 4.42821 218.946 2.26305 216.789 2.26305H166.885Z" fill="#575966"/>
<path d="M217.256 1.30493H167.35C164.812 1.30493 162.782 3.71992 162.782 6.71784V36.4472C162.782 39.445 164.812 41.86 167.35 41.86H172.806C172.764 42.2348 172.764 42.5679 172.721 42.8177C172.256 47.1065 171.03 50.2292 171.03 50.2292C171.03 50.2292 174.54 49.4382 177.924 45.899C179.149 44.6082 179.827 43.0675 180.208 41.86H217.256C219.794 41.86 221.823 39.445 221.823 36.4472V6.67621C221.823 3.71992 219.751 1.30493 217.256 1.30493Z" fill="white"/>
<path d="M170.995 50.5206C170.911 50.5206 170.825 50.4789 170.741 50.3957C170.656 50.3124 170.656 50.1875 170.699 50.0626C170.699 50.021 171.925 46.9397 172.39 42.7343C172.39 42.5678 172.433 42.3595 172.433 42.1097H167.315C164.609 42.1097 162.409 39.5282 162.409 36.4054V6.67604C162.409 3.51157 164.609 0.97168 167.315 0.97168H217.221C219.928 0.97168 222.127 3.55322 222.127 6.67604V36.4054C222.127 39.5698 219.928 42.1097 217.221 42.1097H180.384C180.003 43.234 179.327 44.733 178.1 46.0238C174.717 49.6045 171.206 50.3957 171.037 50.4373C171.037 50.5206 171.037 50.5206 170.995 50.5206ZM167.315 1.59625C164.99 1.59625 163.044 3.88632 163.044 6.67604V36.4054C163.044 39.1951 164.947 41.4852 167.315 41.4852H172.771C172.856 41.4852 172.94 41.5268 172.983 41.5685C173.025 41.6517 173.067 41.735 173.067 41.8183C173.025 42.193 173.025 42.5262 172.983 42.776C172.644 45.982 171.84 48.5635 171.502 49.6461C172.602 49.2714 175.181 48.1472 177.634 45.5657C178.861 44.2749 179.539 42.7343 179.877 41.6517C179.918 41.5268 180.046 41.4436 180.173 41.4436H217.221C219.547 41.4436 221.493 39.1535 221.493 36.3638V6.67604C221.493 3.88632 219.59 1.59625 217.221 1.59625H167.315Z" fill="#575966"/>
<path d="M185.835 20.9164L191.714 15.1287L197.592 9.341C197.592 9.341 204.613 3.67827 210.45 9.46592C216.328 15.2536 210.45 21.9989 210.45 21.9989L204.571 27.7865L198.692 33.5742C198.692 33.5742 191.672 39.2369 185.835 33.4493C179.957 27.7033 185.835 20.9164 185.835 20.9164Z" fill="#90CC3D"/>
<path d="M185.497 34.0735L185.37 33.9486C183.551 32.1583 182.536 29.7433 182.536 27.2034C182.536 24.6634 183.551 22.29 185.37 20.458L197.085 8.92434C200.848 5.21858 206.981 5.21858 210.746 8.92434L210.872 9.04925C214.637 12.755 214.637 18.7924 210.872 22.4983L199.157 34.0319C197.254 35.9057 194.801 36.8216 192.306 36.8216C189.853 36.8632 187.4 35.9057 185.497 34.0735ZM209.857 9.84038C206.6 6.63427 201.272 6.63427 198.015 9.84038L186.3 21.3741C184.735 22.9146 183.847 24.9966 183.847 27.2034C183.847 29.4101 184.735 31.4504 186.3 33.0326L186.426 33.1575C189.683 36.3636 195.013 36.3636 198.269 33.1575L209.984 21.6239C213.24 18.4177 213.24 13.1714 209.984 9.96529L209.857 9.84038Z" fill="#575966"/>
<path d="M186.593 9.71584C186.593 9.71584 179.699 3.9282 173.862 9.71584C168.026 15.5035 173.735 22.3737 173.735 22.3737L179.613 28.1614L192.471 15.4619L186.593 9.71584Z" fill="#D0FF94"/>
<path d="M185.453 33.9486C185.453 33.9486 192.348 39.6947 198.395 33.7405C204.443 27.7863 198.733 20.8327 198.733 20.8327L192.855 15.0452L179.533 28.161L185.453 33.9486Z" fill="#50C433"/>
<path d="M185.497 34.0648L173.782 22.5311C170.017 18.8253 170.017 12.7879 173.782 9.08212L173.909 8.95721C175.727 7.16678 178.18 6.16748 180.76 6.16748C183.341 6.16748 185.751 7.16678 187.612 8.95721L199.327 20.4909C201.146 22.2813 202.16 24.6963 202.16 27.2362C202.16 29.776 201.146 32.1494 199.327 33.9815L199.2 34.1064C197.297 35.9801 194.844 36.8961 192.348 36.8961C189.853 36.8961 187.4 35.8968 185.497 34.0648ZM174.839 9.8316L174.713 9.95652C171.456 13.1626 171.456 18.409 174.713 21.6151L186.428 33.1487C189.684 36.3549 195.013 36.3549 198.269 33.1487L198.396 33.0238C199.962 31.4833 200.849 29.4013 200.849 27.1945C200.849 24.9877 199.962 22.9475 198.396 21.3652L186.681 9.8316C185.116 8.291 183.001 7.41661 180.76 7.41661C178.519 7.41661 176.404 8.291 174.839 9.8316Z" fill="#575966"/>
<path d="M191.676 14.7061L178.787 27.3956L179.713 28.3083L192.603 15.6187L191.676 14.7061Z" fill="#575966"/>
<path d="M21.5271 37.3632L12.6033 49.563C12.3918 49.8962 12.0958 49.9795 11.7997 49.9795H11.7151C11.3768 49.9795 11.0807 49.8546 10.8693 49.563L1.94547 37.4048V59.9725C1.94547 60.4721 1.52255 60.9302 0.972737 60.9302C0.422929 60.9302 0 60.5138 0 60.0142V34.5318C0 34.1988 0.169171 33.949 0.380636 33.7823C0.380636 33.7407 0.422929 33.7407 0.465222 33.699C0.888151 33.4076 1.52255 33.4909 1.8186 33.949L11.7574 47.4812L21.654 33.949C21.95 33.5325 22.5844 33.4492 23.0074 33.699C23.1342 33.8241 23.2189 33.9072 23.3034 34.0322C23.388 34.1988 23.4726 34.3653 23.4726 34.5318V59.9725C23.4726 60.4721 23.0496 60.9302 22.4999 60.9302C21.95 60.9302 21.5271 60.5138 21.5271 59.9725V37.3632Z" fill="white"/>
<path d="M31.8442 51.3531C31.8442 46.0235 36.0736 41.6931 41.3602 41.6931C46.393 41.6931 50.3686 45.6072 50.7915 50.6453V50.6868V50.8118C50.7915 51.3115 50.3686 51.6863 49.8187 51.6863H33.7475C33.9589 55.8916 37.3001 59.056 41.3179 59.056C43.8977 59.056 46.3085 57.7236 47.6195 55.5586C47.9156 55.1005 48.5077 55.0172 48.8884 55.2254C49.3112 55.5586 49.4804 56.0998 49.2266 56.5578C47.535 59.1809 44.659 60.9298 41.3179 60.9298C36.0736 60.9298 31.8442 56.5994 31.8442 51.3531ZM33.8744 49.8125H48.6769C48.0425 46.19 44.9127 43.5669 41.3179 43.5669C37.6384 43.5669 34.5934 46.1484 33.8744 49.8125Z" fill="white"/>
<path d="M73.1685 57.2242C71.4345 59.5143 68.7277 60.9716 65.6826 60.9716C60.396 60.9716 56.209 56.6412 56.209 51.3949C56.209 46.0653 60.396 41.7349 65.6826 41.7349C68.77 41.7349 71.4767 43.234 73.1685 45.5239V34.365C73.1685 33.8654 73.5915 33.4075 74.1835 33.4075C74.6911 33.4075 75.1562 33.8238 75.1562 34.365V50.9369V51.3116V59.9723C75.1562 60.472 74.7334 60.9299 74.1835 60.9299C73.6337 60.9299 73.1685 60.5136 73.1685 59.9723V57.2242ZM73.1685 51.6863V51.0618C72.9994 46.9397 69.7005 43.6503 65.6826 43.6503C61.5802 43.6503 58.1969 47.1062 58.1969 51.3949C58.1969 55.642 61.5802 59.0562 65.6826 59.0562C69.7005 59.0147 72.9994 55.7669 73.1685 51.6863Z" fill="white"/>
<path d="M83.9121 36.3637C83.9121 35.8641 84.335 35.406 84.8849 35.406C85.4346 35.406 85.8999 35.8225 85.8999 36.3637V37.2798C85.8999 37.821 85.4768 38.3206 84.8849 38.3206C84.3774 38.3206 83.9121 37.8627 83.9121 37.2798V36.3637ZM83.9121 42.651C83.9121 42.1098 84.335 41.6933 84.8849 41.6933C85.4346 41.6933 85.8999 42.0681 85.8999 42.651V60.0139C85.8999 60.5135 85.4768 60.9716 84.8849 60.9716C84.3774 60.9716 83.9121 60.5553 83.9121 60.0139V42.651Z" fill="white"/>
<path d="M93.6782 51.2698C93.6782 45.9402 98.1612 41.6931 103.744 41.6931C106.07 41.6931 108.269 42.4843 109.961 43.8167C110.342 44.1081 110.426 44.6911 110.088 45.1074C109.749 45.4405 109.2 45.5654 108.777 45.274C107.381 44.1914 105.605 43.5252 103.744 43.5252C99.1763 43.5252 95.6237 47.0228 95.6237 51.2698C95.6237 55.6002 99.2186 59.056 103.744 59.056C105.605 59.056 107.381 58.4315 108.777 57.3489C109.2 57.0159 109.792 57.1408 110.088 57.5155C110.426 57.9318 110.384 58.5564 109.876 58.8895C108.227 60.1386 106.028 60.9298 103.744 60.9298C98.119 60.9298 93.6782 56.6828 93.6782 51.2698Z" fill="#99D158"/>
<path d="M118.129 34.365C118.129 33.8654 118.552 33.4075 119.102 33.4075C119.651 33.4075 120.117 33.8238 120.117 34.365V59.9723C120.117 60.472 119.694 60.93 119.102 60.93C118.594 60.93 118.129 60.5136 118.129 59.9723V34.365Z" fill="#99D158"/>
<path d="M127.81 36.3637C127.81 35.8641 128.232 35.406 128.782 35.406C129.332 35.406 129.797 35.8225 129.797 36.3637V37.2798C129.797 37.821 129.374 38.3206 128.782 38.3206C128.275 38.3206 127.81 37.8627 127.81 37.2798V36.3637ZM127.81 42.651C127.81 42.1098 128.232 41.6933 128.782 41.6933C129.332 41.6933 129.797 42.0681 129.797 42.651V60.0139C129.797 60.5135 129.374 60.9716 128.782 60.9716C128.275 60.9716 127.81 60.5553 127.81 60.0139V42.651Z" fill="#99D158"/>
<path d="M138.217 59.4309L144.18 51.3948L138.217 43.317C137.921 42.859 138.005 42.2762 138.428 41.9846C138.809 41.6932 139.486 41.7764 139.739 42.2344L145.406 49.8126L151.032 42.1929C151.37 41.7764 151.962 41.6932 152.301 41.943C152.765 42.2762 152.851 42.8174 152.596 43.2754L146.59 51.3531L152.596 59.3893C152.892 59.8056 152.808 60.3885 152.301 60.6799C152.173 60.8049 151.962 60.8882 151.836 60.8882C151.496 60.8882 151.201 60.7633 151.032 60.5134L145.406 52.9353L139.739 60.5134C139.571 60.8049 139.274 60.8882 138.978 60.8882C138.809 60.8882 138.64 60.8049 138.428 60.6799C138.048 60.4301 137.963 59.8889 138.217 59.4309Z" fill="#99D158"/>
</g>
<defs>
<clipPath id="clip0">
<rect width="223" height="60" fill="white" transform="translate(0 0.97168)"/>
</clipPath>
</defs>
</svg>
