<svg width="76" height="76" viewBox="0 0 76 76" fill="none" xmlns="http://www.w3.org/2000/svg">
<path d="M46.0156 28.2031C45.1963 28.2031 44.5312 28.8681 44.5312 29.6875C44.5312 30.5069 45.1963 31.1719 46.0156 31.1719C46.835 31.1719 47.5 30.5069 47.5 29.6875C47.5 28.8681 46.835 28.2031 46.0156 28.2031Z" fill="#6DC433"/>
<path d="M74.2605 65.8645L54.447 46.0511C57.6748 41.1892 59.375 35.5589 59.375 29.6875C59.375 13.3178 46.0572 0 29.6875 0C13.3178 0 0 13.3178 0 29.6875C0 46.0572 13.3178 59.375 29.6875 59.375C35.5591 59.375 41.1893 57.6746 46.0511 54.4472L51.5277 59.9238C51.5284 59.9245 51.5292 59.9253 51.5301 59.9262L65.8644 74.2605C66.9863 75.3822 68.477 76 70.0625 76C71.648 76 73.1387 75.3822 74.26 74.2609C75.3821 73.1398 76 71.6488 76 70.0625C76 68.4762 75.3821 66.9852 74.2605 65.8645ZM45.353 51.3189C45.353 51.319 45.3529 51.319 45.3527 51.3191C40.7709 54.6471 35.3541 56.4062 29.6875 56.4062C14.9548 56.4062 2.96875 44.4202 2.96875 29.6875C2.96875 14.9548 14.9548 2.96875 29.6875 2.96875C44.4202 2.96875 56.4062 14.9548 56.4062 29.6875C56.4062 35.3541 54.6471 40.7709 51.319 45.3529C49.654 47.6467 47.6468 49.654 45.353 51.3189ZM48.4672 52.6646C50.0035 51.4078 51.4079 50.0034 52.6646 48.4672L56.8759 52.6785C55.5952 54.1901 54.1901 55.5953 52.6785 56.8759L48.4672 52.6646ZM72.1613 72.1613C71.6002 72.7224 70.8549 73.0312 70.0625 73.0312C69.2701 73.0312 68.5248 72.7224 67.9637 72.1613L54.7832 58.9808C56.2865 57.6907 57.6907 56.2866 58.9806 54.7834L72.1616 67.9643C72.7224 68.5245 73.0312 69.2695 73.0312 70.0625C73.0312 70.8555 72.7224 71.6005 72.1613 72.1613Z" fill="#6DC433"/>
<path d="M29.6875 5.9375C16.5916 5.9375 5.9375 16.5916 5.9375 29.6875C5.9375 42.7834 16.5916 53.4375 29.6875 53.4375C42.7834 53.4375 53.4375 42.7834 53.4375 29.6875C53.4375 16.5916 42.7834 5.9375 29.6875 5.9375ZM29.6875 50.4688C18.2287 50.4688 8.90625 41.1463 8.90625 29.6875C8.90625 18.2287 18.2287 8.90625 29.6875 8.90625C41.1463 8.90625 50.4688 18.2287 50.4688 29.6875C50.4688 41.1463 41.1463 50.4688 29.6875 50.4688Z" fill="#6DC433"/>
<path d="M46.3222 23.3155C45.044 19.9887 42.8184 17.1444 39.8859 15.0902C36.8836 12.9868 33.357 11.875 29.6875 11.875C28.8678 11.875 28.2031 12.5397 28.2031 13.3594C28.2031 14.179 28.8678 14.8438 29.6875 14.8438C35.7881 14.8438 41.3593 18.6761 43.551 24.3804C43.7778 24.9706 44.3402 25.3328 44.9369 25.3328C45.1139 25.3328 45.2939 25.3009 45.4689 25.2336C46.2341 24.9396 46.6162 24.0809 46.3222 23.3155Z" fill="#6DC433"/>
</svg>
