<svg width="18" height="22" viewBox="0 0 18 22" fill="none" xmlns="http://www.w3.org/2000/svg">
<path d="M9 21.4144C8.90035 21.4149 8.80161 21.3955 8.70958 21.3573C8.61755 21.3191 8.53407 21.2629 8.46405 21.192L2.63933 15.3672C1.37973 14.1089 0.521637 12.5053 0.173617 10.7592C-0.174403 9.01315 0.00328387 7.20307 0.684199 5.55799C1.36511 3.91292 2.51866 2.50676 3.9989 1.51742C5.47915 0.528075 7.21957 0 9 0C10.7804 0 12.5209 0.528075 14.0011 1.51742C15.4813 2.50676 16.6349 3.91292 17.3158 5.55799C17.9967 7.20307 18.1744 9.01315 17.8264 10.7592C17.4784 12.5053 16.6203 14.1089 15.3607 15.3672L9.53595 21.192C9.46593 21.2629 9.38245 21.3191 9.29042 21.3573C9.19839 21.3955 9.09965 21.4149 9 21.4144ZM9 1.52343C7.52074 1.52446 6.07496 1.9639 4.84533 2.78623C3.61569 3.60856 2.65737 4.77688 2.09142 6.1436C1.52547 7.51032 1.37729 9.01412 1.66559 10.465C1.9539 11.9159 2.66576 13.2488 3.71124 14.2953L9 19.5841L14.2888 14.2953C15.3342 13.2488 16.0461 11.9159 16.3344 10.465C16.6227 9.01412 16.4745 7.51032 15.9086 6.1436C15.3426 4.77688 14.3843 3.60856 13.1547 2.78623C11.925 1.9639 10.4793 1.52446 9 1.52343Z" fill="#C4C4C4"/>
<path d="M9.00014 12.3437C8.25013 12.3437 7.51696 12.1213 6.89335 11.7046C6.26973 11.2879 5.78369 10.6956 5.49667 10.0027C5.20965 9.3098 5.13455 8.54733 5.28087 7.81173C5.42719 7.07612 5.78836 6.40043 6.3187 5.87009C6.84904 5.33975 7.52473 4.97859 8.26033 4.83227C8.99594 4.68595 9.75841 4.76104 10.4513 5.04806C11.1443 5.33508 11.7365 5.82112 12.1532 6.44474C12.5699 7.06835 12.7923 7.80152 12.7923 8.55153C12.7923 9.55727 12.3927 10.5218 11.6816 11.233C10.9704 11.9441 10.0059 12.3437 9.00014 12.3437ZM9.00014 6.27625C8.55014 6.27625 8.11023 6.4097 7.73606 6.65971C7.3619 6.90972 7.07027 7.26507 6.89806 7.68082C6.72585 8.09658 6.68079 8.55406 6.76858 8.99542C6.85637 9.43678 7.07307 9.8422 7.39128 10.1604C7.70948 10.4786 8.1149 10.6953 8.55626 10.7831C8.99762 10.8709 9.4551 10.8258 9.87085 10.6536C10.2866 10.4814 10.642 10.1898 10.892 9.81561C11.142 9.44144 11.2754 9.00154 11.2754 8.55153C11.2754 7.94809 11.0357 7.36937 10.609 6.94267C10.1823 6.51597 9.60358 6.27625 9.00014 6.27625Z" fill="#C4C4C4"/>
</svg>
