<svg width="79" height="79" viewBox="0 0 79 79" fill="none" xmlns="http://www.w3.org/2000/svg">
<g clip-path="url(#clip0)">
<path d="M19.3945 19.4405C18.5428 19.4405 17.8516 20.1317 17.8516 20.9835C17.8516 21.8352 18.5428 22.5264 19.3945 22.5264C20.2462 22.5264 20.9375 21.8352 20.9375 20.9835C20.9375 20.1317 20.2462 19.4405 19.3945 19.4405Z" fill="#6DC433"/>
<path d="M33.2805 48.2924H28.6519V43.6638C28.6519 42.8118 27.9609 42.1208 27.1089 42.1208C26.2569 42.1208 25.5661 42.8118 25.5661 43.6638V48.2924H20.9375C20.0855 48.2924 19.3945 48.9834 19.3945 49.8352C19.3945 50.6871 20.0855 51.3782 20.9375 51.3782H25.5661V56.0068C25.5661 56.8588 26.257 57.5498 27.1089 57.5498C27.9608 57.5498 28.6519 56.8588 28.6519 56.0068V51.3782H33.2805C34.1325 51.3782 34.8234 50.6873 34.8234 49.8352C34.8234 48.9832 34.1327 48.2924 33.2805 48.2924Z" fill="#6DC433"/>
<path d="M74.9229 49.6811C71.5122 43.7737 63.9708 41.752 58.0623 45.1635L51.7951 48.7817V35.3832C51.7951 33.7268 51.2473 32.0831 50.2522 30.7546L42.5379 20.469V16.0892C44.3336 15.4522 45.6236 13.7374 45.6236 11.7258V4.6286C45.6233 2.07637 43.547 0 40.9947 0H13.2227C10.6705 0 8.59393 2.07637 8.59393 4.6286V11.7259C8.59393 13.7372 9.88401 15.4524 11.6797 16.0893V20.4692L3.96471 30.7554C2.97012 32.0833 2.42236 33.7268 2.42236 35.3832V65.2643C2.42236 69.5182 5.88309 72.9787 10.1367 72.9787H34.9326C38.392 78.7777 45.8517 80.7184 51.6991 77.3421L70.4054 66.5418C76.2617 63.1599 78.3508 55.6208 74.9229 49.6811ZM11.6797 4.6286C11.6797 3.7778 12.3719 3.08563 13.2225 3.08563H40.9946C41.8454 3.08563 42.5375 3.7778 42.5375 4.6286V11.7259C42.5375 12.5767 41.8454 13.2688 40.9946 13.2688H13.2227C12.3719 13.2688 11.6799 12.5766 11.6799 11.7259V4.6286H11.6797ZM6.43408 32.6059L14.4569 21.9091C14.6572 21.6421 14.7655 21.3172 14.7655 20.9833V16.3547H39.4518V19.4405H25.5658C24.7138 19.4405 24.0228 20.1314 24.0228 20.9834C24.0228 21.8355 24.7138 22.5264 25.5658 22.5264H40.2232L47.7827 32.6054C48.2768 33.265 48.5837 34.0542 48.6764 34.8696H5.54101C5.63359 34.0541 5.94049 33.2649 6.43408 32.6059ZM10.1369 69.8929C7.58467 69.8929 5.5083 67.8166 5.5083 65.2643V63.7061H33.5402C33.0509 65.7066 33.0541 67.8433 33.6144 69.8931H10.1369V69.8929ZM34.7503 60.6356H5.50815V37.955H48.7091V50.5631L39.3558 55.9638C37.4056 57.0903 35.8293 58.6939 34.7503 60.6356ZM50.1564 74.6697C45.7286 77.2265 40.0705 75.7144 37.5119 71.2835C34.9412 66.8098 36.4991 61.1773 40.8991 58.6359L49.2738 53.8005L58.5312 69.8343L50.1564 74.6697ZM68.8624 63.8695L61.2036 68.2915L51.9461 52.2574L59.6051 47.8359C64.0359 45.278 69.6919 46.7927 72.2505 51.2238C74.8203 55.6771 73.2576 61.3315 68.8624 63.8695Z" fill="#6DC433"/>
</g>
<defs>
<clipPath id="clip0">
<rect width="79" height="79" fill="white"/>
</clipPath>
</defs>
</svg>
