<svg width="75" height="73" viewBox="0 0 75 73" fill="none" xmlns="http://www.w3.org/2000/svg">
<path d="M70.6036 28.5743C69.2812 27.2084 68.6722 25.3466 68.9419 23.4587L69.1855 21.7361C69.9163 16.577 66.4711 11.8268 61.3381 10.9307L59.6242 10.6262C57.7537 10.2956 56.1616 9.14719 55.2742 7.46809L54.4564 5.93689C52.0117 1.33459 46.435 -0.483711 41.7544 1.81309L40.1884 2.56999C38.4832 3.40519 36.517 3.40519 34.8118 2.56999L33.2545 1.80439C28.5739 -0.483711 22.9972 1.32589 20.5525 5.92819L19.7347 7.45939C18.8386 9.13849 17.2552 10.2956 15.3847 10.6175L13.6708 10.922C8.53782 11.8181 5.09262 16.5683 5.82342 21.7274L6.06702 23.45C6.33672 25.3379 5.72772 27.1997 4.40532 28.5656L3.19602 29.8097C-0.431877 33.5507 -0.431877 39.4232 3.19602 43.1642L4.40532 44.417C5.72772 45.7829 6.33672 47.6447 6.06702 49.5326L5.82342 51.2552C5.09262 56.4143 8.53782 61.1645 13.6708 62.0606L15.3847 62.3651C17.2552 62.6957 18.8473 63.8441 19.7347 65.5232L20.5525 67.0544C22.2838 70.3082 25.5724 72.17 29.0176 72.17C30.4357 72.17 31.8886 71.8481 33.2545 71.1782L34.8118 70.43C36.517 69.5948 38.4832 69.5948 40.1884 70.43L41.7457 71.1956C46.4263 73.4837 52.003 71.6741 54.4477 67.0718L55.2655 65.5406C56.1616 63.8615 57.745 62.7044 59.6155 62.3825L61.3294 62.078C66.4624 61.1819 69.9076 56.4317 69.1768 51.2726L68.9332 49.55C68.6635 47.6621 69.2725 45.8003 70.5949 44.4344L71.8042 43.1903C75.4321 39.4493 75.4321 33.5768 71.8042 29.8358L70.6036 28.5743ZM69.3073 40.763L68.098 42.0071C66.0274 44.1473 65.0704 47.0792 65.488 50.0285L65.7316 51.7511C66.2014 55.0397 64.0003 58.0673 60.7291 58.6415L59.0152 58.946C56.0746 59.4593 53.5864 61.2689 52.1944 63.905L51.3766 65.4362C49.8193 68.3681 46.261 69.5339 43.2769 68.0723L41.7196 67.3067C39.04 65.993 35.9602 65.993 33.2806 67.3067L31.7233 68.0723C28.7392 69.5339 25.1809 68.3768 23.6236 65.4362L22.8058 63.905C21.4051 61.2689 18.9169 59.4593 15.985 58.946L14.2711 58.6415C10.9999 58.0673 8.79882 55.0397 9.26862 51.7511L9.51222 50.0285C9.92982 47.0705 8.98152 44.1473 6.90222 42.0071L5.69292 40.7543C3.37872 38.3618 3.37872 34.6295 5.69292 32.237L6.90222 30.9929C8.97282 28.8527 9.92982 25.9208 9.51222 22.9715L9.26862 21.2489C8.79882 17.9603 10.9999 14.9327 14.2711 14.3585L15.985 14.054C18.9256 13.5407 21.4138 11.7311 22.8058 9.09499L23.6236 7.56379C24.7285 5.48449 26.8252 4.30129 29.0176 4.30129C29.9224 4.30129 30.8446 4.50139 31.7233 4.92769L33.2806 5.69329C35.9602 7.00699 39.04 7.00699 41.7196 5.69329L43.2769 4.92769C46.261 3.46609 49.8193 4.62319 51.3766 7.56379L52.1944 9.09499C53.5951 11.7311 56.0833 13.5407 59.0152 14.054L60.7291 14.3585C64.0003 14.9327 66.2014 17.9603 65.7316 21.2489L65.488 22.9715C65.0704 25.9295 66.0187 28.8527 68.098 30.9929L69.3073 32.2457C71.6215 34.6295 71.6215 38.3705 69.3073 40.763Z" fill="#6DC433"/>
<path d="M51.3418 22.6584C50.6632 21.9798 49.5583 21.9798 48.8797 22.6584L23.6584 47.8797C22.9798 48.5583 22.9798 49.6632 23.6584 50.3418C23.9977 50.6811 24.4414 50.8551 24.8851 50.8551C25.3288 50.8551 25.7725 50.6811 26.1118 50.3418L51.3331 25.1205C52.0204 24.4419 52.0204 23.337 51.3418 22.6584Z" fill="#6DC433"/>
<path d="M30.4267 31.8977C32.3233 31.8977 34.2112 31.1756 35.6554 29.7314C38.5351 26.8517 38.5351 22.1537 35.6554 19.274C32.7757 16.3943 28.0777 16.3943 25.198 19.274C23.7973 20.666 23.0317 22.5278 23.0317 24.5027C23.0317 26.4776 23.7973 28.3394 25.198 29.7314C26.6422 31.1756 28.5301 31.8977 30.4267 31.8977ZM27.6601 21.7361C28.4257 20.9705 29.4262 20.5877 30.4267 20.5877C31.4272 20.5877 32.4277 20.9705 33.1933 21.7361C34.7158 23.2586 34.7158 25.7468 33.1933 27.2693C31.6621 28.7918 29.1826 28.7918 27.6601 27.2693C26.9206 26.5298 26.5117 25.5467 26.5117 24.5027C26.5117 23.4587 26.9206 22.4756 27.6601 21.7361Z" fill="#6DC433"/>
<path d="M39.3443 43.2686C36.4646 46.1483 36.4646 50.8463 39.3443 53.726C40.7885 55.1702 42.6764 55.8923 44.573 55.8923C46.4696 55.8923 48.3575 55.1702 49.8017 53.726C51.2024 52.3253 51.968 50.4722 51.968 48.4973C51.968 46.5224 51.2024 44.6606 49.8017 43.2686C46.922 40.3802 42.2327 40.3802 39.3443 43.2686ZM47.3396 51.2639C45.8171 52.7864 43.3289 52.7864 41.8064 51.2639C40.2839 49.7414 40.2839 47.2532 41.8064 45.7307C42.572 44.9651 43.5725 44.5823 44.573 44.5823C45.5735 44.5823 46.574 44.9651 47.3396 45.7307C48.0791 46.4702 48.488 47.4533 48.488 48.4973C48.488 49.5413 48.0791 50.5244 47.3396 51.2639Z" fill="#6DC433"/>
</svg>
