<svg width="202" height="36" viewBox="0 0 202 36" fill="none" xmlns="http://www.w3.org/2000/svg">
<path d="M58.3961 27.9041C58.3652 27.9041 58.3652 27.8732 58.3652 27.8485L58.3343 27.8176L50.5371 9.25773C50.395 8.91174 50.568 8.47925 50.914 8.33715C51.26 8.16416 51.6925 8.33715 51.8346 8.68314L59.0263 25.8344L66.2488 8.68314C66.3662 8.33715 66.7925 8.16416 67.1385 8.33715C67.4845 8.47925 67.6575 8.91174 67.5092 9.25773L59.7182 27.6755C59.6873 27.935 59.5452 28.1636 59.3166 28.2501H59.2857C59.1993 28.281 59.1128 28.3057 59.0263 28.3057C58.9398 28.3057 58.8224 28.3057 58.7668 28.2748C58.7359 28.2748 58.7359 28.2439 58.7359 28.2439C58.5691 28.1883 58.4517 28.0771 58.3961 27.9041Z" fill="#232735"/>
<path d="M72.9399 8.82504C72.9399 8.44815 73.255 8.13306 73.6319 8.13306C74.0335 8.13306 74.3486 8.44815 74.3486 8.82504L74.3671 27.6197C74.3671 27.9966 74.052 28.3117 73.6504 28.3117C73.2736 28.3117 72.9585 27.9966 72.9585 27.6197L72.9399 8.82504Z" fill="#232735"/>
<path d="M88.7503 27.9041C88.7194 27.9041 88.7194 27.8732 88.7194 27.8485L88.6885 27.8176L80.8975 9.25773C80.7554 8.91174 80.9284 8.47925 81.2744 8.33715C81.6204 8.16416 82.0529 8.33715 82.195 8.68314L89.3866 25.8344L96.6092 8.68314C96.7266 8.33715 97.1529 8.16416 97.4989 8.33715C97.8449 8.47925 98.0179 8.91174 97.8696 9.25773L90.0724 27.6755C90.0416 27.935 89.8994 28.1636 89.6708 28.2501H89.64C89.5535 28.281 89.467 28.3057 89.3805 28.3057C89.294 28.3057 89.1766 28.3057 89.121 28.2748C89.0901 28.2748 89.0901 28.2439 89.0901 28.2439C88.9233 28.1883 88.8059 28.0771 88.7503 27.9041Z" fill="#232735"/>
<path d="M103.715 8.85604C103.715 8.47916 104.03 8.16406 104.407 8.16406H104.462H114.762C115.163 8.16406 115.454 8.47916 115.454 8.85604C115.454 9.25764 115.163 9.57273 114.762 9.57273H105.123V17.5428H113.557C113.928 17.5428 114.249 17.8579 114.249 18.2595C114.249 18.6364 113.934 18.9515 113.557 18.9515H105.123V26.8908H114.762C115.163 26.8908 115.454 27.2059 115.454 27.6136C115.454 27.9905 115.163 28.3056 114.762 28.3056H104.493H104.407H104.351C104.005 28.2747 103.721 27.9905 103.721 27.6136V8.85604H103.715Z" fill="#232735"/>
<path d="M122.244 11.1294V27.6196C122.244 27.9964 121.928 28.3115 121.552 28.3115C121.175 28.3115 120.86 27.9964 120.86 27.6196V9.13995C120.773 8.84956 120.86 8.56536 121.119 8.36147C121.434 8.15758 121.898 8.21937 122.095 8.53447L134.298 25.4509V9.05963C134.298 8.68275 134.613 8.36765 134.99 8.36765C135.391 8.36765 135.706 8.68275 135.706 9.05963V27.6196C135.706 27.9964 135.391 28.3115 134.99 28.3115C134.761 28.3115 134.588 28.225 134.446 28.052C134.415 28.0212 134.359 27.9964 134.328 27.9347L122.244 11.1294Z" fill="#232735"/>
<path d="M148.168 9.57273H142.095C141.718 9.57273 141.403 9.25764 141.403 8.85604C141.403 8.47916 141.718 8.16406 142.095 8.16406H155.619C155.996 8.16406 156.311 8.47916 156.311 8.85604C156.311 9.25764 155.996 9.57273 155.619 9.57273H149.546V27.6136C149.546 27.9905 149.231 28.3056 148.854 28.3056C148.477 28.3056 148.162 27.9905 148.162 27.6136V9.57273H148.168Z" fill="#232735"/>
<path d="M161.637 8.85604C161.637 8.47916 161.952 8.16406 162.329 8.16406C162.731 8.16406 163.046 8.47916 163.046 8.85604V20.1625C163.046 23.8757 166.067 26.866 169.749 26.8969C173.487 26.866 176.508 23.8757 176.508 20.1625V8.85604C176.508 8.47916 176.823 8.16406 177.2 8.16406C177.602 8.16406 177.923 8.47916 177.923 8.85604V20.1625C177.923 24.648 174.272 28.3056 169.749 28.3056C165.288 28.3056 161.637 24.6542 161.637 20.1625V8.85604Z" fill="#232735"/>
<path d="M201.834 8.59625C201.778 8.50975 201.716 8.45415 201.63 8.36765C201.315 8.16376 200.851 8.22555 200.654 8.54065L193.518 18.4632L186.351 8.53447C186.122 8.21937 185.69 8.15758 185.375 8.36147C185.344 8.39236 185.319 8.39236 185.319 8.41708C185.146 8.53447 185.029 8.73218 185.029 8.96078V27.6072C185.029 27.9841 185.344 28.2992 185.745 28.2992C186.122 28.2992 186.437 27.9841 186.437 27.6072V11.0738L192.881 19.9954C193.023 20.224 193.227 20.3105 193.487 20.3105H193.542C193.746 20.3105 193.975 20.224 194.117 19.9954L200.561 11.0491V27.6196C200.561 27.9964 200.851 28.3115 201.253 28.3115C201.63 28.3115 201.945 27.9964 201.945 27.6196V8.97313C201.951 8.85574 201.896 8.71364 201.834 8.59625Z" fill="#232735"/>
<mask id="mask0" mask-type="alpha" maskUnits="userSpaceOnUse" x="0" y="0" width="36" height="36">
<path d="M18 36C27.9411 36 36 27.9411 36 18C36 8.05887 27.9411 0 18 0C8.05887 0 0 8.05887 0 18C0 27.9411 8.05887 36 18 36Z" fill="#C4C4C4"/>
</mask>
<g mask="url(#mask0)">
<path d="M34.0858 34.6143C34.1768 34.3413 36.5347 27.9045 36.5347 27.9045L38.1875 13.3477L30.0903 25.1827L34.0858 34.6143Z" fill="#BDD753"/>
<path d="M26.4663 5.95557C26.5573 6.22851 30.0979 25.1827 30.0979 25.1827L38.1952 13.3477L33.3656 6.22851L26.4663 5.95557Z" fill="#8DC63F"/>
<path d="M30.0904 25.183L16.6709 9.76183L11.6821 -2.3916L26.4664 5.95583L30.0904 25.183Z" fill="#00529B"/>
<path d="M1.97754 5.0459L16.6708 9.76171L30.0904 25.1829L10.2264 17.1084L1.97754 5.0459Z" fill="#00AEEF"/>
<path d="M23.5627 30.8924L10.2266 17.1089L30.0906 25.1834L34.0861 34.615L23.5627 30.8924Z" fill="#008BBF"/>
<path d="M1.97754 5.04602L11.6821 -2.3916L16.6708 9.76183L1.97754 5.04602Z" fill="#8DC63F"/>
<path d="M1.79541 26.8817L10.2263 17.1089L23.5624 30.8924L1.79541 26.8817Z" fill="#DC4326"/>
<path d="M-11.9048 33.4999L1.79527 26.8811L24.563 37.2453L20.0216 41.8474L-11.9048 33.4999Z" fill="#00AEEF"/>
<path d="M23.5624 30.8918L24.5632 37.2453L1.79541 26.8811L23.5624 30.8918Z" fill="#B61C21"/>
<path d="M34.0859 34.6144L24.5633 37.2452L23.5625 30.8918L34.0859 34.6144Z" fill="#8DC63F"/>
<path d="M-9.36485 33.3407L-13.1709 28.5339L1.79537 26.8811L-9.36485 33.3407Z" fill="#87BF40"/>
<path d="M-12.534 12.939C-12.2611 12.939 1.79537 26.8817 1.79537 26.8817L-13.1709 28.5345L-12.534 12.939Z" fill="#005BAB"/>
<path d="M10.2265 17.1089L1.79568 26.8817L-12.5337 12.939L10.2265 17.1089Z" fill="#FDB913"/>
<path d="M1.97764 5.0459L10.2265 17.1084L-12.5337 12.9385L1.97764 5.0459Z" fill="#FFE21E"/>
<path d="M11.6821 -2.3916L26.4664 5.95582L33.3581 6.22118L28.4604 0.33022L11.6821 -2.3916Z" fill="#003067"/>
</g>
</svg>
