<svg width="555" height="455" viewBox="0 0 555 455" fill="none" xmlns="http://www.w3.org/2000/svg">
<path d="M541.022 93.3096C520.19 63.1895 467.7 93.6086 467.7 93.6086C467.7 93.6086 450.266 165.471 439.663 170.815C429.06 176.159 442.575 106.464 442.575 106.464C420.325 112.032 374.928 157.885 374.928 157.885C374.928 157.885 402.554 224.665 390.981 227.243C379.408 229.822 369.515 166.854 369.515 166.854C350.923 180.493 340.134 211.697 340.134 211.697C329.904 259.904 392.288 270.517 392.288 270.517C392.288 270.517 401.359 293.874 396.432 326.124C396.432 326.124 394.938 332.29 394.602 341.969L400.277 339.951C400.202 338.269 400.202 336.625 400.239 334.98V334.943C400.239 334.906 400.239 334.906 400.239 334.868C400.314 333.859 400.426 332.402 400.575 330.646C401.098 326.647 401.397 323.695 401.471 321.639C401.471 321.639 401.471 321.639 401.471 321.602C402.89 309.083 405.429 292.566 409.386 287.857C409.386 287.857 408.453 287.184 407.258 285.69C407.93 286.4 408.639 287.11 409.386 287.857C426.484 305.234 476.249 291.407 501.337 276.235C526.387 261.063 511.902 257.625 492.937 250.412C473.972 243.2 444.628 257.326 433.876 255.682C423.125 254.037 434.586 244.471 453.103 239.463C471.62 234.418 487.038 249.254 517.166 241.668C547.331 234.119 550.019 171.413 550.019 171.413C532.136 184.828 492.116 186.547 488.27 180.082C484.425 173.617 538.035 155.344 545.614 150.299C553.23 145.254 561.891 123.43 541.022 93.3096Z" fill="#CDE0FB" fill-opacity="0.25"/>
<g clip-path="url(#clip0)">
<g opacity="0.2">
<path opacity="0.2" d="M284.214 208.028C286.144 196.845 285.565 188.362 285.565 188.362C285.565 188.362 282.864 192.025 268.586 198.002L276.496 175.059L277.654 171.782C278.04 171.782 278.619 171.782 279.005 171.782H279.198C280.548 171.589 281.706 171.396 282.864 170.818C285.372 169.854 287.687 167.926 289.231 165.42C292.897 159.25 290.968 151.153 284.793 147.297C281.127 144.983 276.689 144.983 273.023 146.333C271.866 146.911 270.515 147.489 269.55 148.453C269.55 148.453 269.55 148.453 269.357 148.453C268.778 148.839 268.393 149.417 268.007 149.803L267.814 149.996C267.428 150.574 267.042 150.96 266.656 151.538C266.077 152.502 265.691 153.466 265.498 154.237C265.305 154.816 265.112 155.587 265.112 156.165C265.112 156.744 264.919 157.129 264.919 157.708C264.727 160.214 265.498 162.72 266.656 164.841L235.205 198.581C226.908 198.002 218.226 197.424 208.964 197.231C190.055 171.011 190.055 163.106 190.055 163.106C188.897 164.456 176.935 178.915 173.076 197.617C167.866 197.809 162.849 198.195 158.219 198.581C158.026 198.388 157.833 198.388 157.447 198.195C156.868 197.809 156.482 197.617 155.903 197.424C155.517 197.231 155.131 197.038 154.745 196.845C154.167 196.653 153.588 196.267 153.009 196.074C152.623 195.881 152.237 195.689 151.851 195.496C151.272 195.303 150.501 194.917 149.922 194.725C149.536 194.532 149.343 194.532 148.957 194.339C147.992 193.953 147.028 193.568 145.87 193.375C111.718 182.771 106.508 176.023 106.508 176.023C106.508 176.023 105.35 191.833 110.946 208.22C106.701 210.148 104.386 212.462 104.386 214.775V221.138V248.9V249.864C104.386 278.206 118.278 303.462 139.503 319.078C139.503 319.078 139.502 319.078 139.31 319.271C139.117 319.464 138.731 319.85 138.538 320.235C138.538 320.235 138.538 320.235 138.345 320.428C136.994 322.163 136.029 324.284 135.451 326.405C135.065 327.754 134.872 328.911 134.872 330.261C134.872 339.322 142.397 346.841 151.465 346.841H243.888C252.957 346.841 260.482 339.322 260.482 330.261C260.482 326.019 258.745 322.163 256.237 319.271C277.461 303.655 291.354 278.591 291.354 250.057V249.093V214.968C291.161 212.269 288.652 209.956 284.214 208.028Z" fill="black"/>
</g>
<g opacity="0.2">
<g opacity="0.2">
<path opacity="0.2" d="M479.093 315.222L408.087 147.875V86.1801H406.544C412.525 86.1801 417.349 81.3602 417.349 75.3835C417.349 69.4068 412.525 64.5869 406.544 64.5869H356.377C350.396 64.5869 345.572 69.4068 345.572 75.3835C345.572 81.3602 350.396 86.1801 356.377 86.1801H354.833V102.568V147.875L283.635 315.222C278.233 330.646 291.739 346.07 310.455 346.07H452.466C470.989 346.07 484.495 330.646 479.093 315.222Z" fill="black"/>
</g>
</g>
<path d="M252.378 348.191H159.955C150.886 348.191 143.361 340.672 143.361 331.61C143.361 322.549 150.886 315.03 159.955 315.03H252.378C261.446 315.03 268.971 322.549 268.971 331.61C268.778 340.864 261.446 348.191 252.378 348.191Z" fill="white"/>
<path d="M252.377 315.222H159.955C152.237 315.222 145.676 320.621 143.94 327.754C155.71 333.731 169.023 337.201 183.109 337.201H198.545C220.348 337.201 240.415 328.911 255.658 315.608C254.5 315.222 253.342 315.222 252.377 315.222Z" fill="#1261BD"/>
<path d="M206.07 233.669C257.753 233.669 299.65 225.815 299.65 216.125C299.65 206.435 257.753 198.581 206.07 198.581C154.387 198.581 112.489 206.435 112.489 216.125C112.489 225.815 154.387 233.669 206.07 233.669Z" fill="#1261BD"/>
<path d="M266.655 229.621L289.809 161.949L282.863 157.708L211.858 233.669C232.696 233.477 251.605 231.934 266.655 229.621Z" fill="white"/>
<path d="M212 233.862C217.403 233.862 222.805 233.669 228.015 233.477C231.874 229.042 234.575 225.379 234.961 224.801C243.258 213.426 244.801 205.714 255.992 195.881C262.36 190.29 262.36 192.411 274.323 183.928C278.182 181.229 281.848 178.53 285.321 175.83L290.144 162.142L283.198 157.9L212 233.862Z" fill="#78CEFF"/>
<path d="M282.864 157.708L273.795 167.347C274.76 170.239 276.689 172.746 279.583 174.481C281.32 175.445 283.056 176.023 284.986 176.216L290.003 161.756L282.864 157.708Z" fill="#1261BD"/>
<path d="M297.721 166.576C294.055 172.746 285.758 174.866 279.583 171.011C273.409 167.347 271.287 159.057 275.146 152.888C278.812 146.718 287.109 144.597 293.283 148.453C299.457 152.309 301.387 160.407 297.721 166.576Z" fill="white"/>
<path d="M195.65 243.502C195.65 243.502 188.125 205.328 153.973 194.917C119.821 184.314 114.612 177.566 114.612 177.566C114.612 177.566 108.244 261.818 195.65 243.502Z" fill="#99D158"/>
<path d="M195.65 243.117C194.878 239.261 186.195 204.75 153.972 194.917C119.82 184.314 114.611 177.566 114.611 177.566C114.611 177.566 114.611 177.758 114.611 178.144C117.505 183.928 120.785 187.977 123.101 190.483C131.012 199.159 140.273 203.593 150.692 208.606C159.568 212.847 163.427 213.619 168.058 215.547C176.162 219.21 186.388 226.536 195.65 243.117Z" fill="#6DC433"/>
<path d="M224.014 265.866C224.014 265.866 240.607 230.778 219.383 202.051C198.159 173.324 198.159 164.648 198.159 164.648C198.159 164.648 142.782 228.657 224.014 265.866Z" fill="#99D158"/>
<path d="M224.207 265.481C225.75 261.818 239.45 229.042 219.383 202.051C198.159 173.324 198.159 164.648 198.159 164.648C198.159 164.648 197.966 164.841 197.773 165.034C196.615 171.396 196.808 176.602 197.194 180.072C198.351 191.833 203.175 200.894 208.578 211.112C213.209 219.788 215.91 222.68 218.418 226.922C222.856 234.633 226.715 246.587 224.207 265.481Z" fill="#6DC433"/>
<path d="M213.016 255.841C213.016 255.841 220.541 217.667 254.693 207.256C288.845 196.845 294.055 189.905 294.055 189.905C294.055 189.905 300.422 274.157 213.016 255.841Z" fill="#99D158"/>
<path d="M213.016 255.456C213.788 251.6 222.471 217.089 254.693 207.256C288.845 196.653 294.055 189.905 294.055 189.905C294.055 189.905 294.055 190.097 294.055 190.483C291.161 196.267 287.88 200.316 285.565 202.822C277.654 211.498 268.393 215.932 257.973 220.945C249.098 225.186 245.239 225.958 240.608 227.886C232.504 231.549 222.471 238.875 213.016 255.456Z" fill="#6DC433"/>
<path d="M206.07 233.862C154.359 233.862 112.489 225.958 112.489 216.318V250.443C112.489 298.449 151.465 337.201 199.316 337.201H212.823C260.867 337.201 299.65 298.256 299.65 250.443V216.318C299.65 225.958 257.78 233.862 206.07 233.862Z" fill="white"/>
<path d="M199.702 233.862C200.86 233.862 201.825 233.862 202.982 233.862C152.816 233.477 112.682 225.765 112.682 216.318V222.68C126.189 229.235 160.148 233.862 199.702 233.862Z" fill="#FFDBFF"/>
<path d="M293.283 222.68V251.407C293.283 298.835 254.886 337.201 207.42 337.201H213.788C261.253 337.201 299.65 298.835 299.65 251.407V216.125C299.65 218.439 297.335 220.559 293.283 222.68Z" fill="#78CEFF"/>
<path d="M138.344 251.407V228.271C122.33 225.186 112.489 220.752 112.489 216.125V251.407C112.489 298.835 150.886 337.201 198.352 337.201H213.788C215.524 337.201 217.261 337.201 218.997 337.008C174.04 334.309 138.344 297.1 138.344 251.407Z" fill="#1261BD"/>
<path d="M235.38 270.686H224.575V260.083H212.612V270.686H202V282.64H212.612V293.436H224.575V282.64H235.38V270.686Z" fill="#1261BD"/>
<path d="M283.056 169.083C276.882 165.419 274.76 157.129 278.618 150.96C279.39 149.61 280.355 148.646 281.513 147.682C279.004 148.646 276.689 150.574 275.145 153.08C271.479 159.25 273.409 167.347 279.583 171.203C284.6 174.095 290.581 173.517 294.826 170.047C291.16 171.589 286.722 171.396 283.056 169.083Z" fill="#DADADA"/>
<path d="M487.004 315.222L415.999 147.875V86.1801H414.455C420.436 86.1801 425.26 81.3602 425.26 75.3835C425.26 69.4068 420.436 64.5869 414.455 64.5869H364.288C358.307 64.5869 353.483 69.4068 353.483 75.3835C353.483 81.3602 358.307 86.1801 364.288 86.1801H362.745V147.875L291.739 315.222C286.337 330.646 299.843 346.07 318.559 346.07H460.57C478.9 346.07 492.213 330.646 487.004 315.222Z" fill="white"/>
<path d="M414.262 86.1801H362.551V102.568L414.262 86.1801Z" fill="#78CEFF"/>
<path d="M437.416 231.934C437.416 231.934 416.192 244.659 397.283 242.345C363.709 238.297 329.557 257.962 366.797 265.288C427.962 277.242 437.416 231.934 437.416 231.934Z" fill="#6DC433"/>
<path d="M466.358 300.184L437.416 231.934C423.716 243.888 409.631 258.54 389.564 255.456C380.11 254.106 380.496 250.443 363.323 242.924C359.85 241.381 350.975 237.525 340.17 234.248L312.192 299.992C307.947 312.138 318.559 324.284 333.223 324.284H445.134C459.991 324.669 470.603 312.33 466.358 300.184Z" fill="#99D158"/>
<path d="M337.661 303.655C342.669 303.655 346.73 299.598 346.73 294.593C346.73 289.589 342.669 285.532 337.661 285.532C332.652 285.532 328.592 289.589 328.592 294.593C328.592 299.598 332.652 303.655 337.661 303.655Z" fill="#6DC433"/>
<path d="M422.945 282.061C427.953 282.061 432.013 278.005 432.013 273C432.013 267.996 427.953 263.939 422.945 263.939C417.936 263.939 413.876 267.996 413.876 273C413.876 278.005 417.936 282.061 422.945 282.061Z" fill="#6DC433"/>
<path d="M358.886 265.288C358.886 268.18 356.57 270.494 353.676 270.494C350.782 270.494 348.466 268.18 348.466 265.288C348.466 262.396 350.782 260.083 353.676 260.083C356.57 260.083 358.886 262.396 358.886 265.288Z" fill="#6DC433"/>
<path opacity="0.7" d="M397.089 205.328C397.089 208.22 394.774 210.534 391.88 210.534C388.985 210.534 386.67 208.22 386.67 205.328C386.67 202.436 388.985 200.123 391.88 200.123C394.774 200.123 397.089 202.629 397.089 205.328Z" fill="#6DC433"/>
<path opacity="0.7" d="M399.791 171.011C399.791 175.252 396.318 178.722 392.073 178.722C387.828 178.722 384.355 175.252 384.355 171.011C384.355 166.769 387.828 163.299 392.073 163.299C396.318 163.299 399.791 166.769 399.791 171.011Z" fill="#6DC433"/>
<path opacity="0.7" d="M394.388 38.5593C398.65 38.5593 402.106 35.1066 402.106 30.8475C402.106 26.5883 398.65 23.1356 394.388 23.1356C390.125 23.1356 386.67 26.5883 386.67 30.8475C386.67 35.1066 390.125 38.5593 394.388 38.5593Z" fill="#6DC433"/>
<path d="M394.388 278.205C394.388 281.097 392.073 283.411 389.178 283.411C386.284 283.411 383.969 281.097 383.969 278.205C383.969 275.314 386.284 273 389.178 273C392.073 273.193 394.388 275.506 394.388 278.205Z" fill="#6DC433"/>
<path opacity="0.7" d="M392.073 132.451C392.073 135.343 389.757 137.657 386.863 137.657C383.969 137.657 381.653 135.343 381.653 132.451C381.653 129.559 383.969 127.246 386.863 127.246C389.757 127.439 392.073 129.752 392.073 132.451Z" fill="#6DC433"/>
<path opacity="0.7" d="M386.863 5.20551C386.863 8.09746 384.548 10.411 381.653 10.411C378.759 10.411 376.444 8.09746 376.444 5.20551C376.444 2.31356 378.759 0 381.653 0C384.548 0 386.863 2.31356 386.863 5.20551Z" fill="#6DC433"/>
<path opacity="0.7" d="M367.762 220.174C367.762 223.066 365.446 225.379 362.552 225.379C359.658 225.379 357.342 223.066 357.342 220.174C357.342 217.282 359.658 214.968 362.552 214.968C365.446 215.161 367.762 217.475 367.762 220.174Z" fill="#6DC433"/>
<path d="M376.83 293.244C376.83 296.136 374.514 298.449 371.62 298.449C368.726 298.449 366.411 296.136 366.411 293.244C366.411 290.352 368.726 288.038 371.62 288.038C374.514 288.231 376.83 290.545 376.83 293.244Z" fill="#6DC433"/>
<path d="M440.696 299.799C440.696 302.691 438.381 305.004 435.486 305.004C432.592 305.004 430.277 302.691 430.277 299.799C430.277 296.907 432.592 294.593 435.486 294.593C438.381 294.593 440.696 296.907 440.696 299.799Z" fill="#6DC433"/>
<path d="M465.587 332.96C465.587 335.273 431.435 337.201 389.179 337.201C346.923 337.201 312.771 335.273 312.771 332.96C312.771 330.646 346.923 328.718 389.179 328.718C431.435 328.718 465.587 330.646 465.587 332.96Z" fill="#78CEFF"/>
<g opacity="0.2">
<path opacity="0.2" d="M487.004 370.169L289.424 297.485C284.986 295.75 280.162 295.75 275.724 297.292C272.058 297.871 268.585 299.413 265.691 301.92L214.174 345.877C202.211 356.095 205.684 375.568 220.541 381.159L418.121 453.843C422.559 455.578 427.382 455.578 431.82 454.036C435.486 453.458 438.959 451.915 441.854 449.409L493.371 405.451C505.334 395.04 501.861 375.761 487.004 370.169Z" fill="black"/>
</g>
<path d="M225.751 341.636L277.268 297.678C283.057 292.858 290.968 291.316 297.914 294.015L495.494 366.699C510.351 372.097 513.824 391.57 501.861 401.981L450.344 445.939C444.555 450.758 436.644 452.301 429.698 449.602L232.118 376.917C217.261 371.326 213.788 351.854 225.751 341.636Z" fill="white"/>
<path d="M222.856 342.214L274.374 298.256C280.162 293.436 288.073 291.894 295.019 294.593L492.599 367.278C507.456 372.676 510.929 392.148 498.966 402.559L447.449 446.517C441.66 451.337 433.75 452.879 426.803 450.18L229.223 377.496C214.173 372.097 210.7 352.625 222.856 342.214Z" fill="#78CEFF"/>
<path d="M264.726 339.515H264.533C262.411 338.744 260.095 339.129 258.359 340.672L244.467 352.625C244.081 353.011 243.695 353.396 243.309 353.975C241.765 356.288 241.958 359.373 243.695 361.494C244.467 362.265 245.238 363.036 246.396 363.422H246.589C247.168 363.614 247.554 363.614 248.133 363.807C248.326 363.807 248.518 363.807 248.711 363.807C249.097 363.807 249.29 363.807 249.676 363.807C249.869 363.807 250.062 363.614 250.255 363.614C250.448 363.614 250.834 363.422 251.027 363.422C251.22 363.422 251.413 363.229 251.606 363.036C251.799 363.036 251.992 362.843 251.992 362.843L252.185 362.65C252.377 362.65 252.377 362.458 252.57 362.458L266.463 350.504C270.322 347.034 269.164 341.057 264.726 339.515Z" fill="#1261BD"/>
<path d="M244.659 350.311L258.552 338.358C260.288 336.816 262.604 336.43 264.726 337.201H264.919C269.357 338.744 270.514 344.72 266.848 347.805L252.956 359.758C251.22 361.301 248.904 361.686 246.782 360.915H246.589C242.151 359.18 240.993 353.396 244.659 350.311Z" fill="#6DC433"/>
<path d="M255.657 345.299H255.464C253.535 344.527 251.412 344.913 249.869 346.07L244.852 350.311C241.186 353.396 242.344 359.373 246.782 360.915H246.975C248.904 361.494 251.026 361.301 252.57 360.144L257.587 355.903C261.253 352.818 260.095 346.841 255.657 345.299Z" fill="white"/>
<path d="M298.107 308.86H297.914C295.791 308.089 293.476 308.475 291.739 310.017L277.847 321.97C277.461 322.356 277.075 322.742 276.689 323.32C275.146 325.633 275.339 328.718 277.075 330.839C277.847 331.61 278.619 332.381 279.776 332.767H279.969C280.548 332.96 280.934 332.96 281.513 333.153C281.706 333.153 281.899 333.153 282.092 333.153C282.478 333.153 282.671 333.153 283.057 333.153C283.249 333.153 283.442 332.96 283.635 332.96C283.828 332.96 284.214 332.767 284.407 332.767C284.6 332.767 284.793 332.574 284.986 332.381C285.179 332.381 285.372 332.189 285.372 332.189L285.565 331.996C285.758 331.996 285.758 331.803 285.951 331.803L299.843 319.85C303.895 316.379 302.737 310.595 298.107 308.86Z" fill="#1261BD"/>
<path d="M278.233 319.657L292.125 307.703C293.862 306.161 296.177 305.775 298.3 306.547H298.493C302.93 308.089 304.088 314.066 300.422 317.15L286.53 329.104C284.793 330.646 282.478 331.032 280.355 330.261H280.162C275.725 328.718 274.567 322.742 278.233 319.657Z" fill="#6DC433"/>
<path d="M289.038 314.644H288.845C286.916 313.873 284.793 314.258 283.25 315.415L278.233 319.657C274.567 322.741 275.725 328.718 280.162 330.261H280.355C282.285 330.839 284.407 330.646 285.951 329.489L290.968 325.248C294.634 322.163 293.669 316.186 289.038 314.644Z" fill="white"/>
<path d="M300.807 352.818H300.614C298.492 352.047 296.177 352.432 294.44 353.975L280.548 365.928C280.162 366.314 279.776 366.699 279.39 367.278C277.846 369.591 278.039 372.676 279.776 374.797C280.548 375.568 281.319 376.339 282.477 376.725H282.67C283.249 376.917 283.635 376.917 284.214 377.11C284.407 377.11 284.6 377.11 284.793 377.11C285.178 377.11 285.371 377.11 285.757 377.11C285.95 377.11 286.143 376.917 286.336 376.917C286.529 376.917 286.915 376.725 287.108 376.725C287.301 376.725 287.494 376.532 287.687 376.339C287.88 376.339 288.073 376.146 288.073 376.146L288.266 375.953C288.459 375.953 288.459 375.761 288.651 375.761L302.544 363.807C306.403 360.337 305.245 354.36 300.807 352.818Z" fill="#1261BD"/>
<path d="M280.741 363.614L294.633 351.661C296.369 350.119 298.685 349.733 300.807 350.504H301C305.438 352.047 306.596 358.023 302.93 361.108L289.037 373.061C287.301 374.604 284.985 374.989 282.863 374.218H282.67C278.232 372.483 277.267 366.699 280.741 363.614Z" fill="#6DC433"/>
<path d="M291.739 358.602H291.546C289.616 358.023 287.494 358.216 285.95 359.373L280.934 363.614C277.268 366.699 278.425 372.676 282.863 374.218H283.056C284.986 374.797 287.108 374.604 288.652 373.447L293.668 369.206C297.334 366.121 296.177 360.144 291.739 358.602Z" fill="white"/>
<path d="M334.381 322.163H334.188C332.065 321.392 329.75 321.777 328.013 323.32L314.121 335.273C313.735 335.659 313.349 336.044 312.963 336.623C311.42 338.936 311.613 342.021 313.349 344.142C314.121 344.913 314.893 345.684 316.05 346.07H316.243C316.822 346.263 317.208 346.263 317.787 346.455C317.98 346.455 318.173 346.455 318.366 346.455C318.752 346.455 318.945 346.455 319.331 346.455C319.523 346.455 319.716 346.263 319.909 346.263C320.102 346.263 320.488 346.07 320.681 346.07C320.874 346.07 321.067 345.877 321.26 345.684C321.453 345.684 321.646 345.491 321.646 345.491L321.839 345.299C322.032 345.299 322.032 345.106 322.225 345.106L336.117 333.152C339.976 329.682 338.818 323.705 334.381 322.163Z" fill="#1261BD"/>
<path d="M314.314 332.96L328.206 321.006C329.942 319.464 332.258 319.078 334.38 319.849H334.573C339.011 321.392 340.169 327.369 336.503 330.453L322.61 342.407C320.874 343.949 318.558 344.335 316.436 343.563H316.243C311.805 342.021 310.647 336.044 314.314 332.96Z" fill="#6DC433"/>
<path d="M325.119 327.947H324.926C322.996 327.369 320.874 327.561 319.33 328.718L314.314 332.96C310.647 336.044 311.805 342.021 316.243 343.564H316.436C318.365 344.335 320.488 343.949 322.031 342.792L327.048 338.551C330.907 335.466 329.749 329.489 325.119 327.947Z" fill="white"/>
<path d="M336.889 366.121H336.696C334.574 365.35 332.259 365.735 330.522 367.278L316.63 379.231C316.244 379.617 315.858 380.002 315.472 380.581C313.928 382.894 314.121 385.979 315.858 388.1C316.63 388.871 317.401 389.642 318.559 390.028H318.752C319.331 390.22 319.717 390.22 320.296 390.413C320.489 390.413 320.682 390.413 320.875 390.413C321.26 390.413 321.453 390.413 321.839 390.413C322.032 390.413 322.225 390.22 322.418 390.22C322.611 390.22 322.997 390.028 323.19 390.028C323.383 390.028 323.576 389.835 323.769 389.642C323.962 389.642 324.155 389.449 324.155 389.449L324.348 389.256C324.541 389.256 324.541 389.064 324.734 389.064L338.626 377.11C342.485 373.64 341.52 367.663 336.889 366.121Z" fill="#1261BD"/>
<path d="M317.015 376.725L330.908 364.771C332.644 363.229 334.96 362.843 337.082 363.614H337.275C341.713 365.157 342.871 371.134 339.205 374.218L325.312 386.172C323.576 387.714 321.26 388.1 319.138 387.328H318.945C314.314 385.786 313.349 380.002 317.015 376.725Z" fill="#6DC433"/>
<path d="M327.821 371.905H327.628C325.698 371.133 323.576 371.519 322.032 372.676L317.016 376.917C313.35 380.002 314.507 385.979 318.945 387.521H319.138C321.068 388.292 323.19 387.907 324.734 386.75L329.75 382.508C333.416 379.424 332.259 373.447 327.821 371.905Z" fill="white"/>
<path d="M370.462 335.466H370.269C368.147 334.695 365.831 335.08 364.095 336.623L350.202 348.576C349.817 348.962 349.431 349.347 349.045 349.926C347.501 352.239 347.694 355.324 349.431 357.445C350.202 358.216 350.974 358.987 352.132 359.373H352.325C352.904 359.566 353.29 359.566 353.868 359.758C354.061 359.758 354.254 359.758 354.447 359.758C354.833 359.758 355.026 359.758 355.412 359.758C355.605 359.758 355.798 359.566 355.991 359.566C356.184 359.566 356.57 359.373 356.763 359.373C356.956 359.373 357.149 359.18 357.342 358.987C357.534 358.987 357.727 358.795 357.727 358.795L357.92 358.602C358.113 358.602 358.113 358.409 358.306 358.409L372.199 346.455C376.058 342.985 374.9 337.008 370.462 335.466Z" fill="#1261BD"/>
<path d="M350.395 346.263L364.287 334.309C366.024 332.767 368.339 332.381 370.462 333.153H370.655C375.093 334.695 376.25 340.672 372.584 343.756L358.692 355.71C356.955 357.252 354.64 357.638 352.517 356.867H352.325C347.887 355.324 346.729 349.347 350.395 346.263Z" fill="#6DC433"/>
<path d="M361.393 341.25H361.2C359.271 340.479 357.148 340.864 355.605 342.021L350.588 346.263C346.922 349.347 348.08 355.324 352.517 356.866H352.71C354.64 357.445 356.762 357.252 358.306 356.095L363.323 351.854C366.989 348.769 365.831 342.792 361.393 341.25Z" fill="white"/>
<path d="M372.97 379.424H372.777C370.655 378.653 368.34 379.038 366.603 380.58L352.711 392.534C352.325 392.919 351.939 393.305 351.553 393.883C350.009 396.197 350.202 399.282 351.939 401.403C352.711 402.174 353.483 402.945 354.64 403.331H354.833C355.412 403.523 355.798 403.523 356.377 403.716C356.57 403.716 356.763 403.716 356.956 403.716C357.341 403.716 357.534 403.716 357.92 403.716C358.113 403.716 358.306 403.523 358.499 403.523C358.692 403.523 359.078 403.331 359.271 403.331C359.464 403.331 359.657 403.138 359.85 402.945C360.043 402.945 360.236 402.752 360.236 402.752L360.429 402.559C360.622 402.559 360.622 402.367 360.815 402.367L374.707 390.413C378.566 386.943 377.601 380.966 372.97 379.424Z" fill="#1261BD"/>
<path d="M353.097 390.028L366.989 378.074C368.726 376.532 371.041 376.146 373.163 376.917H373.356C377.794 378.46 378.952 384.436 375.286 387.521L361.394 399.475C359.657 401.017 357.342 401.403 355.219 400.631H355.026C350.588 399.089 349.431 393.305 353.097 390.028Z" fill="#6DC433"/>
<path d="M363.902 385.208H363.709C361.779 384.436 359.657 384.822 358.113 385.979L353.097 390.22C349.431 393.305 350.588 399.282 355.026 400.824H355.219C357.149 401.403 359.271 401.21 360.815 400.053L365.831 395.811C369.497 392.727 368.533 386.75 363.902 385.208Z" fill="white"/>
<path d="M406.544 348.769H406.351C404.229 347.998 401.913 348.383 400.177 349.926L386.284 361.879C385.899 362.265 385.513 362.65 385.127 363.229C383.583 365.542 383.776 368.627 385.513 370.748C386.284 371.519 387.056 372.29 388.214 372.676H388.407C388.986 372.869 389.372 372.869 389.95 373.061C390.143 373.061 390.336 373.061 390.529 373.061C390.915 373.061 391.108 373.061 391.494 373.061C391.687 373.061 391.88 372.869 392.073 372.869C392.266 372.869 392.652 372.676 392.845 372.676C393.038 372.676 393.231 372.483 393.424 372.29C393.616 372.29 393.809 372.097 393.809 372.097L394.002 371.905C394.195 371.905 394.195 371.712 394.388 371.712L408.281 359.759C412.14 356.288 410.982 350.311 406.544 348.769Z" fill="#1261BD"/>
<path d="M386.477 359.566L400.37 347.612C402.106 346.07 404.422 345.684 406.544 346.456H406.737C411.175 347.998 412.333 353.975 408.666 357.059L394.774 369.013C393.038 370.555 390.722 370.941 388.6 370.169H388.407C383.969 368.434 383.004 362.65 386.477 359.566Z" fill="#6DC433"/>
<path d="M397.476 354.553H397.283C395.353 353.782 393.231 354.167 391.687 355.324L386.67 359.566C383.004 362.65 384.162 368.627 388.6 370.169H388.793C390.722 370.748 392.845 370.555 394.388 369.398L399.405 365.157C403.071 362.072 401.913 356.095 397.476 354.553Z" fill="white"/>
<path d="M409.052 392.727H408.859C406.737 391.955 404.421 392.341 402.685 393.883L388.792 405.837C388.406 406.222 388.02 406.608 387.635 407.186C386.091 409.5 386.284 412.585 388.02 414.705C388.792 415.477 389.564 416.248 390.722 416.633H390.915C391.494 416.826 391.879 416.826 392.458 417.019C392.651 417.019 392.844 417.019 393.037 417.019C393.423 417.019 393.616 417.019 394.002 417.019C394.195 417.019 394.388 416.826 394.581 416.826C394.774 416.826 395.16 416.633 395.353 416.633C395.545 416.633 395.738 416.441 395.931 416.248C396.124 416.248 396.317 416.055 396.317 416.055L396.51 415.862C396.703 415.862 396.703 415.669 396.896 415.669L410.788 403.716C414.647 400.246 413.683 394.269 409.052 392.727Z" fill="#1261BD"/>
<path d="M389.178 403.33L403.071 391.377C404.807 389.835 407.123 389.449 409.245 390.22H409.438C413.876 391.763 415.034 397.739 411.367 400.824L397.475 412.777C395.739 414.32 393.423 414.705 391.301 413.934H391.108C386.67 412.392 385.512 406.608 389.178 403.33Z" fill="#6DC433"/>
<path d="M399.983 398.51H399.791C397.861 397.932 395.739 398.125 394.195 399.282L389.178 403.523C385.512 406.608 386.67 412.585 391.108 414.127H391.301C393.23 414.705 395.353 414.513 396.896 413.356L401.913 409.114C405.579 406.03 404.614 400.053 399.983 398.51Z" fill="white"/>
<path d="M442.625 362.072H442.432C440.31 361.301 437.994 361.686 436.258 363.229L422.365 375.182C421.98 375.568 421.594 375.953 421.208 376.532C419.664 378.845 419.857 381.93 421.594 384.051C422.365 384.822 423.137 385.593 424.295 385.979H424.488C425.067 386.172 425.453 386.172 426.032 386.364C426.224 386.364 426.417 386.364 426.61 386.364C426.996 386.364 427.189 386.364 427.575 386.364C427.768 386.364 427.961 386.172 428.154 386.172C428.347 386.172 428.733 385.979 428.926 385.979C429.119 385.979 429.312 385.786 429.505 385.593C429.698 385.593 429.891 385.4 429.891 385.4L430.083 385.208C430.276 385.208 430.276 385.015 430.469 385.015L444.362 373.061C448.221 369.591 447.063 363.614 442.625 362.072Z" fill="#1261BD"/>
<path d="M422.751 372.676L436.644 360.722C438.38 359.18 440.696 358.794 442.818 359.566H443.011C447.449 361.108 448.607 367.085 444.941 370.169L431.048 382.123C429.312 383.665 426.996 384.051 424.874 383.28H424.681C420.05 381.737 419.085 375.953 422.751 372.676Z" fill="#6DC433"/>
<path d="M433.557 367.856H433.364C431.434 367.278 429.312 367.47 427.768 368.627L422.752 372.869C419.085 375.953 420.243 381.93 424.681 383.472H424.874C426.803 384.244 428.926 383.858 430.469 382.701L435.486 378.46C439.152 375.375 437.994 369.398 433.557 367.856Z" fill="white"/>
<path d="M445.134 406.03H444.941C442.819 405.258 440.503 405.644 438.767 407.186L424.874 419.14C424.488 419.525 424.102 419.911 423.717 420.489C422.173 422.803 422.366 425.888 424.102 428.008C424.874 428.78 425.646 429.551 426.804 429.936H426.997C427.576 430.129 427.961 430.129 428.54 430.322C428.733 430.322 428.926 430.322 429.119 430.322C429.505 430.322 429.698 430.322 430.084 430.322C430.277 430.322 430.47 430.129 430.663 430.129C430.856 430.129 431.242 429.936 431.435 429.936C431.628 429.936 431.82 429.744 432.013 429.551C432.206 429.551 432.399 429.358 432.399 429.358L432.592 429.165C432.785 429.165 432.785 428.972 432.978 428.972L446.871 417.019C450.922 413.549 449.765 407.572 445.134 406.03Z" fill="#1261BD"/>
<path d="M425.26 416.633L439.153 404.68C440.889 403.138 443.205 402.752 445.327 403.523H445.52C449.958 405.066 451.116 411.042 447.449 414.127L433.557 426.08C431.821 427.623 429.505 428.008 427.383 427.237H427.19C422.752 425.695 421.594 419.911 425.26 416.633Z" fill="#6DC433"/>
<path d="M436.065 411.814H435.872C433.943 411.235 431.821 411.428 430.277 412.585L425.26 416.826C421.594 419.911 422.752 425.888 427.19 427.43H427.383C429.312 428.201 431.435 427.816 432.978 426.659L437.995 422.417C441.854 419.333 440.696 413.356 436.065 411.814Z" fill="white"/>
<path d="M478.707 375.375H478.514C476.391 374.604 474.076 374.989 472.339 376.532L458.447 388.485C458.061 388.871 457.675 389.256 457.289 389.835C455.746 392.148 455.939 395.233 457.675 397.354C458.447 398.125 459.219 398.896 460.377 399.282H460.569C461.148 399.475 461.534 399.475 462.113 399.667C462.306 399.667 462.499 399.667 462.692 399.667C463.078 399.667 463.271 399.667 463.657 399.667C463.85 399.667 464.043 399.475 464.236 399.475C464.428 399.475 464.814 399.282 465.007 399.282C465.2 399.282 465.393 399.089 465.586 398.896C465.779 398.896 465.972 398.703 465.972 398.703L466.165 398.511C466.358 398.511 466.358 398.318 466.551 398.318L480.443 386.364C484.302 382.894 483.338 376.917 478.707 375.375Z" fill="#1261BD"/>
<path d="M458.833 385.979L472.725 374.025C474.462 372.483 476.777 372.097 478.9 372.869H479.093C483.53 374.411 484.688 380.388 481.022 383.472L467.13 395.426C465.393 396.968 463.078 397.354 460.955 396.583H460.762C456.132 395.04 455.167 389.256 458.833 385.979Z" fill="#6DC433"/>
<path d="M469.638 381.159H469.445C467.516 380.388 465.393 380.773 463.85 381.93L458.833 386.172C455.167 389.256 456.325 395.233 460.763 396.775H460.955C462.885 397.354 465.007 397.161 466.551 396.004L471.568 391.763C475.234 388.678 474.076 382.701 469.638 381.159Z" fill="white"/>
<g opacity="0.2">
<path opacity="0.2" d="M73.3206 370.169C73.3206 373.833 57.4988 376.725 38.0109 376.725C18.523 376.725 2.70117 373.833 2.70117 370.169C2.70117 366.506 18.523 363.614 38.0109 363.614C57.4988 363.614 73.3206 366.506 73.3206 370.169Z" fill="black"/>
</g>
<path d="M104.193 349.347C104.193 349.347 76.2149 322.356 42.2559 333.153C8.29681 344.142 0 341.443 0 341.443C0 341.443 42.8347 414.32 104.193 349.347Z" fill="#99D158"/>
<path d="M104 349.155C101.105 346.455 74.4784 322.934 42.2559 333.345C8.29681 344.142 0 341.443 0 341.443C0 341.443 0.192949 341.636 0.385898 342.021C6.17438 345.106 11.1911 346.648 14.4712 347.419C26.0481 350.119 36.0815 348.383 47.4655 346.455C57.113 344.913 60.779 343.371 65.6027 342.407C74.2855 340.479 86.8272 340.672 104 349.155Z" fill="#6DC433"/>
<path d="M104 349.155C104 349.155 115.769 344.72 126.96 349.155L124.259 353.589C124.259 353.396 119.435 349.54 104 349.155Z" fill="#6DC433"/>
</g>
<defs>
<clipPath id="clip0">
<rect width="509" height="455" fill="white"/>
</clipPath>
</defs>
</svg>
