<svg width="509" height="329" viewBox="0 0 509 329" fill="none" xmlns="http://www.w3.org/2000/svg">
<path d="M495.022 13.3096C474.19 -16.8105 421.7 13.6086 421.7 13.6086C421.7 13.6086 404.266 85.4708 393.663 90.8147C383.06 96.1586 396.575 26.4638 396.575 26.4638C374.325 32.0319 328.928 77.8847 328.928 77.8847C328.928 77.8847 356.554 144.665 344.981 147.243C333.408 149.822 323.515 86.8535 323.515 86.8535C304.923 100.494 294.134 131.697 294.134 131.697C283.904 179.904 346.288 190.517 346.288 190.517C346.288 190.517 355.359 213.874 350.432 246.124C350.432 246.124 348.938 252.29 348.602 261.969L354.277 259.951C354.202 258.269 354.202 256.625 354.239 254.98V254.943C354.239 254.906 354.239 254.906 354.239 254.868C354.314 253.859 354.426 252.402 354.575 250.646C355.098 246.647 355.397 243.695 355.471 241.639C355.471 241.639 355.471 241.639 355.471 241.602C356.89 229.083 359.429 212.566 363.386 207.857C363.386 207.857 362.453 207.184 361.258 205.69C361.93 206.4 362.639 207.11 363.386 207.857C380.484 225.234 430.249 211.407 455.337 196.235C480.387 181.063 465.902 177.625 446.937 170.412C427.972 163.2 398.628 177.326 387.876 175.682C377.125 174.037 388.586 164.471 407.103 159.463C425.62 154.418 441.038 169.254 471.166 161.668C501.331 154.119 504.019 91.4126 504.019 91.4126C486.136 104.828 446.116 106.547 442.27 100.082C438.425 93.6174 492.035 75.3436 499.614 70.2987C507.23 65.2537 515.891 43.4297 495.022 13.3096Z" fill="#CDE0FB" fill-opacity="0.25"/>
<g clip-path="url(#clip0)">
<path d="M150.561 240.214L115.335 179.056L57.3097 215.358L93.3407 277.946C94.1453 279.466 95.1288 280.986 96.2911 282.327C106.126 293.951 125.974 293.504 140.458 281.165C153.869 269.631 157.982 252.016 150.561 240.214Z" fill="#78CEFF"/>
<path d="M128.925 258.007C132.233 255.146 134.915 252.016 137.239 248.619C137.15 248.351 136.971 247.993 136.703 247.725L123.024 223.852C120.967 226.713 118.553 229.395 115.603 231.809C99.8674 245.132 78.4097 245.758 67.6809 233.24L84.5788 262.746C96.1123 271.598 114.798 269.899 128.925 258.007Z" fill="#6DC433"/>
<path d="M104.874 219.471C119.358 207.132 123.113 187.729 113.189 176.016C103.265 164.393 83.5059 164.929 69.022 177.268C54.5381 189.607 50.783 209.009 60.7072 220.722C70.6313 232.346 90.3902 231.809 104.874 219.471Z" fill="#78CEFF"/>
<path d="M103.265 217.593C90.0326 228.769 72.1512 229.216 63.2106 218.755C54.2699 208.115 57.5779 190.591 70.8101 179.414C84.0423 168.238 101.924 167.791 110.864 178.252C119.805 188.802 116.318 206.327 103.265 217.593Z" fill="#DEE8FF"/>
<path d="M124.097 211.96V206.148H122.845C120.699 201.946 116.139 198.995 111.222 198.995C106.126 198.995 101.745 202.035 99.6885 206.416H98.3474V212.139C98.4368 219.292 104.248 225.104 111.401 224.925C118.464 225.104 124.275 219.202 124.097 211.96Z" fill="#D1DDE8"/>
<path d="M120.342 215.626C125.438 210.529 125.438 202.393 120.342 197.296C115.245 192.2 107.109 192.2 102.013 197.296C96.9169 202.393 96.9169 210.529 102.013 215.626C107.109 220.633 115.335 220.633 120.342 215.626Z" fill="#E7EDF4"/>
<path d="M98.5263 203.645C98.2581 204.539 98.1687 205.612 98.2581 206.595C98.2581 207.579 98.3475 208.562 98.6157 209.546L123.828 209.278C124.097 208.384 124.186 207.311 124.097 206.327C124.097 205.344 124.007 204.449 123.739 203.376L98.5263 203.645Z" fill="white"/>
<path d="M102.907 185.673L97.6322 183.348L97.0958 184.6C92.3572 184.868 87.8869 187.64 85.8305 192.379C83.7742 197.118 84.847 202.214 87.8869 205.969L87.3504 207.221L92.6254 209.546C99.1521 212.407 106.841 209.456 109.702 202.751C112.474 196.134 109.523 188.534 102.907 185.673Z" fill="#D1DDE8"/>
<path d="M104.427 200.426C101.566 206.953 93.8771 210.082 87.3504 207.221C80.8237 204.36 77.7839 196.671 80.5555 190.144C83.4165 183.616 91.1055 180.487 97.6322 183.348C104.248 186.209 107.199 193.899 104.427 200.426Z" fill="#E7EDF4"/>
<path d="M84.847 205.701C85.6517 206.238 86.5458 206.685 87.4398 207.221C88.3339 207.579 89.3174 207.847 90.3009 208.115L100.314 184.958C99.5098 184.421 98.6157 183.974 97.7216 183.438C96.8276 183.08 95.8441 182.812 94.8606 182.544L84.847 205.701Z" fill="white"/>
<path d="M92.2678 222.332L91.0161 216.788L89.7644 217.056C86.7245 213.301 81.7178 211.513 76.711 212.675C71.7042 213.838 68.1279 217.772 67.1445 222.421L65.8928 222.689L67.1445 228.233C68.8432 235.118 75.8169 239.499 82.7906 237.889C89.675 236.369 93.8771 229.395 92.2678 222.332Z" fill="#D1DDE8"/>
<path d="M80.7343 232.525C87.7975 231.184 92.3572 224.388 91.0161 217.414C89.675 210.351 82.8801 205.791 75.9063 207.132C68.9326 208.473 64.2835 215.268 65.6246 222.242C66.8763 229.216 73.6712 233.866 80.7343 232.525Z" fill="#E7EDF4"/>
<path d="M65.3563 219.918C65.3563 220.901 65.4457 221.885 65.714 222.868C65.9822 223.852 66.3398 224.746 66.6974 225.729L91.2843 219.828C91.2843 218.845 91.1949 217.951 90.9267 216.878C90.6585 215.894 90.3008 214.911 89.9432 214.016L65.3563 219.918Z" fill="white"/>
<path d="M115.424 158.581L114.172 153.038L112.921 153.306C109.881 149.551 104.874 147.762 99.8674 148.925C94.8606 150.087 91.2843 154.021 90.3008 158.671L89.0491 158.939L90.3008 164.482C91.9996 171.367 98.9733 175.748 105.947 174.139C112.742 172.529 116.944 165.466 115.424 158.581Z" fill="#D1DDE8"/>
<path d="M104.427 168.506C97.5428 170.205 90.4797 165.824 88.7809 158.849C87.0822 151.965 91.4631 144.901 98.3475 143.202C105.232 141.504 112.295 145.885 113.994 152.859C115.692 159.922 111.49 166.896 104.427 168.506Z" fill="#E7EDF4"/>
<path d="M88.5127 155.988C88.5127 156.972 88.6021 157.866 88.8703 158.939C89.1385 159.922 89.4962 160.816 89.8538 161.8L114.441 155.899C114.441 154.915 114.351 154.021 114.083 152.948C113.815 151.965 113.457 150.981 113.1 150.087L88.5127 155.988Z" fill="white"/>
<path d="M84.0424 113.696L82.7907 108.153L81.539 108.421C78.4991 104.666 73.4924 102.878 68.4856 104.04C63.4788 105.202 59.9025 109.136 58.9191 113.786L57.6674 114.054L58.9191 119.598C60.6178 126.482 67.5915 130.864 74.5653 129.254C81.3602 127.645 85.7411 120.581 84.0424 113.696Z" fill="#D1DDE8"/>
<path d="M73.0454 123.711C66.161 125.409 59.0979 121.028 57.3992 114.054C55.7004 107.169 60.0814 100.106 66.9657 98.4071C73.85 96.7082 80.9132 101.089 82.6119 108.064C84.3106 115.127 80.1085 122.012 73.0454 123.711Z" fill="#E7EDF4"/>
<path d="M57.1309 111.104C57.1309 112.087 57.2203 113.071 57.4886 114.054C57.7568 115.038 58.1144 116.021 58.472 116.915L83.1483 111.014C83.1483 110.031 83.0589 109.047 82.7907 108.064C82.5225 107.08 82.1648 106.096 81.8072 105.202L57.1309 111.104Z" fill="white"/>
<path d="M62.7635 144.722L57.3991 139.089L55.9686 140.788C42.7364 135.781 25.7492 142.219 15.378 156.972C7.15254 168.595 5.36441 182.633 9.47712 193.094L7.9572 194.793L15.9144 202.751C16.7191 203.555 17.6131 204.181 18.5072 204.807C32.097 214.285 52.75 208.384 64.6411 191.485C75.9958 175.212 75.3699 157.776 62.7635 144.722Z" fill="#D1DDE8"/>
<path d="M30.5771 209.188C29.5937 209.099 28.5208 208.92 27.3585 208.652L7.77841 187.104L3.84451 182.722L5.27502 181.292L7.42078 183.616L30.5771 209.188Z" fill="#E7EDF4"/>
<path d="M38.5343 208.92C37.7297 209.009 36.8356 209.188 36.1203 209.278L12.0699 182.722L13.5004 181.292L38.5343 208.92Z" fill="#E7EDF4"/>
<path d="M45.2398 206.953C44.614 207.221 43.8093 207.489 43.1835 207.758L20.3848 182.722L21.8153 181.292L45.2398 206.953Z" fill="#E7EDF4"/>
<path d="M50.9618 204.181C50.336 204.539 49.7996 204.807 49.1737 205.165L28.6996 182.633L30.2195 181.202L50.9618 204.181Z" fill="#E7EDF4"/>
<path d="M55.9686 200.694C55.4322 201.052 54.9852 201.499 54.4487 201.856L37.0144 182.633L38.4449 181.381L55.9686 200.694Z" fill="#E7EDF4"/>
<path d="M60.439 196.492C59.9025 197.028 59.5449 197.386 59.0085 197.922L45.1504 182.633L46.6703 181.202L60.439 196.492Z" fill="#E7EDF4"/>
<path d="M64.4623 191.574C64.1046 192.111 63.6576 192.736 63.3 193.273L46.2233 174.675L47.6538 173.245L64.4623 191.574Z" fill="#E7EDF4"/>
<path d="M67.8597 185.941C67.5915 186.567 67.2339 187.193 66.8762 187.729L46.2233 165.019L47.6538 163.588L67.8597 185.941Z" fill="#E7EDF4"/>
<path d="M70.7208 179.593C70.4526 180.219 70.1843 181.024 69.9161 181.649L46.3127 155.72L47.7432 154.289L70.7208 179.593Z" fill="#E7EDF4"/>
<path d="M72.5089 172.172C72.4195 173.066 72.2407 173.871 72.1513 174.765L46.4021 146.6L47.8326 145.169L72.5089 172.172Z" fill="#E7EDF4"/>
<path d="M72.5983 165.824L48.2797 139.179L46.4021 137.033L47.8326 135.602L51.3195 139.447L72.2407 162.426C72.4195 163.499 72.5089 164.661 72.5983 165.824Z" fill="#E7EDF4"/>
<path d="M57.3097 184.153C69.2008 167.254 67.7703 145.795 54.1805 136.228C40.5907 126.661 19.9377 132.652 8.0466 149.551C-3.8445 166.449 -2.41399 187.908 11.1758 197.475C24.7657 207.042 45.4186 201.141 57.3097 184.153Z" fill="#E7EDF4"/>
<path d="M38.7131 136.139C43.4517 136.139 47.8326 137.569 51.4983 140.073C63.3 148.388 64.4623 167.075 54.0911 181.828C47.2962 191.574 36.8356 197.565 26.6432 197.565C21.9047 197.565 17.5237 196.134 13.858 193.631C2.05635 185.315 0.894066 166.628 11.2653 151.875C18.0602 142.129 28.6102 136.139 38.7131 136.139ZM38.7131 134.798C28.6102 134.798 17.6131 140.699 10.2818 151.071C-0.447036 166.449 0.804659 186.031 13.1428 194.614C17.0767 197.475 21.8153 198.727 26.7326 198.727C36.8356 198.727 47.8326 192.826 55.164 182.454C65.8928 167.075 64.6411 147.494 52.303 138.911C48.1903 136.228 43.5411 134.798 38.7131 134.798Z" fill="white"/>
<path d="M334.918 328.911L155.925 298.421C151.276 297.616 147.968 293.414 148.326 288.675L171.125 33.3153C171.572 28.5765 175.505 25 180.244 25L361.74 26.52C367.015 26.52 371.217 31.1694 370.681 36.3553L345.468 320.595C345.021 325.96 340.103 329.805 334.918 328.911Z" fill="#6DC433"/>
<path d="M334.024 319.791L158.25 289.748L179.886 46.9953L358.074 48.5153L334.024 319.791Z" fill="#E7EDF4"/>
<path d="M334.024 319.791L158.25 289.748L179.886 46.9953L358.074 48.5153L334.024 319.791Z" fill="#1261BD"/>
<path d="M358.074 48.6047L179.708 47.0847C179.708 47.0847 156.015 246.92 140.905 259.706L319.003 298.511L358.074 48.6047Z" fill="white"/>
<path d="M141.084 259.706C141.084 259.706 121.504 250.228 123.292 223.405L282.168 260.689C282.168 260.689 314.98 325.513 321.775 282.238L319.182 298.6L141.084 259.706Z" fill="#E7EDF4"/>
<path d="M239.61 42.2565C242.024 41.72 243.633 39.3953 243.097 36.9812C242.561 34.5671 240.236 32.9577 237.822 33.4941C235.408 34.0306 233.799 36.3553 234.335 38.7694C234.782 41.1835 237.196 42.7035 239.61 42.2565Z" fill="#1261BD"/>
<path d="M303.536 42.0776C305.95 41.5412 307.47 39.1271 306.933 36.7129C306.397 34.2988 303.983 32.7788 301.569 33.3153C299.155 33.8518 297.635 36.2659 298.172 38.68C298.708 41.0941 301.122 42.6141 303.536 42.0776Z" fill="#1261BD"/>
<path d="M238.716 37.7859L237.286 53.7012C237.017 56.2941 239.074 58.44 241.667 58.44H262.856L262.945 57.6353C263.214 55.3106 265.091 53.5224 267.416 53.4329H269.472C272.154 53.4329 274.211 55.7576 274.121 58.2612H296.831C299.155 58.2612 300.943 56.5624 301.211 54.3271L302.731 37.6965" stroke="#1261BD" stroke-width="3" stroke-miterlimit="10" stroke-linejoin="round"/>
<path d="M203.579 87.0518L316.411 90.0023" stroke="#E7EDF4" stroke-width="3" stroke-miterlimit="10" stroke-linecap="round"/>
<path d="M202.059 103.951L314.891 106.901" stroke="#E7EDF4" stroke-width="3" stroke-miterlimit="10" stroke-linecap="round"/>
<path d="M199.198 120.849L312.03 123.8" stroke="#E7EDF4" stroke-width="3" stroke-miterlimit="10" stroke-linecap="round"/>
<path d="M196.427 137.659L309.437 140.609" stroke="#E7EDF4" stroke-width="3" stroke-miterlimit="10" stroke-linecap="round"/>
<path d="M193.744 154.468L306.576 157.508" stroke="#E7EDF4" stroke-width="3" stroke-miterlimit="10" stroke-linecap="round"/>
<path d="M229.15 303.518L201.434 292.878C196.427 291 190.794 293.414 188.738 298.511C186.86 303.518 189.274 309.151 194.37 311.207L222.086 321.847C227.093 323.725 232.726 321.311 234.782 316.214C236.749 311.028 234.335 305.395 229.15 303.518Z" fill="white"/>
<path d="M229.15 303.518L215.292 298.153L208.228 316.393L222.086 321.758C227.093 323.725 232.726 321.221 234.782 316.125C236.749 311.028 234.335 305.395 229.15 303.518Z" fill="#78CEFF"/>
<path d="M270.545 269.273L241.935 277.32C236.66 278.751 233.709 284.205 235.14 289.391C236.57 294.666 242.024 297.616 247.21 296.186L275.82 288.139C281.095 286.708 284.045 281.254 282.615 276.068C281.184 270.793 275.82 267.842 270.545 269.273Z" fill="white"/>
<path d="M270.545 269.273L256.24 273.386L261.515 292.252L275.82 288.139C281.095 286.708 284.045 281.254 282.615 276.068C281.184 270.793 275.82 267.842 270.545 269.273Z" fill="#78CEFF"/>
<path d="M123.203 47.5318H113.368V37.6965H102.371V47.5318H92.536V58.5294H102.371V68.3647H113.368V58.5294H123.203V47.5318Z" fill="#6DC433"/>
<path d="M151.187 87.1412H144.481V80.4353H137.061V87.1412H130.266V94.5624H137.061V101.268H144.481V94.5624H151.187V87.1412Z" fill="#78CEFF"/>
<path d="M374.972 268.647L421.732 132.384C422.715 129.522 420.927 126.482 417.798 125.32L339.12 98.3176C335.901 97.3341 332.593 98.5859 331.699 101.358L284.939 237.621C283.956 240.482 285.744 243.522 288.873 244.685L367.551 271.687C370.77 272.849 374.078 271.419 374.972 268.647Z" fill="#78CEFF"/>
<path opacity="0.6" d="M362.008 123.442L344.037 117.273C340.819 116.111 337.242 117.899 336.08 121.118C334.918 124.336 336.706 127.913 339.925 129.075L357.895 135.245C361.114 136.407 364.69 134.619 365.853 131.4C367.015 128.002 365.227 124.426 362.008 123.442Z" fill="#78CEFF"/>
<path opacity="0.6" d="M402.241 137.301L384.27 131.132C381.052 129.969 377.475 131.758 376.313 134.976C375.151 138.195 376.939 141.772 380.158 142.934L398.128 149.104C401.347 150.266 404.923 148.478 406.086 145.259C407.248 141.861 405.639 138.285 402.241 137.301Z" fill="#78CEFF"/>
<path opacity="0.6" d="M354.766 144.544L336.795 138.374C333.577 137.212 330 139 328.838 142.219C327.676 145.438 329.464 149.014 332.683 150.176L350.653 156.346C353.872 157.508 357.448 155.72 358.611 152.501C359.773 149.282 357.985 145.706 354.766 144.544Z" fill="#78CEFF"/>
<path opacity="0.6" d="M394.999 158.402L377.028 152.233C373.81 151.071 370.233 152.859 369.071 156.078C367.909 159.296 369.697 162.873 372.916 164.035L390.886 170.205C394.105 171.367 397.681 169.579 398.844 166.36C400.006 163.141 398.307 159.565 394.999 158.402Z" fill="#78CEFF"/>
<path opacity="0.6" d="M347.435 165.824L329.464 159.654C326.245 158.492 322.669 160.28 321.507 163.499C320.344 166.718 322.133 170.294 325.351 171.456L343.322 177.626C346.541 178.788 350.117 177 351.279 173.781C352.442 170.473 350.743 166.986 347.435 165.824Z" fill="#78CEFF"/>
<path opacity="0.6" d="M387.668 179.682L369.697 173.513C366.478 172.351 362.902 174.139 361.74 177.358C360.578 180.576 362.366 184.153 365.584 185.315L383.555 191.485C386.774 192.647 390.35 190.859 391.512 187.64C392.675 184.332 390.976 180.845 387.668 179.682Z" fill="#78CEFF"/>
<path opacity="0.6" d="M339.925 187.729L321.954 181.56C318.735 180.398 315.159 182.186 313.997 185.405C312.834 188.624 314.622 192.2 317.841 193.362L335.812 199.532C339.031 200.694 342.607 198.906 343.769 195.687C344.842 192.379 343.233 188.802 339.925 187.729Z" fill="#78CEFF"/>
<path opacity="0.6" d="M380.247 201.588L362.276 195.419C359.058 194.256 355.481 196.045 354.319 199.264C353.157 202.482 354.945 206.059 358.164 207.221L376.134 213.391C379.353 214.553 382.929 212.765 384.091 209.546C385.254 206.238 383.466 202.661 380.247 201.588Z" fill="#78CEFF"/>
<path opacity="0.6" d="M332.414 209.456L314.444 203.287C311.225 202.125 307.649 203.913 306.486 207.132C305.324 210.351 307.112 213.927 310.331 215.089L328.302 221.259C331.52 222.421 335.097 220.633 336.259 217.414C337.421 214.195 335.812 210.619 332.414 209.456Z" fill="#78CEFF"/>
<path opacity="0.6" d="M372.647 223.226L354.677 217.056C351.458 215.894 347.882 217.682 346.719 220.901C345.557 224.12 347.345 227.696 350.564 228.859L368.535 235.028C371.753 236.191 375.33 234.402 376.492 231.184C377.654 227.965 376.045 224.388 372.647 223.226Z" fill="#78CEFF"/>
<path opacity="0.6" d="M325.172 230.736L307.202 224.567C303.983 223.405 300.407 225.193 299.244 228.412C298.082 231.631 299.87 235.207 303.089 236.369L321.06 242.539C324.278 243.701 327.855 241.913 329.017 238.694C330.179 235.296 328.481 231.809 325.172 230.736Z" fill="#78CEFF"/>
<path opacity="0.6" d="M365.406 244.506L347.435 238.336C344.216 237.174 340.64 238.962 339.478 242.181C338.315 245.4 340.103 248.976 343.322 250.139L361.293 256.308C364.511 257.471 368.088 255.682 369.25 252.464C370.412 249.155 368.714 245.668 365.406 244.506Z" fill="#78CEFF"/>
<path d="M363.17 119.955L345.2 113.786C341.981 112.624 338.405 114.412 337.242 117.631C336.08 120.849 337.868 124.426 341.087 125.588L359.058 131.758C362.276 132.92 365.853 131.132 367.015 127.913C368.177 124.605 366.568 121.028 363.17 119.955Z" fill="white"/>
<path d="M363.349 128.002L340.193 120.045C339.03 119.687 338.047 118.882 337.242 117.988C336.348 121.207 338.136 124.426 341.176 125.588L359.147 131.758C362.187 132.741 365.674 131.221 366.925 128.271C365.853 128.539 364.601 128.449 363.349 128.002Z" fill="#E8E8E8"/>
<path d="M403.403 133.725L385.433 127.555C382.214 126.393 378.638 128.181 377.475 131.4C376.313 134.619 378.101 138.195 381.32 139.358L399.291 145.527C402.509 146.689 406.086 144.901 407.248 141.682C408.41 138.464 406.711 134.798 403.403 133.725Z" fill="white"/>
<path d="M403.672 141.861L380.515 133.904C379.353 133.546 378.369 132.741 377.565 131.847C376.671 135.066 378.459 138.285 381.499 139.447L399.469 145.616C402.509 146.6 405.996 145.08 407.248 142.129C406.086 142.398 404.834 142.308 403.672 141.861Z" fill="#E8E8E8"/>
<path d="M355.75 141.504L337.779 135.334C334.56 134.172 330.984 135.96 329.822 139.179C328.659 142.398 330.447 145.974 333.666 147.136L351.637 153.306C354.855 154.468 358.432 152.68 359.594 149.461C360.846 146.153 359.058 142.487 355.75 141.504Z" fill="white"/>
<path d="M356.018 149.729L332.861 141.772C331.699 141.414 330.716 140.609 329.911 139.715C329.017 142.934 330.805 146.153 333.845 147.315L351.816 153.485C354.855 154.468 358.342 152.948 359.594 149.998C358.432 150.087 357.18 150.087 356.018 149.729Z" fill="#E8E8E8"/>
<path d="M396.161 155.362L378.191 149.193C374.972 148.031 371.396 149.819 370.233 153.038C369.071 156.256 370.859 159.833 374.078 160.995L392.049 167.165C395.267 168.327 398.844 166.539 400.006 163.32C401.079 159.922 399.291 156.346 396.161 155.362Z" fill="white"/>
<path d="M396.251 163.499L373.094 155.541C371.932 155.184 370.949 154.379 370.144 153.485C369.25 156.704 371.038 159.922 374.078 161.085L392.049 167.254C395.089 168.238 398.575 166.718 399.827 163.767C398.665 163.946 397.413 163.946 396.251 163.499Z" fill="#E8E8E8"/>
<path d="M348.508 163.052L330.537 156.882C327.318 155.72 323.742 157.508 322.58 160.727C321.417 163.946 323.205 167.522 326.424 168.685L344.395 174.854C347.614 176.016 351.19 174.228 352.352 171.009C353.425 167.612 351.637 164.214 348.508 163.052Z" fill="white"/>
<path d="M348.597 171.278L325.441 163.32C324.278 162.962 323.295 162.158 322.49 161.264C321.596 164.482 323.384 167.701 326.424 168.864L344.395 175.033C347.435 176.016 350.922 174.496 352.173 171.546C351.011 171.635 349.759 171.635 348.597 171.278Z" fill="#E8E8E8"/>
<path d="M388.651 176.911L370.68 170.741C367.462 169.579 363.886 171.367 362.723 174.586C361.561 177.805 363.349 181.381 366.568 182.544L384.539 188.713C387.757 189.875 391.333 188.087 392.496 184.868C393.658 181.471 391.87 177.984 388.651 176.911Z" fill="white"/>
<path d="M388.83 185.047L365.674 177.089C364.511 176.732 363.528 175.927 362.723 175.033C361.829 178.252 363.617 181.471 366.657 182.633L384.628 188.802C387.668 189.786 391.155 188.266 392.406 185.315C391.244 185.494 389.992 185.494 388.83 185.047Z" fill="#E8E8E8"/>
<path d="M340.997 184.6L323.027 178.431C319.808 177.268 316.232 179.056 315.069 182.275C313.907 185.494 315.695 189.071 318.914 190.233L336.885 196.402C340.103 197.565 343.68 195.776 344.842 192.558C346.004 189.339 344.216 185.673 340.997 184.6Z" fill="white"/>
<path d="M341.176 192.736L318.02 184.779C316.858 184.421 315.874 183.616 315.069 182.722C314.175 185.941 315.964 189.16 319.003 190.322L336.974 196.492C340.014 197.475 343.501 195.955 344.753 193.005C343.59 193.184 342.339 193.184 341.176 192.736Z" fill="#E8E8E8"/>
<path d="M381.23 198.369L363.26 192.2C360.041 191.038 356.465 192.826 355.302 196.045C354.14 199.264 355.928 202.84 359.147 204.002L377.118 210.172C380.336 211.334 383.913 209.546 385.075 206.327C386.237 203.108 384.449 199.532 381.23 198.369Z" fill="white"/>
<path d="M381.409 206.595L358.253 198.638C357.091 198.28 356.107 197.475 355.302 196.581C354.408 199.8 356.197 203.019 359.236 204.181L377.207 210.351C380.247 211.334 383.734 209.814 384.986 206.864C383.823 206.953 382.661 206.953 381.409 206.595Z" fill="#E8E8E8"/>
<path d="M333.577 206.238L315.606 200.068C312.387 198.906 308.811 200.694 307.649 203.913C306.486 207.132 308.275 210.708 311.493 211.871L329.464 218.04C332.683 219.202 336.259 217.414 337.421 214.195C338.583 210.798 336.795 207.221 333.577 206.238Z" fill="white"/>
<path d="M333.756 214.285L310.599 206.327C309.437 205.969 308.453 205.165 307.649 204.271C306.755 207.489 308.543 210.708 311.583 211.871L329.553 218.04C332.593 219.024 336.08 217.504 337.332 214.553C336.169 214.821 335.007 214.821 333.756 214.285Z" fill="#E8E8E8"/>
<path d="M373.81 220.096L355.839 213.927C352.62 212.765 349.044 214.553 347.882 217.772C346.719 220.991 348.508 224.567 351.726 225.729L369.697 231.899C372.916 233.061 376.492 231.273 377.654 228.054C378.817 224.656 377.118 221.08 373.81 220.096Z" fill="white"/>
<path d="M373.989 228.144L350.832 220.186C349.67 219.828 348.686 219.024 347.882 218.129C346.988 221.348 348.776 224.567 351.816 225.729L369.786 231.899C372.826 232.882 376.313 231.362 377.565 228.412C376.403 228.68 375.24 228.68 373.989 228.144Z" fill="#E8E8E8"/>
<path d="M326.156 227.786L308.185 221.616C304.967 220.454 301.39 222.242 300.228 225.461C299.066 228.68 300.854 232.256 304.072 233.419L322.043 239.588C325.262 240.751 328.838 238.962 330 235.744C331.163 232.346 329.464 228.948 326.156 227.786Z" fill="white"/>
<path d="M326.335 235.922L303.089 227.965C301.927 227.607 300.943 226.802 300.139 225.908C299.245 229.127 301.033 232.346 304.072 233.508L322.043 239.678C325.083 240.661 328.57 239.141 329.822 236.191C328.749 236.369 327.586 236.369 326.335 235.922Z" fill="#E8E8E8"/>
<path d="M366.389 241.555L348.418 235.386C345.2 234.224 341.623 236.012 340.461 239.231C339.299 242.449 341.087 246.026 344.306 247.188L362.276 253.358C365.495 254.52 369.071 252.732 370.233 249.513C371.396 246.205 369.697 242.718 366.389 241.555Z" fill="white"/>
<path d="M366.568 249.781L343.411 241.824C342.249 241.466 341.266 240.661 340.461 239.767C339.567 242.986 341.355 246.205 344.395 247.367L362.366 253.536C365.406 254.52 368.892 253 370.144 250.049C369.071 250.139 367.82 250.139 366.568 249.781Z" fill="#E8E8E8"/>
</g>
<defs>
<clipPath id="clip0">
<rect width="422" height="304" fill="white" transform="translate(0 25)"/>
</clipPath>
</defs>
</svg>
