<svg width="110" height="110" viewBox="0 0 110 110" fill="none" xmlns="http://www.w3.org/2000/svg">
<path d="M102.309 49.7148L99.4512 38.3281C100.225 38.1562 100.805 37.4688 100.805 36.6523V34.8047C100.805 30.8086 97.5605 27.5645 93.5645 27.5645H80.5879V23.7832C80.5879 21.8281 78.998 20.2168 77.0215 20.2168H10.9141C8.95898 20.2168 7.34766 21.8066 7.34766 23.7832V55C7.34766 55.9453 8.12109 56.7188 9.06641 56.7188C10.0117 56.7188 10.7852 55.9453 10.7852 55V23.7617C10.7852 23.6973 10.8281 23.6543 10.8926 23.6543H77.0215C77.0859 23.6543 77.1289 23.6973 77.1289 23.7617V55C77.1289 55.9453 77.9023 56.7188 78.8477 56.7188C79.793 56.7188 80.5664 55.9453 80.5664 55V53.0449H100.891C103.383 53.0449 105.51 54.6777 106.24 56.9551H100.891C99.9453 56.9551 99.1719 57.7285 99.1719 58.6738V62.3477C99.1719 65.334 101.6 67.7402 104.564 67.7402H106.52V75.3242H102.008C100.525 71.0488 96.4648 67.9766 91.6953 67.9766C86.9258 67.9766 82.8652 71.0488 81.3828 75.3242H80.5449V62.3477C80.5449 61.4023 79.7715 60.6289 78.8262 60.6289C77.8809 60.6289 77.1074 61.4023 77.1074 62.3477V75.3242H41.4219C39.9395 71.0488 35.8789 67.9766 31.1094 67.9766C26.3398 67.9766 22.2793 71.0488 20.7969 75.3242H10.9141C10.8496 75.3242 10.8066 75.2812 10.8066 75.2168V71.4355H18.2617C19.207 71.4355 19.9805 70.6621 19.9805 69.7168C19.9805 68.7715 19.207 67.998 18.2617 67.998H1.71875C0.773438 67.998 0 68.7715 0 69.7168C0 70.6621 0.773438 71.4355 1.71875 71.4355H7.34766V75.2168C7.34766 77.1719 8.9375 78.7832 10.9141 78.7832H20.2168C20.2168 78.8262 20.2168 78.8691 20.2168 78.8906C20.2168 84.9062 25.1152 89.8047 31.1309 89.8047C37.1465 89.8047 42.0449 84.9062 42.0449 78.8906C42.0449 78.8477 42.0449 78.8047 42.0449 78.7832H80.8672C80.8672 78.8262 80.8672 78.8691 80.8672 78.8906C80.8672 84.9062 85.7656 89.8047 91.7812 89.8047C97.7969 89.8047 102.695 84.9062 102.695 78.8906C102.695 78.8477 102.695 78.8047 102.695 78.7832H108.281C109.227 78.7832 110 78.0098 110 77.0645V58.6953C110 54.1406 106.648 50.3594 102.309 49.7148ZM80.6094 31.002H93.5859C95.6699 31.002 97.3672 32.6992 97.3672 34.7832V34.8906H80.6094V31.002ZM80.6094 49.6074V38.3496H95.9062L98.7207 49.6074H80.6094ZM31.1094 86.3457C26.9844 86.3457 23.6543 82.9941 23.6543 78.8906C23.6543 74.7871 27.0059 71.4355 31.1094 71.4355C35.2129 71.4355 38.5645 74.7871 38.5645 78.8906C38.5645 82.9941 35.2344 86.3457 31.1094 86.3457ZM91.7383 86.3457C87.6133 86.3457 84.2832 82.9941 84.2832 78.8906C84.2832 74.7871 87.6348 71.4355 91.7383 71.4355C95.8633 71.4355 99.1934 74.7871 99.1934 78.8906C99.1934 82.9941 95.8633 86.3457 91.7383 86.3457ZM106.562 64.3027H104.607C103.533 64.3027 102.652 63.4219 102.652 62.3477V60.3926H106.562V64.3027Z" fill="#6DC433"/>
<path d="M31.1094 75.3242C29.1543 75.3242 27.543 76.9141 27.543 78.8906C27.543 80.8672 29.1328 82.457 31.1094 82.457C33.0645 82.457 34.6758 80.8672 34.6758 78.8906C34.6758 76.9141 33.0859 75.3242 31.1094 75.3242Z" fill="#6DC433"/>
<path d="M91.7383 75.3242C89.7832 75.3242 88.1719 76.9141 88.1719 78.8906C88.1719 80.8672 89.7617 82.457 91.7383 82.457C93.7149 82.457 95.3047 80.8672 95.3047 78.8906C95.3047 76.9141 93.7149 75.3242 91.7383 75.3242Z" fill="#6DC433"/>
<path d="M71.543 67.9766H45.8047C44.8594 67.9766 44.0859 68.75 44.0859 69.6953C44.0859 70.6406 44.8594 71.4141 45.8047 71.4141H71.543C72.4883 71.4141 73.2617 70.6406 73.2617 69.6953C73.2617 68.75 72.4883 67.9766 71.543 67.9766Z" fill="#6DC433"/>
<path d="M27.4355 60.6289H5.39258C4.44727 60.6289 3.67383 61.4023 3.67383 62.3477C3.67383 63.293 4.44727 64.0664 5.39258 64.0664H27.4355C28.3809 64.0664 29.1543 63.293 29.1543 62.3477C29.1543 61.4023 28.4023 60.6289 27.4355 60.6289Z" fill="#6DC433"/>
<path d="M57.6855 33.2793C54.6992 30.293 49.8223 30.293 46.8359 33.2793L43.6777 36.4375L40.5195 33.2793C37.5332 30.293 32.6562 30.293 29.6699 33.2793C26.6836 36.2656 26.6836 41.1426 29.6699 44.1289L32.8281 47.2871L38.0059 52.4648C38.0273 52.4863 38.0703 52.5078 38.0918 52.5508L38.2637 52.7227C39.7461 54.2051 41.7227 54.957 43.6992 54.957C45.6758 54.957 47.6309 54.2051 49.1348 52.7227L54.5703 47.2871L57.7285 44.1289C60.6719 41.1426 60.6719 36.2871 57.6855 33.2793ZM32.0547 41.7227C30.4004 40.0684 30.4004 37.3398 32.0547 35.6856C32.8926 34.8477 33.9883 34.4395 35.0625 34.4395C36.1367 34.4395 37.2539 34.8477 38.0703 35.6856L41.2285 38.8438L35.1914 44.8809L32.0547 41.7227ZM46.9219 50.0801C45.1172 51.8848 42.2383 51.8848 40.3906 50.1231L37.5977 47.3301L43.6348 41.293L49.6719 47.3301L46.9219 50.0801ZM55.2793 41.7227L52.1211 44.8809L46.084 38.8438L49.2422 35.6856C50.8965 34.0313 53.625 34.0313 55.2793 35.6856C56.9336 37.3613 56.9336 40.0684 55.2793 41.7227Z" fill="#6DC433"/>
</svg>
