<svg width="930" height="692" viewBox="0 0 930 692" fill="none" xmlns="http://www.w3.org/2000/svg">
<g clip-path="url(#clip0)">
<rect width="1440" height="5266" transform="translate(-510)" fill="white"/>
<rect x="-7" y="370" width="1072.11" height="509.9" rx="40" transform="rotate(-69.1646 -7 370)" fill="url(#paint0_linear)"/>
<rect x="-7" y="370" width="1072.11" height="509.9" rx="40" transform="rotate(-69.1646 -7 370)" fill="url(#paint1_linear)"/>
<rect x="13" y="17.2388" width="994.73" height="679.655" rx="40" transform="rotate(-13.6199 13 17.2388)" fill="url(#paint2_linear)"/>
<g clip-path="url(#clip1)">
<path d="M875.032 142.005C853.553 93.6323 770.728 122.563 770.728 122.563C770.728 122.563 726.457 219.771 709.923 224.478C693.389 229.184 731.479 133.981 731.479 133.981C698.488 135.833 621.458 188.603 621.458 188.603C621.458 188.603 642.628 290.826 625.475 291.289C608.323 291.752 611.336 199.867 611.336 199.867C581.204 214.217 557.407 255.492 557.407 255.492C529.825 321.069 615.586 353.085 615.586 353.085C615.586 353.085 622.153 388.651 606.392 433.012C606.392 433.012 602.606 441.344 599.515 455L608.091 453.688C608.4 451.297 608.864 448.905 609.405 446.668C609.405 446.668 609.405 446.668 609.405 446.59V446.513C609.791 445.125 610.332 443.042 611.027 440.573C612.882 435.018 614.041 430.929 614.736 428.075C620.144 410.716 628.257 387.957 635.133 382.402C635.133 382.402 633.974 381.245 632.661 378.776C633.433 379.933 634.283 381.168 635.133 382.402C654.758 411.642 729.238 405.547 768.951 390.811C808.664 376.076 789.039 367.281 764.006 351.928C738.974 336.576 693.466 348.611 678.632 343.365C663.797 338.118 682.649 327.703 710.387 325.543C738.046 323.46 755.971 348.688 800.861 346.065C845.75 343.442 866.611 255.26 866.611 255.26C837.56 269.456 780.232 261.046 776.523 250.863C772.814 240.679 854.017 229.261 866.147 224.169C878.355 219 896.511 190.378 875.032 142.005Z" fill="#DFEBFD" fill-opacity="0.25"/>
</g>
<g clip-path="url(#clip2)">
<path d="M332.029 278.303C352.861 248.183 405.351 278.602 405.351 278.602C405.351 278.602 422.785 350.464 433.388 355.808C443.99 361.152 430.476 291.457 430.476 291.457C452.726 297.025 498.123 342.878 498.123 342.878C498.123 342.878 470.497 409.658 482.07 412.237C493.643 414.815 503.536 351.847 503.536 351.847C522.128 365.487 532.917 396.691 532.917 396.691C543.146 444.898 480.763 455.511 480.763 455.511C480.763 455.511 471.691 478.867 476.619 511.117C476.619 511.117 478.113 517.283 478.449 526.962L472.774 524.944C472.849 523.263 472.849 521.618 472.811 519.974V519.937C472.811 519.899 472.811 519.899 472.811 519.862C472.737 518.853 472.625 517.395 472.475 515.639C471.953 511.641 471.654 508.688 471.579 506.633C471.579 506.633 471.579 506.633 471.579 506.596C470.161 494.077 467.622 477.559 463.665 472.851C463.665 472.851 464.598 472.178 465.793 470.683C465.121 471.393 464.411 472.103 463.665 472.851C446.566 490.228 396.802 476.401 371.714 461.229C346.664 446.056 361.149 442.618 380.114 435.406C399.079 428.194 428.423 442.319 439.174 440.675C449.926 439.031 438.465 429.464 419.948 424.457C401.431 419.412 386.012 434.248 355.885 426.661C325.72 419.113 323.032 356.406 323.032 356.406C340.914 369.822 380.935 371.541 384.78 365.076C388.626 358.611 335.016 340.337 327.437 335.292C319.821 330.247 311.16 308.423 332.029 278.303Z" fill="#CDE0FB" fill-opacity="0.25"/>
</g>
<g clip-path="url(#clip3)">
<path d="M747.766 208.01C747.766 201.086 745.346 194.266 741.504 188.889L741.609 188.81C738.03 183.722 733.162 179.918 727.794 178.554L544.38 132.154C539.749 130.974 535.486 131.813 532.091 134.2L520.96 142.541L524.46 499.448C524.46 499.684 524.486 499.842 524.539 499.92C524.618 513.166 533.486 526.124 544.433 528.904L730.083 579.134L738.056 572.812C744.109 567.986 747.714 563.37 747.714 554.609L747.766 208.01Z" fill="#A7B2D9"/>
<path d="M615.035 290.476C615.035 290.476 514.619 521.743 514.934 508.104L519.934 142.253L531.828 133.675C535.302 131.236 539.617 130.371 544.249 131.551L727.846 178.476C733.215 179.84 738.03 183.722 741.504 188.941L615.035 290.476Z" fill="#B1BDE6"/>
<path d="M716.163 582.36L533.197 535.829C522.197 533.048 513.75 519.881 513.75 506.583V158.358C513.75 145.059 522.434 136.587 533.407 139.367L716.268 185.925C727.267 188.705 735.609 201.899 735.609 215.197V563.422C735.609 576.721 727.136 585.14 716.163 582.36Z" fill="white"/>
<path d="M712.479 584.59L529.512 538.058C518.513 535.278 510.066 522.111 510.066 508.812V160.587C510.066 147.289 518.75 138.817 529.723 141.597L712.61 188.128C723.61 190.909 731.952 204.102 731.952 217.401V565.626C731.952 578.95 723.478 587.37 712.479 584.59Z" fill="#1261BD"/>
<path d="M716.9 211.63C716.9 209.637 715.716 208.115 713.821 207.617L530.697 161.295C526.592 160.246 521.46 164.338 521.46 168.64V470.517V505.428C521.46 507.422 522.645 508.943 524.539 509.442L707.663 555.763C711.768 556.812 716.9 552.721 716.9 548.419V246.542V211.63Z" fill="#DEE8FF"/>
<path d="M199.368 551.435L358.572 443.317L486.093 475.054L480.699 556.052L411.596 587.527C411.596 587.527 236.919 636.996 230.972 634.977C225.051 632.931 199.368 551.435 199.368 551.435Z" fill="#5C73A8"/>
<path d="M377.782 544.065L366.677 445.31L486.093 475.028L480.698 556.025L411.596 587.501L377.782 544.065Z" fill="#708CCC"/>
<path d="M222.367 544.589L367.966 452.182C369.177 451.422 370.677 451.185 371.993 451.553L464.515 478.569C465.278 478.805 465.883 479.199 466.278 479.697L488.83 473.691C487.646 471.645 485.567 469.94 482.646 469.074L382.887 439.172C374.782 436.733 365.23 438.202 357.625 443.002L200.921 542.412C197 544.904 195.079 548.471 195 551.855L222.367 544.589Z" fill="#1261BD"/>
<path d="M312.232 666.977C312.232 666.977 323.573 669.495 335.178 663.672C344.257 659.108 328.968 654.282 328.968 654.282L305.758 655.095L312.232 666.977Z" fill="#92A8D9"/>
<path d="M309.442 654.256C309.442 654.256 321.573 659.738 336.073 650.898C350.941 641.849 318.81 638.99 318.81 638.99L309.442 654.256Z" fill="#97B3E8"/>
<path d="M291.68 657.613C261.734 649.849 254.445 617.718 277.733 596.183L285.733 590.465L375.098 529.586L457.831 558.675C467.962 562.924 467.936 575.304 457.778 581.599L349.651 648.59C332.52 659.213 311.311 662.675 292.811 657.901L291.68 657.613Z" fill="#657EB8"/>
<path d="M709.89 656.886C710.078 654.082 706.057 651.531 700.909 651.188C695.761 650.845 691.436 652.84 691.248 655.645C691.06 658.449 695.08 661 700.228 661.343C705.376 661.686 709.702 659.69 709.89 656.886Z" fill="#BAC7F2"/>
<path d="M729.294 640.511L729.136 640.275L727.452 637.836L727.241 637.521L727.215 637.547C726.347 636.55 724.873 635.973 722.978 636.052C718.794 636.236 714.031 639.514 712.373 643.37C711.61 645.128 711.637 646.675 712.268 647.855L712.242 647.882L714.321 650.872C715.189 651.921 716.689 652.524 718.636 652.446C722.82 652.262 727.583 648.983 729.241 645.128C730.031 643.318 730.004 641.691 729.294 640.511Z" fill="#BAC7F2"/>
<path d="M795.133 610.137L744.741 641.298C744.267 640.931 743.925 640.721 743.925 640.721L725.136 636.026L724.11 644.629C724.11 644.629 731.531 650.898 740.53 649.167C744.504 650.164 748.083 649.429 750.846 647.147L796.107 625.823C796.923 625.613 797.686 625.272 798.449 624.878C809.501 619.003 799.501 608.144 795.133 610.137Z" fill="#BAC7F2"/>
<path d="M799.37 608.38C800.975 594.95 793.449 577.481 782.581 569.402C777.397 565.547 772.397 564.498 768.397 565.914C767.976 566.071 767.555 566.255 767.134 566.465L717.242 587.58L744.688 643.16L790.107 621.757C794.975 620.498 798.501 615.855 799.37 608.38Z" fill="#6DC433"/>
<path d="M742.288 644.722C751.437 640.809 753.344 624.838 746.548 609.049C739.752 593.26 726.826 583.632 717.677 587.545C708.528 591.458 706.621 607.429 713.417 623.218C720.213 639.007 733.14 648.635 742.288 644.722Z" fill="#6DC433"/>
<path d="M735.832 641.635C743.375 638.438 744.989 625.298 739.437 612.288C733.885 599.278 723.27 591.323 715.727 594.521C708.185 597.719 706.571 610.858 712.123 623.868C717.674 636.879 728.29 644.833 735.832 641.635Z" fill="#3C9326"/>
<path d="M789.361 616.928C796.904 613.73 798.517 600.59 792.966 587.58C787.414 574.57 776.799 566.615 769.256 569.813C761.714 573.011 760.1 586.15 765.651 599.16C771.203 612.171 781.818 620.125 789.361 616.928Z" fill="#3C9326"/>
<path d="M730.767 596.393C725.478 592.458 720.399 591.855 716.689 594.085C719.136 594.399 721.794 595.553 724.531 597.573C734.109 604.708 740.714 620.078 739.293 631.908C738.662 637.206 736.53 640.905 733.504 642.714C739.688 643.528 744.53 639.173 745.556 630.727C746.951 618.898 740.346 603.527 730.767 596.393Z" fill="#6DC433"/>
<path opacity="0.5" d="M728.03 596.603C737.609 603.737 744.214 619.108 742.819 630.937" stroke="white" stroke-width="3.1667" stroke-miterlimit="10" stroke-linecap="round" stroke-linejoin="round"/>
<path d="M725.662 639.226C716.084 632.091 709.479 616.721 710.9 604.891C711.531 599.593 713.663 595.895 716.689 594.085C710.505 593.272 705.663 597.626 704.637 606.072C703.216 617.901 709.847 633.272 719.399 640.406C724.688 644.341 729.767 644.944 733.478 642.714C731.057 642.4 728.372 641.246 725.662 639.226Z" fill="#90CC3D"/>
<path opacity="0.24" d="M766.318 578.662L739.872 590.517C737.898 591.409 735.53 590.517 734.635 588.55C733.74 586.583 734.635 584.222 736.609 583.33L763.055 571.475C765.029 570.583 767.397 571.475 768.292 573.442C769.186 575.435 768.292 577.77 766.318 578.662Z" fill="#FCFEFF"/>
<path d="M737.284 638.188C737.886 635.102 734.361 631.823 729.411 630.863C724.461 629.904 719.96 631.627 719.358 634.713C718.756 637.799 722.281 641.078 727.231 642.037C732.181 642.997 736.682 641.274 737.284 638.188Z" fill="white"/>
<path d="M719.957 631.367L719.259 634.946L737.16 638.414L737.858 634.836L719.957 631.367Z" fill="white"/>
<path d="M737.834 635.255C738.436 632.169 734.911 628.89 729.961 627.93C725.011 626.971 720.51 628.694 719.908 631.78C719.306 634.865 722.831 638.145 727.781 639.104C732.731 640.064 737.232 638.341 737.834 635.255Z" fill="white"/>
<path d="M737.834 635.255C738.436 632.169 734.911 628.89 729.961 627.93C725.011 626.971 720.51 628.694 719.908 631.78C719.306 634.865 722.831 638.145 727.781 639.104C732.731 640.064 737.232 638.341 737.834 635.255Z" stroke="#DEE8FF" stroke-width="3.1667" stroke-miterlimit="10" stroke-linecap="round" stroke-linejoin="round"/>
<path d="M735.496 634.401C735.935 632.155 733.364 629.766 729.755 629.067C726.146 628.367 722.864 629.621 722.426 631.868C721.988 634.115 724.558 636.503 728.167 637.203C731.777 637.902 735.058 636.648 735.496 634.401Z" fill="#EDF3FF"/>
<path d="M720.406 649.604C724.555 646.746 726.464 642.332 724.671 639.747C722.878 637.161 718.061 637.382 713.913 640.24C709.764 643.098 707.855 647.511 709.648 650.097C711.441 652.683 716.258 652.462 720.406 649.604Z" fill="white"/>
<path d="M722.734 637.007L707.732 647.342L709.812 650.341L724.813 640.006L722.734 637.007Z" fill="white"/>
<path d="M718.702 647.173C722.85 644.315 724.76 639.902 722.966 637.316C721.173 634.73 716.357 634.951 712.208 637.809C708.06 640.667 706.15 645.08 707.944 647.666C709.737 650.252 714.553 650.031 718.702 647.173Z" fill="white"/>
<path d="M718.702 647.173C722.85 644.315 724.76 639.902 722.966 637.316C721.173 634.73 716.357 634.951 712.208 637.809C708.06 640.667 706.15 645.08 707.944 647.666C709.737 650.252 714.553 650.031 718.702 647.173Z" stroke="#DEE8FF" stroke-width="3.1667" stroke-miterlimit="10" stroke-linecap="round" stroke-linejoin="round"/>
<path d="M717.609 645.577C720.634 643.493 722.028 640.278 720.722 638.395C719.416 636.512 715.906 636.675 712.881 638.759C709.857 640.843 708.463 644.059 709.769 645.941C711.074 647.824 714.585 647.661 717.609 645.577Z" fill="#EDF3FF"/>
<path d="M727.245 628.038C729.628 625.98 728.884 621.232 725.582 617.432C722.279 613.633 717.67 612.222 715.287 614.28C712.903 616.339 713.648 621.087 716.95 624.886C720.252 628.686 724.861 630.097 727.245 628.038Z" fill="white"/>
<path d="M717.849 612.108L715.084 614.496L727.025 628.234L729.789 625.846L717.849 612.108Z" fill="white"/>
<path d="M729.508 626.092C731.892 624.034 731.147 619.285 727.845 615.486C724.543 611.687 719.934 610.275 717.55 612.334C715.167 614.392 715.911 619.141 719.213 622.94C722.516 626.739 727.125 628.15 729.508 626.092Z" fill="white"/>
<path d="M729.508 626.092C731.892 624.034 731.147 619.285 727.845 615.486C724.543 611.687 719.934 610.275 717.55 612.334C715.167 614.392 715.911 619.141 719.213 622.94C722.516 626.739 727.125 628.15 729.508 626.092Z" stroke="#DEE8FF" stroke-width="3.1667" stroke-miterlimit="10" stroke-linecap="round" stroke-linejoin="round"/>
<path d="M728.175 623.973C729.91 622.474 729.365 619.014 726.958 616.243C724.55 613.473 721.191 612.443 719.456 613.942C717.72 615.44 718.265 618.901 720.673 621.671C723.081 624.441 726.439 625.472 728.175 623.973Z" fill="#EDF3FF"/>
<path d="M704.453 655.803V655.541L704.611 652.183L702.821 652.105C702.558 651.869 702.295 651.633 701.953 651.423C698.506 649.036 692.716 648.8 689.059 650.846C688.717 651.029 688.427 651.239 688.138 651.449L686.348 651.37L686.19 654.99H686.217C686.269 656.354 687.085 657.744 688.69 658.846C692.138 661.233 697.927 661.469 701.585 659.423C703.321 658.478 704.242 657.167 704.453 655.803Z" fill="white"/>
<path d="M704.604 652.563C704.746 649.422 700.778 646.693 695.74 646.466C690.702 646.238 686.502 648.6 686.359 651.74C686.217 654.881 690.186 657.611 695.224 657.838C700.262 658.065 704.461 655.703 704.604 652.563Z" fill="white"/>
<path d="M704.604 652.563C704.746 649.422 700.778 646.693 695.74 646.466C690.702 646.238 686.502 648.6 686.359 651.74C686.217 654.881 690.186 657.611 695.224 657.838C700.262 658.065 704.461 655.703 704.604 652.563Z" stroke="#DEE8FF" stroke-width="3.1667" stroke-miterlimit="10" stroke-linecap="round" stroke-linejoin="round"/>
<path d="M700.084 654.911C697.4 656.406 693.19 656.223 690.664 654.492C688.137 652.761 688.243 650.138 690.927 648.616C693.611 647.095 697.821 647.305 700.347 649.036C702.874 650.767 702.742 653.416 700.084 654.911Z" fill="#EDF3FF"/>
<path opacity="0.5" d="M708.268 606.098C708.268 606.098 706.821 617.009 711.689 624.249" stroke="white" stroke-width="3.1667" stroke-miterlimit="10" stroke-linecap="round" stroke-linejoin="round"/>
<path d="M699.321 652.105C699.321 652.105 699.295 652.105 699.269 652.105L691.795 651.344C691.585 651.318 691.427 651.134 691.453 650.924C691.479 650.714 691.664 650.557 691.874 650.583L699.347 651.344C699.558 651.37 699.716 651.554 699.69 651.764C699.69 651.947 699.532 652.105 699.321 652.105Z" fill="#DEE8FF"/>
<path d="M712.978 644.629C712.899 644.629 712.794 644.603 712.715 644.524C712.557 644.393 712.531 644.131 712.662 643.973L716.557 639.462C716.688 639.305 716.952 639.278 717.11 639.41C717.267 639.541 717.294 639.803 717.162 639.96L713.268 644.472C713.189 644.577 713.083 644.629 712.978 644.629Z" fill="#DEE8FF"/>
<path d="M732.399 634.111C732.372 634.111 732.346 634.111 732.293 634.111L726.504 632.642C726.294 632.59 726.162 632.38 726.215 632.17C726.267 631.96 726.478 631.829 726.688 631.882L732.478 633.35C732.688 633.403 732.82 633.613 732.767 633.823C732.741 634.006 732.583 634.111 732.399 634.111Z" fill="#DEE8FF"/>
<path d="M725.793 621.495C725.662 621.495 725.53 621.416 725.451 621.311L722.346 616.222C722.241 616.039 722.293 615.803 722.478 615.672C722.662 615.567 722.899 615.619 723.03 615.803L726.136 620.891C726.241 621.075 726.188 621.311 726.004 621.442C725.951 621.495 725.872 621.495 725.793 621.495Z" fill="#DEE8FF"/>
<path opacity="0.5" d="M717.294 587.58C717.294 587.58 731.662 579.527 746.082 607.96C746.082 607.96 757.24 631.908 744.766 643.16" stroke="white" stroke-width="1.4428" stroke-miterlimit="10" stroke-linecap="round" stroke-linejoin="round"/>
<path d="M396.124 587.962C416.727 586.167 432.791 577.447 432.005 568.486C431.22 559.524 413.881 553.714 393.279 555.508C372.677 557.303 356.613 566.023 357.398 574.985C358.184 583.946 375.522 589.756 396.124 587.962Z" fill="#586EA1"/>
<path d="M411.228 471.382C410.859 452.182 391.176 437.074 367.23 437.651C343.283 438.228 324.152 454.254 324.521 473.481L326.1 559.409H326.258C326.179 560.406 326.126 561.403 326.152 562.425C326.521 581.626 346.099 591.567 370.045 590.99C393.992 590.413 413.201 579.553 412.859 560.327C412.833 558.884 412.701 557.442 412.438 556.025C412.465 556.025 411.254 472.825 411.228 471.382Z" fill="#78CEFF"/>
<path opacity="0.27" d="M406.491 494.307C406.465 493.205 406.359 492.13 406.149 491.055C405.465 500.025 384.781 504.563 368.703 505.428C348.836 506.504 332.389 500.209 330.547 493.992C330.468 494.701 330.442 495.409 330.468 496.117L331.678 561.901H331.81C331.731 562.662 331.705 563.422 331.705 564.209C331.968 578.924 349.099 584.904 370.098 584.406C391.097 583.908 407.991 577.088 407.701 562.373C407.675 561.271 407.57 560.17 407.359 559.094C407.386 559.094 406.517 495.409 406.491 494.307Z" fill="#FCFEFF"/>
<path opacity="0.27" d="M368.808 505.403C389.73 504.88 406.526 497.951 406.324 489.928C406.122 481.905 388.998 475.826 368.077 476.349C347.155 476.872 330.359 483.801 330.561 491.824C330.763 499.847 347.887 505.926 368.808 505.403Z" fill="#FCFEFF"/>
<path d="M371.271 581.865C387.921 581.447 401.283 575.767 401.117 569.178C400.951 562.588 387.318 557.585 370.668 558.003C354.018 558.421 340.655 564.101 340.822 570.69C340.988 577.28 354.621 582.283 371.271 581.865Z" fill="#78CEFF"/>
<path d="M367.687 454.762C380.952 454.417 391.563 448.678 391.386 441.944C391.21 435.21 380.314 430.031 367.049 430.376C353.784 430.721 343.174 436.46 343.35 443.194C343.526 449.928 354.423 455.107 367.687 454.762Z" fill="#21386B"/>
<path d="M391.386 441.979C391.518 448.72 380.861 454.438 367.598 454.753L362.809 454.622C376.676 451.395 383.887 444.418 383.15 433.061C388.15 435.185 391.307 438.359 391.386 441.979Z" fill="#21386B"/>
<path d="M388.782 426.241L345.362 427.29L345.625 441.297C345.731 447.356 355.546 452.051 367.546 451.763C369.414 451.71 371.23 451.553 372.966 451.29C373.651 451.186 374.335 451.054 374.993 450.923C376.308 450.635 377.571 450.294 378.782 449.9C379.308 449.717 379.782 449.533 380.282 449.349C380.913 449.087 381.519 448.825 382.098 448.563C382.361 448.431 382.598 448.3 382.834 448.169C383.571 447.776 384.229 447.356 384.861 446.936C385.097 446.753 385.334 446.569 385.571 446.386C386.282 445.809 386.913 445.205 387.413 444.576C388.492 443.238 389.071 441.769 389.045 440.248L388.782 426.241Z" fill="white"/>
<path d="M345.546 439.776C345.652 445.861 355.467 450.556 367.467 450.267C369.335 450.215 371.151 450.058 372.887 449.795C373.572 449.69 374.256 449.559 374.914 449.428C376.229 449.14 377.492 448.799 378.703 448.405C379.229 448.222 379.703 448.038 380.203 447.854C380.834 447.592 381.44 447.33 382.019 447.067C382.282 446.936 382.519 446.805 382.755 446.674C383.492 446.281 384.15 445.861 384.782 445.415C385.018 445.231 385.255 445.048 385.492 444.864C386.203 444.287 386.834 443.684 387.334 443.028C388.413 441.69 388.992 440.222 388.966 438.7" stroke="white" stroke-width="1.3142" stroke-miterlimit="10" stroke-linecap="round" stroke-linejoin="round"/>
<path d="M367.361 437.761C379.348 437.455 388.949 432.71 388.806 427.163C388.663 421.617 378.831 417.369 366.844 417.676C354.858 417.982 345.257 422.727 345.4 428.274C345.542 433.82 355.375 438.068 367.361 437.761Z" fill="white"/>
<path d="M367.361 437.761C379.348 437.455 388.949 432.71 388.806 427.163C388.663 421.617 378.831 417.369 366.844 417.676C354.858 417.982 345.257 422.727 345.4 428.274C345.542 433.82 355.375 438.068 367.361 437.761Z" stroke="#2E4E94" stroke-width="2.5479" stroke-miterlimit="10" stroke-linecap="round" stroke-linejoin="round"/>
<path d="M367.581 432.619C374.889 432.435 380.752 429.867 380.676 426.884C380.601 423.901 374.615 421.631 367.307 421.815C359.999 421.999 354.136 424.567 354.212 427.55C354.287 430.533 360.273 432.802 367.581 432.619Z" stroke="#2E4E94" stroke-width="2.5479" stroke-miterlimit="10" stroke-linecap="round" stroke-linejoin="round"/>
<path d="M349.941 435.448L350.099 443.999" stroke="#2E4E94" stroke-width="2.5479" stroke-miterlimit="10" stroke-linecap="round" stroke-linejoin="round"/>
<path d="M356.73 438.097L356.888 446.648" stroke="#2E4E94" stroke-width="2.5479" stroke-miterlimit="10" stroke-linecap="round" stroke-linejoin="round"/>
<path d="M364.545 439.382L364.703 447.933" stroke="#2E4E94" stroke-width="2.5479" stroke-miterlimit="10" stroke-linecap="round" stroke-linejoin="round"/>
<path d="M373.44 438.726L373.598 447.277" stroke="#2E4E94" stroke-width="2.5479" stroke-miterlimit="10" stroke-linecap="round" stroke-linejoin="round"/>
<path d="M380.466 436.969L380.624 445.52" stroke="#2E4E94" stroke-width="2.5479" stroke-miterlimit="10" stroke-linecap="round" stroke-linejoin="round"/>
<path d="M385.176 433.664L385.334 442.215" stroke="#2E4E94" stroke-width="2.5479" stroke-miterlimit="10" stroke-linecap="round" stroke-linejoin="round"/>
<path opacity="0.24" d="M340.257 457.245L335.257 464.589C332.152 469.127 330.547 474.687 330.652 480.353L331.126 505.586C331.179 509.127 333.731 511.986 336.968 512.169C340.547 512.379 343.546 509.205 343.468 505.271L343.047 482.609C342.915 476.156 345.046 469.861 348.994 465.061C352.309 461.022 349.625 454.648 344.678 454.753C342.941 454.805 341.31 455.723 340.257 457.245Z" fill="#FCFEFF"/>
<path opacity="0.5" d="M406.254 490.163C406.412 498.084 389.571 504.93 368.651 505.428C347.73 505.927 330.652 499.92 330.521 491.973" stroke="white" stroke-width="1.0885" stroke-miterlimit="10" stroke-linecap="round" stroke-linejoin="round"/>
<path d="M282.68 395.552L282.102 500.55L301.995 489.927L301.101 401.008C301.074 398.333 304.522 396.103 307.364 396.943L392.386 419.841C397.939 421.467 400.202 426.084 400.255 431.303L404.781 529.009L422.885 518.648L419.017 425.402C418.938 416.877 413.149 409.952 403.991 407.408L308.127 381.047C294.522 375.749 283.602 381.651 282.68 395.552Z" fill="#1261BD"/>
<path d="M394.702 606.885L316.073 658.242L247.076 639.75L391.702 564.655L394.702 606.885Z" fill="#EDF3FF"/>
<path d="M391.702 564.655L313.074 616.013L244.077 597.521L322.705 546.163L391.702 564.655Z" fill="white"/>
<path d="M244.077 597.521L246.998 638.596L316.074 658.242L313.074 616.013L244.077 597.521Z" fill="white"/>
<path d="M326.838 582.399C342.9 581.269 355.519 574.671 355.023 567.663C354.527 560.655 341.103 555.89 325.04 557.02C308.978 558.15 296.359 564.748 296.855 571.756C297.352 578.764 310.775 583.53 326.838 582.399Z" fill="#5E75AB"/>
<path d="M312.997 583.347C327.853 582.772 339.551 573.446 339.125 562.518C338.699 551.59 326.312 543.196 311.456 543.771C296.6 544.346 284.903 553.672 285.328 564.6C285.754 575.528 298.142 583.922 312.997 583.347Z" fill="#6AB339"/>
<path d="M310.811 538.15C325.676 537.873 337.583 530.04 337.407 520.655C337.231 511.269 325.038 503.886 310.173 504.163C295.309 504.44 283.402 512.273 283.578 521.659C283.754 531.044 295.947 538.427 310.811 538.15Z" fill="#DA7500"/>
<path d="M311.287 539.65C326.143 539.075 337.84 529.75 337.415 518.822C336.989 507.893 324.601 499.5 309.746 500.075C294.89 500.65 283.192 509.975 283.618 520.904C284.044 531.832 296.431 540.225 311.287 539.65Z" fill="#DA7500"/>
<path d="M336.824 503.577L283.027 505.662L285.207 561.565L339.004 559.48L336.824 503.577Z" fill="#6DC433"/>
<path d="M338.547 547.763L333.284 547.973C332.468 547.212 290.759 548.839 289.996 549.652L284.733 549.862L285.181 561.612C285.391 566.675 288.207 571.632 293.601 575.304C304.417 582.622 321.442 581.967 331.652 573.835C336.758 569.77 339.179 564.603 338.994 559.54L338.547 547.763Z" fill="#6DC433"/>
<path d="M283.944 528.904C283.944 528.904 308.943 545.927 337.757 527.356L337.441 519.383L283.628 521.061L283.944 528.904Z" fill="#6AB339"/>
<path d="M340.362 516.786L279.575 518.648L279.233 511.619L340.02 509.756L340.362 516.786Z" fill="#EBEBEB"/>
<path d="M310.339 532.162C327.135 531.735 340.586 524.978 340.383 517.071C340.18 509.164 326.401 503.101 309.605 503.528C292.81 503.956 279.359 510.712 279.562 518.619C279.764 526.527 293.544 532.59 310.339 532.162Z" fill="#EBEBEB"/>
<path d="M328.126 566.858L328.047 565.075L327.415 548.655L327.126 541.127C315.547 545.612 299.864 545.429 289.417 540.235C289.206 540.13 288.97 539.999 288.759 539.894C286.996 539.002 285.47 538.006 284.233 536.93L284.549 544.747L285.154 560.38L285.18 561.324C292.785 575.881 318.416 574.045 328.126 566.858Z" fill="white"/>
<path d="M309.996 524.66C326.792 524.232 340.243 517.476 340.04 509.569C339.838 501.662 326.058 495.598 309.263 496.026C292.467 496.453 279.016 503.21 279.219 511.117C279.421 519.024 293.201 525.088 309.996 524.66Z" fill="white"/>
<path d="M309.899 520.601C322.394 520.276 332.403 515.423 332.255 509.761C332.107 504.098 321.858 499.771 309.363 500.095C296.868 500.42 286.859 505.273 287.007 510.935C287.155 516.598 297.404 520.925 309.899 520.601Z" stroke="#EBEBEB" stroke-width="2.435" stroke-miterlimit="10" stroke-linecap="round" stroke-linejoin="round"/>
<path d="M312.627 560.825C304.337 561.612 295.969 560.537 289.627 557.39" stroke="#2E4E94" stroke-width="0.8082" stroke-miterlimit="10" stroke-linecap="round" stroke-linejoin="round"/>
<path d="M312.6 552.511C304.311 553.298 295.943 552.222 289.601 549.075" stroke="#2E4E94" stroke-width="0.8082" stroke-miterlimit="10" stroke-linecap="round" stroke-linejoin="round"/>
<path d="M319.205 615.436L317.126 587.658L317.021 587.632L199.368 551.435L226.025 632.668C227.841 638.177 232.498 642.478 238.814 644.446L309.39 666.426L309.837 666.557C315.863 668.446 323.389 667.187 323.389 667.187L319.889 624.616L320.021 624.668L319.442 618.583L319.205 615.436ZM247.55 631.645C241.393 630.491 235.34 625.114 234.13 619.659L227.499 589.757C226.288 584.301 230.341 580.786 236.498 581.914C242.656 583.068 248.708 588.445 249.919 593.901L256.55 623.803C257.787 629.259 253.734 632.8 247.55 631.645ZM299.89 637.206C300.338 642.819 295.89 645.967 289.996 644.209C284.101 642.452 278.944 636.445 278.496 630.832L276.076 600.065C275.628 594.452 280.075 591.304 285.97 593.062C291.864 594.819 297.022 600.826 297.469 606.439L299.89 637.206Z" fill="#A0B8ED"/>
<path d="M381.361 598.885L341.836 623.645V607.094L381.361 582.334V598.885Z" fill="#78CEFF"/>
<path d="M317.126 587.658L318.232 601.665L318.126 601.717L322.6 658.557C323.047 664.275 330.784 666.688 336.494 662.885L408.412 615.173L408.438 615.331L470.567 574.098C476.462 570.189 480.172 564.366 480.567 558.36L486.83 478.543L317.126 587.658ZM362.44 628.026C356.993 631.593 352.151 629.941 351.651 624.327L348.994 593.613C348.52 587.999 352.572 580.498 358.02 576.93C363.467 573.363 368.309 575.016 368.809 580.629L371.466 611.344C371.94 616.957 367.888 624.459 362.44 628.026ZM414.043 585.822C414.333 591.462 410.017 598.885 404.465 602.321C398.913 605.757 394.15 603.973 393.86 598.334L392.308 567.435C392.018 561.796 396.334 554.373 401.886 550.937C407.439 547.501 412.201 549.284 412.491 554.924L414.043 585.822ZM456.173 525.992L456.252 557.048C456.279 562.714 451.621 570.032 445.937 573.285C440.253 576.563 435.595 574.596 435.569 568.93L435.49 537.874C435.464 532.209 440.121 524.891 445.805 521.638C451.489 518.36 456.147 520.327 456.173 525.992Z" fill="#89A2D9"/>
<path d="M464.936 484.733L318.995 575.986C315.679 578.058 311.521 578.688 307.969 577.612L221.367 551.566C218.42 550.674 218.157 547.238 220.946 545.481L222.367 544.589L195 551.855C194.895 555.815 197.342 559.566 202.236 561.035L305.943 592.065C312.284 593.953 319.731 592.826 325.679 589.022L484.014 487.986C489.882 484.261 491.356 478.097 488.83 473.717L466.278 479.723C467.436 481.14 467.041 483.422 464.936 484.733Z" fill="#1261BD"/>
<path d="M474.778 690.951L424.912 675.921C418.649 674.033 418.386 669.128 424.28 665.01L499.777 612.472C505.698 608.354 515.645 606.544 521.908 608.406L571.774 623.436C578.037 625.324 578.3 630.229 572.405 634.347L496.909 686.885C490.988 691.003 481.015 692.839 474.778 690.951Z" fill="#BAC7F2"/>
<path d="M567.116 628.419C567.116 628.393 567.116 628.367 567.116 628.341V623.567L563.958 624.432C563.432 624.17 562.88 623.934 562.248 623.75L512.382 608.721C506.119 606.832 496.172 608.668 490.251 612.786L414.754 665.324L410.491 666.479V671.593C410.596 673.587 412.228 675.292 415.359 676.236L465.252 691.266C471.515 693.154 481.462 691.318 487.383 687.2L562.88 634.662C565.616 632.747 567.011 630.675 567.116 628.813H567.142V628.419H567.116Z" fill="#78CEFF"/>
<path d="M465.251 686.492L415.385 671.462C409.122 669.574 408.859 664.669 414.753 660.551L490.25 608.013C496.171 603.894 506.118 602.085 512.381 603.947L562.247 618.977C568.51 620.865 568.773 625.77 562.879 629.888L487.382 682.426C481.461 686.544 471.514 688.38 465.251 686.492Z" fill="#78CEFF"/>
<path d="M439.069 678.597L534.512 611.16" stroke="#78CEFF" stroke-width="6.5107" stroke-miterlimit="10" stroke-linecap="round" stroke-linejoin="round"/>
<path d="M545.446 632.136C551.549 632.003 556.438 629.218 556.365 625.916C556.293 622.614 551.287 620.045 545.184 620.178C539.081 620.311 534.193 623.096 534.265 626.398C534.338 629.7 539.344 632.269 545.446 632.136Z" fill="#2B65E0"/>
<path d="M545.485 619.79C544.064 619.475 542.512 619.291 540.854 619.344C539.196 619.37 537.644 619.606 536.249 620L529.907 622.177L529.96 625.062C529.934 625.245 529.907 625.403 529.934 625.586C529.986 628.891 534.986 631.462 541.117 631.331C547.222 631.2 552.117 628.419 552.064 625.114L552.011 622.045L545.485 619.79Z" fill="#DEE8FF"/>
<path d="M545.485 619.79C544.065 619.475 542.512 619.291 540.854 619.344C539.196 619.37 537.644 619.606 536.249 620C546.775 623.672 547.433 627.449 541.091 631.305C547.196 631.173 552.091 628.393 552.038 625.088L551.985 622.019L545.485 619.79Z" fill="#BACCF2"/>
<path d="M541.078 628.463C547.18 628.33 552.069 625.546 551.996 622.243C551.924 618.941 546.918 616.372 540.815 616.505C534.712 616.638 529.824 619.423 529.896 622.725C529.969 626.028 534.975 628.597 541.078 628.463Z" fill="white"/>
<path d="M547.354 619.764L535.907 624.8C535.565 624.957 534.96 624.878 534.565 624.642C534.17 624.406 534.118 624.091 534.46 623.96L545.907 618.924C546.249 618.767 546.854 618.845 547.249 619.082C547.643 619.318 547.696 619.632 547.354 619.764Z" fill="#DEE8FF"/>
<path d="M521.393 648.714C527.496 648.581 532.385 645.796 532.312 642.494C532.24 639.192 527.234 636.623 521.131 636.756C515.028 636.889 510.14 639.674 510.212 642.976C510.285 646.278 515.291 648.847 521.393 648.714Z" fill="#2B65E0"/>
<path d="M521.46 636.367C520.039 636.052 518.487 635.869 516.829 635.921C515.171 635.947 513.618 636.183 512.224 636.577L505.882 638.754L505.934 641.639C505.908 641.823 505.882 641.98 505.908 642.164C505.961 645.469 510.961 648.039 517.092 647.908C523.197 647.777 528.091 644.997 528.039 641.692L527.986 638.623L521.46 636.367Z" fill="#DEE8FF"/>
<path d="M521.46 636.367C520.039 636.052 518.487 635.869 516.829 635.921C515.171 635.947 513.618 636.183 512.224 636.577C522.75 640.249 523.407 644.026 517.066 647.882C523.171 647.751 528.065 644.97 528.012 641.665L527.96 638.596L521.46 636.367Z" fill="#BACCF2"/>
<path d="M517.025 645.042C523.127 644.908 528.016 642.124 527.943 638.821C527.871 635.519 522.865 632.95 516.762 633.083C510.66 633.216 505.771 636.001 505.844 639.303C505.916 642.606 510.922 645.175 517.025 645.042Z" fill="white"/>
<path d="M523.328 636.341L511.881 641.377C511.539 641.534 510.934 641.455 510.539 641.219C510.144 640.983 510.092 640.669 510.434 640.537L521.881 635.501C522.223 635.344 522.828 635.423 523.223 635.659C523.591 635.895 523.644 636.21 523.328 636.341Z" fill="#DEE8FF"/>
<path d="M497.368 665.292C503.47 665.159 508.359 662.374 508.286 659.072C508.214 655.769 503.208 653.2 497.105 653.333C491.002 653.466 486.114 656.251 486.186 659.553C486.259 662.856 491.265 665.425 497.368 665.292Z" fill="#2B65E0"/>
<path d="M497.409 652.944C495.988 652.629 494.435 652.446 492.777 652.498C491.12 652.525 489.567 652.761 488.172 653.154L481.831 655.331L481.883 658.216C481.857 658.4 481.831 658.557 481.857 658.741C481.91 662.046 486.909 664.616 493.041 664.485C499.146 664.354 504.04 661.574 503.987 658.269L503.935 655.2L497.409 652.944Z" fill="#DEE8FF"/>
<path d="M497.408 652.944C495.987 652.629 494.435 652.446 492.777 652.498C491.119 652.525 489.567 652.761 488.172 653.154C498.698 656.826 499.356 660.603 493.014 664.459C499.119 664.328 504.013 661.547 503.961 658.243L503.908 655.174L497.408 652.944Z" fill="#BACCF2"/>
<path d="M492.973 661.62C499.075 661.487 503.964 658.702 503.891 655.399C503.819 652.097 498.813 649.528 492.71 649.661C486.607 649.794 481.719 652.579 481.791 655.881C481.864 659.184 486.87 661.753 492.973 661.62Z" fill="white"/>
<path d="M499.277 652.944L487.83 657.98C487.488 658.138 486.883 658.059 486.488 657.823C486.093 657.587 486.041 657.272 486.383 657.141L497.83 652.105C498.172 651.947 498.777 652.026 499.172 652.262C499.566 652.472 499.619 652.787 499.277 652.944Z" fill="#DEE8FF"/>
<path d="M473.315 681.87C479.418 681.736 484.306 678.952 484.234 675.649C484.161 672.347 479.155 669.778 473.052 669.911C466.95 670.044 462.061 672.829 462.134 676.131C462.206 679.434 467.212 682.003 473.315 681.87Z" fill="#2B65E0"/>
<path d="M473.357 669.521C471.936 669.206 470.384 669.023 468.726 669.075C467.068 669.101 465.515 669.338 464.121 669.731L457.779 671.908L457.831 674.793C457.805 674.977 457.779 675.134 457.805 675.318C457.858 678.623 462.858 681.193 468.989 681.062C475.12 680.931 479.988 678.151 479.936 674.846L479.883 671.777L473.357 669.521Z" fill="#DEE8FF"/>
<path d="M473.357 669.521C471.936 669.206 470.383 669.023 468.725 669.075C467.067 669.101 465.515 669.338 464.12 669.731C474.646 673.403 475.304 677.18 468.962 681.036C475.067 680.905 479.962 678.125 479.909 674.82L479.856 671.751L473.357 669.521Z" fill="#BACCF2"/>
<path d="M468.946 678.197C475.049 678.064 479.937 675.279 479.865 671.977C479.792 668.675 474.786 666.106 468.684 666.239C462.581 666.372 457.693 669.157 457.765 672.459C457.838 675.761 462.843 678.33 468.946 678.197Z" fill="white"/>
<path d="M475.225 669.521L463.778 674.557C463.436 674.715 462.831 674.636 462.436 674.4C462.041 674.164 461.989 673.849 462.331 673.718L473.778 668.682C474.12 668.525 474.725 668.603 475.12 668.839C475.515 669.049 475.567 669.364 475.225 669.521Z" fill="#DEE8FF"/>
<path d="M511.63 619.781C517.733 619.648 522.622 616.863 522.549 613.561C522.477 610.259 517.471 607.69 511.368 607.823C505.265 607.956 500.377 610.741 500.449 614.043C500.522 617.345 505.528 619.914 511.63 619.781Z" fill="#2B65E0"/>
<path d="M511.671 607.436C510.25 607.121 508.697 606.937 507.039 606.99C505.381 607.016 503.829 607.252 502.434 607.645L496.092 609.823L496.145 612.708C496.119 612.891 496.092 613.049 496.119 613.232C496.171 616.537 501.171 619.108 507.302 618.977C513.407 618.845 518.302 616.065 518.249 612.76L518.197 609.691L511.671 607.436Z" fill="#DEE8FF"/>
<path d="M511.671 607.436C510.25 607.121 508.697 606.937 507.04 606.99C505.382 607.016 503.829 607.252 502.435 607.645C512.96 611.318 513.618 615.095 507.276 618.95C513.381 618.819 518.276 616.039 518.223 612.734L518.171 609.665L511.671 607.436Z" fill="#BACCF2"/>
<path d="M507.236 616.135C513.339 616.002 518.227 613.217 518.155 609.915C518.082 606.613 513.076 604.044 506.973 604.177C500.871 604.31 495.982 607.095 496.055 610.397C496.127 613.699 501.133 616.268 507.236 616.135Z" fill="white"/>
<path d="M513.539 607.436L502.092 612.472C501.75 612.629 501.145 612.55 500.75 612.314C500.355 612.078 500.303 611.764 500.645 611.632L512.092 606.596C512.434 606.439 513.039 606.518 513.434 606.754C513.828 606.964 513.855 607.278 513.539 607.436Z" fill="#DEE8FF"/>
<path d="M487.578 636.359C493.68 636.226 498.569 633.441 498.496 630.139C498.424 626.837 493.418 624.268 487.315 624.401C481.212 624.534 476.324 627.319 476.396 630.621C476.469 633.923 481.475 636.492 487.578 636.359Z" fill="#2B65E0"/>
<path d="M487.619 624.013C486.198 623.698 484.646 623.514 482.988 623.567C481.33 623.593 479.777 623.829 478.383 624.223L472.041 626.4L472.094 629.285C472.067 629.469 472.041 629.626 472.067 629.809C472.12 633.114 477.12 635.685 483.251 635.554C489.356 635.423 494.251 632.642 494.198 629.337L494.145 626.268L487.619 624.013Z" fill="#DEE8FF"/>
<path d="M487.619 624.013C486.198 623.698 484.646 623.514 482.988 623.567C481.33 623.593 479.777 623.829 478.383 624.223C488.909 627.895 489.567 631.672 483.225 635.528C489.33 635.396 494.224 632.616 494.172 629.311L494.119 626.242L487.619 624.013Z" fill="#BACCF2"/>
<path d="M483.183 632.713C489.286 632.58 494.174 629.795 494.102 626.493C494.029 623.191 489.023 620.622 482.921 620.755C476.818 620.888 471.929 623.673 472.002 626.975C472.074 630.277 477.08 632.846 483.183 632.713Z" fill="white"/>
<path d="M489.487 624.013L478.04 629.049C477.698 629.206 477.093 629.128 476.698 628.891C476.304 628.655 476.251 628.341 476.593 628.209L488.04 623.173C488.382 623.016 488.987 623.095 489.382 623.331C489.777 623.541 489.829 623.855 489.487 624.013Z" fill="#DEE8FF"/>
<path d="M463.525 652.937C469.628 652.804 474.516 650.019 474.444 646.717C474.371 643.415 469.365 640.846 463.263 640.979C457.16 641.112 452.272 643.897 452.344 647.199C452.417 650.501 457.423 653.07 463.525 652.937Z" fill="#2B65E0"/>
<path d="M463.594 640.616C462.173 640.301 460.621 640.118 458.963 640.17C457.305 640.196 455.753 640.432 454.358 640.826L448.016 643.003L448.069 645.888C448.042 646.072 448.016 646.229 448.042 646.413C448.095 649.718 453.095 652.288 459.226 652.157C465.331 652.026 470.226 649.246 470.173 645.941L470.12 642.872L463.594 640.616Z" fill="#DEE8FF"/>
<path d="M463.594 640.616C462.173 640.301 460.621 640.118 458.963 640.17C457.305 640.196 455.753 640.432 454.358 640.826C464.884 644.498 465.542 648.275 459.2 652.131C465.305 652 470.199 649.219 470.147 645.914L470.094 642.846L463.594 640.616Z" fill="#BACCF2"/>
<path d="M459.157 649.291C465.26 649.158 470.148 646.373 470.076 643.071C470.003 639.768 464.997 637.199 458.895 637.332C452.792 637.465 447.903 640.25 447.976 643.553C448.048 646.855 453.054 649.424 459.157 649.291Z" fill="white"/>
<path d="M465.436 640.59L453.989 645.626C453.647 645.783 453.042 645.705 452.647 645.469C452.252 645.233 452.2 644.918 452.542 644.787L463.989 639.751C464.331 639.593 464.936 639.672 465.331 639.908C465.725 640.118 465.778 640.433 465.436 640.59Z" fill="#DEE8FF"/>
<path d="M439.499 669.515C445.602 669.382 450.49 666.597 450.418 663.295C450.345 659.992 445.339 657.423 439.236 657.556C433.134 657.69 428.245 660.474 428.318 663.777C428.39 667.079 433.396 669.648 439.499 669.515Z" fill="#2B65E0"/>
<path d="M439.542 657.193C438.121 656.879 436.569 656.695 434.911 656.747C433.253 656.774 431.7 657.01 430.306 657.403L423.964 659.58L424.016 662.465C423.99 662.649 423.964 662.806 423.99 662.99C424.043 666.295 429.043 668.865 435.174 668.734C441.279 668.603 446.173 665.823 446.121 662.518L446.068 659.449L439.542 657.193Z" fill="#DEE8FF"/>
<path d="M439.543 657.193C438.122 656.879 436.569 656.695 434.911 656.747C433.253 656.774 431.701 657.01 430.306 657.403C440.832 661.075 441.49 664.852 435.148 668.708C441.253 668.577 446.148 665.797 446.095 662.492L446.042 659.423L439.543 657.193Z" fill="#BACCF2"/>
<path d="M435.104 665.869C441.207 665.736 446.096 662.951 446.023 659.649C445.951 656.346 440.945 653.777 434.842 653.91C428.739 654.044 423.851 656.828 423.923 660.131C423.996 663.433 429.002 666.002 435.104 665.869Z" fill="white"/>
<path d="M441.411 657.167L429.964 662.203C429.622 662.361 429.017 662.282 428.622 662.046C428.227 661.81 428.175 661.495 428.517 661.364L439.964 656.328C440.306 656.17 440.911 656.249 441.306 656.485C441.7 656.695 441.753 657.01 441.411 657.167Z" fill="#DEE8FF"/>
<path d="M623.771 298.503C623.771 298.503 611.508 334.988 632.271 337.349C653.033 339.736 654.954 311.381 654.954 311.381L623.771 298.503Z" fill="#2E4E94"/>
<path d="M625.955 298.503C625.955 298.503 619.508 330.031 629.218 330.241C641.218 330.503 641.192 292.444 641.192 292.444L625.955 298.503Z" fill="#27427A"/>
<path opacity="0.21" d="M645.823 627.921C669.716 627.921 689.085 619.395 689.085 608.878C689.085 598.361 669.716 589.836 645.823 589.836C621.931 589.836 602.562 598.361 602.562 608.878C602.562 619.395 621.931 627.921 645.823 627.921Z" fill="#8288D4"/>
<path d="M617.667 606.229L634.061 586.793C636.613 585.429 641.376 584.878 645.244 585.508C646.981 585.796 647.929 586.924 648.034 588.681L648.481 591.908C649.06 597.311 649.744 599.068 646.402 600.878L626.456 611.58C622.403 614.78 610.772 613.285 617.667 606.229Z" fill="#27427A"/>
<path d="M634.744 588.734C634.744 588.734 625.376 600.301 626.613 601.114C631.692 604.445 643.718 592.668 643.718 592.668C643.718 592.668 636.928 588.131 634.744 588.734Z" fill="#E37B7B"/>
<path d="M643.691 592.668C641.612 597.337 634.35 594.242 633.534 589.311C631.323 561.691 623.64 539.92 621.561 514.11C619.219 485.127 621.298 484.654 617.771 440.195L644.981 444.812C642.665 476.707 643.928 517.048 643.928 517.048C653.612 548.13 645.718 554.635 643.691 592.668Z" fill="#E37B7B"/>
<path d="M629.929 513.297C629.929 513.297 633.219 541.835 641.402 548.262C649.586 554.688 641.402 515.002 641.402 515.002L629.929 513.297Z" fill="#D67474"/>
<path d="M607.824 444.838C611.64 445.494 615.166 443.553 615.666 440.51L614.693 428.759C615.193 425.717 614.561 427.815 610.719 427.159C606.903 426.503 606.903 423.539 604.64 429.126L603.43 437.756C603.272 438.884 603.272 440.012 603.483 441.14C603.93 443.185 604.825 444.34 607.824 444.838Z" fill="#FFA9A8"/>
<path d="M614.456 347.526L607.588 382.018C607.588 382.018 603.246 394.766 605.114 427.238L613.956 429.179L622.166 386.975L624.245 339.788C619.982 337.821 615.298 342.883 614.456 347.526Z" fill="white"/>
<path d="M646.507 617.586L648.244 596.314C649.297 594.714 652.244 593.718 655.165 594.032C656.48 594.163 655.033 593.403 655.954 595.16L659.586 592.013C662.585 597.468 664.164 598.229 664.217 603.16C662.059 611.842 658.901 618.006 655.007 622.255C653.796 625.927 645.244 625.403 646.507 617.586Z" fill="#27427A"/>
<path d="M648.849 597.258C648.849 597.258 650.454 608.852 651.849 608.878C658.875 609.036 659.691 598.57 659.691 598.57C659.691 598.57 649.954 596.34 648.849 597.258Z" fill="#FFA9A8"/>
<path d="M659.665 599.173C657.559 604.209 649.744 602.268 648.849 597.258C646.297 568.957 640.797 551.934 638.402 525.468C635.718 495.75 647.744 493.599 643.691 448.038L671.796 449.874C669.717 483.107 660.112 524.891 660.112 524.891C670.401 555.973 661.401 559.645 659.665 599.173Z" fill="#FFA9A8"/>
<path d="M618.245 402.923C618.245 402.923 612.324 400.641 615.14 505.612C615.14 505.612 621.797 511.697 640.165 516.445C657.454 520.93 654.454 507.632 668.427 512.458C668.427 512.458 674.032 485.363 675.19 475.972C676.348 466.582 682.137 411.657 666.638 409.874C651.165 408.09 618.245 402.923 618.245 402.923Z" fill="#AEAECF"/>
<path d="M668.428 512.484C668.428 512.484 674.033 485.415 675.19 476.025C676.348 466.635 682.137 411.71 666.638 409.926C663.112 409.507 658.665 408.93 653.902 408.274C654.981 417.402 657.139 432.405 661.428 456.904C667.112 489.559 656.375 507.605 645.823 517.127C660.059 516.655 656.033 508.209 668.428 512.484Z" fill="#9A9AB5"/>
<path d="M618.614 353.008C618.614 353.008 617.929 328.378 631.482 328.326C633.376 328.326 636.455 326.463 638.639 326.516C649.928 326.699 648.349 326.804 656.638 329.69C659.77 330.765 662.007 339.604 661.612 342.936L666.927 352.772C648.691 359.172 631.771 361.716 618.614 353.008Z" fill="#FFA9A8"/>
<path d="M629.192 327.67C630.35 327.486 631.245 328.693 630.692 329.742C628.982 333.021 626.508 338.739 624.561 343.46C622.719 347.919 625.587 352.982 630.376 353.559C653.086 356.287 653.086 327.827 653.823 328.247L658.322 329.873C682.637 336.3 677.032 343.067 671.559 356.103C671.559 356.103 665.138 378.949 665.217 388.234C665.269 396.261 672.953 408.405 674.401 410.923C676.295 414.202 666.269 435.421 635.113 433.035C610.588 431.146 612.982 420.995 613.009 407.723C613.035 399.356 617.298 376.903 616.929 370.293C616.561 363.683 611.298 358.91 614.456 348.155C616.193 342.201 618.298 336.903 619.824 333.388C621.035 330.555 623.64 328.588 626.692 328.09L629.192 327.67Z" fill="#78CEFF"/>
<path d="M641.586 333.939L640.797 334.07C638.113 334.49 635.718 332.654 635.455 330.031L634.008 315.237C633.745 312.614 635.744 310.122 638.402 309.729L639.192 309.598C641.876 309.178 645.902 310.201 646.139 312.824L648.323 328.509C648.612 331.132 644.244 333.546 641.586 333.939Z" fill="#FFA9A8"/>
<path d="M650.349 294.044C648.323 289.899 644.823 288.85 641.35 290.765C638.218 289.06 634.166 290.686 630.903 295.512C626.35 302.227 624.377 313.401 627.35 319.434C628.64 322.083 630.955 322.844 633.192 323.106C635.271 323.368 637.429 323.159 639.508 322.608C646.928 320.614 646.981 321.69 650.034 317.204C654.586 310.516 653.297 300.076 650.349 294.044Z" fill="#FFA9A8"/>
<path d="M645.56 296.142C647.744 303.276 647.113 319.25 647.349 321.375C647.349 321.375 661.954 321.821 661.007 305.296C659.849 284.732 647.56 294.358 647.56 294.358L645.56 296.142Z" fill="#2E4E94"/>
<path d="M630.508 317.388C630.508 317.388 628.718 316.391 629.376 312.64L636.218 314.713C634.692 317.099 633.218 318.437 630.508 317.388Z" fill="white"/>
<path d="M658.638 329.27C658.638 329.27 657.849 335.067 653.296 342.542C646.297 354.005 644.612 374.621 645.823 391.408C647.033 408.195 648.349 444.156 648.349 444.156L647.323 504.589C647.323 504.589 669.375 506.005 677.216 492.156C685.058 478.307 677.348 419.343 673.111 408.248C668.875 397.152 676.322 366.333 676.322 366.333C676.322 366.333 679.348 345.585 676.322 339.342C673.296 333.126 658.638 329.27 658.638 329.27Z" fill="white"/>
<path d="M629.192 327.67C629.192 327.67 618.561 345.428 618.614 355.185C618.666 364.942 620.087 444.182 620.087 444.182L617.745 497.848C617.745 497.848 609.719 499.553 609.509 491.474C609.298 483.422 612.956 403.71 612.956 403.71L615.693 364.654C615.693 364.654 608.667 355.342 615.693 341.414C621.245 330.45 621.614 330.162 621.982 329.847C624.245 327.906 629.192 327.67 629.192 327.67Z" fill="white"/>
<path d="M615.324 408.877L638.876 413.913C643.481 414.91 646.034 412.471 644.56 408.51L631.218 372.759C629.745 368.798 624.771 364.759 620.166 363.788L596.615 358.752C592.01 357.755 589.457 360.195 590.931 364.155L604.272 399.906C605.746 403.867 610.719 407.907 615.324 408.877Z" fill="#1261BD"/>
<path d="M627.271 395.736C627.455 397.966 629.403 399.723 631.561 399.671L639.06 399.487C641.218 399.434 642.823 397.572 642.613 395.343C642.429 393.113 640.481 391.356 638.323 391.408L630.824 391.592C628.692 391.67 627.087 393.507 627.271 395.736Z" fill="#FFA9A8"/>
<path d="M676.638 340.182C676.638 340.182 698.242 389.966 688.321 404.444C679.164 417.795 640.534 400.589 640.534 400.589V391.434L670.743 386.372L665.085 350.542L676.638 340.182Z" fill="white"/>
<path d="M656.217 391.408C656.217 391.408 673.848 394.87 674.506 389.31C675.164 383.749 666.822 361.375 666.822 361.375" stroke="#DEE8FF" stroke-width="4.7187" stroke-miterlimit="10" stroke-linecap="round" stroke-linejoin="round"/>
<path d="M634.692 323.237C634.692 323.237 641.086 323.814 645.639 317.755C645.639 317.755 641.06 326.542 635.166 327.329L634.692 323.237Z" fill="#E37B7B"/>
<path d="M647.35 321.375C647.35 321.375 642.35 333.545 644.639 339.368C648.349 348.732 654.981 333.257 660.323 329.768C666.138 325.965 661.059 322.634 661.033 310.883C661.007 291.08 654.744 304.955 654.744 304.955L647.35 321.375Z" fill="#2E4E94"/>
<path d="M652.455 313.48C651.271 316.024 648.507 317.729 646.244 317.283C643.981 316.837 643.113 314.398 644.271 311.854C645.455 309.309 648.218 307.604 650.481 308.05C652.744 308.47 653.613 310.909 652.455 313.48Z" fill="#FFA9A8"/>
<path d="M650.349 299.237C643.507 295.932 635.665 289.847 623.087 308.391C622.192 309.703 624.771 300.916 623.245 302.044C622.429 300.234 625.192 294.542 627.876 292.811C633.508 289.191 636.35 287.224 642.27 286.306L643.691 286.227C652.296 285.808 656.612 289.349 657.954 297.663C658.059 298.398 659.322 301.781 659.349 302.385L656.665 301.309C656.744 306.214 655.296 298.87 650.349 299.237Z" fill="#2E4E94"/>
<path d="M706.847 243.447L488.119 187.84L512.171 154.449L730.899 210.056L706.847 243.447Z" fill="#6DC433"/>
<path d="M512.355 194.004L488.119 187.84L512.171 154.449L536.407 160.613L512.355 194.004Z" fill="white"/>
<path d="M560.984 206.358L536.749 200.194L560.8 166.803L585.036 172.967L560.984 206.358Z" fill="white"/>
<path d="M609.588 218.712L585.352 212.548L609.43 179.158L633.666 185.322L609.588 218.712Z" fill="white"/>
<path d="M658.217 231.092L633.981 224.928L658.059 191.538L682.295 197.676L658.217 231.092Z" fill="white"/>
<path d="M706.847 243.447L682.611 237.283L706.689 203.892L730.898 210.056L706.847 243.447Z" fill="white"/>
<path d="M706.794 269.65C698.189 278.83 682.611 273.899 682.19 263.381L682.637 237.283L706.82 243.499L706.794 269.65Z" fill="#F0F5FF"/>
<path d="M657.612 257.794C649.007 266.975 633.429 262.043 633.008 251.525L633.455 225.427L657.638 231.643L657.612 257.794Z" fill="#F0F5FF"/>
<path d="M609.246 245.414C600.641 254.594 585.063 249.663 584.642 239.145L585.089 213.046L609.272 219.263L609.246 245.414Z" fill="#F0F5FF"/>
<path d="M560.458 233.06C551.853 242.24 536.275 237.309 535.854 226.791L536.301 200.692L560.484 206.909L560.458 233.06Z" fill="#F0F5FF"/>
<path d="M513.46 220.129C504.855 229.309 489.277 224.378 488.856 213.86L489.303 187.761L513.486 193.978L513.46 220.129Z" fill="#F0F5FF"/>
<path d="M682.164 263.381C674.822 271.722 659.375 270.778 657.691 257.165L658.217 231.092L682.611 237.283L682.164 263.381Z" fill="#6DC433"/>
<path d="M633.377 251.027C626.035 259.368 610.588 258.424 608.904 244.811L609.43 218.738L633.824 224.928L633.377 251.027Z" fill="#6DC433"/>
<path d="M584.589 238.673C577.247 247.014 561.8 246.07 560.116 232.456L560.643 206.384L585.036 212.574L584.589 238.673Z" fill="#6DC433"/>
<path d="M536.723 226.292C529.381 234.633 513.934 233.689 512.25 220.076L512.776 194.004L537.17 200.194L536.723 226.292Z" fill="#6DC433"/>
<path d="M488.277 187.499L706.216 242.948" stroke="#2E4E94" stroke-width="2.6746" stroke-miterlimit="10" stroke-linecap="round" stroke-linejoin="round"/>
<path d="M350.23 607.986L348.941 592.957C348.941 592.957 349.336 579.448 362.23 574.885" stroke="#1261BD" stroke-width="3" stroke-miterlimit="10" stroke-linecap="round" stroke-linejoin="round"/>
<path d="M392.965 582.15L391.676 567.12C391.676 567.12 392.071 553.612 404.965 549.048" stroke="#1261BD" stroke-width="3" stroke-miterlimit="10" stroke-linecap="round" stroke-linejoin="round"/>
<path d="M435.648 554.084L434.911 539.028C434.911 539.028 435.806 525.546 448.858 521.455" stroke="#1261BD" stroke-width="3" stroke-miterlimit="10" stroke-linecap="round" stroke-linejoin="round"/>
<ellipse cx="633.283" cy="305.125" rx="1" ry="2" transform="rotate(8.44753 633.283 305.125)" fill="#2E4E94"/>
<ellipse cx="638.565" cy="307.25" rx="1" ry="2" transform="rotate(8.44753 638.565 307.25)" fill="#2E4E94"/>
</g>
<path d="M552 289.029H531.283V269H508.347V289.029H488V311.607H508.347V332H531.283V311.607H552V289.029Z" fill="#6DC433"/>
<path d="M572 334.173H561.318V324H549.491V334.173H539V345.642H549.491V356H561.318V345.642H572V334.173Z" fill="#6DC433"/>
</g>
<defs>
<linearGradient id="paint0_linear" x1="-96.3425" y1="370" x2="1074.07" y2="391.471" gradientUnits="userSpaceOnUse">
<stop stop-color="#6DC433"/>
</linearGradient>
<linearGradient id="paint1_linear" x1="-96.3425" y1="370" x2="1074.07" y2="391.471" gradientUnits="userSpaceOnUse">
<stop stop-color="#6DC433"/>
</linearGradient>
<linearGradient id="paint2_linear" x1="-69.8942" y1="17.2378" x2="1016.23" y2="31.1075" gradientUnits="userSpaceOnUse">
<stop stop-color="#1261BD"/>
<stop offset="1" stop-color="#78CEFF"/>
</linearGradient>
<clipPath id="clip0">
<rect width="1440" height="5266" fill="white" transform="translate(-510)"/>
</clipPath>
<clipPath id="clip1">
<rect width="333" height="341" fill="white" transform="translate(552 114)"/>
</clipPath>
<clipPath id="clip2">
<rect width="215" height="262" fill="white" transform="translate(319 265)"/>
</clipPath>
<clipPath id="clip3">
<rect width="632" height="561" fill="white" transform="translate(195 131)"/>
</clipPath>
</defs>
</svg>
