<svg width="375" height="301" viewBox="0 0 375 301" fill="none" xmlns="http://www.w3.org/2000/svg">
<rect width="375" height="301" fill="#E5E5E5"/>
<g clip-path="url(#clip0)">
<path d="M375 0H0V7104H375V0Z" fill="white"/>
<path d="M120.926 -169.36L13.9158 219.065C12.4489 224.39 15.5761 229.895 20.9006 231.362L95.2578 251.847C100.582 253.314 106.088 250.187 107.555 244.862L214.564 -143.563C216.031 -148.887 212.904 -154.393 207.58 -155.86L133.222 -176.345C127.898 -177.812 122.392 -174.684 120.926 -169.36Z" fill="url(#paint0_linear)"/>
<path d="M308.504 -154.303L-23.048 -12.2891C-28.1247 -10.1146 -30.4774 -4.2363 -28.3029 0.84044L92.0953 281.926C94.2698 287.003 100.148 289.356 105.225 287.181L436.776 145.167C441.853 142.993 444.206 137.114 442.031 132.038L321.633 -149.048C319.459 -154.125 313.58 -156.478 308.504 -154.303Z" fill="url(#paint1_linear)"/>
<path d="M344.628 99.146C336.846 81.6211 306.84 92.1025 306.84 92.1025C306.84 92.1025 290.801 127.32 284.81 129.025C278.82 130.73 292.62 96.2392 292.62 96.2392C280.668 96.91 252.761 116.028 252.761 116.028C252.761 116.028 260.43 153.062 254.216 153.23C248.002 153.397 249.094 120.109 249.094 120.109C238.177 125.307 229.556 140.261 229.556 140.261C219.563 164.019 250.633 175.618 250.633 175.618C250.633 175.618 253.012 188.503 247.302 204.575C247.302 204.575 245.931 207.593 244.811 212.54L247.918 212.065C248.03 211.199 248.198 210.332 248.394 209.522C248.394 209.522 248.394 209.522 248.394 209.494V209.466C248.534 208.963 248.73 208.208 248.982 207.314C249.654 205.301 250.073 203.82 250.325 202.786C252.285 196.497 255.224 188.252 257.715 186.239C257.715 186.239 257.295 185.82 256.819 184.925C257.099 185.345 257.407 185.792 257.715 186.239C264.825 196.832 291.808 194.624 306.196 189.286C320.583 183.947 313.474 180.761 304.404 175.199C295.335 169.637 278.848 173.997 273.474 172.096C268.1 170.196 274.93 166.422 284.978 165.64C294.999 164.885 301.493 174.025 317.756 173.075C334.019 172.124 341.577 140.177 341.577 140.177C331.052 145.32 310.283 142.273 308.939 138.584C307.595 134.894 337.014 130.758 341.409 128.913C345.831 127.04 352.409 116.671 344.628 99.146Z" fill="#DFEBFD" fill-opacity="0.25"/>
<path d="M147.904 148.525C155.451 137.612 174.467 148.633 174.467 148.633C174.467 148.633 180.784 174.668 184.625 176.604C188.466 178.54 183.57 153.29 183.57 153.29C191.631 155.307 208.078 171.919 208.078 171.919C208.078 171.919 198.069 196.113 202.262 197.047C206.455 197.981 210.039 175.169 210.039 175.169C216.774 180.11 220.683 191.415 220.683 191.415C224.389 208.88 201.788 212.725 201.788 212.725C201.788 212.725 198.502 221.187 200.287 232.871C200.287 232.871 200.828 235.104 200.95 238.611L198.894 237.88C198.921 237.271 198.921 236.675 198.907 236.079V236.066C198.907 236.052 198.907 236.052 198.907 236.039C198.88 235.673 198.84 235.145 198.786 234.509C198.596 233.06 198.488 231.991 198.461 231.246C198.461 231.246 198.461 231.246 198.461 231.232C197.947 226.697 197.027 220.713 195.594 219.007C195.594 219.007 195.932 218.763 196.365 218.222C196.121 218.479 195.864 218.736 195.594 219.007C189.399 225.302 171.37 220.293 162.281 214.796C153.206 209.3 158.453 208.054 165.324 205.441C172.195 202.828 182.826 207.946 186.721 207.35C190.616 206.754 186.464 203.289 179.756 201.474C173.047 199.647 167.461 205.021 156.546 202.273C145.618 199.538 144.644 176.82 144.644 176.82C151.123 181.681 165.622 182.304 167.015 179.961C168.408 177.619 148.986 170.999 146.24 169.171C143.481 167.343 140.343 159.437 147.904 148.525Z" fill="#CDE0FB" fill-opacity="0.25"/>
<path d="M298.521 123.059C298.521 120.55 297.644 118.079 296.252 116.131L296.29 116.103C294.994 114.259 293.23 112.881 291.285 112.387L224.836 95.5769C223.158 95.1493 221.614 95.4534 220.384 96.3182L216.352 99.34L217.62 228.643C217.62 228.729 217.629 228.786 217.648 228.814C217.677 233.613 220.89 238.308 224.855 239.315L292.114 257.513L295.003 255.222C297.196 253.474 298.502 251.801 298.502 248.628L298.521 123.059Z" fill="#A7B2D9"/>
<path d="M250.434 152.935C250.434 152.935 214.054 236.721 214.168 231.779L215.98 99.2356L220.289 96.1282C221.547 95.2445 223.111 94.9309 224.789 95.3585L291.304 112.359C293.249 112.853 294.993 114.259 296.252 116.15L250.434 152.935Z" fill="#B1BDE6"/>
<path d="M287.071 258.681L220.785 241.824C216.8 240.816 213.739 236.046 213.739 231.228V105.07C213.739 100.252 216.885 97.183 220.861 98.1903L287.109 115.058C291.094 116.065 294.116 120.845 294.116 125.663V251.821C294.116 256.638 291.047 259.689 287.071 258.681Z" fill="white"/>
<path d="M285.736 259.489L219.45 242.631C215.465 241.624 212.404 236.854 212.404 232.036V105.878C212.404 101.06 215.55 97.9907 219.526 98.9979L285.784 115.856C289.769 116.863 292.791 121.643 292.791 126.461V252.619C292.791 257.446 289.721 260.497 285.736 259.489Z" fill="#1261BD"/>
<path d="M287.338 124.37C287.338 123.648 286.909 123.097 286.222 122.916L219.878 106.134C218.391 105.754 216.532 107.237 216.532 108.795V218.162V230.81C216.532 231.532 216.961 232.083 217.648 232.264L283.991 249.046C285.479 249.426 287.338 247.943 287.338 246.385V137.018V124.37Z" fill="#DEE8FF"/>
<path d="M99.8428 247.478L157.521 208.308L203.72 219.806L201.766 249.15L176.731 260.554C176.731 260.554 113.447 278.476 111.293 277.744C109.147 277.003 99.8428 247.478 99.8428 247.478Z" fill="#5C73A8"/>
<path d="M164.48 244.807L160.457 209.03L203.72 219.796L201.766 249.141L176.731 260.544L164.48 244.807Z" fill="#708CCC"/>
<path d="M108.175 244.998L160.924 211.519C161.362 211.244 161.906 211.158 162.382 211.291L195.902 221.079C196.179 221.165 196.398 221.307 196.541 221.488L204.711 219.312C204.282 218.571 203.529 217.953 202.471 217.639L166.329 206.806C163.393 205.922 159.932 206.455 157.177 208.194L100.405 244.209C98.9843 245.112 98.2884 246.404 98.2598 247.63L108.175 244.998Z" fill="#1261BD"/>
<path d="M140.732 289.337C140.732 289.337 144.841 290.249 149.045 288.14C152.334 286.486 146.795 284.738 146.795 284.738L138.387 285.032L140.732 289.337Z" fill="#92A8D9"/>
<path d="M139.722 284.728C139.722 284.728 144.117 286.714 149.37 283.512C154.756 280.234 143.116 279.198 143.116 279.198L139.722 284.728Z" fill="#97B3E8"/>
<path d="M133.286 285.945C122.437 283.132 119.796 271.491 128.233 263.689L131.131 261.618L163.507 239.562L193.481 250.101C197.151 251.64 197.141 256.125 193.461 258.406L154.288 282.676C148.082 286.524 140.398 287.779 133.696 286.049L133.286 285.945Z" fill="#657EB8"/>
<path d="M284.799 285.681C284.867 284.666 283.411 283.741 281.545 283.617C279.68 283.493 278.113 284.216 278.045 285.232C277.977 286.248 279.434 287.172 281.299 287.296C283.164 287.42 284.731 286.697 284.799 285.681Z" fill="#BAC7F2"/>
<path d="M291.829 279.749L291.772 279.663L291.162 278.78L291.085 278.666L291.076 278.675C290.761 278.314 290.227 278.105 289.541 278.133C288.025 278.2 286.3 279.388 285.699 280.785C285.422 281.421 285.432 281.982 285.661 282.41L285.651 282.419L286.404 283.503C286.719 283.883 287.262 284.101 287.968 284.073C289.484 284.006 291.209 282.818 291.81 281.421C292.096 280.766 292.086 280.177 291.829 279.749Z" fill="#BAC7F2"/>
<path d="M315.681 268.745L297.424 280.034C297.253 279.901 297.129 279.825 297.129 279.825L290.322 278.124L289.95 281.241C289.95 281.241 292.639 283.512 295.899 282.885C297.339 283.246 298.635 282.98 299.636 282.153L316.034 274.428C316.329 274.351 316.606 274.228 316.882 274.085C320.886 271.957 317.264 268.023 315.681 268.745Z" fill="#BAC7F2"/>
<path d="M317.216 268.108C317.798 263.243 315.071 256.914 311.134 253.987C309.256 252.59 307.444 252.21 305.995 252.723C305.843 252.78 305.69 252.847 305.537 252.923L287.462 260.572L297.405 280.709L313.86 272.955C315.624 272.498 316.901 270.816 317.216 268.108Z" fill="#6DC433"/>
<path d="M296.536 281.275C299.851 279.857 300.542 274.071 298.079 268.351C295.617 262.63 290.934 259.142 287.62 260.56C284.305 261.977 283.614 267.764 286.076 273.484C288.539 279.204 293.222 282.692 296.536 281.275Z" fill="#6DC433"/>
<path d="M294.197 280.156C296.93 278.998 297.515 274.238 295.503 269.524C293.492 264.811 289.646 261.929 286.914 263.087C284.181 264.246 283.596 269.006 285.608 273.719C287.619 278.433 291.465 281.315 294.197 280.156Z" fill="#3C9326"/>
<path d="M313.59 271.205C316.323 270.046 316.907 265.286 314.896 260.573C312.885 255.859 309.039 252.977 306.306 254.136C303.574 255.294 302.989 260.055 305 264.768C307.012 269.482 310.857 272.363 313.59 271.205Z" fill="#3C9326"/>
<path d="M292.362 263.765C290.446 262.34 288.606 262.121 287.262 262.929C288.148 263.043 289.111 263.461 290.103 264.193C293.573 266.778 295.966 272.346 295.451 276.632C295.222 278.552 294.45 279.891 293.354 280.547C295.594 280.842 297.348 279.264 297.72 276.204C298.225 271.919 295.832 266.35 292.362 263.765Z" fill="#6DC433"/>
<path opacity="0.5" d="M291.371 263.841C294.841 266.426 297.234 271.995 296.729 276.28" stroke="white" stroke-width="3.1667" stroke-miterlimit="10" stroke-linecap="round" stroke-linejoin="round"/>
<path d="M290.513 279.283C287.043 276.699 284.65 271.13 285.165 266.844C285.393 264.925 286.166 263.585 287.262 262.929C285.022 262.635 283.267 264.212 282.896 267.272C282.381 271.558 284.783 277.126 288.244 279.711C290.16 281.136 292 281.355 293.344 280.547C292.467 280.433 291.495 280.015 290.513 279.283Z" fill="#90CC3D"/>
<path opacity="0.24" d="M305.242 257.342L295.661 261.637C294.946 261.96 294.088 261.637 293.764 260.924C293.439 260.211 293.764 259.356 294.479 259.033L304.06 254.738C304.775 254.415 305.633 254.738 305.957 255.451C306.281 256.173 305.957 257.018 305.242 257.342Z" fill="#FCFEFF"/>
<path d="M294.723 278.907C294.942 277.789 293.664 276.601 291.871 276.254C290.078 275.906 288.447 276.53 288.229 277.648C288.011 278.766 289.288 279.954 291.081 280.302C292.875 280.649 294.505 280.025 294.723 278.907Z" fill="white"/>
<path d="M288.446 276.436L288.193 277.733L294.678 278.989L294.931 277.693L288.446 276.436Z" fill="white"/>
<path d="M294.923 277.845C295.141 276.727 293.864 275.539 292.07 275.191C290.277 274.843 288.646 275.468 288.428 276.586C288.21 277.704 289.487 278.892 291.28 279.239C293.074 279.587 294.704 278.963 294.923 277.845Z" fill="white"/>
<path d="M294.923 277.845C295.141 276.727 293.864 275.539 292.07 275.191C290.277 274.843 288.646 275.468 288.428 276.586C288.21 277.704 289.487 278.892 291.28 279.239C293.074 279.587 294.704 278.963 294.923 277.845Z" stroke="#DEE8FF" stroke-width="3.1667" stroke-miterlimit="10" stroke-linecap="round" stroke-linejoin="round"/>
<path d="M294.075 277.535C294.234 276.721 293.303 275.856 291.995 275.603C290.688 275.349 289.499 275.804 289.34 276.618C289.181 277.431 290.113 278.297 291.42 278.55C292.728 278.804 293.917 278.349 294.075 277.535Z" fill="#EDF3FF"/>
<path d="M288.609 283.043C290.112 282.008 290.804 280.409 290.154 279.472C289.504 278.535 287.759 278.615 286.256 279.651C284.754 280.686 284.062 282.285 284.711 283.222C285.361 284.159 287.106 284.079 288.609 283.043Z" fill="white"/>
<path d="M289.452 278.479L284.018 282.224L284.771 283.31L290.206 279.566L289.452 278.479Z" fill="white"/>
<path d="M287.992 282.163C289.495 281.127 290.186 279.528 289.537 278.591C288.887 277.654 287.142 277.734 285.639 278.77C284.136 279.805 283.445 281.404 284.094 282.341C284.744 283.278 286.489 283.198 287.992 282.163Z" fill="white"/>
<path d="M287.992 282.163C289.495 281.127 290.186 279.528 289.537 278.591C288.887 277.654 287.142 277.734 285.639 278.77C284.136 279.805 283.445 281.404 284.094 282.341C284.744 283.278 286.489 283.198 287.992 282.163Z" stroke="#DEE8FF" stroke-width="3.1667" stroke-miterlimit="10" stroke-linecap="round" stroke-linejoin="round"/>
<path d="M287.595 281.584C288.691 280.829 289.196 279.664 288.723 278.982C288.25 278.3 286.978 278.359 285.883 279.114C284.787 279.869 284.282 281.034 284.755 281.716C285.228 282.398 286.5 282.339 287.595 281.584Z" fill="#EDF3FF"/>
<path d="M291.086 275.23C291.95 274.485 291.68 272.764 290.484 271.388C289.287 270.011 287.618 269.5 286.754 270.246C285.89 270.992 286.16 272.712 287.357 274.088C288.553 275.465 290.223 275.976 291.086 275.23Z" fill="white"/>
<path d="M287.682 269.459L286.681 270.324L291.007 275.301L292.008 274.436L287.682 269.459Z" fill="white"/>
<path d="M291.907 274.525C292.77 273.779 292.5 272.059 291.304 270.683C290.108 269.306 288.438 268.795 287.574 269.541C286.711 270.286 286.981 272.007 288.177 273.383C289.373 274.759 291.043 275.271 291.907 274.525Z" fill="white"/>
<path d="M291.907 274.525C292.77 273.779 292.5 272.059 291.304 270.683C290.108 269.306 288.438 268.795 287.574 269.541C286.711 270.286 286.981 272.007 288.177 273.383C289.373 274.759 291.043 275.271 291.907 274.525Z" stroke="#DEE8FF" stroke-width="3.1667" stroke-miterlimit="10" stroke-linecap="round" stroke-linejoin="round"/>
<path d="M291.423 273.757C292.052 273.214 291.855 271.961 290.982 270.957C290.11 269.953 288.893 269.58 288.264 270.123C287.636 270.666 287.833 271.92 288.705 272.923C289.578 273.927 290.794 274.3 291.423 273.757Z" fill="#EDF3FF"/>
<path d="M282.829 285.289V285.194L282.886 283.978L282.238 283.949C282.143 283.864 282.047 283.778 281.923 283.702C280.675 282.837 278.577 282.752 277.252 283.493C277.128 283.56 277.023 283.636 276.918 283.712L276.27 283.683L276.213 284.995H276.222C276.241 285.489 276.537 285.992 277.119 286.391C278.367 287.256 280.465 287.342 281.79 286.601C282.419 286.258 282.753 285.783 282.829 285.289Z" fill="white"/>
<path d="M282.884 284.115C282.935 282.977 281.498 281.988 279.672 281.906C277.847 281.824 276.326 282.68 276.274 283.817C276.223 284.955 277.66 285.944 279.486 286.026C281.311 286.109 282.832 285.253 282.884 284.115Z" fill="white"/>
<path d="M282.884 284.115C282.935 282.977 281.498 281.988 279.672 281.906C277.847 281.824 276.326 282.68 276.274 283.817C276.223 284.955 277.66 285.944 279.486 286.026C281.311 286.109 282.832 285.253 282.884 284.115Z" stroke="#DEE8FF" stroke-width="3.1667" stroke-miterlimit="10" stroke-linecap="round" stroke-linejoin="round"/>
<path d="M281.247 284.966C280.275 285.508 278.749 285.441 277.834 284.814C276.919 284.187 276.957 283.237 277.929 282.685C278.902 282.134 280.427 282.21 281.342 282.837C282.258 283.465 282.21 284.424 281.247 284.966Z" fill="#EDF3FF"/>
<path opacity="0.5" d="M284.212 267.281C284.212 267.281 283.687 271.234 285.451 273.857" stroke="white" stroke-width="3.1667" stroke-miterlimit="10" stroke-linecap="round" stroke-linejoin="round"/>
<path d="M280.97 283.949C280.97 283.949 280.96 283.949 280.951 283.949L278.243 283.674C278.167 283.664 278.11 283.598 278.119 283.522C278.129 283.446 278.195 283.389 278.272 283.398L280.979 283.674C281.056 283.683 281.113 283.75 281.103 283.826C281.103 283.892 281.046 283.949 280.97 283.949Z" fill="#DEE8FF"/>
<path d="M285.918 281.241C285.89 281.241 285.852 281.231 285.823 281.203C285.766 281.155 285.756 281.06 285.804 281.003L287.215 279.369C287.263 279.312 287.358 279.302 287.415 279.35C287.472 279.397 287.482 279.492 287.434 279.549L286.023 281.184C285.995 281.222 285.956 281.241 285.918 281.241Z" fill="#DEE8FF"/>
<path d="M292.954 277.43C292.944 277.43 292.934 277.43 292.915 277.43L290.818 276.898C290.742 276.879 290.694 276.803 290.713 276.727C290.732 276.651 290.809 276.603 290.885 276.622L292.982 277.155C293.058 277.174 293.106 277.25 293.087 277.326C293.077 277.392 293.02 277.43 292.954 277.43Z" fill="#DEE8FF"/>
<path d="M290.56 272.859C290.513 272.859 290.465 272.831 290.436 272.793L289.311 270.949C289.273 270.883 289.292 270.797 289.359 270.75C289.426 270.712 289.512 270.731 289.559 270.797L290.684 272.641C290.722 272.707 290.703 272.793 290.637 272.84C290.618 272.859 290.589 272.859 290.56 272.859Z" fill="#DEE8FF"/>
<path opacity="0.5" d="M287.481 260.572C287.481 260.572 292.687 257.655 297.911 267.956C297.911 267.956 301.953 276.632 297.434 280.709" stroke="white" stroke-width="1.4428" stroke-miterlimit="10" stroke-linecap="round" stroke-linejoin="round"/>
<path d="M171.125 260.711C178.589 260.061 184.408 256.902 184.124 253.655C183.839 250.408 177.558 248.303 170.094 248.953C162.63 249.604 156.81 252.763 157.095 256.009C157.379 259.256 163.661 261.361 171.125 260.711Z" fill="#586EA1"/>
<path d="M176.596 218.476C176.463 211.52 169.332 206.046 160.656 206.255C151.981 206.464 145.05 212.27 145.184 219.236L145.756 250.367H145.813C145.784 250.728 145.765 251.089 145.775 251.459C145.908 258.415 153.001 262.017 161.677 261.808C170.352 261.599 177.311 257.665 177.188 250.699C177.178 250.177 177.13 249.654 177.035 249.141C177.045 249.141 176.606 218.998 176.596 218.476Z" fill="#78CEFF"/>
<path opacity="0.27" d="M174.881 226.781C174.871 226.382 174.833 225.992 174.757 225.603C174.509 228.852 167.016 230.496 161.191 230.81C153.993 231.2 148.034 228.919 147.367 226.667C147.339 226.923 147.329 227.18 147.339 227.437L147.777 251.269H147.825C147.796 251.545 147.787 251.821 147.787 252.106C147.882 257.437 154.088 259.603 161.696 259.423C169.304 259.242 175.424 256.771 175.319 251.44C175.31 251.041 175.272 250.642 175.195 250.253C175.205 250.253 174.89 227.18 174.881 226.781Z" fill="#FCFEFF"/>
<path opacity="0.27" d="M161.228 230.801C168.808 230.611 174.893 228.101 174.82 225.195C174.747 222.288 168.543 220.085 160.963 220.275C153.384 220.465 147.299 222.975 147.372 225.881C147.445 228.788 153.649 230.99 161.228 230.801Z" fill="#FCFEFF"/>
<path d="M162.12 258.502C168.152 258.351 172.993 256.293 172.933 253.906C172.873 251.519 167.934 249.706 161.902 249.857C155.869 250.009 151.028 252.067 151.089 254.454C151.149 256.841 156.088 258.654 162.12 258.502Z" fill="#78CEFF"/>
<path d="M160.822 212.454C165.628 212.329 169.472 210.25 169.408 207.81C169.344 205.371 165.397 203.494 160.591 203.619C155.785 203.744 151.941 205.823 152.005 208.263C152.069 210.703 156.017 212.579 160.822 212.454Z" fill="#21386B"/>
<path d="M169.408 207.823C169.456 210.265 165.595 212.337 160.79 212.451L159.055 212.403C164.079 211.234 166.691 208.707 166.424 204.592C168.235 205.362 169.379 206.512 169.408 207.823Z" fill="#21386B"/>
<path d="M168.465 202.121L152.734 202.501L152.83 207.576C152.868 209.771 156.424 211.472 160.771 211.367C161.448 211.348 162.106 211.291 162.735 211.196C162.983 211.158 163.231 211.111 163.469 211.063C163.946 210.959 164.403 210.835 164.842 210.693C165.033 210.626 165.204 210.56 165.385 210.493C165.614 210.398 165.833 210.303 166.043 210.208C166.138 210.161 166.224 210.113 166.31 210.066C166.577 209.923 166.815 209.771 167.044 209.619C167.13 209.552 167.216 209.486 167.302 209.419C167.559 209.21 167.788 208.992 167.969 208.764C168.36 208.279 168.57 207.747 168.56 207.196L168.465 202.121Z" fill="white"/>
<path d="M152.801 207.025C152.839 209.229 156.395 210.93 160.742 210.826C161.419 210.807 162.077 210.75 162.706 210.655C162.954 210.617 163.202 210.569 163.44 210.522C163.917 210.417 164.374 210.294 164.813 210.151C165.004 210.085 165.175 210.018 165.356 209.952C165.585 209.857 165.805 209.762 166.014 209.667C166.11 209.619 166.195 209.571 166.281 209.524C166.548 209.381 166.786 209.229 167.015 209.068C167.101 209.001 167.187 208.935 167.273 208.868C167.53 208.659 167.759 208.441 167.94 208.203C168.331 207.718 168.541 207.186 168.531 206.635" stroke="white" stroke-width="1.3142" stroke-miterlimit="10" stroke-linecap="round" stroke-linejoin="round"/>
<path d="M160.704 206.295C165.047 206.184 168.525 204.465 168.474 202.455C168.422 200.446 164.86 198.907 160.517 199.018C156.175 199.129 152.696 200.848 152.748 202.858C152.8 204.867 156.362 206.406 160.704 206.295Z" fill="white"/>
<path d="M160.704 206.295C165.047 206.184 168.525 204.465 168.474 202.455C168.422 200.446 164.86 198.907 160.517 199.018C156.175 199.129 152.696 200.848 152.748 202.858C152.8 204.867 156.362 206.406 160.704 206.295Z" stroke="#2E4E94" stroke-miterlimit="10" stroke-linecap="round" stroke-linejoin="round"/>
<path d="M160.784 204.432C163.431 204.365 165.555 203.435 165.528 202.354C165.501 201.273 163.332 200.451 160.685 200.518C158.037 200.585 155.913 201.515 155.94 202.596C155.968 203.676 158.136 204.499 160.784 204.432Z" stroke="#2E4E94" stroke-miterlimit="10" stroke-linecap="round" stroke-linejoin="round"/>
<path d="M154.393 205.457L154.45 208.555" stroke="#2E4E94" stroke-miterlimit="10" stroke-linecap="round" stroke-linejoin="round"/>
<path d="M156.853 206.417L156.91 209.515" stroke="#2E4E94" stroke-miterlimit="10" stroke-linecap="round" stroke-linejoin="round"/>
<path d="M159.684 206.882L159.741 209.98" stroke="#2E4E94" stroke-miterlimit="10" stroke-linecap="round" stroke-linejoin="round"/>
<path d="M162.906 206.645L162.963 209.743" stroke="#2E4E94" stroke-miterlimit="10" stroke-linecap="round" stroke-linejoin="round"/>
<path d="M165.452 206.008L165.509 209.106" stroke="#2E4E94" stroke-miterlimit="10" stroke-linecap="round" stroke-linejoin="round"/>
<path d="M167.158 204.811L167.215 207.909" stroke="#2E4E94" stroke-miterlimit="10" stroke-linecap="round" stroke-linejoin="round"/>
<path opacity="0.24" d="M150.885 213.354L149.073 216.014C147.948 217.658 147.367 219.673 147.405 221.725L147.577 230.867C147.596 232.15 148.521 233.186 149.693 233.252C150.99 233.328 152.076 232.178 152.048 230.753L151.895 222.543C151.848 220.205 152.62 217.924 154.05 216.185C155.251 214.722 154.279 212.413 152.486 212.451C151.857 212.47 151.266 212.802 150.885 213.354Z" fill="#FCFEFF"/>
<path opacity="0.5" d="M174.795 225.279C174.852 228.149 168.751 230.629 161.171 230.81C153.592 230.991 147.405 228.814 147.357 225.935" stroke="white" stroke-width="1.0885" stroke-miterlimit="10" stroke-linecap="round" stroke-linejoin="round"/>
<path d="M130.026 191.003L129.816 229.043L137.024 225.194L136.7 192.98C136.69 192.01 137.939 191.203 138.969 191.507L169.771 199.803C171.783 200.392 172.603 202.064 172.622 203.955L174.262 239.353L180.821 235.599L179.419 201.817C179.391 198.729 177.293 196.22 173.976 195.298L139.245 185.748C134.316 183.829 130.36 185.967 130.026 191.003Z" fill="#1261BD"/>
<path d="M170.61 267.567L142.124 286.173L117.127 279.473L169.523 252.267L170.61 267.567Z" fill="#EDF3FF"/>
<path d="M169.523 252.267L141.037 270.873L116.04 264.174L144.526 245.568L169.523 252.267Z" fill="white"/>
<path d="M116.04 264.174L117.098 279.055L142.124 286.173L141.037 270.873L116.04 264.174Z" fill="white"/>
<path d="M146.024 258.696C151.843 258.286 156.415 255.896 156.235 253.357C156.055 250.818 151.192 249.091 145.373 249.501C139.553 249.91 134.982 252.301 135.162 254.84C135.341 257.379 140.205 259.105 146.024 258.696Z" fill="#5E75AB"/>
<path d="M141.009 259.039C146.392 258.831 150.629 255.452 150.475 251.493C150.321 247.534 145.833 244.493 140.451 244.701C135.069 244.91 130.831 248.288 130.985 252.247C131.14 256.206 135.627 259.247 141.009 259.039Z" fill="#6AB339"/>
<path d="M140.217 242.665C145.603 242.564 149.916 239.726 149.853 236.326C149.789 232.926 145.371 230.251 139.986 230.352C134.601 230.452 130.287 233.29 130.351 236.69C130.415 240.09 134.832 242.765 140.217 242.665Z" fill="#DA7500"/>
<path d="M140.389 243.208C145.771 243 150.009 239.621 149.855 235.662C149.701 231.703 145.213 228.662 139.831 228.871C134.449 229.079 130.211 232.457 130.365 236.416C130.519 240.376 135.007 243.416 140.389 243.208Z" fill="#DA7500"/>
<path d="M149.641 230.139L130.151 230.894L130.941 251.148L150.431 250.392L149.641 230.139Z" fill="#6DC433"/>
<path d="M150.266 246.147L148.359 246.223C148.063 245.948 132.953 246.537 132.676 246.832L130.77 246.908L130.932 251.165C131.008 252.999 132.028 254.795 133.982 256.125C137.901 258.776 144.069 258.539 147.768 255.593C149.617 254.12 150.494 252.248 150.428 250.414L150.266 246.147Z" fill="#6DC433"/>
<path d="M130.484 239.315C130.484 239.315 139.54 245.482 149.98 238.754L149.865 235.865L130.369 236.474L130.484 239.315Z" fill="#6AB339"/>
<path d="M150.923 234.925L128.9 235.599L128.776 233.053L150.799 232.378L150.923 234.925Z" fill="#EBEBEB"/>
<path d="M140.046 240.495C146.131 240.34 151.004 237.893 150.93 235.028C150.857 232.163 145.865 229.967 139.78 230.122C133.695 230.276 128.822 232.724 128.896 235.589C128.969 238.454 133.961 240.65 140.046 240.495Z" fill="#EBEBEB"/>
<path d="M146.49 253.065L146.461 252.419L146.232 246.47L146.128 243.743C141.933 245.368 136.251 245.302 132.466 243.42C132.39 243.382 132.304 243.334 132.228 243.296C131.589 242.973 131.036 242.612 130.588 242.223L130.702 245.054L130.922 250.718L130.931 251.06C133.686 256.334 142.972 255.669 146.49 253.065Z" fill="white"/>
<path d="M139.922 237.777C146.007 237.622 150.88 235.175 150.806 232.31C150.733 229.445 145.741 227.249 139.656 227.403C133.571 227.558 128.698 230.006 128.772 232.871C128.845 235.736 133.837 237.932 139.922 237.777Z" fill="white"/>
<path d="M139.887 236.307C144.413 236.189 148.039 234.431 147.986 232.379C147.932 230.328 144.219 228.76 139.692 228.878C135.166 228.995 131.54 230.754 131.593 232.805C131.647 234.856 135.36 236.424 139.887 236.307Z" stroke="#EBEBEB" stroke-width="2.435" stroke-miterlimit="10" stroke-linecap="round" stroke-linejoin="round"/>
<path d="M140.875 250.88C137.872 251.165 134.841 250.775 132.543 249.635" stroke="#2E4E94" stroke-width="0.8082" stroke-miterlimit="10" stroke-linecap="round" stroke-linejoin="round"/>
<path d="M140.866 247.867C137.862 248.152 134.831 247.763 132.533 246.622" stroke="#2E4E94" stroke-width="0.8082" stroke-miterlimit="10" stroke-linecap="round" stroke-linejoin="round"/>
<path d="M143.258 270.664L142.505 260.601L142.467 260.592L99.8428 247.478L109.5 276.908C110.158 278.903 111.845 280.462 114.134 281.174L139.702 289.138L139.864 289.185C142.048 289.869 144.774 289.413 144.774 289.413L143.506 273.99L143.554 274.009L143.344 271.805L143.258 270.664ZM117.299 276.537C115.068 276.119 112.875 274.171 112.437 272.194L110.034 261.361C109.596 259.385 111.064 258.111 113.295 258.52C115.525 258.938 117.718 260.886 118.157 262.863L120.559 273.696C121.007 275.672 119.539 276.955 117.299 276.537ZM136.261 278.552C136.423 280.585 134.812 281.726 132.676 281.089C130.541 280.452 128.672 278.276 128.51 276.242L127.633 265.096C127.471 263.062 129.082 261.922 131.218 262.559C133.353 263.195 135.222 265.371 135.384 267.405L136.261 278.552Z" fill="#A0B8ED"/>
<path d="M165.776 264.668L151.457 273.639V267.642L165.776 258.672V264.668Z" fill="#78CEFF"/>
<path d="M142.505 260.601L142.905 265.675L142.867 265.694L144.488 286.287C144.65 288.358 147.453 289.233 149.522 287.855L175.577 270.569L175.586 270.626L198.095 255.688C200.23 254.272 201.575 252.163 201.718 249.986L203.987 221.07L142.505 260.601ZM158.922 275.226C156.948 276.518 155.194 275.919 155.013 273.886L154.05 262.758C153.878 260.725 155.347 258.007 157.32 256.714C159.293 255.422 161.048 256.021 161.229 258.054L162.192 269.182C162.363 271.216 160.895 273.933 158.922 275.226ZM177.617 259.936C177.722 261.979 176.158 264.668 174.147 265.913C172.135 267.158 170.41 266.512 170.305 264.469L169.742 253.274C169.637 251.231 171.201 248.542 173.212 247.297C175.224 246.052 176.949 246.699 177.054 248.742L177.617 259.936ZM192.88 238.26L192.909 249.511C192.918 251.564 191.231 254.215 189.171 255.393C187.112 256.581 185.425 255.869 185.415 253.816L185.387 242.565C185.377 240.512 187.065 237.861 189.124 236.683C191.183 235.495 192.87 236.208 192.88 238.26Z" fill="#89A2D9"/>
<path d="M196.055 223.312L143.182 256.372C141.981 257.123 140.474 257.351 139.187 256.961L107.813 247.525C106.745 247.202 106.649 245.957 107.66 245.321L108.175 244.998L98.26 247.63C98.2218 249.065 99.1085 250.424 100.882 250.956L138.453 262.197C140.751 262.882 143.449 262.473 145.603 261.095L202.967 224.491C205.093 223.141 205.626 220.908 204.711 219.321L196.541 221.497C196.96 222.01 196.817 222.837 196.055 223.312Z" fill="#1261BD"/>
<path d="M199.62 298.023L181.554 292.578C179.285 291.893 179.19 290.116 181.326 288.625L208.677 269.591C210.822 268.099 214.426 267.443 216.695 268.118L234.761 273.563C237.03 274.247 237.125 276.024 234.99 277.516L207.638 296.55C205.493 298.042 201.88 298.707 199.62 298.023Z" fill="#BAC7F2"/>
<path d="M233.074 275.368C233.074 275.359 233.074 275.349 233.074 275.34V273.61L231.93 273.924C231.739 273.829 231.539 273.743 231.31 273.677L213.244 268.232C210.975 267.547 207.371 268.213 205.226 269.705L177.875 288.739L176.33 289.157V291.01C176.368 291.732 176.959 292.35 178.094 292.692L196.169 298.137C198.438 298.821 202.042 298.156 204.187 296.664L231.539 277.63C232.53 276.936 233.035 276.185 233.074 275.511H233.083V275.368H233.074Z" fill="#78CEFF"/>
<path d="M196.169 296.407L178.103 290.962C175.834 290.278 175.739 288.501 177.874 287.009L205.226 267.975C207.371 266.483 210.975 265.827 213.244 266.502L231.31 271.947C233.579 272.631 233.674 274.408 231.539 275.9L204.187 294.934C202.042 296.426 198.438 297.091 196.169 296.407Z" fill="#78CEFF"/>
<path d="M186.684 293.547L221.262 269.115" stroke="#78CEFF" stroke-width="6.5107" stroke-miterlimit="10" stroke-linecap="round" stroke-linejoin="round"/>
<path d="M225.223 276.715C227.434 276.666 229.205 275.658 229.179 274.461C229.153 273.265 227.339 272.334 225.128 272.382C222.917 272.431 221.146 273.439 221.173 274.636C221.199 275.832 223.012 276.763 225.223 276.715Z" fill="#2B65E0"/>
<path d="M225.237 272.242C224.722 272.128 224.159 272.061 223.559 272.08C222.958 272.09 222.396 272.175 221.89 272.318L219.593 273.107L219.612 274.152C219.602 274.218 219.593 274.275 219.602 274.342C219.621 275.539 221.433 276.47 223.654 276.423C225.866 276.375 227.639 275.368 227.62 274.171L227.601 273.059L225.237 272.242Z" fill="#DEE8FF"/>
<path d="M225.237 272.242C224.722 272.128 224.16 272.061 223.559 272.08C222.958 272.09 222.396 272.175 221.891 272.318C225.704 273.648 225.942 275.017 223.645 276.413C225.857 276.366 227.63 275.359 227.611 274.161L227.592 273.05L225.237 272.242Z" fill="#BACCF2"/>
<path d="M223.64 275.384C225.851 275.336 227.622 274.327 227.596 273.131C227.57 271.934 225.756 271.004 223.545 271.052C221.334 271.1 219.563 272.109 219.59 273.305C219.616 274.502 221.429 275.432 223.64 275.384Z" fill="white"/>
<path d="M225.914 272.232L221.767 274.057C221.643 274.114 221.423 274.085 221.28 274C221.137 273.914 221.118 273.8 221.242 273.753L225.389 271.928C225.513 271.871 225.733 271.9 225.876 271.985C226.019 272.071 226.038 272.185 225.914 272.232Z" fill="#DEE8FF"/>
<path d="M216.51 282.721C218.72 282.672 220.491 281.664 220.465 280.467C220.439 279.271 218.625 278.34 216.414 278.388C214.203 278.436 212.432 279.445 212.459 280.642C212.485 281.838 214.299 282.769 216.51 282.721Z" fill="#2B65E0"/>
<path d="M216.533 278.247C216.019 278.133 215.456 278.067 214.856 278.086C214.255 278.095 213.692 278.181 213.187 278.323L210.89 279.112L210.909 280.158C210.899 280.224 210.89 280.281 210.899 280.348C210.918 281.545 212.73 282.476 214.951 282.429C217.163 282.381 218.936 281.374 218.917 280.177L218.898 279.065L216.533 278.247Z" fill="#DEE8FF"/>
<path d="M216.533 278.247C216.018 278.133 215.455 278.067 214.855 278.086C214.254 278.095 213.692 278.181 213.187 278.323C217 279.654 217.238 281.022 214.941 282.419C217.152 282.372 218.926 281.364 218.907 280.167L218.888 279.055L216.533 278.247Z" fill="#BACCF2"/>
<path d="M214.926 281.39C217.137 281.342 218.908 280.333 218.882 279.137C218.856 277.94 217.042 277.01 214.831 277.058C212.62 277.106 210.849 278.115 210.876 279.311C210.902 280.508 212.716 281.438 214.926 281.39Z" fill="white"/>
<path d="M217.21 278.238L213.063 280.062C212.939 280.119 212.719 280.091 212.576 280.005C212.433 279.92 212.414 279.806 212.538 279.758L216.685 277.934C216.809 277.877 217.029 277.905 217.172 277.991C217.305 278.076 217.324 278.19 217.21 278.238Z" fill="#DEE8FF"/>
<path d="M207.803 288.727C210.014 288.678 211.785 287.669 211.759 286.473C211.733 285.277 209.919 284.346 207.708 284.394C205.497 284.442 203.726 285.451 203.753 286.648C203.779 287.844 205.593 288.775 207.803 288.727Z" fill="#2B65E0"/>
<path d="M207.819 284.253C207.304 284.139 206.741 284.073 206.141 284.092C205.54 284.101 204.978 284.187 204.472 284.329L202.175 285.118L202.194 286.163C202.184 286.23 202.175 286.287 202.184 286.353C202.203 287.551 204.015 288.482 206.236 288.434C208.448 288.387 210.221 287.38 210.202 286.182L210.183 285.07L207.819 284.253Z" fill="#DEE8FF"/>
<path d="M207.819 284.253C207.304 284.139 206.742 284.073 206.141 284.092C205.54 284.101 204.978 284.187 204.473 284.329C208.286 285.66 208.524 287.028 206.227 288.425C208.439 288.377 210.212 287.37 210.193 286.173L210.174 285.061L207.819 284.253Z" fill="#BACCF2"/>
<path d="M206.212 287.396C208.423 287.348 210.194 286.339 210.167 285.143C210.141 283.946 208.328 283.016 206.117 283.064C203.906 283.112 202.135 284.121 202.161 285.317C202.187 286.514 204.001 287.444 206.212 287.396Z" fill="white"/>
<path d="M208.496 284.253L204.349 286.078C204.225 286.135 204.006 286.106 203.862 286.021C203.719 285.935 203.7 285.821 203.824 285.774L207.971 283.949C208.095 283.892 208.315 283.921 208.458 284.006C208.601 284.082 208.62 284.196 208.496 284.253Z" fill="#DEE8FF"/>
<path d="M199.091 294.733C201.302 294.684 203.073 293.675 203.046 292.479C203.02 291.283 201.206 290.352 198.995 290.4C196.785 290.448 195.013 291.457 195.04 292.654C195.066 293.85 196.88 294.781 199.091 294.733Z" fill="#2B65E0"/>
<path d="M199.106 290.259C198.591 290.145 198.028 290.078 197.428 290.097C196.827 290.107 196.265 290.192 195.759 290.335L193.462 291.124L193.481 292.169C193.471 292.236 193.462 292.293 193.471 292.359C193.491 293.556 195.302 294.488 197.523 294.44C199.744 294.393 201.508 293.385 201.489 292.188L201.47 291.076L199.106 290.259Z" fill="#DEE8FF"/>
<path d="M199.106 290.259C198.591 290.145 198.029 290.078 197.428 290.097C196.828 290.107 196.265 290.192 195.76 290.335C199.573 291.665 199.811 293.034 197.514 294.431C199.726 294.383 201.499 293.376 201.48 292.179L201.461 291.067L199.106 290.259Z" fill="#BACCF2"/>
<path d="M197.508 293.402C199.718 293.354 201.49 292.345 201.463 291.149C201.437 289.952 199.623 289.022 197.412 289.07C195.202 289.118 193.43 290.127 193.457 291.323C193.483 292.52 195.297 293.45 197.508 293.402Z" fill="white"/>
<path d="M199.782 290.259L195.635 292.084C195.511 292.141 195.292 292.112 195.149 292.027C195.006 291.941 194.987 291.827 195.111 291.779L199.258 289.955C199.382 289.898 199.601 289.926 199.744 290.012C199.887 290.088 199.906 290.202 199.782 290.259Z" fill="#DEE8FF"/>
<path d="M212.972 272.239C215.183 272.19 216.954 271.182 216.928 269.985C216.902 268.789 215.088 267.858 212.877 267.906C210.666 267.955 208.895 268.963 208.922 270.16C208.948 271.356 210.761 272.287 212.972 272.239Z" fill="#2B65E0"/>
<path d="M212.988 267.766C212.473 267.652 211.91 267.585 211.31 267.604C210.709 267.614 210.147 267.699 209.641 267.842L207.344 268.631L207.363 269.676C207.353 269.743 207.344 269.8 207.353 269.866C207.372 271.063 209.184 271.995 211.405 271.947C213.617 271.9 215.39 270.892 215.371 269.695L215.352 268.583L212.988 267.766Z" fill="#DEE8FF"/>
<path d="M212.987 267.766C212.472 267.652 211.91 267.585 211.309 267.604C210.708 267.614 210.146 267.699 209.641 267.842C213.454 269.172 213.692 270.541 211.395 271.938C213.607 271.89 215.38 270.883 215.361 269.686L215.342 268.574L212.987 267.766Z" fill="#BACCF2"/>
<path d="M211.381 270.918C213.592 270.87 215.363 269.861 215.336 268.664C215.31 267.468 213.496 266.537 211.286 266.585C209.075 266.634 207.304 267.643 207.33 268.839C207.356 270.035 209.17 270.966 211.381 270.918Z" fill="white"/>
<path d="M213.665 267.766L209.518 269.591C209.394 269.648 209.174 269.619 209.031 269.534C208.888 269.448 208.869 269.334 208.993 269.286L213.14 267.462C213.264 267.405 213.484 267.433 213.627 267.519C213.77 267.595 213.779 267.709 213.665 267.766Z" fill="#DEE8FF"/>
<path d="M204.259 278.245C206.469 278.196 208.241 277.188 208.214 275.991C208.188 274.795 206.374 273.864 204.163 273.912C201.952 273.961 200.181 274.969 200.208 276.166C200.234 277.362 202.048 278.293 204.259 278.245Z" fill="#2B65E0"/>
<path d="M204.274 273.772C203.759 273.658 203.196 273.591 202.596 273.61C201.995 273.62 201.433 273.705 200.927 273.848L198.63 274.636L198.649 275.682C198.639 275.748 198.63 275.805 198.639 275.872C198.658 277.069 200.47 278 202.691 277.953C204.903 277.905 206.676 276.898 206.657 275.701L206.638 274.589L204.274 273.772Z" fill="#DEE8FF"/>
<path d="M204.274 273.772C203.759 273.658 203.197 273.591 202.596 273.61C201.995 273.62 201.433 273.705 200.928 273.848C204.741 275.178 204.979 276.547 202.682 277.943C204.894 277.896 206.667 276.889 206.648 275.691L206.629 274.579L204.274 273.772Z" fill="#BACCF2"/>
<path d="M202.667 276.924C204.878 276.876 206.649 275.867 206.622 274.67C206.596 273.474 204.783 272.543 202.572 272.592C200.361 272.64 198.59 273.649 198.616 274.845C198.642 276.041 200.456 276.972 202.667 276.924Z" fill="white"/>
<path d="M204.951 273.772L200.804 275.596C200.68 275.653 200.461 275.625 200.318 275.539C200.175 275.454 200.156 275.34 200.279 275.292L204.427 273.468C204.55 273.411 204.77 273.439 204.913 273.525C205.056 273.601 205.075 273.715 204.951 273.772Z" fill="#DEE8FF"/>
<path d="M195.544 284.251C197.755 284.202 199.526 283.194 199.499 281.997C199.473 280.801 197.66 279.87 195.449 279.918C193.238 279.967 191.467 280.975 191.493 282.172C191.519 283.368 193.333 284.299 195.544 284.251Z" fill="#2B65E0"/>
<path d="M195.569 279.787C195.054 279.673 194.491 279.606 193.891 279.625C193.29 279.635 192.728 279.72 192.222 279.863L189.925 280.652L189.944 281.697C189.934 281.764 189.925 281.821 189.934 281.887C189.953 283.084 191.765 284.016 193.986 283.968C196.198 283.921 197.971 282.913 197.952 281.716L197.933 280.604L195.569 279.787Z" fill="#DEE8FF"/>
<path d="M195.569 279.787C195.054 279.673 194.492 279.606 193.891 279.625C193.29 279.635 192.728 279.72 192.223 279.863C196.036 281.193 196.274 282.562 193.977 283.959C196.189 283.911 197.962 282.904 197.943 281.707L197.924 280.595L195.569 279.787Z" fill="#BACCF2"/>
<path d="M193.962 282.93C196.173 282.881 197.944 281.872 197.917 280.676C197.891 279.48 196.077 278.549 193.867 278.597C191.656 278.645 189.885 279.654 189.911 280.851C189.937 282.047 191.751 282.978 193.962 282.93Z" fill="white"/>
<path d="M196.237 279.777L192.09 281.602C191.966 281.659 191.747 281.63 191.604 281.545C191.461 281.459 191.442 281.345 191.566 281.298L195.713 279.473C195.837 279.416 196.056 279.445 196.199 279.53C196.342 279.606 196.361 279.72 196.237 279.777Z" fill="#DEE8FF"/>
<path d="M186.84 290.256C189.051 290.208 190.822 289.199 190.795 288.003C190.769 286.807 188.955 285.876 186.744 285.924C184.534 285.972 182.763 286.981 182.789 288.178C182.815 289.374 184.629 290.305 186.84 290.256Z" fill="#2B65E0"/>
<path d="M186.856 285.793C186.341 285.679 185.778 285.612 185.178 285.631C184.577 285.641 184.015 285.726 183.509 285.869L181.212 286.657L181.231 287.703C181.221 287.769 181.212 287.826 181.221 287.893C181.241 289.09 183.052 290.021 185.273 289.974C187.485 289.926 189.258 288.919 189.239 287.722L189.22 286.61L186.856 285.793Z" fill="#DEE8FF"/>
<path d="M186.855 285.793C186.34 285.679 185.778 285.612 185.177 285.631C184.577 285.641 184.014 285.726 183.509 285.869C187.322 287.199 187.561 288.567 185.263 289.964C187.475 289.917 189.248 288.91 189.229 287.712L189.21 286.6L186.855 285.793Z" fill="#BACCF2"/>
<path d="M185.248 288.936C187.459 288.887 189.23 287.878 189.204 286.682C189.177 285.486 187.364 284.555 185.153 284.603C182.942 284.651 181.171 285.66 181.197 286.857C181.223 288.053 183.037 288.984 185.248 288.936Z" fill="white"/>
<path d="M187.532 285.783L183.385 287.608C183.261 287.665 183.042 287.636 182.899 287.551C182.756 287.465 182.737 287.351 182.861 287.304L187.008 285.479C187.132 285.422 187.351 285.45 187.494 285.536C187.637 285.612 187.656 285.726 187.532 285.783Z" fill="#DEE8FF"/>
<path d="M253.599 155.843C253.599 155.843 249.156 169.061 256.678 169.917C264.2 170.781 264.896 160.509 264.896 160.509L253.599 155.843Z" fill="#2E4E94"/>
<path d="M254.39 155.843C254.39 155.843 252.054 167.265 255.572 167.341C259.919 167.436 259.91 153.648 259.91 153.648L254.39 155.843Z" fill="#27427A"/>
<path opacity="0.21" d="M261.588 275.188C270.244 275.188 277.261 272.099 277.261 268.289C277.261 264.479 270.244 261.39 261.588 261.39C252.932 261.39 245.915 264.479 245.915 268.289C245.915 272.099 252.932 275.188 261.588 275.188Z" fill="#8288D4"/>
<path d="M251.387 267.329L257.326 260.287C258.251 259.793 259.977 259.594 261.378 259.822C262.007 259.926 262.351 260.335 262.389 260.972L262.551 262.14C262.76 264.098 263.008 264.735 261.798 265.39L254.571 269.268C253.103 270.427 248.889 269.885 251.387 267.329Z" fill="#27427A"/>
<path d="M257.575 260.991C257.575 260.991 254.181 265.181 254.629 265.476C256.469 266.683 260.825 262.416 260.825 262.416C260.825 262.416 258.366 260.772 257.575 260.991Z" fill="#E37B7B"/>
<path d="M260.816 262.416C260.063 264.107 257.432 262.986 257.136 261.2C256.336 251.193 253.552 243.306 252.799 233.955C251.95 223.455 252.703 223.284 251.426 207.177L261.283 208.849C260.444 220.405 260.902 235.02 260.902 235.02C264.41 246.28 261.55 248.637 260.816 262.416Z" fill="#E37B7B"/>
<path d="M255.83 233.661C255.83 233.661 257.022 244 259.987 246.328C262.952 248.656 259.987 234.278 259.987 234.278L255.83 233.661Z" fill="#D67474"/>
<path d="M247.821 208.859C249.204 209.096 250.481 208.393 250.662 207.291L250.31 203.034C250.491 201.931 250.262 202.691 248.87 202.454C247.488 202.216 247.488 201.142 246.668 203.167L246.229 206.293C246.172 206.702 246.172 207.11 246.248 207.519C246.41 208.26 246.735 208.678 247.821 208.859Z" fill="#FFA9A8"/>
<path d="M250.225 173.604L247.736 186.1C247.736 186.1 246.163 190.718 246.84 202.482L250.043 203.186L253.018 187.896L253.771 170.8C252.227 170.088 250.53 171.922 250.225 173.604Z" fill="white"/>
<path d="M261.836 271.444L262.465 263.737C262.847 263.157 263.914 262.796 264.973 262.91C265.449 262.958 264.925 262.682 265.259 263.319L266.574 262.178C267.661 264.155 268.233 264.431 268.252 266.217C267.47 269.363 266.326 271.596 264.915 273.135C264.477 274.465 261.378 274.275 261.836 271.444Z" fill="#27427A"/>
<path d="M262.685 264.079C262.685 264.079 263.266 268.279 263.771 268.289C266.317 268.346 266.612 264.554 266.612 264.554C266.612 264.554 263.085 263.746 262.685 264.079Z" fill="#FFA9A8"/>
<path d="M266.602 264.773C265.839 266.597 263.008 265.894 262.684 264.079C261.759 253.826 259.766 247.658 258.899 238.07C257.926 227.304 262.283 226.524 260.815 210.018L270.997 210.683C270.244 222.723 266.764 237.861 266.764 237.861C270.492 249.122 267.231 250.452 266.602 264.773Z" fill="#FFA9A8"/>
<path d="M251.597 193.673C251.597 193.673 249.452 192.847 250.472 230.877C250.472 230.877 252.884 233.081 259.539 234.801C265.802 236.426 264.715 231.608 269.778 233.357C269.778 233.357 271.808 223.54 272.228 220.138C272.647 216.736 274.745 196.838 269.13 196.192C263.524 195.545 251.597 193.673 251.597 193.673Z" fill="#AEAECF"/>
<path d="M269.777 233.366C269.777 233.366 271.808 223.559 272.227 220.157C272.647 216.755 274.744 196.857 269.129 196.211C267.851 196.059 266.24 195.85 264.515 195.612C264.906 198.919 265.687 204.354 267.241 213.23C269.301 225.061 265.411 231.599 261.588 235.048C266.746 234.877 265.287 231.817 269.777 233.366Z" fill="#9A9AB5"/>
<path d="M251.731 175.59C251.731 175.59 251.483 166.667 256.392 166.648C257.079 166.648 258.194 165.973 258.986 165.992C263.075 166.059 262.503 166.097 265.507 167.142C266.641 167.532 267.451 170.734 267.308 171.941L269.234 175.504C262.627 177.823 256.497 178.745 251.731 175.59Z" fill="#FFA9A8"/>
<path d="M255.563 166.41C255.983 166.344 256.307 166.781 256.107 167.161C255.487 168.349 254.591 170.42 253.885 172.131C253.218 173.746 254.257 175.58 255.992 175.789C264.22 176.778 264.22 166.467 264.486 166.619L266.117 167.208C274.926 169.536 272.895 171.988 270.912 176.711C270.912 176.711 268.586 184.988 268.614 188.352C268.634 191.26 271.417 195.659 271.942 196.572C272.628 197.76 268.996 205.447 257.708 204.582C248.823 203.898 249.69 200.221 249.7 195.412C249.71 192.381 251.254 184.247 251.12 181.852C250.987 179.457 249.08 177.728 250.224 173.832C250.854 171.675 251.616 169.755 252.169 168.482C252.608 167.455 253.552 166.743 254.657 166.562L255.563 166.41Z" fill="#78CEFF"/>
<path d="M260.053 168.681L259.767 168.729C258.794 168.881 257.927 168.216 257.832 167.265L257.307 161.906C257.212 160.956 257.936 160.053 258.899 159.91L259.185 159.863C260.158 159.711 261.616 160.081 261.702 161.032L262.494 166.714C262.598 167.664 261.016 168.539 260.053 168.681Z" fill="#FFA9A8"/>
<path d="M263.228 154.228C262.494 152.726 261.226 152.346 259.967 153.04C258.833 152.422 257.365 153.011 256.183 154.76C254.533 157.193 253.818 161.241 254.896 163.426C255.363 164.386 256.202 164.662 257.012 164.757C257.765 164.852 258.547 164.776 259.3 164.576C261.989 163.854 262.008 164.244 263.114 162.619C264.763 160.195 264.296 156.413 263.228 154.228Z" fill="#FFA9A8"/>
<path d="M261.492 154.988C262.283 157.573 262.055 163.36 262.14 164.13C262.14 164.13 267.432 164.291 267.088 158.304C266.669 150.854 262.217 154.342 262.217 154.342L261.492 154.988Z" fill="#2E4E94"/>
<path d="M256.04 162.685C256.04 162.685 255.391 162.324 255.63 160.965L258.109 161.716C257.556 162.581 257.022 163.065 256.04 162.685Z" fill="white"/>
<path d="M266.231 166.99C266.231 166.99 265.945 169.09 264.296 171.798C261.76 175.951 261.15 183.42 261.588 189.502C262.027 195.584 262.504 208.612 262.504 208.612L262.132 230.506C262.132 230.506 270.121 231.019 272.962 226.002C275.803 220.984 273.01 199.622 271.475 195.603C269.94 191.583 272.638 180.417 272.638 180.417C272.638 180.417 273.734 172.901 272.638 170.639C271.542 168.387 266.231 166.99 266.231 166.99Z" fill="white"/>
<path d="M255.563 166.41C255.563 166.41 251.711 172.843 251.73 176.378C251.75 179.914 252.264 208.621 252.264 208.621L251.416 228.064C251.416 228.064 248.508 228.681 248.432 225.755C248.356 222.837 249.681 193.958 249.681 193.958L250.672 179.809C250.672 179.809 248.127 176.436 250.672 171.39C252.684 167.417 252.817 167.313 252.951 167.199C253.771 166.496 255.563 166.41 255.563 166.41Z" fill="white"/>
<path d="M250.539 195.831L259.071 197.655C260.739 198.016 261.664 197.132 261.13 195.698L256.297 182.745C255.763 181.31 253.961 179.847 252.293 179.495L243.76 177.671C242.092 177.31 241.167 178.194 241.701 179.628L246.535 192.581C247.068 194.016 248.87 195.479 250.539 195.831Z" fill="#1261BD"/>
<path d="M254.867 191.07C254.933 191.877 255.639 192.514 256.421 192.495L259.138 192.429C259.919 192.41 260.501 191.735 260.425 190.927C260.358 190.119 259.652 189.483 258.871 189.502L256.154 189.568C255.381 189.597 254.8 190.262 254.867 191.07Z" fill="#FFA9A8"/>
<path d="M272.752 170.943C272.752 170.943 280.579 188.979 276.985 194.224C273.667 199.061 259.672 192.828 259.672 192.828V189.511L270.616 187.677L268.567 174.696L272.752 170.943Z" fill="white"/>
<path d="M265.354 189.502C265.354 189.502 271.741 190.756 271.979 188.742C272.218 186.727 269.196 178.621 269.196 178.621" stroke="#DEE8FF" stroke-miterlimit="10" stroke-linecap="round" stroke-linejoin="round"/>
<path d="M257.556 164.804C257.556 164.804 259.872 165.013 261.522 162.818C261.522 162.818 259.863 166.002 257.727 166.287L257.556 164.804Z" fill="#E37B7B"/>
<path d="M262.141 164.129C262.141 164.129 260.329 168.539 261.159 170.648C262.503 174.041 264.905 168.434 266.841 167.17C268.948 165.792 267.108 164.586 267.098 160.328C267.089 153.154 264.82 158.181 264.82 158.181L262.141 164.129Z" fill="#2E4E94"/>
<path d="M263.99 161.269C263.561 162.191 262.56 162.809 261.74 162.647C260.92 162.486 260.606 161.602 261.025 160.68C261.454 159.758 262.455 159.141 263.275 159.302C264.095 159.454 264.41 160.338 263.99 161.269Z" fill="#FFA9A8"/>
<path d="M263.228 156.109C260.75 154.912 257.909 152.707 253.351 159.426C253.027 159.901 253.962 156.717 253.409 157.126C253.113 156.47 254.114 154.408 255.087 153.781C257.127 152.47 258.156 151.757 260.301 151.424L260.816 151.396C263.934 151.244 265.497 152.527 265.983 155.539C266.022 155.805 266.479 157.031 266.489 157.25L265.516 156.86C265.545 158.637 265.021 155.976 263.228 156.109Z" fill="#2E4E94"/>
<path d="M283.697 135.897L204.454 115.751L213.168 103.654L292.41 123.8L283.697 135.897Z" fill="#6DC433"/>
<path d="M213.234 117.984L204.454 115.751L213.168 103.654L221.948 105.887L213.234 117.984Z" fill="white"/>
<path d="M230.853 122.46L222.072 120.227L230.786 108.13L239.566 110.363L230.853 122.46Z" fill="white"/>
<path d="M248.461 126.936L239.681 124.703L248.404 112.606L257.184 114.839L248.461 126.936Z" fill="white"/>
<path d="M266.079 131.421L257.299 129.188L266.022 117.091L274.802 119.315L266.079 131.421Z" fill="white"/>
<path d="M283.696 135.897L274.916 133.664L283.639 121.567L292.41 123.8L283.696 135.897Z" fill="white"/>
<path d="M283.677 145.39C280.56 148.716 274.916 146.93 274.764 143.119L274.926 133.664L283.687 135.916L283.677 145.39Z" fill="#F0F5FF"/>
<path d="M265.859 141.095C262.742 144.421 257.098 142.634 256.945 138.824L257.107 129.369L265.869 131.621L265.859 141.095Z" fill="#F0F5FF"/>
<path d="M248.337 136.61C245.219 139.936 239.575 138.149 239.423 134.338L239.585 124.883L248.346 127.135L248.337 136.61Z" fill="#F0F5FF"/>
<path d="M230.662 132.134C227.544 135.46 221.901 133.673 221.748 129.863L221.91 120.407L230.671 122.66L230.662 132.134Z" fill="#F0F5FF"/>
<path d="M213.635 127.449C210.517 130.775 204.873 128.988 204.721 125.178L204.883 115.723L213.644 117.975L213.635 127.449Z" fill="#F0F5FF"/>
<path d="M274.754 143.119C272.094 146.141 266.498 145.799 265.888 140.867L266.078 131.421L274.916 133.664L274.754 143.119Z" fill="#6DC433"/>
<path d="M257.079 138.643C254.419 141.665 248.823 141.323 248.213 136.391L248.404 126.945L257.241 129.188L257.079 138.643Z" fill="#6DC433"/>
<path d="M239.404 134.167C236.744 137.189 231.148 136.847 230.538 131.915L230.729 122.47L239.566 124.712L239.404 134.167Z" fill="#6DC433"/>
<path d="M222.062 129.682C219.403 132.704 213.806 132.362 213.196 127.43L213.387 117.984L222.225 120.227L222.062 129.682Z" fill="#6DC433"/>
<path d="M204.511 115.628L283.467 135.716" stroke="#6DC433" stroke-miterlimit="10" stroke-linecap="round" stroke-linejoin="round"/>
<path d="M154.498 267.966L154.031 262.52C154.031 262.52 154.174 257.627 158.846 255.973" stroke="#1261BD" stroke-width="3" stroke-miterlimit="10" stroke-linecap="round" stroke-linejoin="round"/>
<path d="M169.981 258.605L169.514 253.16C169.514 253.16 169.657 248.266 174.328 246.613" stroke="#1261BD" stroke-width="3" stroke-miterlimit="10" stroke-linecap="round" stroke-linejoin="round"/>
<path d="M185.444 248.438L185.177 242.983C185.177 242.983 185.501 238.099 190.23 236.616" stroke="#1261BD" stroke-width="3" stroke-miterlimit="10" stroke-linecap="round" stroke-linejoin="round"/>
<path d="M256.939 158.959C257.136 158.988 257.345 158.691 257.403 158.295C257.462 157.899 257.349 157.555 257.151 157.525C256.954 157.496 256.745 157.793 256.687 158.189C256.628 158.585 256.741 158.929 256.939 158.959Z" fill="#2E4E94"/>
<path d="M258.853 159.729C259.05 159.758 259.259 159.461 259.317 159.065C259.376 158.67 259.263 158.325 259.065 158.295C258.868 158.266 258.659 158.563 258.601 158.959C258.542 159.355 258.655 159.699 258.853 159.729Z" fill="#2E4E94"/>
<path d="M227.597 152.411H220.091V145.155H211.782V152.411H204.41V160.591H211.782V167.979H220.091V160.591H227.597V152.411Z" fill="#6DC433"/>
<path d="M234.842 168.766H230.972V165.081H226.688V168.766H222.887V172.921H226.688V176.674H230.972V172.921H234.842V168.766Z" fill="#6DC433"/>
</g>
<defs>
<linearGradient id="paint0_linear" x1="1.89965" y1="262.682" x2="141.275" y2="-177.263" gradientUnits="userSpaceOnUse">
<stop stop-color="#6DC433"/>
</linearGradient>
<linearGradient id="paint1_linear" x1="-61.4018" y1="4.13853" x2="322.378" y2="-155.636" gradientUnits="userSpaceOnUse">
<stop stop-color="#1261BD"/>
<stop offset="1" stop-color="#78CEFF"/>
</linearGradient>
<clipPath id="clip0">
<rect width="375" height="7104" fill="white"/>
</clipPath>
</defs>
</svg>
