<svg width="192" height="52" viewBox="0 0 192 52" fill="none" xmlns="http://www.w3.org/2000/svg">
<path d="M186.66 0.577148H143.691C141.506 0.577148 139.759 2.67014 139.759 5.26833V31.0338C139.759 33.632 141.506 35.725 143.691 35.725H148.389C148.353 36.0497 148.353 36.3385 148.316 36.555C147.915 40.2718 146.86 42.9783 146.86 42.9783C146.86 42.9783 149.882 42.2926 152.795 39.2253C153.85 38.1066 154.434 36.7715 154.762 35.725H186.66C188.844 35.725 190.593 33.632 190.593 31.0338V5.26833C190.593 2.67014 188.844 0.577148 186.66 0.577148Z" fill="white"/>
<path d="M146.853 43.5203C146.707 43.5203 146.562 43.4481 146.452 43.3399C146.306 43.1955 146.271 42.979 146.343 42.7986C146.343 42.7624 147.363 40.1282 147.764 36.5196C147.764 36.4474 147.764 36.3753 147.8 36.2671H143.685C141.208 36.2671 139.206 33.9214 139.206 31.0345V5.26909C139.206 2.38222 141.208 0.0366211 143.685 0.0366211H186.653C189.13 0.0366211 191.132 2.38222 191.132 5.26909V31.0345C191.132 33.9214 189.13 36.2671 186.653 36.2671H155.155C154.791 37.2413 154.208 38.5043 153.189 39.5869C150.203 42.7264 147.108 43.4842 146.998 43.4842C146.925 43.5203 146.89 43.5203 146.853 43.5203ZM143.685 1.1192C141.827 1.1192 140.298 2.95958 140.298 5.26909V31.0345C140.298 33.3079 141.827 35.1844 143.685 35.1844H148.383C148.528 35.1844 148.674 35.2566 148.783 35.3649C148.892 35.4731 148.929 35.6174 148.929 35.7618C148.892 36.0866 148.892 36.3753 148.856 36.6279C148.601 39.0096 148.091 40.9582 147.727 42.1129C148.819 41.6799 150.64 40.7056 152.387 38.8652C153.407 37.7826 153.953 36.4836 154.245 35.5814C154.318 35.3649 154.536 35.1844 154.754 35.1844H186.653C188.51 35.1844 190.04 33.3441 190.04 31.0345V5.26909C190.04 2.99568 188.51 1.1192 186.653 1.1192H143.685Z" fill="#575966"/>
<path d="M187.054 0.289062H144.086C141.901 0.289062 140.153 2.38206 140.153 4.98025V30.7457C140.153 33.3438 141.901 35.4368 144.086 35.4368H148.783C148.748 35.7616 148.748 36.0503 148.711 36.2668C148.31 39.9837 147.254 42.6901 147.254 42.6901C147.254 42.6901 150.276 42.0045 153.19 38.9373C154.245 37.8185 154.828 36.4833 155.156 35.4368H187.054C189.239 35.4368 190.986 33.3438 190.986 30.7457V4.94417C190.986 2.38206 189.202 0.289062 187.054 0.289062Z" fill="white"/>
<path d="M147.225 42.9424C147.152 42.9424 147.078 42.9063 147.005 42.8342C146.932 42.762 146.932 42.6537 146.969 42.5455C146.969 42.5094 148.025 39.839 148.426 36.1942C148.426 36.0499 148.462 35.8695 148.462 35.653H144.056C141.726 35.653 139.832 33.4157 139.832 30.7092V4.94378C139.832 2.20124 141.726 0 144.056 0H187.025C189.355 0 191.249 2.23734 191.249 4.94378V30.7092C191.249 33.4517 189.355 35.653 187.025 35.653H155.308C154.98 36.6274 154.398 37.9264 153.341 39.0451C150.429 42.1485 147.406 42.8342 147.26 42.8702C147.26 42.9424 147.26 42.9424 147.225 42.9424ZM144.056 0.54129C142.054 0.54129 140.378 2.52602 140.378 4.94378V30.7092C140.378 33.127 142.017 35.1117 144.056 35.1117H148.753C148.826 35.1117 148.899 35.1477 148.936 35.1839C148.972 35.256 149.009 35.3282 149.009 35.4004C148.972 35.7252 148.972 36.0139 148.936 36.2304C148.644 39.009 147.952 41.2463 147.661 42.1845C148.608 41.8598 150.828 40.8855 152.94 38.6482C153.997 37.5295 154.58 36.1942 154.871 35.256C154.907 35.1477 155.017 35.0757 155.126 35.0757H187.025C189.027 35.0757 190.702 33.0909 190.702 30.6731V4.94378C190.702 2.52602 189.064 0.54129 187.025 0.54129H144.056Z" fill="#575966"/>
<path d="M160.001 17.2854L165.063 12.2695L170.124 7.25348C170.124 7.25348 176.169 2.34578 181.194 7.36174C186.255 12.3777 181.194 18.2237 181.194 18.2237L176.133 23.2396L171.071 28.2556C171.071 28.2556 165.027 33.1633 160.001 28.1473C154.94 23.1675 160.001 17.2854 160.001 17.2854Z" fill="#90CC3D"/>
<path d="M159.711 28.6881L159.601 28.5798C158.035 27.0282 157.161 24.9352 157.161 22.734C157.161 20.5327 158.035 18.4757 159.601 16.888L169.688 6.89215C172.928 3.68048 178.208 3.68048 181.45 6.89215L181.558 7.0004C184.8 10.2121 184.8 15.4445 181.558 18.6562L171.472 28.652C169.833 30.276 167.721 31.0698 165.573 31.0698C163.461 31.1058 161.349 30.276 159.711 28.6881ZM180.684 7.68604C177.88 4.90741 173.293 4.90741 170.489 7.68604L160.402 17.6819C159.055 19.017 158.29 20.8214 158.29 22.734C158.29 24.6465 159.055 26.4147 160.402 27.786L160.511 27.8943C163.315 30.6728 167.904 30.6728 170.707 27.8943L180.794 17.8984C183.598 15.1197 183.598 10.5729 180.794 7.7943L180.684 7.68604Z" fill="#575966"/>
<path d="M160.654 7.57843C160.654 7.57843 154.719 2.56248 149.693 7.57843C144.668 12.5944 149.584 18.5486 149.584 18.5486L154.645 23.5646L165.715 12.5583L160.654 7.57843Z" fill="#D0FF94"/>
<path d="M159.673 28.5802C159.673 28.5802 165.609 33.5602 170.816 28.3999C176.022 23.2396 171.107 17.2131 171.107 17.2131L166.046 12.1973L154.576 23.5643L159.673 28.5802Z" fill="#50C433"/>
<path d="M159.71 28.6806L149.624 18.6848C146.383 15.4731 146.383 10.2406 149.624 7.02895L149.734 6.92069C151.298 5.36899 153.41 4.50293 155.632 4.50293C157.854 4.50293 159.929 5.36899 161.531 6.92069L171.618 16.9165C173.184 18.4683 174.057 20.5613 174.057 22.7625C174.057 24.9637 173.184 27.0206 171.618 28.6084L171.508 28.7166C169.87 30.3406 167.758 31.1344 165.609 31.1344C163.461 31.1344 161.349 30.2684 159.71 28.6806ZM150.534 7.6785L150.425 7.78677C147.622 10.5654 147.622 15.1123 150.425 17.8908L160.512 27.8866C163.316 30.6653 167.903 30.6653 170.707 27.8866L170.817 27.7784C172.164 26.4433 172.929 24.6389 172.929 22.7264C172.929 20.8138 172.164 19.0456 170.817 17.6743L160.73 7.6785C159.382 6.34332 157.561 5.58551 155.632 5.58551C153.702 5.58551 151.881 6.34332 150.534 7.6785Z" fill="#575966"/>
<path d="M165.03 11.9033L153.933 22.901L154.73 23.692L165.828 12.6943L165.03 11.9033Z" fill="#575966"/>
<path d="M18.5346 31.5393L10.8513 42.1124C10.6692 42.4011 10.4143 42.4733 10.1594 42.4733H10.0866C9.79527 42.4733 9.54037 42.3651 9.35831 42.1124L1.67503 31.5753V51.1339C1.67503 51.567 1.31089 51.9639 0.837514 51.9639C0.364136 51.9639 0 51.6031 0 51.1701V29.0853C0 28.7967 0.145654 28.5802 0.327723 28.4358C0.327723 28.3998 0.364136 28.3998 0.40055 28.3636C0.764686 28.1111 1.31089 28.1833 1.56579 28.5802L10.123 40.3081L18.6438 28.5802C18.8986 28.2193 19.4448 28.1471 19.809 28.3636C19.9183 28.472 19.9911 28.5441 20.0639 28.6523C20.1367 28.7967 20.2096 28.941 20.2096 29.0853V51.1339C20.2096 51.567 19.8454 51.9639 19.3721 51.9639C18.8986 51.9639 18.5346 51.6031 18.5346 51.1339V31.5393Z" fill="#575966"/>
<path d="M27.4175 43.664C27.4175 39.045 31.0589 35.292 35.6106 35.292C39.9437 35.292 43.3667 38.6842 43.7308 43.0505V43.0866V43.1948C43.7308 43.6279 43.3667 43.9527 42.8933 43.9527H29.0562C29.2381 47.5973 32.1149 50.3398 35.5741 50.3398C37.7954 50.3398 39.871 49.1851 40.9998 47.3087C41.2547 46.9117 41.7645 46.8395 42.0922 47.02C42.4563 47.3087 42.6019 47.7778 42.3835 48.1748C40.927 50.4481 38.4508 51.9638 35.5741 51.9638C31.0589 51.9638 27.4175 48.2108 27.4175 43.664ZM29.1654 42.3288H41.9101C41.364 39.1893 38.6693 36.9159 35.5741 36.9159C32.4061 36.9159 29.7844 39.1532 29.1654 42.3288Z" fill="#575966"/>
<path d="M62.9974 48.752C61.5045 50.7367 59.174 51.9998 56.5522 51.9998C52.0005 51.9998 48.3955 48.2468 48.3955 43.7C48.3955 39.0809 52.0005 35.328 56.5522 35.328C59.2104 35.328 61.5408 36.6271 62.9974 38.6118V28.9407C62.9974 28.5077 63.3616 28.1108 63.8713 28.1108C64.3084 28.1108 64.7088 28.4716 64.7088 28.9407V43.303V43.6278V51.1337C64.7088 51.5667 64.3448 51.9636 63.8713 51.9636C63.398 51.9636 62.9974 51.6028 62.9974 51.1337V48.752ZM62.9974 43.9525V43.4112C62.8518 39.8387 60.0115 36.9879 56.5522 36.9879C53.0201 36.9879 50.1071 39.983 50.1071 43.7C50.1071 47.3807 53.0201 50.3398 56.5522 50.3398C60.0115 50.3037 62.8518 47.489 62.9974 43.9525Z" fill="#575966"/>
<path d="M72.2471 30.6733C72.2471 30.2402 72.6112 29.8433 73.0846 29.8433C73.5579 29.8433 73.9585 30.2042 73.9585 30.6733V31.4672C73.9585 31.9363 73.5943 32.3693 73.0846 32.3693C72.6476 32.3693 72.2471 31.9724 72.2471 31.4672V30.6733ZM72.2471 36.1223C72.2471 35.6532 72.6112 35.2923 73.0846 35.2923C73.5579 35.2923 73.9585 35.617 73.9585 36.1223V51.1701C73.9585 51.6031 73.5943 52.0001 73.0846 52.0001C72.6476 52.0001 72.2471 51.6393 72.2471 51.1701V36.1223Z" fill="#575966"/>
<path d="M80.6558 43.5918C80.6558 38.9728 84.5156 35.292 89.3222 35.292C91.325 35.292 93.2185 35.9777 94.675 37.1324C95.0027 37.385 95.0756 37.8902 94.7842 38.251C94.4929 38.5397 94.0196 38.648 93.6555 38.3954C92.4538 37.4572 90.9244 36.8798 89.3222 36.8798C85.3896 36.8798 82.3308 39.911 82.3308 43.5918C82.3308 47.3448 85.4259 50.3398 89.3222 50.3398C90.9244 50.3398 92.4538 49.7986 93.6555 48.8603C94.0196 48.5717 94.5294 48.68 94.7842 49.0047C95.0756 49.3656 95.0392 49.9068 94.6022 50.1955C93.182 51.2781 91.2885 51.9638 89.3222 51.9638C84.4792 51.9638 80.6558 48.283 80.6558 43.5918Z" fill="#99D158"/>
<path d="M101.708 28.9407C101.708 28.5077 102.072 28.1108 102.545 28.1108C103.018 28.1108 103.419 28.4716 103.419 28.9407V51.1337C103.419 51.5667 103.055 51.9637 102.545 51.9637C102.108 51.9637 101.708 51.6028 101.708 51.1337V28.9407Z" fill="#99D158"/>
<path d="M110.042 30.6733C110.042 30.2402 110.406 29.8433 110.88 29.8433C111.353 29.8433 111.753 30.2042 111.753 30.6733V31.4672C111.753 31.9363 111.389 32.3693 110.88 32.3693C110.443 32.3693 110.042 31.9724 110.042 31.4672V30.6733ZM110.042 36.1223C110.042 35.6532 110.406 35.2923 110.88 35.2923C111.353 35.2923 111.753 35.617 111.753 36.1223V51.1701C111.753 51.6031 111.389 52.0001 110.88 52.0001C110.443 52.0001 110.042 51.6393 110.042 51.1701V36.1223Z" fill="#99D158"/>
<path d="M119.002 50.6646L124.137 43.7001L119.002 36.6993C118.748 36.3024 118.82 35.7972 119.185 35.5446C119.512 35.292 120.095 35.3641 120.314 35.7611L125.192 42.3288L130.036 35.725C130.327 35.3641 130.837 35.292 131.129 35.5085C131.528 35.7972 131.602 36.2663 131.383 36.6633L126.212 43.6639L131.383 50.6286C131.638 50.9894 131.565 51.4946 131.129 51.7472C131.019 51.8554 130.837 51.9276 130.728 51.9276C130.436 51.9276 130.182 51.8194 130.036 51.6029L125.192 45.0352L120.314 51.6029C120.168 51.8554 119.913 51.9276 119.658 51.9276C119.512 51.9276 119.367 51.8554 119.185 51.7472C118.857 51.5307 118.784 51.0616 119.002 50.6646Z" fill="#99D158"/>
</svg>
