<svg width="105" height="105" viewBox="0 0 105 105" fill="none" xmlns="http://www.w3.org/2000/svg">
<path d="M0.921053 53.4211C0.412855 53.4211 0 53.0082 0 52.5C0 23.5516 23.5516 0 52.5 0C53.0082 0 53.4211 0.412855 53.4211 0.921053C53.4211 1.42925 53.0082 1.84211 52.5 1.84211C24.5662 1.84211 1.84211 24.5662 1.84211 52.5C1.84211 53.0082 1.42925 53.4211 0.921053 53.4211Z" fill="white"/>
<path d="M58.0263 1.84211H56.1842C55.676 1.84211 55.2632 1.42925 55.2632 0.921053C55.2632 0.412855 55.676 0 56.1842 0H58.0263C58.5345 0 58.9474 0.412855 58.9474 0.921053C58.9474 1.42925 58.5345 1.84211 58.0263 1.84211Z" fill="white"/>
<path d="M52.5002 105C51.992 105 51.5791 104.587 51.5791 104.079C51.5791 103.571 51.992 103.158 52.5002 103.158C80.4322 103.158 103.158 80.434 103.158 52.5002C103.158 51.992 103.571 51.5791 104.079 51.5791C104.587 51.5791 105 51.992 105 52.5002C105 81.4486 81.4486 105 52.5002 105Z" fill="white"/>
<path d="M48.8159 105H46.9738C46.4656 105 46.0527 104.587 46.0527 104.079C46.0527 103.571 46.4656 103.158 46.9738 103.158H48.8159C49.3241 103.158 49.7369 103.571 49.7369 104.079C49.7369 104.587 49.3241 105 48.8159 105Z" fill="white"/>
<path d="M52.4997 97.6313C27.6151 97.6313 7.36816 77.3844 7.36816 52.4997C7.36816 27.6151 27.6151 7.36816 52.4997 7.36816C77.3862 7.36816 97.6313 27.6151 97.6313 52.4997C97.6313 77.3844 77.3862 97.6313 52.4997 97.6313ZM52.4997 9.21027C28.6297 9.21027 9.21027 28.6297 9.21027 52.4997C9.21027 76.3698 28.6297 95.7892 52.4997 95.7892C76.3698 95.7892 95.7892 76.3698 95.7892 52.4997C95.7892 28.6297 76.3698 9.21027 52.4997 9.21027Z" fill="white"/>
<path d="M52.5002 19.3418C34.188 19.3418 19.3423 34.1875 19.3423 52.4997C19.3423 70.8119 34.188 85.6576 52.5002 85.6576C70.8124 85.6576 85.6581 70.8119 85.6581 52.4997C85.6581 34.1875 70.8124 19.3418 52.5002 19.3418Z" fill="#78CEFF"/>
<path d="M52.4998 86.5788C33.7082 86.5788 18.4209 71.2915 18.4209 52.4998C18.4209 33.7082 33.7082 18.4209 52.4998 18.4209C71.2915 18.4209 86.5788 33.7082 86.5788 52.4998C86.5788 71.2915 71.2915 86.5788 52.4998 86.5788ZM52.4998 20.263C34.7255 20.263 20.263 34.7255 20.263 52.4998C20.263 70.2742 34.7255 84.7367 52.4998 84.7367C70.2742 84.7367 84.7367 70.2742 84.7367 52.4998C84.7367 34.7255 70.2742 20.263 52.4998 20.263Z" fill="white"/>
<path d="M91.184 5.52668H83.8156C83.3074 5.52668 82.8945 5.11382 82.8945 4.60562C82.8945 4.09743 83.3074 3.68457 83.8156 3.68457H91.184C91.6922 3.68457 92.1051 4.09743 92.1051 4.60562C92.1051 5.11382 91.6922 5.52668 91.184 5.52668Z" fill="white"/>
<path d="M87.5002 9.21053C86.992 9.21053 86.5791 8.79767 86.5791 8.28947V0.921053C86.5791 0.412855 86.992 0 87.5002 0C88.0084 0 88.4212 0.412855 88.4212 0.921053V8.28947C88.4212 8.79767 88.0084 9.21053 87.5002 9.21053Z" fill="white"/>
<path d="M104.079 17.5003H96.7106C96.2024 17.5003 95.7896 17.0875 95.7896 16.5793C95.7896 16.0711 96.2024 15.6582 96.7106 15.6582H104.079C104.587 15.6582 105 16.0711 105 16.5793C105 17.0875 104.587 17.5003 104.079 17.5003Z" fill="white"/>
<path d="M100.395 21.1842C99.8865 21.1842 99.4736 20.7713 99.4736 20.2631V12.8947C99.4736 12.3865 99.8865 11.9736 100.395 11.9736C100.903 11.9736 101.316 12.3865 101.316 12.8947V20.2631C101.316 20.7713 100.903 21.1842 100.395 21.1842Z" fill="white"/>
<path d="M43.8222 62V58.976C45.2862 57.608 46.6182 56.336 47.8182 55.16C49.0422 53.96 50.0862 52.844 50.9502 51.812C51.8382 50.756 52.5222 49.784 53.0022 48.896C53.5062 47.984 53.7582 47.12 53.7582 46.304C53.7582 45.176 53.4702 44.324 52.8942 43.748C52.3182 43.148 51.5262 42.848 50.5182 42.848C49.6782 42.848 48.9342 43.088 48.2862 43.568C47.6382 44.024 47.0262 44.564 46.4502 45.188L43.5702 42.344C44.6982 41.144 45.8502 40.244 47.0262 39.644C48.2022 39.02 49.6062 38.708 51.2382 38.708C52.3662 38.708 53.3862 38.888 54.2982 39.248C55.2342 39.584 56.0382 40.076 56.7102 40.724C57.3822 41.348 57.8982 42.104 58.2582 42.992C58.6182 43.88 58.7982 44.876 58.7982 45.98C58.7982 46.94 58.5942 47.924 58.1862 48.932C57.7782 49.916 57.2262 50.912 56.5302 51.92C55.8582 52.904 55.0782 53.9 54.1902 54.908C53.3262 55.892 52.4262 56.864 51.4902 57.824C52.0662 57.752 52.7022 57.692 53.3982 57.644C54.1182 57.572 54.7542 57.536 55.3062 57.536H59.9142V62H43.8222Z" fill="white"/>
</svg>
