<svg width="105" height="105" viewBox="0 0 105 105" fill="none" xmlns="http://www.w3.org/2000/svg">
<path d="M0.921053 53.4211C0.412855 53.4211 0 53.0082 0 52.5C0 23.5516 23.5516 0 52.5 0C53.0082 0 53.4211 0.412855 53.4211 0.921053C53.4211 1.42925 53.0082 1.84211 52.5 1.84211C24.5662 1.84211 1.84211 24.5662 1.84211 52.5C1.84211 53.0082 1.42925 53.4211 0.921053 53.4211Z" fill="white"/>
<path d="M58.0263 1.84211H56.1842C55.676 1.84211 55.2632 1.42925 55.2632 0.921053C55.2632 0.412855 55.676 0 56.1842 0H58.0263C58.5345 0 58.9474 0.412855 58.9474 0.921053C58.9474 1.42925 58.5345 1.84211 58.0263 1.84211Z" fill="white"/>
<path d="M52.5002 105C51.992 105 51.5791 104.587 51.5791 104.079C51.5791 103.571 51.992 103.158 52.5002 103.158C80.4322 103.158 103.158 80.434 103.158 52.5002C103.158 51.992 103.571 51.5791 104.079 51.5791C104.587 51.5791 105 51.992 105 52.5002C105 81.4486 81.4486 105 52.5002 105Z" fill="white"/>
<path d="M48.8159 105H46.9738C46.4656 105 46.0527 104.587 46.0527 104.079C46.0527 103.571 46.4656 103.158 46.9738 103.158H48.8159C49.3241 103.158 49.7369 103.571 49.7369 104.079C49.7369 104.587 49.3241 105 48.8159 105Z" fill="white"/>
<path d="M52.4997 97.6313C27.6151 97.6313 7.36816 77.3844 7.36816 52.4997C7.36816 27.6151 27.6151 7.36816 52.4997 7.36816C77.3862 7.36816 97.6313 27.6151 97.6313 52.4997C97.6313 77.3844 77.3862 97.6313 52.4997 97.6313ZM52.4997 9.21027C28.6297 9.21027 9.21027 28.6297 9.21027 52.4997C9.21027 76.3698 28.6297 95.7892 52.4997 95.7892C76.3698 95.7892 95.7892 76.3698 95.7892 52.4997C95.7892 28.6297 76.3698 9.21027 52.4997 9.21027Z" fill="white"/>
<path d="M52.5002 19.3418C34.188 19.3418 19.3423 34.1875 19.3423 52.4997C19.3423 70.8119 34.188 85.6576 52.5002 85.6576C70.8124 85.6576 85.6581 70.8119 85.6581 52.4997C85.6581 34.1875 70.8124 19.3418 52.5002 19.3418Z" fill="#78CEFF"/>
<path d="M52.4998 86.5788C33.7082 86.5788 18.4209 71.2915 18.4209 52.4998C18.4209 33.7082 33.7082 18.4209 52.4998 18.4209C71.2915 18.4209 86.5788 33.7082 86.5788 52.4998C86.5788 71.2915 71.2915 86.5788 52.4998 86.5788ZM52.4998 20.263C34.7255 20.263 20.263 34.7255 20.263 52.4998C20.263 70.2742 34.7255 84.7367 52.4998 84.7367C70.2742 84.7367 84.7367 70.2742 84.7367 52.4998C84.7367 34.7255 70.2742 20.263 52.4998 20.263Z" fill="white"/>
<path d="M91.184 5.52668H83.8156C83.3074 5.52668 82.8945 5.11382 82.8945 4.60562C82.8945 4.09743 83.3074 3.68457 83.8156 3.68457H91.184C91.6922 3.68457 92.1051 4.09743 92.1051 4.60562C92.1051 5.11382 91.6922 5.52668 91.184 5.52668Z" fill="white"/>
<path d="M87.5002 9.21053C86.992 9.21053 86.5791 8.79767 86.5791 8.28947V0.921053C86.5791 0.412855 86.992 0 87.5002 0C88.0084 0 88.4212 0.412855 88.4212 0.921053V8.28947C88.4212 8.79767 88.0084 9.21053 87.5002 9.21053Z" fill="white"/>
<path d="M104.079 17.5003H96.7106C96.2024 17.5003 95.7896 17.0875 95.7896 16.5793C95.7896 16.0711 96.2024 15.6582 96.7106 15.6582H104.079C104.587 15.6582 105 16.0711 105 16.5793C105 17.0875 104.587 17.5003 104.079 17.5003Z" fill="white"/>
<path d="M100.395 21.1842C99.8865 21.1842 99.4736 20.7713 99.4736 20.2631V12.8947C99.4736 12.3865 99.8865 11.9736 100.395 11.9736C100.903 11.9736 101.316 12.3865 101.316 12.8947V20.2631C101.316 20.7713 100.903 21.1842 100.395 21.1842Z" fill="white"/>
<path d="M51.2382 62.432C49.3662 62.432 47.7822 62.144 46.4862 61.568C45.1902 60.968 44.1222 60.176 43.2822 59.192L45.7302 55.844C46.4262 56.516 47.1822 57.068 47.9982 57.5C48.8382 57.932 49.7502 58.148 50.7342 58.148C51.8622 58.148 52.7622 57.92 53.4342 57.464C54.1062 56.984 54.4422 56.312 54.4422 55.448C54.4422 54.944 54.3462 54.488 54.1542 54.08C53.9862 53.672 53.6742 53.336 53.2182 53.072C52.7622 52.784 52.1382 52.568 51.3462 52.424C50.5542 52.256 49.5342 52.172 48.2862 52.172V48.428C49.3182 48.428 50.1702 48.356 50.8422 48.212C51.5382 48.068 52.0902 47.864 52.4982 47.6C52.9302 47.312 53.2302 46.988 53.3982 46.628C53.5902 46.244 53.6862 45.824 53.6862 45.368C53.6862 44.576 53.4462 43.964 52.9662 43.532C52.4862 43.076 51.7902 42.848 50.8782 42.848C50.0622 42.848 49.3182 43.028 48.6462 43.388C47.9982 43.748 47.3142 44.24 46.5942 44.864L43.9302 41.624C44.9862 40.712 46.0902 40.004 47.2422 39.5C48.4182 38.972 49.7142 38.708 51.1302 38.708C52.3062 38.708 53.3742 38.852 54.3342 39.14C55.3182 39.404 56.1462 39.812 56.8182 40.364C57.5142 40.892 58.0542 41.54 58.4382 42.308C58.8222 43.076 59.0142 43.964 59.0142 44.972C59.0142 46.172 58.6782 47.192 58.0062 48.032C57.3582 48.848 56.4222 49.52 55.1982 50.048V50.192C56.5182 50.576 57.5982 51.236 58.4382 52.172C59.3022 53.084 59.7342 54.284 59.7342 55.772C59.7342 56.828 59.5062 57.776 59.0502 58.616C58.5942 59.432 57.9822 60.128 57.2142 60.704C56.4462 61.256 55.5462 61.688 54.5142 62C53.4822 62.288 52.3902 62.432 51.2382 62.432Z" fill="white"/>
</svg>
