<svg width="368" height="269" viewBox="0 0 368 269" fill="none" xmlns="http://www.w3.org/2000/svg">
<g clip-path="url(#clip0)">
<path d="M79.6048 19.7572C90.1634 4.46542 116.768 19.909 116.768 19.909C116.768 19.909 125.605 56.3931 130.979 59.1061C136.353 61.8192 129.503 26.4355 129.503 26.4355C140.781 29.2624 163.79 52.5416 163.79 52.5416C163.79 52.5416 149.788 86.4454 155.653 87.7545C161.519 89.0636 166.534 57.095 166.534 57.095C175.957 64.02 181.426 79.862 181.426 79.862C186.61 104.336 154.991 109.725 154.991 109.725C154.991 109.725 150.393 121.582 152.891 137.956C152.891 137.956 153.648 141.086 153.818 146L150.942 144.975C150.98 144.122 150.98 143.287 150.961 142.452V142.433C150.961 142.414 150.961 142.414 150.961 142.395C150.923 141.883 150.866 141.143 150.79 140.251C150.526 138.221 150.374 136.722 150.336 135.679C150.336 135.679 150.336 135.679 150.336 135.66C149.617 129.304 148.331 120.918 146.325 118.528C146.325 118.528 146.798 118.186 147.403 117.427C147.063 117.788 146.703 118.148 146.325 118.528C137.658 127.35 112.435 120.33 99.7192 112.627C87.0223 104.925 94.3642 103.179 103.977 99.5175C113.589 95.8558 128.462 103.027 133.912 102.193C139.361 101.358 133.552 96.5008 124.167 93.9585C114.781 91.3972 106.966 98.9293 91.6961 95.0779C76.4069 91.2455 75.0445 59.4097 75.0445 59.4097C84.1083 66.2208 104.393 67.0935 106.342 63.8113C108.291 60.529 81.1186 51.2515 77.2774 48.6902C73.4172 46.129 69.0273 35.049 79.6048 19.7572Z" fill="#CDE0FB" fill-opacity="0.25"/>
<path d="M175.042 269C199.872 269 220 265.499 220 261.181C220 256.862 199.872 253.361 175.042 253.361C150.212 253.361 130.084 256.862 130.084 261.181C130.084 265.499 150.212 269 175.042 269Z" fill="#EBFAFF"/>
<path d="M184 248.18C285.62 248.18 368 240.76 368 231.606C368 222.453 285.62 215.032 184 215.032C82.3796 215.032 0 222.453 0 231.606C0 240.76 82.3796 248.18 184 248.18Z" fill="#EBFAFF"/>
<path d="M288.598 208.124C304.79 175.216 313.221 138.853 313.197 102.179C313.197 101.316 314.538 101.484 314.538 102.347C314.562 139.141 306.083 175.623 289.844 208.628C289.461 209.395 288.215 208.916 288.598 208.124Z" fill="white"/>
<path d="M179.976 133.648L125.341 154.612C122.73 155.619 119.808 154.3 118.802 151.686L113.796 138.589C112.79 135.975 114.107 133.049 116.718 132.041L171.353 111.078C173.964 110.07 176.886 111.39 177.892 114.004L182.898 127.1C183.904 129.715 182.586 132.665 179.976 133.648Z" fill="#78CEFF"/>
<path d="M359.736 94.4321C344.862 82.5112 303.736 57.3262 239.64 57.3262C175.545 57.3262 134.443 82.5112 119.568 94.4321C104.694 106.353 114.419 133.169 114.419 133.169L173.7 111.51C170.994 107.456 170.419 97.6942 189.604 92.2734C208.814 86.8526 270.467 86.8526 289.676 92.2734C308.886 97.6942 308.287 107.432 305.58 111.51L364.862 133.169C364.862 133.169 374.61 106.353 359.736 94.4321Z" fill="#1261BD"/>
<path d="M213.341 19.2367C213.341 19.2367 198.467 20.436 191.545 5.80469L189.173 6.59622C189.173 6.59622 192.048 29.9823 211.449 29.8624L213.341 19.2367Z" fill="#00A5F1"/>
<path d="M218.251 19.0684C218.251 19.0684 238.299 25.5205 237.629 55.023H234.515C234.515 55.023 232.383 36.6259 220.192 33.9155L218.251 19.0684Z" fill="#00A5F1"/>
<path d="M218.156 19.3564C218.156 19.3564 230.132 23.7458 225.15 52.1449C225.15 52.1449 217.342 52.6247 205.174 50.2741C205.174 50.2741 202.922 26.2404 213.198 19.3564H218.156Z" fill="#00A5F1"/>
<path d="M209.916 51.0654C209.916 51.0654 198.515 43.1261 189.054 45.5726C179.569 48.0192 180.838 69.9421 180.838 69.9421L185.246 68.2152C185.246 68.2152 187.473 59.3644 190.084 56.8699C194.323 52.7923 204.479 60.6597 204.479 60.6597C204.479 60.6597 208.575 55.2149 209.916 51.0654Z" fill="#0C336B"/>
<path d="M218.659 14.9189L218.252 19.0685C218.204 19.6201 217.868 20.0999 217.365 20.3157C216.503 20.6995 215.258 20.8914 214.228 20.6036C213.629 20.4357 213.222 19.86 213.222 19.2364V16.3581L218.659 14.9189Z" fill="#E37B7B"/>
<path d="M213.677 18.9006L214.156 18.9485C216.695 19.1644 218.946 17.2695 219.162 14.727L219.377 12.0406C219.593 9.49815 217.701 7.24349 215.162 7.02762L214.683 6.97965C212.144 6.76378 209.892 8.65865 209.677 11.2011L209.461 13.8875C209.246 16.43 211.138 18.6847 213.677 18.9006Z" fill="#FFA9A8"/>
<path d="M212.192 8.65871L215.976 8.97053C216.551 9.0185 216.982 9.5222 216.934 10.0979C216.886 10.5296 217.15 10.9613 217.557 11.1292C218.419 11.513 218.946 12.4245 218.874 13.3839L218.012 15.6386C217.725 16.3821 218.228 17.1736 219.018 17.2456C219.665 17.2936 220.24 16.8139 220.288 16.1662L220.886 9.09046C220.958 8.13103 220.264 7.29153 219.282 7.19558L219.306 6.85978C219.377 5.90036 218.683 5.06085 217.701 4.96491L216.407 4.84498C216.407 4.84498 213.006 4.55715 211.641 3.76562C211.641 3.76562 208.862 3.86157 208.719 6.57196C208.599 9.33031 212.192 8.65871 212.192 8.65871Z" fill="#1C3A54"/>
<path d="M217.964 13.264C217.892 14.1035 218.515 14.8471 219.353 14.919C220.192 14.991 220.934 14.3674 221.006 13.5279C221.078 12.6884 220.455 11.9448 219.617 11.8728C218.755 11.8009 218.036 12.4245 217.964 13.264Z" fill="#FFA9A8"/>
<path d="M225.15 52.1448C225.15 52.1448 224.695 61.6671 214.922 64.1137C202.97 67.0879 185.246 70.254 177.126 77.042L174.683 73.7799C174.683 73.7799 182.731 64.6653 191.521 61.811C200.311 58.9567 205.772 58.2132 209.916 51.0654L225.15 52.1448Z" fill="#113B84"/>
<path d="M177.125 77.0422C177.125 77.0422 174.97 79.3928 174.227 79.4888C173.509 79.5847 167.377 71.5255 168.455 71.2616C169.533 70.9978 174.682 73.8041 174.682 73.8041L177.125 77.0422Z" fill="#0C336B"/>
<path d="M234.515 55.0234C234.515 55.0234 234.419 57.1102 235.185 57.3261C235.928 57.5659 240.694 57.8298 241.389 57.35C242.06 56.8703 240.479 56.6065 239.113 56.3187C237.748 56.0308 237.796 56.2707 237.652 55.0234H234.515Z" fill="#FFA9A8"/>
<path d="M191.568 5.82853C191.568 5.82853 191.209 4.84512 191.113 4.24547C191.018 3.64583 191.544 1.46313 191.065 1.31922C190.61 1.1753 190.706 2.32662 190.203 2.32662C189.7 2.3506 189.556 0 188.311 0C187.065 0 186.347 1.53509 187.042 2.80633C187.736 4.07757 188.814 5.46875 189.197 6.62006L191.568 5.82853Z" fill="#FFA9A8"/>
<path d="M299.305 133.648L353.94 154.612C356.551 155.619 359.473 154.3 360.479 151.686L365.485 138.589C366.491 135.975 365.173 133.049 362.563 132.041L307.928 111.078C305.317 110.07 302.395 111.39 301.389 114.004L296.383 127.1C295.401 129.715 296.718 132.665 299.305 133.648Z" fill="#78CEFF"/>
<path d="M157.126 139.262H30.7544V228.537H157.126V139.262Z" fill="#6DC433"/>
<path d="M93.94 165.502L30.7544 139.262L93.94 194.021L157.102 139.262L93.94 165.502Z" fill="#3C9326"/>
<path d="M30.7544 139.262L93.94 183.899L157.102 139.262H30.7544Z" fill="#A2B9FF"/>
<path d="M30.7544 139.262L93.94 183.899L157.102 139.262H30.7544Z" fill="#99D158"/>
<path d="M288.934 113.117C287.137 103.834 286.203 94.4079 286.203 84.9576V82.0073C286.203 78.8892 283.664 76.3467 280.551 76.3467H275.209C272.096 76.3467 269.557 78.8892 269.557 82.0073V87.3801C269.557 93.6164 264.503 98.7014 258.251 98.7014H239.64H221.03C214.802 98.7014 209.724 93.6404 209.724 87.3801V82.0073C209.724 78.8892 207.185 76.3467 204.072 76.3467H198.706C195.593 76.3467 193.054 78.8892 193.054 82.0073V84.9576C193.054 94.4079 192.143 103.834 190.323 113.117C183.401 148.736 175.257 180.013 155.113 194.692C149.916 198.482 146.922 204.622 146.922 211.075V228.416C146.922 231.822 149.676 234.605 153.102 234.605H326.131C329.533 234.605 332.311 231.846 332.311 228.416V211.075C332.311 204.622 329.317 198.482 324.119 194.692C304 180.013 295.856 148.736 288.934 113.117Z" fill="#78CEFF"/>
<path d="M267.194 177.033C282.412 161.793 282.412 137.084 267.194 121.844C251.975 106.604 227.301 106.604 212.082 121.844C196.863 137.084 196.863 161.793 212.082 177.033C227.301 192.273 251.975 192.273 267.194 177.033Z" fill="white"/>
<path d="M261.187 154.553C263.995 142.641 256.629 130.704 244.734 127.891C232.838 125.078 220.918 132.455 218.109 144.367C215.3 156.279 222.667 168.216 234.562 171.029C246.457 173.841 258.378 166.465 261.187 154.553Z" fill="#1261BD"/>
<path d="M239.641 123.862C242.524 123.862 244.862 121.521 244.862 118.633C244.862 115.745 242.524 113.404 239.641 113.404C236.757 113.404 234.419 115.745 234.419 118.633C234.419 121.521 236.757 123.862 239.641 123.862Z" fill="#1261BD"/>
<path d="M227.51 126.842C229.766 125.044 230.14 121.754 228.344 119.495C226.549 117.235 223.264 116.861 221.008 118.659C218.751 120.457 218.377 123.746 220.173 126.006C221.968 128.265 225.253 128.64 227.51 126.842Z" fill="#1261BD"/>
<path d="M218.217 134.358C218.399 131.476 216.214 128.992 213.336 128.809C210.458 128.627 207.977 130.816 207.795 133.698C207.613 136.58 209.798 139.064 212.676 139.246C215.554 139.428 218.035 137.24 218.217 134.358Z" fill="#1261BD"/>
<path d="M208.886 154.66C211.769 154.66 214.107 152.319 214.107 149.431C214.107 146.543 211.769 144.202 208.886 144.202C206.002 144.202 203.664 146.543 203.664 149.431C203.664 152.319 206.002 154.66 208.886 154.66Z" fill="#1261BD"/>
<path d="M210.395 160.297C212.886 158.857 216.095 159.697 217.533 162.215C218.97 164.71 218.107 167.924 215.616 169.363C213.125 170.802 209.916 169.939 208.479 167.444C207.042 164.95 207.88 161.76 210.395 160.297Z" fill="#1261BD"/>
<path d="M229.11 178.117C230.212 175.448 228.944 172.391 226.279 171.287C223.614 170.184 220.56 171.454 219.458 174.123C218.357 176.791 219.624 179.849 222.29 180.953C224.955 182.056 228.008 180.786 229.11 178.117Z" fill="#1261BD"/>
<path d="M239.641 185.481C242.524 185.481 244.862 183.14 244.862 180.252C244.862 177.364 242.524 175.023 239.641 175.023C236.757 175.023 234.419 177.364 234.419 180.252C234.419 183.14 236.757 185.481 239.641 185.481Z" fill="#1261BD"/>
<path d="M259.559 178.712C261 176.211 260.142 173.013 257.644 171.571C255.146 170.128 251.953 170.987 250.512 173.489C249.072 175.99 249.93 179.188 252.428 180.63C254.926 182.073 258.119 181.214 259.559 178.712Z" fill="#1261BD"/>
<path d="M269.99 137.726C272.029 135.684 272.029 132.373 269.99 130.331C267.95 128.289 264.644 128.289 262.605 130.331C260.566 132.373 260.566 135.684 262.605 137.726C264.644 139.768 267.95 139.768 269.99 137.726Z" fill="#1261BD"/>
<path d="M259.568 125.373C258.131 127.867 254.922 128.731 252.431 127.292C249.94 125.852 249.077 122.638 250.515 120.144C251.952 117.649 255.161 116.786 257.652 118.225C260.143 119.664 261.006 122.854 259.568 125.373Z" fill="#1261BD"/>
<path d="M146.946 211.075V228.416C146.946 231.822 149.7 234.605 153.125 234.605H326.155C329.557 234.605 332.335 231.846 332.335 228.416V211.075C332.335 205.054 329.724 199.274 325.125 195.46H154.155C149.557 199.298 146.946 205.054 146.946 211.075Z" fill="#1261BD"/>
<path d="M182.443 177.902C182.443 177.902 185.868 183.874 187.401 184.45L189.03 173.968C189.03 173.968 188.335 169.915 191.281 167.756C192.168 167.108 195.233 170.85 194.85 172.673C194.467 174.496 193.126 174.544 192.383 176.511C191.856 177.926 193.15 192.15 189.006 193.757C184.862 195.364 180.12 188.696 180.12 188.696L182.443 177.902Z" fill="#E37B7B"/>
<path d="M179.856 173.705C183.808 177.447 185.676 181.261 187.401 183.419C187.401 183.419 183.042 191.215 180.024 190.903L178.898 179.486L179.856 173.705Z" fill="#00A5F1"/>
<path d="M178.179 253.912L178.275 256.143L182.347 256.743L182.419 253.433L178.179 253.912Z" fill="#FFB164"/>
<path d="M183.497 205.773C183.497 205.773 185.748 222.348 185.173 233.837C184.598 245.47 182.994 254.608 182.994 254.608L177.748 254.824C177.748 254.824 175.257 219.469 173.796 212.945C172.335 206.421 172.335 206.421 172.335 206.421L183.497 205.773Z" fill="#0C336B"/>
<path d="M183.497 205.773C183.497 205.773 182.683 208.772 176.982 209.179L177.581 205.773H183.497Z" fill="#0C336B"/>
<path d="M177.102 256.984C176.982 258.063 176.742 261.109 177.197 261.109C177.293 261.109 178.131 261.133 179.018 261.133C179.353 261.133 179.569 260.773 179.904 260.773C180.67 260.797 181.389 261.157 182.251 261.181C184.311 261.229 186.179 261.253 186.826 261.253C188.191 261.277 187.137 259.166 185.293 258.926C183.449 258.663 182.443 255.041 182.299 255.592C182.155 256.24 178.395 255.784 178.371 255.185C178.323 254.777 177.245 255.64 177.102 256.984Z" fill="#0C336B"/>
<path d="M168.12 254.369L167.784 256.719L164 255.688L164.144 253.457L168.12 254.369Z" fill="#FDC78B"/>
<path d="M183.497 205.774H162.874L161.006 183.54C161.006 176.728 166.515 171.211 173.317 171.211C180.12 171.211 182.778 176.248 182.778 183.06L183.497 205.774Z" fill="#00A5F1"/>
<path d="M176.287 173.416C176.287 175.863 170.395 175.863 170.395 173.416L171.042 168.355H175.641L176.287 173.416Z" fill="#E37B7B"/>
<path d="M175.018 172.05L174.491 172.146C171.665 172.626 168.982 170.731 168.503 167.901L168 164.926C167.521 162.096 169.413 159.41 172.239 158.93L172.766 158.834C175.593 158.354 178.275 160.249 178.754 163.08L179.257 166.054C179.736 168.884 177.844 171.57 175.018 172.05Z" fill="#FFA9A8"/>
<path d="M175.832 155.02C174.371 156.027 170.61 156.699 170.61 156.699L169.173 156.939C168.119 157.131 167.401 158.138 167.568 159.193L167.64 159.577C166.586 159.769 165.868 160.777 166.036 161.832L167.377 169.675C167.497 170.395 168.191 170.875 168.91 170.755C169.772 170.611 170.251 169.651 169.868 168.86L168.67 166.437C168.479 165.382 168.982 164.326 169.916 163.799C170.347 163.559 170.586 163.055 170.491 162.575C170.371 161.928 170.802 161.328 171.449 161.208L175.64 160.489C176.718 160.297 179.497 161.28 179.688 158.282C179.904 155.284 177.293 153.989 175.832 155.02Z" fill="#1C3A54"/>
<path d="M169.7 166.173C169.868 167.109 169.245 167.972 168.311 168.14C167.377 168.308 166.514 167.684 166.347 166.749C166.179 165.814 166.802 164.95 167.736 164.782C168.67 164.614 169.556 165.238 169.7 166.173Z" fill="#FFA9A8"/>
<path d="M162.874 205.773C162.539 206.037 162.491 212.489 164.623 230.239C164.623 230.239 164.311 241.248 163.761 254.417L168.335 254.848C168.335 254.848 174.18 231.942 176.168 223.043C177.916 215.224 178.491 213.209 179.09 205.773H162.874Z" fill="#113B84"/>
<path d="M162.85 257.056C162.73 258.111 162.539 261.109 162.994 261.109C163.09 261.109 163.904 261.109 164.79 261.109C165.126 261.109 165.317 260.749 165.653 260.749C166.419 260.749 167.114 261.109 167.952 261.133C169.964 261.157 171.808 261.157 172.431 261.157C173.772 261.157 172.694 259.118 170.898 258.878C169.102 258.663 168.048 255.113 167.928 255.64C167.784 256.264 164.096 255.88 164.072 255.305C164.024 254.873 162.994 255.736 162.85 257.056Z" fill="#0C336B"/>
<path d="M189.317 182.292C186.635 184.33 186.347 184.114 185.916 182.915C185.485 181.716 184.527 182.795 184.718 184.162C184.91 185.53 185.413 186.177 184.048 186.897C174.108 192.078 165.964 190.063 165.964 190.063C164.479 189.823 164.048 188.48 164.048 188.48L158.395 190.926C159.018 199.129 168.431 197.474 168.431 197.474C168.431 197.474 175.617 197.738 185.724 188.696C185.724 188.696 188.407 188.624 190.419 185.242C192.431 181.836 192 180.253 189.317 182.292Z" fill="#FFA9A8"/>
<path d="M167.137 172.89C161.245 174.257 157.892 184.067 157.102 191.623C162.85 192.582 166.419 189.92 166.419 189.92C169.173 180.157 172.958 171.547 167.137 172.89Z" fill="#00A5F1"/>
<path d="M191.09 167.901C191.09 167.901 193.605 164.783 194.85 164.687C196.096 164.591 192.359 167.781 192.671 168.381C193.006 168.98 191.09 167.901 191.09 167.901Z" fill="#E37B7B"/>
<path d="M22.5864 129.067C22.6343 128.731 23.305 126.381 23.4247 126.189C23.5445 125.997 24.9577 126.333 26.3229 124.726C30.2511 120.168 32.4068 114.604 36.4307 109.735C36.6463 105.297 36.9816 102.635 36.9816 102.635L42.802 103.378C43.2331 107.864 43.3289 113.212 42.2511 114.028C41.1732 114.844 32.8379 124.822 27.4247 126.213C27.4247 126.453 24.0714 128.323 23.6403 128.731C23.2092 129.139 22.5385 129.427 22.5864 129.067Z" fill="#E37B7B"/>
<path d="M21.1254 130.602L33.7721 124.606C34.0116 124.486 34.1074 124.198 33.9877 123.958C33.8679 123.742 33.6045 123.646 33.3649 123.742L22.323 128.875C21.8919 129.067 21.3889 128.923 21.1494 128.515L13.2691 115.587C13.1015 115.323 12.7422 115.227 12.4787 115.419C12.2392 115.587 12.1673 115.923 12.311 116.163L21.1254 130.602Z" fill="#113B84"/>
<path d="M28.2147 170.73C28.5979 172.601 28.9812 173.249 28.9812 173.249C28.8135 174.784 27.7117 174.664 26.2506 173.968C26.2506 173.968 25.2446 171.138 25.2446 170.131C25.2446 169.123 28.2147 170.73 28.2147 170.73Z" fill="#FDC78B"/>
<path d="M17.8196 133.84C18.2029 131.274 23.3526 129.259 27.7598 128.731L30.4424 141.228C29.8196 141.06 29.4364 140.964 29.4364 140.964C30.9693 151.926 27.161 156.507 29.0053 171.186C26.8017 172.386 25.1011 171.45 25.1011 171.45C18.2268 157.994 16.9334 139.933 17.8196 133.84Z" fill="#0C336B"/>
<path d="M22.7778 173.896C19.8556 174.736 18.155 175.623 21.2209 175.719C23.161 175.791 27.8796 176.223 29.1491 175.887C30.4185 175.551 29.8676 172.625 29.2928 172.601C28.8856 172.577 28.67 173.489 28.0712 173.752C27.4724 174.016 26.682 172.841 26.1071 172.625C25.5083 172.433 23.8556 173.584 22.7778 173.896Z" fill="#0C336B"/>
<path d="M37.5562 168.691C38.4664 170.37 39.0173 170.898 39.0173 170.898L36.6221 172.361C36.6221 172.361 34.8496 169.938 34.5622 168.979C34.2508 167.995 37.5562 168.691 37.5562 168.691Z" fill="#FDC78B"/>
<path d="M55.2327 131.586C54.4663 136.814 51.5202 139.501 48.5501 139.501C45.58 139.501 30.7297 139.501 30.7297 139.501C35.113 149.671 32.6459 155.092 38.2747 168.787C36.4543 170.514 34.586 170.083 34.586 170.083C24.4064 158.857 19.4004 140.652 18.6339 134.536C17.8914 128.419 38.4184 124.582 38.4184 124.582L47.2088 123.91L55.2327 131.586Z" fill="#113B84"/>
<path d="M33.6039 174.016C31.4242 174.16 29.8673 175.719 32.6218 175.719C33.5799 175.719 34.1787 175.719 34.8973 175.719C35.6158 175.719 39.4242 172.985 40.1667 171.905C40.9093 170.826 38.5859 168.955 38.1308 169.315C37.8194 169.555 38.2266 170.37 37.9632 170.97C37.6757 171.569 36.3105 171.186 35.7356 171.402C35.1608 171.665 34.3943 173.776 33.6039 174.016Z" fill="#0C336B"/>
<path d="M41.6517 97.1179C44.0469 97.9094 44.0469 103.114 43.7595 106.76C41.0529 106.856 38.4422 106.496 36.4302 105.489C37.005 100.908 38.993 96.2544 41.6517 97.1179Z" fill="#00A5F1"/>
<path d="M44.3828 94.3118C46.0594 94.3597 48.4786 95.1513 50.754 98.5093C53.0295 101.867 57.7959 121.895 55.5205 132.425C48.1911 130.794 47.0893 124.558 37.3169 124.582C37.3169 104.242 39.9516 98.8211 40.5744 97.4299C41.1732 96.0387 43.4965 94.2878 44.3828 94.3118Z" fill="#00A5F1"/>
<path d="M23.6879 126.358C23.8077 125.998 25.2927 123.216 25.2927 123.216C26.2508 122.472 26.4664 123.264 28.2388 121.801C33.3406 117.579 36.191 114.461 41.4604 109.952C42.5143 105.202 43.3526 102.372 43.3526 102.372L49.5083 104.243C49.149 109.184 48.2628 114.989 46.9694 115.66C45.652 116.332 35.2808 123.096 29.1969 123.599C29.149 123.863 25.4604 125.83 24.9095 126.214C24.3586 126.574 23.5682 126.742 23.6879 126.358Z" fill="#FFA9A8"/>
<path d="M47.7357 98.1504C50.083 99.0619 49.7956 104.291 49.3166 107.889C46.61 107.841 44.0232 107.313 42.0591 106.21C42.8735 101.676 45.1489 97.119 47.7357 98.1504Z" fill="#00A5F1"/>
<path d="M40.6936 98.3652C41.9152 100.62 46.49 98.1254 45.2685 95.8947L42.2505 91.5293L38.6816 93.4721L40.6936 98.3652Z" fill="#E37B7B"/>
<path d="M39.5682 96.3984L40.1191 96.2785C43.0413 95.6549 44.9335 92.7526 44.2868 89.8263L43.6401 86.7322C43.0173 83.8059 40.1191 81.9111 37.197 82.5587L36.6461 82.6786C33.7239 83.3022 31.8317 86.2045 32.4784 89.1308L33.1251 92.2249C33.7479 95.1512 36.6221 97.046 39.5682 96.3984Z" fill="#FFA9A8"/>
<path d="M31.4964 79.4649C34.1551 79.321 34.4186 81.4797 37.3407 81.1679L39.3048 80.8081C40.4545 80.5922 41.5802 81.3598 41.7718 82.5351L41.8437 82.9428C42.9934 82.727 44.1192 83.4945 44.3108 84.6698L45.8437 93.1847C45.9874 93.9763 45.4605 94.7198 44.694 94.8637C43.7599 95.0316 42.8976 94.2401 43.0174 93.2807L43.3287 90.3544C43.1132 89.2031 42.2269 88.3156 41.0772 88.1238C40.5503 88.0278 40.1192 87.6201 40.0233 87.0924C39.9036 86.3968 39.2329 85.9411 38.5383 86.061L32.3826 87.1643C32.2868 87.1883 32.215 87.1883 32.1431 87.1883C32.1431 87.1883 32.0473 87.1883 31.9036 87.2123C31.7838 87.2123 31.6162 87.2123 31.4245 87.1883C31.4006 87.1883 31.4006 87.1883 31.3766 87.1883C31.2329 87.1643 31.0892 87.1403 30.9455 87.1164H30.9216C30.8018 87.0924 30.6581 87.0444 30.5383 86.9964C30.5144 86.9964 30.4904 86.9964 30.4904 86.9724C29.9874 86.7806 29.5084 86.4448 29.173 85.8211C28.215 84.1901 28.8138 79.6088 31.4964 79.4649Z" fill="#1C3A54"/>
<path d="M40.4546 89.4913C40.4546 90.4747 41.245 91.2662 42.227 91.2662C43.2091 91.2662 43.9995 90.4747 43.9995 89.4913C43.9995 88.5079 43.2091 87.7163 42.227 87.7163C41.245 87.6924 40.4546 88.5079 40.4546 89.4913Z" fill="#FFA9A8"/>
</g>
<defs>
<clipPath id="clip0">
<rect width="368" height="269" fill="white"/>
</clipPath>
</defs>
</svg>
